<svg xmlns="http://www.w3.org/2000/svg" width="139" height="83" fill="none" viewBox="0 0 139 83">
    <path fill="#FD7B92" d="M29.107 5.332c-13.11 0-23.776 10.667-23.776 23.776 0 13.11 10.666 23.775 23.776 23.775 13.109 0 23.776-10.666 23.776-23.775 0-13.11-10.667-23.776-23.776-23.776zm0 52.883C13.057 58.215 0 45.157 0 29.108 0 13.058 13.057 0 29.107 0c16.049 0 29.108 13.057 29.108 29.108 0 16.05-13.059 29.107-29.108 29.107zM106.284 29.332c-13.11 0-23.776 10.667-23.776 23.776 0 13.11 10.666 23.775 23.776 23.775s23.776-10.666 23.776-23.775c0-13.11-10.666-23.776-23.776-23.776zm0 52.883c-16.05 0-29.108-13.058-29.108-29.107C77.176 37.058 90.234 24 106.284 24s29.107 13.057 29.107 29.108c0 16.05-13.057 29.107-29.107 29.107z"/>
    <path fill="#FD7B92" d="M103.768 67.664l-13.01-19.528 7.397-4.926 6.702 10.062 26.967-29.598 6.569 5.984-34.625 38.006zM20.584 43.912L14.3 37.63 37.63 14.302l6.284 6.282-23.328 23.328z"/>
    <path fill="#FD7B92" d="M37.628 43.912L14.3 20.584l6.284-6.282L43.912 37.63l-6.284 6.282z"/>
</svg>
