<svg xmlns="http://www.w3.org/2000/svg" width="86" height="115" fill="none" viewBox="0 0 86 115">
    <path fill="#FD7B92" d="M79.956 101.757c-.004 3.776-3.064 6.836-6.839 6.839H12.555c-3.776-.003-6.835-3.063-6.839-6.839V20.316c.004-3.776 3.063-6.835 6.839-6.839h9.054v2.507c.01 6.93 5.626 12.547 12.555 12.555h17.343c6.93-.008 12.546-5.624 12.554-12.555v-2.507h9.056c3.775.004 6.835 3.063 6.839 6.839v81.441zm-46.963-88.28c1.342 0 2.503-.933 2.792-2.245.702-3.196 3.668-5.517 7.051-5.517 3.384 0 6.35 2.321 7.05 5.517.289 1.312 1.45 2.245 2.793 2.245h5.666v2.507c-.004 3.775-3.062 6.835-6.838 6.839H34.164c-3.775-.004-6.835-3.064-6.839-6.839v-2.507h5.668zm40.124-5.716H54.745C52.664 3.044 47.993 0 42.836 0c-5.157 0-9.828 3.044-11.91 7.761H12.556C5.624 7.77.008 13.385 0 20.316v81.441c.008 6.931 5.624 12.547 12.555 12.555h60.562c6.93-.008 12.546-5.624 12.555-12.555V20.316c-.01-6.93-5.625-12.547-12.555-12.555z"/>
    <path fill="#FD7B92" d="M56.98 52.803L38.22 71.12l-9.529-9.3c-1.122-1.096-2.916-1.082-4.02.028-1.108 1.112-1.112 2.907-.01 4.023l.038.038 11.522 11.251c1.112 1.084 2.884 1.084 3.994 0l20.756-20.268c1.124-1.104 1.142-2.907.042-4.033-1.1-1.126-2.9-1.15-4.032-.056v-.002z"/>
</svg>
