<svg xmlns="http://www.w3.org/2000/svg" width="123" height="99" fill="none" viewBox="0 0 123 99">
    <path fill="#FD7B92" d="M101.715 92.56c1.333-.023 2.369-1.092 2.36-2.442-.008-1.353-1.045-2.392-2.395-2.397-1.384-.005-2.504 1.135-2.452 2.496.05 1.315 1.166 2.365 2.487 2.343zM68.3 14.66c2.87-.022 5.302-2.434 5.273-5.228-.027-2.774-2.553-5.178-5.387-5.132-2.863.044-5.28 2.458-5.266 5.258.015 2.788 2.48 5.127 5.38 5.103zm-9.438 34.7c-.062-3.076-2.431-5.426-5.41-5.356-2.947.069-5.23 2.545-5.177 5.616.048 2.724 2.536 5.038 5.373 4.997 2.928-.041 5.267-2.4 5.213-5.256zM9.42 14.67c2.935-.012 5.302-2.4 5.288-5.336-.014-2.914-2.441-5.321-5.348-5.301-2.91.02-5.31 2.45-5.293 5.361.015 2.926 2.412 5.288 5.353 5.276zm35.32 74.35c0-2.947-2.356-5.323-5.29-5.335-3.074-.015-5.383 2.412-5.382 5.653 0 2.972 2.319 5.31 5.278 5.322 3.086.012 5.394-2.402 5.394-5.64zm59.279-18.888h12.732c-.667-.962-1.205-1.816-1.825-2.608-.882-1.126-.923-2.183-.022-3.326.639-.81 1.175-1.701 1.86-2.705h-12.745v8.639zM44.236 48.31c1.504-5.478 4.678-8.288 9.33-8.308 4.745-.021 7.842 2.686 9.474 8.363h1.215c8.245 0 16.49.015 24.737-.004 9.59-.023 17.126-6.833 18.148-16.37.991-9.24-5.933-18.249-15.225-19.262-4.686-.51-9.456-.236-14.188-.267-.294-.001-.712.382-.865.688-1.786 3.583-4.626 5.58-8.654 5.567-3.973-.012-6.77-2.003-8.568-5.516-.187-.365-.793-.737-1.205-.739-13.067-.038-26.132-.022-39.197-.054-.845-.002-1.147.373-1.473 1.04-1.952 4.01-6.246 6.033-10.577 5.028C3.031 17.508.026 13.742 0 9.465-.03 4.58 3.52.66 8.52.06c4.486-.54 8.934 2.653 9.944 7.23.182.828.456 1.096 1.299 1.095 12.727-.025 25.454-.019 38.182-.021.293 0 .585-.036.95-.06.08-.335.16-.654.234-.975.959-4.232 4.718-7.27 9.05-7.319 4.289-.048 8.19 2.962 9.122 7.19.219.978.588 1.182 1.492 1.186 4.31.015 8.638-.12 12.928.198 9.919.732 18.516 9.408 19.438 19.342 1.098 11.855-6.368 21.867-18.047 24.126-1.4.27-2.855.354-4.285.36-8.372.033-16.747.029-25.118-.002-.895-.002-1.39.182-1.836 1.074-1.7 3.4-4.572 5.202-8.348 5.208-3.775.005-6.645-1.787-8.365-5.182-.435-.857-.892-1.112-1.816-1.104-5.75.044-11.502.002-17.252.027-9.6.041-17.343 7.488-17.793 17.081-.447 9.534 6.643 17.772 16.154 18.668 1.839.174 3.708.026 5.65.026.42-2.652 1.609-4.868 3.789-6.476 1.685-1.244 3.596-1.856 5.69-1.83 4.571.06 7.758 2.93 9.227 8.362h1.22c14.799 0 29.599-.006 44.399.012.832 0 1.27-.214 1.753-1.004.655-1.075 1.616-2.068 2.665-2.763.794-.527 1.051-.98 1.049-1.879-.032-8.034-.018-16.07-.018-24.104l-.001-.508c0-2.001.507-2.861 1.775-3.01 1.208-.142 1.89.517 2.476 2.474h1.329c4.947 0 9.895-.04 14.84.044.729.012 1.644.447 2.129.992.663.743.248 1.654-.312 2.43-.914 1.269-1.722 2.62-2.704 3.832-.668.824-.57 1.397.031 2.177.952 1.239 1.772 2.576 2.679 3.85.554.78.964 1.693.304 2.435-.488.547-1.4.99-2.132 1.003-4.946.085-9.894.044-14.842.044h-1.5c0 3.153-.033 6.184.046 9.213.008.326.598.715.994.939 2.676 1.515 3.958 4.54 3.122 7.473-.834 2.928-3.528 4.884-6.586 4.69-2.367-.151-4.173-1.307-5.304-3.392-.343-.634-.681-.904-1.428-.903-15.221.023-30.444.023-45.666.001-.711-.001-1.01.259-1.31.87-1.719 3.509-4.583 5.414-8.472 5.425-3.947.012-6.844-1.919-8.563-5.483-.318-.662-.682-.816-1.345-.808-3.59.042-7.17.124-10.67-1.014C9.092 88.149 2.73 78.648 3.585 68.502c.848-10.068 8.553-18.358 18.515-19.868 1.288-.194 2.608-.256 3.913-.261 5.708-.027 11.416-.008 17.124-.01.375 0 .748-.035 1.1-.053z"/>
</svg>
