<svg xmlns="http://www.w3.org/2000/svg" width="126" height="126" fill="none" viewBox="0 0 126 126">
    <path fill="#E7B4F1" d="M89.675 110.323c-1.018 0-1.96-.663-2.3-1.623-.336-.951-.05-2.032.72-2.685.8-.68 1.978-.768 2.87-.214.856.532 1.301 1.567 1.105 2.554-.223 1.128-1.244 1.968-2.395 1.968z"/>
    <path fill="#E7B4F1" d="M106.068 27.384c-.961.961-2.291 1.447-3.645 1.334l-5.078-.422-.424-5.079c-.113-1.354.374-2.682 1.335-3.644l12.177-12.179 1.651 4.671c.247.697.793 1.244 1.491 1.49l4.67 1.652-12.177 12.177zM65.523 71.745c0 3.206-1.246 6.216-3.504 8.475-2.26 2.26-5.27 3.504-8.475 3.504-3.207 0-6.216-1.244-8.476-3.504-2.259-2.259-3.504-5.27-3.504-8.475s1.245-6.216 3.504-8.475c2.26-2.26 5.27-3.504 8.476-3.504 2.459 0 4.803.731 6.78 2.093l-8.157 8.158c-.955.954-.955 2.502 0 3.456.477.478 1.102.716 1.728.716.626 0 1.252-.238 1.729-.716l8.084-8.084c1.181 1.886 1.815 4.07 1.815 6.356zM36.425 88.862c-9.438-9.438-9.438-24.795 0-34.234 8.916-8.916 23.112-9.41 32.614-1.484l-5.215 5.216c-2.932-2.259-6.51-3.483-10.28-3.483-4.512 0-8.75 1.753-11.933 4.936s-4.935 7.42-4.935 11.932c0 4.512 1.752 8.75 4.935 11.932 3.182 3.183 7.421 4.936 11.933 4.936 4.51 0 8.75-1.753 11.932-4.936 3.183-3.183 4.936-7.42 4.936-11.932 0-3.599-1.116-7.024-3.183-9.877l5.231-5.23c7.596 9.495 6.997 23.43-1.799 32.224-9.438 9.44-24.797 9.44-34.236 0zm53.531-17.117c0 9.743-3.783 18.89-10.652 25.76-6.87 6.869-16.017 10.653-25.76 10.653-9.744 0-18.892-3.784-25.761-10.653-6.87-6.87-10.652-16.017-10.652-25.76 0-9.743 3.782-18.89 10.652-25.76 6.869-6.87 16.017-10.653 25.761-10.653 9.004 0 17.501 3.232 24.161 9.146l-5.197 5.198c-11.419-9.827-28.717-9.328-39.539 1.494-11.345 11.346-11.345 29.805-.001 41.15h.001c5.672 5.673 13.123 8.508 20.575 8.508 7.45 0 14.901-2.835 20.575-8.508C84.82 81.617 85.427 64.58 75.936 53.16l5.204-5.203c5.704 6.602 8.816 14.95 8.816 23.787zM47.34 18.555c-.268-.593-.39-1.135-.39-1.88 0-3.635 2.957-6.594 6.593-6.594s6.594 2.959 6.594 6.595c0 .744-.124 1.287-.39 1.88-2.044-.235-4.115-.354-6.203-.354-2.09 0-4.16.12-6.204.354zm77.759-4.902c-.186-.819-.778-1.485-1.57-1.765l-7.225-2.554-2.552-7.224c-.28-.792-.947-1.384-1.764-1.569-.82-.185-1.676.061-2.269.655L94.8 16.114c-1.981 1.982-2.984 4.72-2.75 7.51l.5 6.01-.066.064-2.664 2.664c-7.15-6.598-15.801-11.045-25.159-13.01.236-.797.366-1.659.366-2.676 0-6.332-5.152-11.484-11.484-11.484-6.331 0-11.483 5.152-11.483 11.484 0 1.017.13 1.879.367 2.676-10.062 2.113-19.304 7.093-26.744 14.532C5.569 43.997 0 57.444 0 71.745c0 14.301 5.57 27.748 15.683 37.861 8.669 8.667 20.145 14.136 32.316 15.395 1.833.189 3.666.284 5.5.284 10.165 0 20.217-2.892 28.785-8.352 1.139-.725 1.473-2.237.748-3.376-.725-1.137-2.237-1.472-3.376-.747-19.059 12.146-44.51 9.344-60.516-6.662-9.19-9.19-14.25-21.407-14.25-34.403 0-12.996 5.06-25.213 14.25-34.403 9.19-9.189 21.408-14.25 34.403-14.25 12.261 0 23.83 4.505 32.817 12.732l-5.192 5.192c-7.587-6.834-17.313-10.572-27.625-10.572-11.048 0-21.424 4.292-29.218 12.084-7.792 7.793-12.084 18.168-12.084 29.217 0 11.05 4.292 21.425 12.084 29.219 7.794 7.792 18.17 12.084 29.218 12.084 11.049 0 21.425-4.292 29.218-12.084 7.792-7.793 12.084-18.17 12.084-29.219 0-10.144-3.617-19.721-10.241-27.252l5.193-5.192c14.335 16.045 16.467 40.215 4.846 58.504-.726 1.14-.388 2.651.752 3.375 1.138.724 2.649.386 3.373-.752 6.425-10.11 9.276-22.278 8.028-34.26-1.173-11.266-5.952-21.935-13.536-30.33l2.683-2.682.062-.067 6.011.502c.265.022.531.033.796.033 2.509 0 4.921-.99 6.713-2.783l14.919-14.919c.593-.594.841-1.45.655-2.269"/>
</svg>
