<svg xmlns="http://www.w3.org/2000/svg" width="135" height="123" fill="none" viewBox="0 0 135 123">
    <path fill="#E7B4F1" d="M127.793 8.199c-5.268 0-10.149-.021-15.029.052-.289.004-.804.753-.813 1.167-.068 2.862.02 5.729-.05 8.592-.026 1.146.288 1.546 1.483 1.528 4.347-.064 8.693-.022 13.041-.032.36-.002.72-.091 1.251-.162-.883-1.466-1.635-2.788-2.461-4.062-.646-.998-.624-1.898.024-2.886.832-1.268 1.582-2.589 2.554-4.197zM15.58 117.183c.168.087.253.167.338.168 5.383.02 10.766.053 16.15-.001.308-.003.852-.714.875-1.119.1-1.723.04-3.455.047-5.184.01-1.852.64-2.761 1.92-2.789 1.331-.031 1.989.898 2 2.85.011 1.631.074 3.264-.005 4.891-.053 1.105.319 1.449 1.428 1.437 4.939-.052 9.88-.02 14.82-.029.375-.001.75-.087 1.167-.137.03-.331.073-.571.073-.81.004-11.362-.008-22.725.023-34.088.004-1.148-.476-1.422-1.512-1.416-4.694.032-9.388.067-14.08-.018-1.49-.027-1.962.416-1.944 1.926.075 6.371.041 12.746.021 19.118-.004 1.49-.724 2.293-1.925 2.305-1.21.012-1.947-.797-1.976-2.26-.036-1.728-.093-3.461-.002-5.185.07-1.334-.462-1.698-1.723-1.684-4.743.049-9.486.044-14.228-.015-1.269-.015-1.583.484-1.575 1.67.045 6.422.02 12.845.025 19.267.002.384.058.767.083 1.103zm42.741.035c.408.08.644.165.879.166 5.19.015 10.381-.006 15.572.046 1.272.013 1.13-.76 1.128-1.559-.003-7.959-.002-15.919 0-23.876 0-.495-.016-.992.037-1.481.11-1.026.752-1.775 1.723-1.656.696.084 1.428.688 1.928 1.25.292.33.21 1.035.21 1.571.011 7.91.008 15.819.008 23.728v2.001c5.675 0 11.106-.01 16.537.01 1.12.004.949-.758.949-1.43-.003-20.613-.017-41.226.007-61.84.002-1.254-.454-1.608-1.65-1.594-4.645.049-9.294.076-13.94-.012-1.484-.028-1.948.384-1.936 1.908.067 9.094.036 18.19.026 27.285 0 .588-.003 1.205-.174 1.755-.397 1.272-1.921 1.858-2.828.985-.52-.504-.846-1.445-.86-2.197-.077-4.547-.082-9.096-.012-13.643.022-1.392-.364-1.908-1.83-1.88-4.644.087-9.293.088-13.938.016-1.405-.023-1.87.37-1.865 1.824.047 15.67.03 31.34.03 47.011v1.612zm60.391.118l.001-5.682c0-1.138-.034-2.276.018-3.411.06-1.292.914-2.145 2.042-2.048 1.251.108 1.826.893 1.832 2.097.016 2.956.006 5.912.006 9.107 1.94 0 3.745-.004 5.55.001 1.087.003 2.176-.014 3.262.034 1.174.053 1.994.604 2.104 1.856.096 1.096-.762 1.981-2.079 2.034-1.876.078-3.756.042-5.633.042-40.631-.002-81.262-.004-121.891-.01-2.252-.001-3.221-.588-3.256-1.936-.035-1.396.967-2.004 3.316-2.005 2.464-.003 4.927 0 7.596 0v-1.751l.008-19.277c0-3.365 1.755-5.137 5.101-5.137 4.846-.003 9.688.002 14.532.004h1.768V82.95c.003-4.371 1.528-5.91 5.864-5.911 5.09-.003 10.178-.001 15.456-.001.03-.6.072-1.118.075-1.636.012-2.52-.01-5.042.023-7.563.04-3.092 1.91-4.975 5.02-4.997 4.944-.035 9.886-.01 14.829-.011h1.642v-6.604c0-.939-.029-1.879-.006-2.816.072-2.928 1.825-4.703 4.755-4.719 4.942-.029 9.885-.002 14.829.002h1.819c0-2.28-.002-4.439 0-6.596 0-1.087-.037-2.176.022-3.26.134-2.463 1.942-4.25 4.411-4.316 2.017-.055 4.037-.011 6.287-.011v-1.84l.001-28.324c0-.543-.173-1.235.091-1.595.472-.645 1.185-1.446 1.858-1.509.575-.052 1.326.767 1.822 1.35.264.313.154.943.234 1.591.584.026 1.16.072 1.736.074 5.536.005 11.071.008 16.607-.002 1.013-.001 1.999-.009 2.587 1.035.589 1.047.065 1.892-.463 2.75-.983 1.6-1.919 3.23-2.949 4.798-.471.717-.508 1.264-.023 2.001 1.088 1.65 2.096 3.352 3.096 5.058 1.256 2.142.457 3.536-2.065 3.546-5.635.022-11.27.039-16.904-.026-1.319-.016-1.818.293-1.766 1.713.111 3.05.035 6.107.035 9.367 2.003 0 3.861-.01 5.72.001 3.18.016 4.976 1.78 4.977 4.952.014 20.068.015 40.137.014 60.204 0 1.719-.676 2.58-1.959 2.569-1.272-.01-1.948-.885-1.948-2.593-.004-19.723-.003-39.444-.004-59.167 0-2.085-.001-2.082-2.14-2.081-4.547.001-9.095.037-13.641-.024-1.254-.017-1.74.301-1.739 1.647.033 25.306.032 50.614.001 75.921-.001 1.171.339 1.513 1.508 1.499 4.794-.056 9.59-.014 14.383-.015.484 0 .965-.044 1.628-.075"/>
    <path fill="#E7B4F1" d="M112.914 8.916c-.122.125-.284.402-.298.525-.032 1.408-.028 2.825-.023 4.244.005 1.447.009 2.895-.025 4.341-.014.566.078.703.106.732.028.028.163.136.7.114 2.926-.043 5.851-.04 8.776-.034 1.424.002 2.848.004 4.274.002.056 0 .113-.004.17-.008l-.274-.462c-.564-.953-1.098-1.85-1.664-2.726-.784-1.21-.775-2.392.026-3.614.564-.86 1.09-1.744 1.675-2.728l.261-.437-1.694-.001c-4.154-.004-8.079-.006-12.01.052zm.388 11.289c-.518 0-1.14-.07-1.576-.51-.457-.462-.505-1.118-.492-1.7.035-1.435.031-2.871.026-4.306-.006-1.43-.01-2.859.024-4.288.014-.607.688-1.804 1.469-1.817 3.989-.059 7.965-.056 12.172-.054l4.051.002-1.474 2.452c-.596 1.001-1.132 1.902-1.705 2.778-.515.783-.521 1.388-.023 2.156.578.891 1.119 1.803 1.692 2.772l1.306 2.18-1.008.135c-.178.023-.335.05-.479.073-.919.151-1.579.096-2.341.096l-2.796-.002c-2.918-.006-5.836-.01-8.754.033h-.092zm-54.314 96.479c.09.02.162.033.214.033l5.128.007c3.483.002 6.966.004 10.447.04.337-.011.42-.063.42-.063.048-.072.043-.4.039-.597l-.003-.234c-.003-7.958-.001-15.917 0-23.876l-.001-.278c-.003-.426-.004-.854.042-1.274.084-.774.411-1.422.919-1.828.435-.342.97-.486 1.548-.42 1.016.124 1.905.975 2.345 1.472.415.467.399 1.139.384 1.732l-.005.28c.01 6.446.008 12.89.008 19.335v5.729l3.776-.001c4.097-.003 8.096-.004 12.096.009.19.01.285-.037.287-.037.01-.047.002-.309-.002-.465l-.005-.259-.003-15.064c-.004-15.592-.008-31.185.011-46.777 0-.542-.099-.72-.157-.779-.072-.07-.284-.14-.819-.15-4.41.049-9.156.08-13.96-.011-.568-.01-.92.052-1.056.188-.139.136-.205.489-.201 1.048.054 7.476.044 15.076.032 22.425l-.006 4.867c-.001.609-.001 1.3-.205 1.952-.276.885-.988 1.573-1.86 1.796-.761.194-1.515.002-2.067-.53-.716-.692-1.049-1.837-1.062-2.665-.079-4.58-.083-9.177-.014-13.664.008-.543-.054-.887-.188-1.019-.092-.09-.336-.192-.961-.185-4.52.085-9.217.09-13.963.016-.532-.016-.868.052-.996.179-.089.088-.194.328-.192.977.038 12.313.034 24.627.031 36.939l-.001 11.152zm15.814 1.413h-.037c-3.479-.036-6.957-.037-10.436-.04l-5.13-.007c-.229 0-.437-.049-.654-.101-.103-.024-.217-.051-.353-.077l-.538-.106.002-12.234c.002-12.312.006-24.623-.031-36.935-.003-.625.063-1.41.59-1.93.52-.515 1.28-.577 1.951-.563 4.732.073 9.415.068 13.918-.016.621-.011 1.394.044 1.926.573.531.53.592 1.3.582 1.984-.07 4.473-.066 9.056.013 13.621.01.623.299 1.383.656 1.73.273.262.592.253.81.196.42-.108.78-.462.918-.902.143-.458.143-1.016.144-1.556l.005-4.868c.012-7.345.023-14.942-.032-22.412-.005-.654.059-1.474.598-2.008.533-.526 1.317-.581 2.018-.572 4.79.092 9.52.06 13.92.012.578-.008 1.282.05 1.772.536.496.492.552 1.22.552 1.727-.018 15.592-.014 31.184-.01 46.776l.006 15.283c.012.429.031 1.016-.388 1.445-.282.291-.684.431-1.224.431h-.01c-3.998-.015-7.996-.014-12.09-.01l-5.11.002v-7.063c0-6.444.001-12.888-.008-19.333l.005-.315c.005-.245.017-.703-.056-.824-.512-.576-1.09-.972-1.501-1.021-.219-.03-.404.018-.556.14-.226.177-.38.516-.424.925-.04.37-.036.747-.035 1.123l.001.286c-.001 7.959-.002 15.918 0 23.876l.003.212c.008.495.019 1.111-.427 1.559-.304.307-.742.456-1.34.456zM34.97 107.59c.694 0 1.266.214 1.699.636.603.586.9 1.526.908 2.878l.016 1.321c.017 1.18.036 2.399-.021 3.605-.024.496.062.612.08.631.017.019.137.1.674.108 3.322-.035 6.643-.031 9.964-.029h4.862c.185 0 .37-.026.562-.055.007-.077.012-.151.012-.224l.002-9.192c0-8.3 0-16.599.021-24.899.001-.45-.085-.586-.121-.622-.048-.048-.192-.139-.72-.126l-.224.002c-4.546.033-9.246.065-13.872-.019-.554-.01-.918.056-1.06.197-.143.142-.211.496-.204 1.054.064 5.597.045 11.286.028 16.789l-.008 2.339c-.006 1.817-.996 2.954-2.587 2.969h-.032c-1.579 0-2.58-1.113-2.616-2.912l-.013-.64c-.034-1.504-.068-3.059.012-4.595.021-.408-.026-.694-.132-.806-.08-.083-.315-.17-.919-.175-4.679.048-9.47.044-14.243-.015-.49-.01-.688.088-.745.144-.073.072-.159.28-.155.855.031 4.464.028 8.928.027 13.391l-.001 5.88c0 .205.018.409.038.605l1.879.008c4.545.019 9.247.037 13.867-.008.128-.109.31-.38.33-.503.068-1.174.059-2.394.051-3.574-.003-.522-.007-1.043-.004-1.564.013-2.807 1.404-3.427 2.57-3.454h.075zm3.303 10.512c-.52.002-1.15-.068-1.581-.516-.452-.469-.475-1.149-.452-1.62.056-1.164.037-2.362.02-3.521l-.016-1.332c-.006-.949-.18-1.616-.503-1.931-.188-.182-.47-.27-.817-.258-.407.009-1.256.028-1.266 2.126-.002.516.002 1.032.004 1.548.008 1.202.018 2.444-.053 3.672-.039.652-.772 1.739-1.535 1.747-4.668.047-9.412.028-13.998.009l-2.16-.009c-.242-.001-.415-.107-.53-.177l-.33-.17-.17-.738c-.028-.272-.056-.562-.056-.851l.002-5.881c.001-4.46.004-8.922-.027-13.382-.004-.621.057-1.32.548-1.809.492-.49 1.179-.54 1.701-.532 4.763.057 9.546.063 14.214.015.618-.004 1.385.053 1.894.586.507.528.53 1.28.502 1.799-.079 1.485-.044 3.015-.012 4.493l.014.643c.023 1.075.478 1.641 1.303 1.607.31-.003 1.26-.012 1.265-1.64l.008-2.339c.018-5.497.036-11.183-.028-16.77-.008-.653.054-1.474.598-2.014.545-.543 1.364-.592 2.024-.585 4.609.082 9.3.05 13.838.018l.224-.001c.556.003 1.207.05 1.67.513.464.463.516 1.119.514 1.572-.021 8.298-.021 16.596-.021 24.895l-.001 9.192c0 .181-.019.364-.044.576l-.083.829-.908.119c-.3.047-.585.088-.87.088h-4.866c-3.316-.001-6.633-.005-9.95.029h-.066zm-29.084-.021l-5.204.001c-1.25 0-2.061.183-2.41.54-.109.112-.253.314-.24.78.011.482.031 1.287 2.589 1.287l123.24.015c1.398.006 2.845.013 4.256-.046.501-.02.92-.193 1.18-.489.198-.225.289-.509.262-.821-.049-.552-.26-1.192-1.47-1.248-.822-.038-1.644-.035-2.47-.034h-.762l-3.844-.001h-2.372l.001-3.368c.001-2.191.004-4.296-.007-6.401-.005-1.182-.656-1.388-1.222-1.436-.32-.027-.614.061-.839.258-.288.252-.459.662-.481 1.156-.036.784-.03 1.571-.023 2.359l.007 7.339-1.247.064c-.385.022-.717.041-1.048.042l-4.357-.008c-3.342-.009-6.68-.017-10.019.023-.537.003-1.212-.045-1.668-.497-.455-.45-.515-1.096-.515-1.671.032-26.14.031-51.681-.001-75.919 0-.568.063-1.284.561-1.776.496-.49 1.199-.556 1.854-.538 3.345.045 6.693.038 10.037.029l3.596-.005c1.255-.018 1.876-.002 2.337.449.468.457.468 1.112.468 2.3l.004 59.165c.002 1.916.903 1.924 1.288 1.927.378.019.648-.087.84-.279.292-.288.446-.849.446-1.622.001-20.068 0-40.136-.014-60.204-.001-2.79-1.493-4.272-4.313-4.287-1.273-.005-2.547-.004-3.865-.003l-2.519.002v-.667c0-.959.007-1.9.013-2.83.016-2.249.031-4.373-.046-6.513-.022-.59.017-1.333.514-1.842.494-.507 1.208-.567 1.924-.562 5.515.064 10.915.051 16.895.027.975-.004 1.643-.233 1.877-.645.231-.406.094-1.079-.385-1.898-1.004-1.71-1.993-3.382-3.077-5.028-.615-.93-.608-1.774.021-2.733.683-1.039 1.324-2.105 1.964-3.172.324-.537.647-1.075.975-1.608.541-.881.826-1.408.45-2.076-.376-.667-.929-.7-1.988-.693-5.553.009-11.09.006-16.626 0-.402 0-.804-.022-1.208-.044l-1.12-.054-.068-.561c-.03-.235-.036-.468-.043-.687-.005-.196-.013-.492-.052-.572-.871-1.022-1.193-1.094-1.249-1.098-.236.021-.727.358-1.371 1.237-.04.09-.009.448.008.661.015.186.031.37.031.542l-.003 30.829-2.732-.008c-1.451-.008-2.827-.017-4.203.02-2.101.056-3.649 1.572-3.764 3.684-.04.757-.033 1.517-.025 2.277l.005.948-.001 7.262-6.912-.007c-3.468-.008-6.935-.015-10.399.005-2.537.015-4.028 1.498-4.092 4.068-.014.603-.008 1.207-.002 1.81l.009 8.262-6.725-.004c-3.47-.005-6.939-.01-10.408.015-2.734.019-4.323 1.601-4.359 4.34-.02 1.556-.02 3.112-.019 4.67 0 .96.002 1.925-.002 2.886-.003.365-.024.73-.047 1.121l-.061 1.179H38.853c-3.98.001-5.195 1.227-5.196 5.245l-.001 8.97-16.966-.004c-2.984 0-4.436 1.462-4.437 4.47l-.007 21.695H9.19zm119.309 3.96c-.45 0-.897-.003-1.34-.004l-1.344-.004-121.89-.011c-1.055 0-3.858-.001-3.923-2.585-.017-.719.19-1.305.617-1.744.628-.644 1.696-.944 3.366-.944l5.205-.001h1.724l.007-20.362c.001-3.742 2.05-5.804 5.77-5.804l15.632.004.002-7.636c.001-4.732 1.832-6.577 6.529-6.578h14.825c.02-.339.039-.655.04-.974.004-.958.003-1.92.003-2.88-.001-1.562-.001-3.125.019-4.686.046-3.466 2.224-5.632 5.682-5.656 3.472-.026 6.947-.02 10.42-.015l5.39.004-.01-6.915c-.005-.618-.012-1.238.003-1.857.081-3.292 2.159-5.35 5.417-5.368 3.471-.02 6.94-.013 10.41-.005l5.576.006-.004-6.862c-.008-.79-.015-1.578.028-2.363.153-2.835 2.234-4.87 5.058-4.945 1.39-.038 2.782-.028 4.248-.02l1.39.005.002-29.493c0-.136-.013-.283-.025-.43-.044-.516-.093-1.101.245-1.561.826-1.128 1.59-1.71 2.334-1.777.862-.079 1.654.714 2.39 1.582.33.388.343.892.356 1.38v.008c.371.02.739.04 1.107.04 5.536.007 11.072.01 16.605 0 1.063.008 2.394-.006 3.17 1.374.78 1.384.086 2.51-.471 3.417-.331.54-.652 1.073-.972 1.607-.651 1.081-1.301 2.162-1.993 3.217-.34.519-.346.78-.023 1.268 1.101 1.672 2.101 3.36 3.113 5.087.938 1.598.732 2.64.395 3.232-.341.597-1.143 1.31-3.031 1.318-5.988.026-11.39.038-16.914-.026-.514-.016-.847.048-.955.158-.061.063-.159.258-.137.864.078 2.17.064 4.307.048 6.571-.006.71-.011 1.427-.012 2.153l1.182-.001c1.323-.003 2.598-.004 3.875.003 3.581.018 5.637 2.066 5.639 5.618.013 20.07.014 40.138.013 60.206 0 1.153-.283 2.017-.84 2.569-.452.448-1.051.671-1.791.665-.784-.006-2.608-.337-2.609-3.26l-.004-59.165c0-.603 0-1.224-.079-1.361-.113-.055-.774-.058-1.385-.055l-3.601.005c-3.352.01-6.706.016-10.059-.029-.491-.01-.787.045-.897.155-.063.06-.166.249-.166.825.032 24.237.034 49.781.002 75.923 0 .558.09.693.118.721.028.027.17.119.715.111 3.345-.04 6.691-.032 10.039-.023l4.352.008c.304-.001.608-.02.962-.04l-.005-6.061c-.008-.811-.015-1.623.023-2.432.04-.858.372-1.603.934-2.096.499-.436 1.151-.643 1.832-.586 1.544.134 2.434 1.139 2.442 2.759.01 2.108.008 4.215.006 6.409l-.001 2.034h1.039l3.846.001h.758c.842.001 1.689-.003 2.532.035 1.609.073 2.608.97 2.738 2.462.059.675-.15 1.322-.589 1.82-.503.571-1.259.906-2.127.94-.989.04-1.989.051-2.976.051"/>
</svg>
