<svg xmlns="http://www.w3.org/2000/svg" width="113" height="130" fill="none" viewBox="0 0 113 130">
    <path fill="#E7B4F1" d="M94.936 7.997c0 2.41-.097 4.94.07 7.451.04.598.934 1.586 1.487 1.625 2.552.174 5.122.077 7.819.077l-9.376-9.153zm-6.575 86.868H73.885c-9.378-.002-18.758-.007-28.138-.006-2.598.002-4.814-.892-6.01-3.248-.625-1.224-.9-2.752-.905-4.142-.053-21.406-.048-42.81-.012-64.215.003-1.287-.297-1.758-1.667-1.719-3.412.096-6.829.028-10.245.032-2.621.004-3.193.588-3.195 3.245v79.655c0 2.743.556 3.308 3.276 3.31h51.083c2.597 0 5.195.02 7.792-.011 1.521-.019 2.45-.717 2.475-2.045.066-3.55.022-7.1.022-10.856zm-68.98-55.942c-.546-.037-.969-.092-1.39-.093-3.608-.005-7.215-.016-10.822.001-2.194.012-2.834.659-2.834 2.86-.006 26.836-.006 53.674 0 80.511.001 2.099.69 2.803 2.746 2.803 19.72.004 39.44.001 59.16-.007 2.028-.001 2.727-.733 2.735-2.819.01-2.79-.068-5.582.045-8.368.06-1.425-.424-1.744-1.785-1.738-13.515.048-27.03.033-40.544.026-4.723-.002-7.308-2.582-7.31-7.32-.007-21.305-.002-42.612-.002-63.918v-1.938zM90.524 4.406c-.498-.036-.733-.068-.968-.068-14.626-.001-29.253-.004-43.878.008-1.83.001-2.567.793-2.567 2.7-.008 26.895-.01 53.788-.008 80.683.001 2.065.704 2.767 2.788 2.78 3.272.022 6.544 0 9.815 0 16.358.004 32.716.009 49.074.005 2.274 0 2.971-.63 2.972-2.727.008-21.601-.004-43.204.03-64.807.002-1.186-.414-1.456-1.502-1.433-2.981.061-5.965.04-8.948.027-2.605-.014-4.786-.998-5.929-3.383-.597-1.244-.788-2.762-.841-4.17-.119-3.162-.038-6.331-.038-9.615zM19.38 34.47c0-3.528-.007-6.792 0-10.057.01-4.526 2.639-7.152 7.176-7.17 3.512-.012 7.024-.01 10.537-.016h1.703c0-3.559-.117-6.924.055-10.273.073-1.424.505-2.955 1.208-4.19C41.12.896 43.012.02 45.165.018 60.9-.007 76.633-.01 92.368.037c.688.002 1.545.356 2.037.84 5.656 5.569 11.282 11.171 16.835 16.842.551.563.803 1.641.807 2.483.052 12.221.037 24.442.037 36.664 0 10.25.001 20.497-.005 30.746-.003 4.68-2.534 7.215-7.232 7.243-3.464.019-6.93.013-10.394.019h-1.742v7.915c0 .913.014 1.828-.006 2.742-.08 3.722-2.758 6.482-6.477 6.551-3.704.069-7.41.025-11.115.032h-1.717c-.033.627-.083 1.132-.085 1.637-.012 2.935.012 5.871-.023 8.804-.05 4.088-2.748 6.782-6.82 6.784-19.872.01-39.744.01-59.616 0-4.099-.002-6.844-2.686-6.845-6.754-.012-27.138-.008-54.275.012-81.412.001-3.997 2.657-6.603 6.77-6.672 3.607-.06 7.216-.024 10.824-.031h1.767"/>
    <path fill="#E7B4F1" d="M80.824 62.525c-6.49 0-12.981.002-19.472-.003-.478 0-.97.007-1.433-.093-1.077-.234-1.672-.954-1.668-2.048.004-1.078.556-1.846 1.632-2.09.555-.126 1.145-.12 1.72-.12 12.885 0 25.77.006 38.656.016.479 0 .971-.012 1.435.086 1.14.236 1.754.988 1.745 2.141-.008 1.104-.633 1.799-1.708 2.01-.513.102-1.052.095-1.579.097-6.442.004-12.885.002-19.328.004zM80.883 36.679H61.556c-.384 0-.77.019-1.153-.012-1.31-.108-2.197-1.032-2.165-2.233.03-1.16.874-2.027 2.149-2.082 1.344-.057 2.692-.025 4.037-.025 11.971.001 23.943.005 35.914.008.384 0 .776-.033 1.152.03 1.192.194 1.942.885 1.944 2.122.001 1.233-.744 1.933-1.93 2.147-.373.066-.766.034-1.15.034-6.491.002-12.98 0-19.471 0v.01zM74.233 28.012c-4.475 0-8.95.01-13.424-.005-1.62-.007-2.548-.798-2.568-2.102-.02-1.353.957-2.2 2.624-2.204 5.965-.012 11.932-.005 17.897-.005 2.984 0 5.967-.007 8.95.003 1.785.006 2.796.813 2.785 2.19-.01 1.374-.99 2.12-2.84 2.122-4.475.006-8.95.001-13.424.001zM73.232 53.9H61.849c-.336 0-.673.007-1.008-.003-1.7-.058-2.638-.866-2.594-2.228.044-1.311.95-2.072 2.578-2.084 3.17-.026 6.34-.022 9.51-.02 4.948 0 9.894.006 14.84.012.337.001.676-.012 1.009.016 1.276.105 2.133.922 2.181 2.061.05 1.192-.81 2.13-2.166 2.213-1.244.076-2.496.032-3.744.034h-9.223zM72.274 15.074c3.796 0 7.592-.015 11.388.008 1.58.01 2.514.85 2.518 2.156.004 1.321-.906 2.136-2.514 2.145-3.796.023-7.592.01-11.388.01-3.844 0-7.688.016-11.532-.011-1.82-.012-2.856-1.195-2.43-2.708.365-1.297 1.36-1.61 2.57-1.605 3.796.013 7.592.005 11.388.005zM89.39 66.81c3.128 0 6.254-.034 9.381.012 1.889.028 2.963 1.362 2.399 2.865-.39 1.032-1.204 1.463-2.26 1.464-6.303.005-12.605.02-18.908-.01-1.484-.009-2.365-.894-2.373-2.163-.008-1.275.85-2.115 2.38-2.136 3.126-.046 6.254-.014 9.38-.014v-.018zM92.556 45.293c-2.592 0-5.183.006-7.775-.004-1.802-.007-2.821-.782-2.853-2.13-.032-1.376.968-2.182 2.77-2.185 5.377-.012 10.751-.015 16.126-.01 1.636.003 2.564.745 2.62 2.035.059 1.364-.891 2.266-2.537 2.286-2.784.033-5.568.009-8.351.008zM67.913 45.291c-2.302 0-4.606.011-6.909-.002-1.792-.01-2.774-.81-2.761-2.206.013-1.364.93-2.105 2.681-2.109 4.655-.01 9.308-.012 13.961 0 1.73.006 2.68.77 2.697 2.112.017 1.396-.97 2.204-2.76 2.215-2.303.014-4.606.004-6.909.004v-.014zM65.673 71.155c-1.678 0-3.358.033-5.036-.011-1.48-.039-2.374-.879-2.393-2.133-.017-1.26.861-2.148 2.35-2.167 3.454-.045 6.909-.048 10.36.005 1.469.022 2.362.956 2.327 2.198-.034 1.229-.961 2.078-2.428 2.113-1.725.043-3.453.01-5.18.01v-.015zM50.635 71.194c-.432-.023-.872.001-1.293-.076-1.198-.216-1.907-.953-1.9-2.173.006-1.166.718-1.884 1.854-2.04.803-.112 1.633-.11 2.444-.051 1.307.093 2.112.941 2.117 2.105.006 1.15-.816 2.032-2.069 2.181-.378.046-.768.007-1.153.007v.047zM50.656 28.006c-2.19.011-3.246-.684-3.239-2.124.007-1.456 1.084-2.193 3.21-2.196.334-.001.669-.013 1.002.008 1.325.087 2.204.943 2.221 2.147.016 1.207-.846 2.065-2.192 2.161-.333.024-.668.004-1.002.004zM50.602 40.975c.333 0 .669-.016 1.002.002 1.364.083 2.238.9 2.258 2.102.02 1.254-.885 2.14-2.305 2.214-.618.032-1.242.031-1.86-.013-1.41-.097-2.32-1.02-2.273-2.253.047-1.176.944-1.974 2.318-2.051.285-.016.573-.001.86-.001zM50.631 36.688c-.478-.024-.978.031-1.434-.086-1.086-.281-1.787-.984-1.76-2.155.025-1.17.741-1.876 1.853-2.059.75-.122 1.535-.075 2.301-.042 1.364.06 2.248.915 2.26 2.124.011 1.201-.88 2.09-2.21 2.19-.335.023-.672.002-1.008.002-.002.01-.002.017-.002.026zM50.637 19.358c-.432 0-.871.052-1.294-.01-1.14-.168-1.853-.846-1.901-2.003-.05-1.23.639-2.008 1.844-2.192.752-.116 1.535-.085 2.299-.05 1.393.067 2.244.889 2.26 2.111.017 1.23-.827 2.068-2.2 2.167-.335.023-.672.003-1.008.003v-.026zM50.698 49.542c.478.032.97.012 1.434.108 1.086.224 1.669.951 1.697 2.035.027 1.088-.515 1.907-1.606 2.083-.937.152-1.921.158-2.868.058-1.2-.126-1.947-.877-1.924-2.121.024-1.227.764-1.933 1.968-2.104.425-.06.864-.01 1.297-.01.002-.017.002-.033.002-.049zM50.676 58.144c.544.05 1.224-.09 1.558.186.64.53 1.478 1.286 1.499 1.968.02.68-.736 1.776-1.381 1.986-1.034.336-2.334.336-3.371.006-.66-.208-1.452-1.273-1.445-1.946.005-.683.829-1.474 1.474-1.99.376-.3 1.107-.156 1.666-.21zM49.59 86.196c-1.167.007-2.137-.917-2.167-2.07-.032-1.202.977-2.208 2.196-2.187 1.165.019 2.086.967 2.082 2.141-.004 1.175-.936 2.11-2.11 2.116zM58.212 81.933c1.194.007 2.2 1.04 2.156 2.215-.044 1.125-1.028 2.065-2.166 2.068-1.205.003-2.188-1.015-2.142-2.217.042-1.144 1.009-2.071 2.152-2.066zM68.973 84.102c-.018 1.16-.969 2.089-2.144 2.094-1.176.006-2.114-.917-2.133-2.093-.019-1.235.973-2.208 2.203-2.163 1.173.044 2.093 1.003 2.074 2.162zM11.91 49.553c.478.03.969.003 1.434.1 1.078.225 1.67.948 1.7 2.03.03 1.087-.525 1.893-1.608 2.083-.888.156-1.821.156-2.723.087-1.306-.1-2.082-.968-2.069-2.143.015-1.173.822-1.993 2.112-2.112.381-.034.768-.005 1.152-.005.002-.013.002-.027.002-.04zM11.811 88.354c-.43 0-.868.058-1.287-.01-1.125-.183-1.826-.843-1.866-2.012-.043-1.226.614-2.02 1.805-2.21.84-.133 1.719-.114 2.57-.046 1.24.097 2.043 1.017 2.026 2.177-.017 1.165-.83 1.99-2.103 2.104-.378.035-.762.005-1.145.005v-.008zM11.843 79.798c-.525-.039-1.07-.007-1.573-.133-1.062-.265-1.627-1.002-1.618-2.095.011-1.032.547-1.8 1.56-1.975.934-.161 1.915-.166 2.863-.093 1.218.095 1.919.84 1.976 2.076.053 1.166-.792 2.036-2.053 2.164-.38.038-.768.005-1.152.005l-.003.05zM11.88 66.803c.43.025.867.012 1.291.081 1.218.2 1.913.941 1.869 2.172-.046 1.22-.78 1.947-2.002 2.06-.763.07-1.54.072-2.303.007-1.268-.11-2.092-.988-2.104-2.136-.012-1.152.8-1.994 2.095-2.139.379-.043.768-.007 1.152-.007.002-.012.002-.025.002-.038zM11.818 58.226c.432 0 .87-.05 1.296.01 1.216.167 1.93.889 1.938 2.118.008 1.237-.718 1.972-1.93 2.118-.759.091-1.541.095-2.304.03-1.39-.12-2.215-1.004-2.173-2.216.04-1.197.91-1.99 2.308-2.09.286-.02.575-.003.865-.003v.033zM11.884 97c-.385 0-.772.03-1.153-.006-1.252-.121-2.096-1.001-2.092-2.15.002-1.14.856-2.042 2.1-2.147.668-.058 1.345-.044 2.017-.012 1.412.066 2.345.99 2.303 2.237-.042 1.202-.932 2.01-2.31 2.083-.288.016-.577.002-.865.002V97zM11.902 105.636c-.386 0-.772.029-1.154-.006-1.25-.113-2.096-.984-2.108-2.138-.012-1.162.814-2.036 2.087-2.14.67-.056 1.348-.043 2.02-.014 1.44.064 2.356.955 2.32 2.214-.036 1.202-.935 2.025-2.3 2.093-.287.015-.576.003-.865.003v-.012zM12.891 118.685c-.065 1.175-1.041 2.057-2.213 2.003-1.176-.055-2.07-1.016-2.035-2.188.036-1.226 1.085-2.176 2.293-2.082 1.163.092 2.022 1.087 1.955 2.267zM31.224 40.974c.383 0 .767-.027 1.145.005 1.272.105 2.115.936 2.091 2.096-.028 1.303-.767 2.03-2.019 2.185-.706.089-1.432.07-2.145.03-1.4-.08-2.295-1.012-2.24-2.27.052-1.194.927-1.974 2.31-2.045.285-.014.571-.001.858-.001zM31.267 88.403c-.476-.022-.967.019-1.427-.078-1.114-.235-1.78-.947-1.773-2.102.005-1.144.643-1.91 1.77-2.101.745-.125 1.525-.09 2.286-.057 1.457.061 2.348.902 2.35 2.16.003 1.258-.89 2.082-2.346 2.154-.285.015-.573.003-.86.003v.021zM31.371 49.537c.524.05 1.071.024 1.567.166.984.284 1.512.992 1.515 2.028.001 1.04-.511 1.813-1.518 2.002-.929.176-1.913.187-2.861.116-1.275-.095-2.061-1.023-2.019-2.187.04-1.154.878-1.966 2.16-2.068.382-.03.768-.004 1.152-.004l.004-.053zM31.173 79.781c-.432-.02-.87.006-1.292-.07-1.149-.203-1.793-.931-1.81-2.08-.018-1.16.617-1.936 1.769-2.1.848-.118 1.73-.115 2.584-.04 1.307.117 2.061.98 2.032 2.169-.03 1.185-.82 1.972-2.13 2.088-.38.033-.767.005-1.153.005v.028zM31.168 71.178c-.432-.026-.87-.01-1.293-.084-1.154-.202-1.794-.934-1.816-2.083-.02-1.163.625-1.935 1.772-2.105.846-.126 1.729-.124 2.585-.047 1.301.119 2.07.999 2.043 2.175-.028 1.17-.831 1.97-2.136 2.098-.382.04-.77.007-1.155.007v.039zM31.262 62.562c-.524-.05-1.063-.038-1.57-.16-1.069-.252-1.646-.99-1.625-2.08.023-1.078.607-1.847 1.685-2.033.795-.137 1.627-.123 2.438-.082 1.401.073 2.24.89 2.268 2.11.026 1.233-.778 2.046-2.186 2.183-.332.032-.67.005-1.006.005l-.004.056zM31.352 32.354c.383 0 .777-.052 1.15.01 1.187.197 1.94.87 1.947 2.118.007 1.244-.739 1.96-1.92 2.143-.706.108-1.44.065-2.159.035-1.419-.062-2.35-.974-2.319-2.223.031-1.195.93-2.024 2.291-2.097.336-.018.674-.003 1.01-.003v.017zM40.946 101.369c-.027 1.157-.984 2.096-2.141 2.097-1.215.002-2.179-1.018-2.126-2.249.052-1.175 1.016-2.055 2.203-2.01 1.179.045 2.09.999 2.064 2.162zM30.24 99.203c1.166.035 2.109.999 2.093 2.139-.017 1.188-1.076 2.172-2.274 2.109-1.146-.06-2.05-1.058-2.005-2.217.044-1.161 1.017-2.065 2.185-2.03z"/>
</svg>
