<svg xmlns="http://www.w3.org/2000/svg" width="118" height="119" fill="none" viewBox="0 0 118 119">
    <path fill="#E7B4F1" d="M115.465 43.358c-.572-1.95-2.622-3.076-4.572-2.503-.946.276-1.726.904-2.2 1.767-.472.864-.58 1.86-.302 2.805 1.349 4.623 2.033 9.45 2.033 14.348 0 28.41-23.115 51.526-51.525 51.526-28.412 0-51.526-23.115-51.526-51.526C7.373 31.363 30.487 8.25 58.9 8.25c10.322 0 20.258 3.02 28.729 8.73.816.55 1.797.75 2.764.563.967-.188 1.803-.741 2.352-1.557.55-.816.75-1.799.563-2.766-.188-.966-.74-1.801-1.556-2.352C82.056 4.331 70.697.877 58.899.877 26.42.878 0 27.3 0 59.776s26.421 58.898 58.899 58.898c32.476 0 58.897-26.422 58.897-58.898 0-5.613-.784-11.137-2.331-16.417z"/>
    <path fill="#E7B4F1" d="M38.822 46.054c-.944 0-1.888.358-2.606 1.077-1.436 1.436-1.436 3.775 0 5.21L56.293 72.42c1.393 1.393 3.819 1.393 5.212 0l55.212-55.212c1.436-1.436 1.436-3.775-.001-5.212-1.436-1.437-3.774-1.436-5.211 0L58.9 64.6 41.429 47.13c-.719-.717-1.663-1.075-2.607-1.075z"/>
</svg>
