<svg xmlns="http://www.w3.org/2000/svg" width="101" height="111" fill="none" viewBox="0 0 101 111">
    <path fill="#8BCCFD" d="M68.603 106.216c-14.872 0-26.968-12.096-26.968-26.97 0-14.872 12.072-26.968 26.968-26.968 14.894 0 26.968 12.096 26.968 26.968 0 14.874-12.096 26.97-26.968 26.97zM12.3 90.861c-4.292 0-7.71-3.444-7.71-7.735v-70.05c0-4.314 3.418-7.824 7.71-7.824h34.75v14.436c0 5.577 4.522 10.12 10.098 10.12h13.312v17.926c-.688-.022-1.24-.092-1.836-.092-8.01 0-15.377 3.076-20.932 7.896H18.545c-1.262 0-2.296 1.034-2.296 2.295 0 1.263 1.034 2.296 2.296 2.296h24.879c-1.63 2.295-2.984 4.59-4.039 7.115h-20.84c-1.262 0-2.296 1.032-2.296 2.296 0 1.26 1.034 2.294 2.296 2.294h19.348c-.574 2.296-.872 4.843-.872 7.39 0 4.132.803 8.217 2.248 11.66H12.301v-.023zm39.34-82.144l15.676 16.501H57.15c-3.029 0-5.508-2.501-5.508-5.53V8.717zm23.411 39.615v-20.84c0-.598-.276-1.148-.665-1.584L51.02 1.372C50.585.912 49.965.66 49.347.66H12.3C5.463.66 0 6.238 0 13.077v70.05c0 6.838 5.463 12.325 12.301 12.325h29.242c5.53 9.18 15.584 15.33 27.036 15.33 17.397 0 31.605-14.137 31.605-31.558.023-15.216-10.903-27.931-25.132-30.892z"/>
    <path fill="#8BCCFD" d="M18.545 48.63h23.249c1.264 0 2.296-1.034 2.296-2.295 0-1.263-1.032-2.296-2.296-2.296h-23.25c-1.262 0-2.294 1.033-2.294 2.296 0 1.261 1.032 2.295 2.295 2.295zM70.231 62.309c-.435-.459-1.031-.735-1.674-.735s-1.24.276-1.676.735L53.43 76.745c-.871.918-.803 2.388.115 3.236.919.873 2.41.804 3.282-.114L66.33 69.7v25.063c0 1.263 1.032 2.296 2.295 2.296s2.296-1.033 2.296-2.296V69.7l9.432 10.168c.46.482 1.056.735 1.676.735.55 0 1.101-.208 1.561-.621.917-.87.987-2.318.115-3.236L70.23 62.309z"/>
</svg>
