<svg xmlns="http://www.w3.org/2000/svg" width="106" height="106" fill="none" viewBox="0 0 106 106">
    <path fill="#8BCCFD" d="M23.043 23.085V6.263L6.183 23.085h16.86zM3.405 102.413h65.992V86.986c0-.315-.014-.63.005-.944.065-1.065.748-1.777 1.675-1.761.921.016 1.565.732 1.625 1.813.01.157.004.316.004.472 0 5.665.004 11.33-.003 16.993-.002 1.626-.573 2.192-2.202 2.192-22.776.003-45.551.003-68.327 0-1.62 0-2.172-.566-2.172-2.217-.003-26.04-.01-52.08.035-78.12.001-.732.366-1.648.877-2.165C8.299 15.78 15.724 8.354 23.193.97c.545-.538 1.504-.926 2.272-.929C40.45-.013 55.438.001 70.426.003c1.72 0 2.273.542 2.277 2.234.008 3.5.008 7.001.006 10.502-.002 1.34-.636 2.14-1.663 2.132-1.024-.008-1.643-.8-1.647-2.152-.009-2.714-.002-5.428-.002-8.142V3.37H26.449v1.274c0 6.45.001 12.902-.002 19.353 0 1.95-.493 2.45-2.424 2.45-6.41.003-12.822.002-19.234.002H3.405v75.963z"/>
    <path fill="#8BCCFD" d="M47.743 77.6c.495.026.755.052 1.017.052 17.18.004 34.362.007 51.542.004 1.536-.002 2.134-.606 2.136-2.15.008-7.391.008-14.784 0-22.174-.002-1.526-.603-2.102-2.174-2.102-15.057 0-30.114.002-45.172.007-1.63.002-2.2.57-2.205 2.188-.01 3.263-.079 6.528.008 9.79.143 5.38-1.321 10.163-5.152 14.385zm24.307 3.376H44.332c-.353 0-.708-.004-1.061 0-.89.01-1.527-.358-1.777-1.237-.239-.84.129-1.455.818-1.903 2.112-1.372 3.842-3.107 5.12-5.288 1.406-2.396 2.106-4.99 2.127-7.755.03-3.813.003-7.627.012-11.441.007-3.401 2.03-5.43 5.43-5.43 15.097-.006 30.193-.006 45.291-.002 3.422.001 5.454 2.014 5.456 5.402.008 7.431.008 14.862 0 22.293-.004 3.302-2.064 5.354-5.392 5.358-9.434.008-18.87.003-28.306.003zM47.82 37.945c.407.023.666.05.924.05 17.18.005 34.36.009 51.542.006 1.596 0 2.152-.585 2.154-2.24.004-3.93.003-7.863-.004-11.795-.004-2.01-.486-2.478-2.514-2.478-10.496-.002-20.994-.002-31.49-.002-4.482.002-8.965-.005-13.446.004-1.494.004-2.078.59-2.106 2.05-.009.512.004 1.022-.004 1.534-.062 4.134-1.28 7.883-3.76 11.207-.39.524-.802 1.03-1.297 1.664zm24.34 3.37c-9.476 0-18.95-.003-28.425.007-.956.002-1.85-.072-2.21-1.14-.385-1.144.367-1.717 1.182-2.285 4.568-3.177 6.796-7.59 6.863-13.127.01-.824-.054-1.665.085-2.47.441-2.564 2.444-4.12 5.243-4.12 11.637-.007 23.274-.006 34.912-.006 3.537 0 7.076-.006 10.614.006 3.262.01 5.315 2.05 5.324 5.294.012 4.167.011 8.335.002 12.503-.01 3.305-2.068 5.34-5.402 5.343-9.396.004-18.792 0-28.189 0v-.004zM44.626 95.847H29.069c-.314 0-.631.016-.943-.01-1.006-.08-1.6-.628-1.667-1.637-.056-.883.655-1.596 1.64-1.655.823-.048 1.65-.02 2.475-.02 9.94 0 19.878.003 29.817.007.354 0 .72-.033 1.056.052.805.203 1.453.776 1.272 1.573-.137.608-.76 1.151-1.268 1.608-.203.183-.681.072-1.033.072-5.264.004-10.528.003-15.792.003v.007zM16.554 82.61c1.786-.013 3.287-1.54 3.266-3.325-.022-1.8-1.529-3.28-3.325-3.265-1.79.013-3.28 1.532-3.265 3.324.018 1.796 1.525 3.277 3.324 3.265zm-.082 3.313c-3.64-.027-6.566-3.002-6.562-6.667.005-3.621 3.036-6.604 6.663-6.555 3.66.051 6.58 3.019 6.56 6.67-.021 3.646-3.003 6.578-6.662 6.552zM19.82 39.65c-.01-1.808-1.527-3.304-3.33-3.286-1.786.019-3.3 1.583-3.26 3.366.04 1.76 1.511 3.208 3.277 3.224 1.794.016 3.322-1.507 3.313-3.303zm-9.91-.04c.02-3.627 3.029-6.591 6.66-6.566 3.63.024 6.58 3.018 6.562 6.663-.016 3.628-3.017 6.585-6.657 6.56-3.635-.025-6.587-3.02-6.566-6.657zM34.66 56.184c-2.078 0-4.156.013-6.235-.004-1.23-.012-2-.695-1.976-1.69.025-.955.766-1.605 1.936-1.609 4.196-.013 8.393-.013 12.59 0 1.226.003 2.002.694 1.977 1.687-.024.953-.77 1.6-1.938 1.61-2.117.02-4.236.006-6.353.006zM31.374 36.358c-1.018-.002-2.037.018-3.056-.007-1.14-.03-1.884-.715-1.868-1.673.015-.958.756-1.611 1.916-1.624 2-.022 3.996-.022 5.994-.008 1.234.008 2.001.674 1.984 1.673-.019.992-.776 1.615-2.032 1.637-.979.018-1.959.003-2.938.002zM31.513 42.964c1.018 0 2.037-.027 3.054.008 1.062.036 1.776.728 1.775 1.646-.003.916-.719 1.624-1.78 1.64-2.115.032-4.23.032-6.345 0-1.066-.017-1.768-.722-1.77-1.652-.001-.928.7-1.604 1.776-1.636 1.095-.032 2.192-.006 3.29-.006zM31.28 76.015c-1.02 0-2.038.028-3.055-.008-1.063-.037-1.775-.73-1.775-1.65-.001-.922.708-1.626 1.774-1.642 2.113-.033 4.228-.036 6.342-.007 1.056.015 1.775.73 1.776 1.646.002.917-.713 1.613-1.774 1.648-1.095.034-2.192.008-3.288.008v.005zM31.41 85.923c-1.056 0-2.114.026-3.17-.007-1.07-.033-1.78-.71-1.79-1.63-.01-.923.698-1.64 1.759-1.657 2.115-.033 4.23-.03 6.343 0 1.066.014 1.781.708 1.79 1.626.01.918-.702 1.622-1.761 1.66-1.056.036-2.113.008-3.17.008z"/>
    <path fill="#8BCCFD" d="M84.142 61.142c-3.1 0-6.201.005-9.303-.003-1.342-.004-2.132-.635-2.125-1.661.007-1.027.79-1.642 2.143-1.643 6.28-.005 12.56-.005 18.84 0 1.346.002 2.134.632 2.128 1.66-.007 1.024-.794 1.642-2.144 1.644-3.18.008-6.36.003-9.54.003zM67.749 72.707c-2.08 0-4.16.01-6.238-.004-1.247-.01-2.015-.657-2.016-1.65-.001-.994.766-1.647 2.014-1.651 4.157-.012 8.316-.015 12.473-.005 1.24.002 2.012.658 2.016 1.65.001.992-.77 1.647-2.014 1.656-2.078.015-4.157.004-6.235.004zM87.575 72.707c-2.078 0-4.157.01-6.236-.004-1.246-.01-2.014-.657-2.016-1.65-.001-.994.766-1.647 2.012-1.651 4.158-.012 8.315-.016 12.472-.005 1.244.002 2.016.662 2.018 1.653 0 .99-.771 1.644-2.014 1.653-2.078.015-4.157.004-6.236.004zM64.44 61.14c-1.058 0-2.117.032-3.173-.007-1.07-.039-1.773-.73-1.772-1.65.002-.922.71-1.622 1.778-1.64 2.114-.031 4.229-.035 6.343-.006 1.054.016 1.772.733 1.771 1.65 0 .917-.716 1.609-1.777 1.645-1.056.034-2.115.006-3.17.008zM85.92 28.09c2.592 0 5.185-.005 7.777.003 1.355.004 2.133.617 2.135 1.65 0 1.026-.79 1.66-2.132 1.66-5.186.006-10.37.003-15.555-.006-1.356-.002-2.135-.621-2.133-1.655 0-1.032.78-1.652 2.13-1.656 2.592-.01 5.186-.002 7.778-.002v.006zM66.056 31.4c-1.49 0-2.98.01-4.47-.003-1.32-.01-2.115-.664-2.096-1.692.017-.992.782-1.61 2.045-1.613 3.02-.008 6.039-.008 9.057.002 1.327.003 2.123.658 2.1 1.683-.022.99-.788 1.608-2.048 1.62-1.53.013-3.058.003-4.588.003z"/>
</svg>
