<svg xmlns="http://www.w3.org/2000/svg" width="101" height="111" fill="none" viewBox="0 0 101 111">
    <path fill="#8BCCFD" d="M68.603 105.821c-14.874 0-26.97-12.096-26.97-26.968 0-14.873 12.074-26.97 26.97-26.97 14.894 0 26.968 12.097 26.968 26.97 0 14.872-12.096 26.968-26.968 26.968zM12.3 90.466c-4.292 0-7.71-3.442-7.71-7.734v-70.05c0-4.314 3.418-7.825 7.71-7.825h34.75v14.436c0 5.577 4.521 10.121 10.098 10.121h13.312V47.34c-.689-.023-1.24-.092-1.836-.092-8.01 0-15.377 3.076-20.932 7.896H18.545c-1.264 0-2.296 1.033-2.296 2.294 0 1.263 1.032 2.296 2.296 2.296h24.879c-1.63 2.295-2.984 4.59-4.039 7.115h-20.84c-1.264 0-2.296 1.032-2.296 2.296 0 1.261 1.032 2.295 2.296 2.295h19.348c-.574 2.296-.873 4.842-.873 7.39 0 4.131.804 8.216 2.25 11.659H12.3v-.023zm39.34-82.144l15.676 16.502H57.15c-3.029 0-5.508-2.502-5.508-5.531V8.323zm23.411 39.615v-20.84c0-.597-.276-1.148-.667-1.584L51.021.978c-.436-.46-1.056-.712-1.674-.712H12.3C5.463.266 0 5.844 0 12.682v70.05c0 6.84 5.463 12.325 12.301 12.325h29.242c5.53 9.181 15.584 15.331 27.036 15.331 17.397 0 31.605-14.138 31.605-31.558.023-15.217-10.903-27.932-25.132-30.893z"/>
    <path fill="#8BCCFD" d="M18.545 48.235h23.25c1.262 0 2.295-1.033 2.295-2.294 0-1.263-1.033-2.296-2.296-2.296H18.545c-1.263 0-2.296 1.033-2.296 2.296 0 1.261 1.033 2.294 2.296 2.294zM81.231 76.311h-8.908c-.29 0-.524-.235-.524-.524V66.88c0-1.448-1.173-2.621-2.621-2.621-1.447 0-2.62 1.173-2.62 2.621v8.908c0 .29-.235.524-.524.524h-8.908c-1.448 0-2.62 1.173-2.62 2.62s1.172 2.621 2.62 2.621h8.908c.29 0 .524.234.524.523v8.91c0 1.446 1.173 2.62 2.62 2.62 1.448 0 2.621-1.174 2.621-2.62v-8.91c0-.29.235-.523.524-.523h8.908c1.447 0 2.62-1.174 2.62-2.62 0-1.448-1.173-2.62-2.62-2.62z"/>
</svg>
