<svg xmlns="http://www.w3.org/2000/svg" viewBox="0 0 67.11 63.1"><defs><style>.cls-1{fill:#6ed59f;}</style></defs><g id="Layer_2" data-name="Layer 2"><g id="Layer_1-2" data-name="Layer 1"><path class="cls-1" d="M33.56,63.1c-3.43,0-12-6.53-19.07-14.55C9.08,42.42,0,30.24,0,17.53A17.54,17.54,0,0,1,17.53,0c9,0,13.33,4.66,15.35,8.56.26.51.48,1,.68,1.5C35.48,5.36,39.81,0,49.58,0A17.54,17.54,0,0,1,67.11,17.53C67.11,40.93,39.55,63.1,33.56,63.1ZM17.53,3A14.55,14.55,0,0,0,3,17.53c0,11.72,8.61,23.22,13.74,29C24.47,55.32,31.9,60.1,33.56,60.1c4.21,0,30.55-21,30.55-42.57A14.55,14.55,0,0,0,49.58,3C35.28,3,35.05,16.44,35,17H32C32,16.44,31.83,3,17.53,3Z"/></g></g></svg>