<svg xmlns="http://www.w3.org/2000/svg" width="107" height="101" fill="none" viewBox="0 0 107 101">
    <path fill="#8BCCFD" d="M27.768 5.255c-12.69 0-23.016 10.324-23.016 23.016 0 18.576 13.636 36.79 21.765 45.996C38.767 88.14 50.543 95.708 53.16 95.708c6.67 0 48.408-33.219 48.408-67.437 0-12.692-10.325-23.016-23.016-23.016-22.659 0-23.032 21.289-23.036 22.194l-4.753-.009c-.003-.9-.34-22.185-22.995-22.185zM53.16 100.46c-5.433 0-18.984-10.339-30.205-23.048C14.38 67.704 0 48.411 0 28.271 0 12.959 12.457.503 27.768.503c14.313 0 21.125 7.378 24.32 13.568.408.793.768 1.584 1.085 2.365C56.211 8.988 63.068.503 78.552.503c15.31 0 27.768 12.456 27.768 27.768 0 37.074-43.66 72.189-53.16 72.189z"/>
</svg>
