<svg xmlns="http://www.w3.org/2000/svg" width="113" height="131" fill="none" viewBox="0 0 113 131">
    <path fill="#8BCCFD" d="M94.936 8.772c0 2.411-.097 4.94.07 7.452.04.598.934 1.586 1.487 1.624 2.552.175 5.122.078 7.819.078l-9.376-9.154zM88.361 95.64c-4.958 0-9.717.002-14.476 0-9.378 0-18.758-.006-28.138-.005-2.598.001-4.814-.892-6.01-3.248-.624-1.224-.9-2.752-.905-4.143-.053-21.405-.048-42.809-.012-64.214.003-1.287-.297-1.758-1.667-1.719-3.412.096-6.829.028-10.245.032-2.621.004-3.193.588-3.193 3.245-.002 26.551-.002 53.103 0 79.655 0 2.743.556 3.308 3.276 3.309 17.026.002 34.054 0 51.081 0 2.597 0 5.196.02 7.792-.01 1.521-.019 2.45-.718 2.475-2.046.066-3.549.022-7.1.022-10.856zM19.381 39.7c-.546-.038-.969-.093-1.39-.094-3.608-.006-7.215-.016-10.822.001-2.194.012-2.834.659-2.834 2.86-.004 26.836-.004 53.673.001 80.511 0 2.098.688 2.802 2.745 2.802 19.72.004 39.44.002 59.16-.006 2.03-.002 2.727-.734 2.735-2.819.01-2.791-.068-5.583.045-8.368.06-1.425-.424-1.744-1.785-1.739-13.515.048-27.03.034-40.544.027-4.723-.003-7.308-2.583-7.31-7.32-.007-21.305-.002-42.612-.002-63.919V39.7zM90.526 5.181c-.5-.036-.735-.068-.97-.068-14.626-.002-29.252-.004-43.878.008-1.83.001-2.567.793-2.567 2.7-.007 26.894-.01 53.788-.007 80.682 0 2.066.703 2.768 2.787 2.782 3.272.021 6.544 0 9.815 0 16.358.002 32.716.008 49.074.004 2.275 0 2.971-.63 2.972-2.727.008-21.601-.004-43.204.031-64.807.001-1.186-.415-1.456-1.503-1.433-2.981.061-5.964.04-8.948.027-2.605-.014-4.786-.998-5.929-3.383-.596-1.244-.788-2.763-.84-4.17-.12-3.162-.037-6.331-.037-9.615zM19.38 35.246c0-3.528-.005-6.792.001-10.058.01-4.525 2.638-7.152 7.175-7.169 3.512-.012 7.024-.01 10.537-.016h1.703c0-3.559-.116-6.924.055-10.273.073-1.424.505-2.955 1.208-4.19C41.12 1.671 43.012.795 45.167.792 60.9.768 76.633.767 92.368.812c.688.003 1.547.356 2.037.84 5.656 5.57 11.282 11.172 16.835 16.843.551.563.804 1.641.807 2.483.052 12.221.037 24.442.037 36.664 0 10.25.003 20.497-.004 30.746-.004 4.68-2.535 7.215-7.233 7.243-3.464.019-6.928.013-10.392.019H92.71v7.914c0 .914.014 1.828-.006 2.743-.078 3.721-2.758 6.481-6.477 6.551-3.704.069-7.41.025-11.113.032h-1.718c-.034.626-.084 1.132-.085 1.637-.013 2.935.01 5.871-.024 8.804-.05 4.088-2.748 6.781-6.82 6.784-19.87.009-39.744.009-59.616 0-4.097-.003-6.844-2.687-6.845-6.755-.012-27.137-.008-54.274.012-81.412.001-3.996 2.657-6.602 6.77-6.672 3.607-.06 7.216-.024 10.826-.03h1.765z"/>
    <path fill="#8BCCFD" d="M80.824 63.3c-6.49 0-12.981.003-19.472-.003-.478 0-.97.007-1.433-.093-1.077-.233-1.672-.953-1.668-2.048.004-1.077.556-1.845 1.633-2.09.554-.126 1.146-.12 1.719-.12 12.885 0 25.77.006 38.656.017.479 0 .971-.012 1.435.085 1.14.236 1.754.988 1.745 2.141-.007 1.104-.633 1.8-1.708 2.011-.513.101-1.052.095-1.579.096-6.442.004-12.885.003-19.328.004zM80.882 37.455H61.556c-.384 0-.77.019-1.152-.012-1.312-.108-2.198-1.032-2.167-2.233.03-1.16.875-2.027 2.15-2.082 1.343-.057 2.691-.025 4.038-.025 11.97.001 23.941.005 35.912.008.384 0 .776-.033 1.152.03 1.192.194 1.943.885 1.944 2.122.003 1.233-.744 1.933-1.928 2.147-.373.066-.767.034-1.152.034-6.49.002-12.98 0-19.47 0v.01zM74.233 28.788c-4.475 0-8.95.01-13.424-.006-1.62-.006-2.548-.797-2.566-2.101-.022-1.354.956-2.2 2.622-2.204 5.965-.012 11.932-.006 17.898-.006 2.983 0 5.966-.006 8.949.003 1.787.007 2.796.814 2.785 2.19-.01 1.374-.99 2.12-2.84 2.122-4.474.007-8.95.002-13.424.002zM73.233 54.677H61.85c-.337 0-.673.007-1.008-.004-1.7-.057-2.64-.865-2.594-2.228.042-1.31.949-2.072 2.578-2.084 3.171-.025 6.34-.021 9.511-.02 4.947 0 9.893.007 14.84.012.336.001.673-.012 1.008.016 1.275.105 2.133.923 2.181 2.061.05 1.192-.81 2.131-2.166 2.214-1.244.076-2.496.032-3.746.033h-9.221zM72.275 15.85c3.796 0 7.592-.015 11.388.008 1.582.01 2.514.85 2.517 2.156.004 1.321-.905 2.136-2.513 2.145-3.796.023-7.592.01-11.388.01-3.844 0-7.688.016-11.532-.011-1.82-.012-2.855-1.195-2.43-2.708.365-1.297 1.36-1.61 2.57-1.605 3.796.013 7.592.005 11.388.005zM89.39 67.585c3.127 0 6.255-.033 9.382.013 1.889.028 2.962 1.362 2.397 2.865-.388 1.032-1.204 1.463-2.259 1.464-6.302.005-12.605.02-18.908-.01-1.484-.009-2.365-.894-2.373-2.163-.008-1.275.85-2.115 2.379-2.136 3.128-.046 6.254-.014 9.382-.014v-.019zM92.556 46.069c-2.59 0-5.182.006-7.775-.005-1.802-.006-2.82-.78-2.852-2.129-.033-1.376.967-2.183 2.77-2.185 5.376-.012 10.75-.015 16.127-.01 1.634.003 2.562.744 2.618 2.035.059 1.364-.89 2.266-2.537 2.285-2.783.034-5.567.01-8.35.008zM67.913 46.067c-2.303 0-4.605.01-6.908-.003-1.793-.01-2.776-.81-2.763-2.205.014-1.364.931-2.105 2.682-2.11 4.654-.01 9.308-.011 13.961 0 1.73.006 2.68.771 2.696 2.113.017 1.396-.97 2.204-2.759 2.214-2.302.015-4.606.004-6.909.004v-.013zM65.673 71.93c-1.679 0-3.359.034-5.036-.01-1.48-.038-2.375-.878-2.394-2.133-.017-1.259.863-2.148 2.351-2.167 3.453-.045 6.908-.048 10.36.006 1.468.02 2.361.956 2.327 2.197-.035 1.23-.96 2.079-2.428 2.113-1.726.043-3.454.01-5.18.01v-.015zM50.635 71.97c-.432-.023-.872.001-1.293-.076-1.198-.216-1.907-.954-1.9-2.174.006-1.165.718-1.884 1.854-2.04.803-.112 1.633-.109 2.444-.05 1.307.093 2.113.941 2.117 2.105.006 1.15-.816 2.032-2.069 2.181-.378.046-.768.007-1.153.007v.047zM50.656 28.782c-2.19.01-3.247-.684-3.24-2.124.007-1.456 1.085-2.193 3.21-2.196.335-.001.67-.013 1.002.008 1.325.087 2.205.943 2.223 2.147.016 1.207-.847 2.065-2.194 2.161-.332.024-.668.004-1.001.004zM50.601 41.75c.333 0 .67-.016 1.003.003 1.365.082 2.238.9 2.257 2.101.021 1.255-.884 2.14-2.303 2.215-.62.032-1.244.03-1.861-.014-1.41-.097-2.321-1.02-2.273-2.253.046-1.176.944-1.973 2.317-2.05.287-.017.573-.002.86-.002zM50.63 37.464c-.478-.024-.978.031-1.434-.086-1.085-.282-1.786-.984-1.76-2.155.026-1.17.742-1.876 1.854-2.059.75-.122 1.536-.076 2.3-.042 1.365.06 2.249.914 2.26 2.124.012 1.201-.88 2.09-2.208 2.189-.335.024-.674.003-1.01.003l-.001.026zM50.638 20.134c-.432 0-.871.052-1.295-.011-1.14-.168-1.852-.846-1.9-2.003-.05-1.23.639-2.008 1.843-2.192.752-.116 1.534-.085 2.3-.05 1.393.067 2.242.889 2.26 2.111.017 1.23-.828 2.069-2.2 2.167-.335.023-.672.003-1.008.003v-.025zM50.697 50.318c.48.032.97.012 1.436.108 1.084.224 1.668.95 1.695 2.035.028 1.088-.513 1.907-1.605 2.083-.938.152-1.922.158-2.868.058-1.2-.127-1.947-.877-1.923-2.121.023-1.227.763-1.934 1.968-2.104.424-.06.864-.01 1.296-.01.002-.017.002-.033.002-.049zM50.675 58.92c.546.05 1.224-.09 1.56.186.64.53 1.476 1.285 1.498 1.968.02.678-.736 1.776-1.382 1.985-1.033.336-2.333.336-3.37.007-.66-.208-1.453-1.274-1.446-1.947.006-.682.83-1.473 1.475-1.99.376-.3 1.108-.155 1.665-.21zM49.59 86.972c-1.169.007-2.137-.917-2.167-2.07-.034-1.202.977-2.209 2.196-2.187 1.165.019 2.086.966 2.082 2.141-.004 1.175-.937 2.11-2.11 2.116zM58.211 82.709c1.195.007 2.202 1.04 2.156 2.215-.044 1.125-1.028 2.065-2.165 2.068-1.204.002-2.188-1.015-2.143-2.218.043-1.144 1.01-2.07 2.152-2.065zM68.973 84.877c-.019 1.161-.97 2.09-2.144 2.095-1.176.005-2.115-.918-2.133-2.094-.018-1.234.973-2.208 2.204-2.162 1.171.044 2.091 1.002 2.073 2.161zM11.91 50.329c.479.03.97.003 1.433.1 1.079.225 1.672.948 1.7 2.03.03 1.087-.525 1.893-1.606 2.083-.888.156-1.822.156-2.724.087-1.306-.1-2.082-.968-2.068-2.143.013-1.173.821-1.993 2.112-2.112.38-.034.766-.005 1.152-.005l.001-.04zM11.812 89.13c-.43 0-.868.058-1.287-.01-1.125-.183-1.827-.843-1.867-2.012-.042-1.225.615-2.02 1.806-2.21.84-.133 1.718-.114 2.57-.046 1.239.097 2.043 1.017 2.025 2.177-.018 1.166-.829 1.99-2.102 2.104-.379.035-.763.006-1.146.006v-.008zM11.844 80.574c-.526-.039-1.07-.007-1.573-.134-1.062-.264-1.628-1-1.618-2.094.011-1.032.546-1.8 1.56-1.975.934-.161 1.914-.167 2.863-.093 1.217.094 1.919.84 1.975 2.076.053 1.166-.79 2.036-2.052 2.164-.38.038-.768.005-1.154.005v.05zM11.879 67.579c.43.025.87.012 1.293.08 1.216.2 1.912.942 1.867 2.173-.045 1.22-.78 1.947-2.001 2.06-.762.07-1.54.072-2.303.007-1.268-.11-2.092-.988-2.104-2.136-.012-1.152.8-1.994 2.095-2.14.38-.042.768-.006 1.152-.006l.001-.038zM11.817 59.001c.432 0 .872-.05 1.296.01 1.216.168 1.932.889 1.94 2.118.007 1.238-.72 1.972-1.932 2.119-.758.09-1.54.095-2.302.03-1.39-.12-2.216-1.005-2.175-2.217.04-1.197.912-1.99 2.308-2.09.287-.02.577-.003.865-.003V59zM11.884 97.775c-.385 0-.772.03-1.153-.006-1.252-.12-2.096-1-2.092-2.15.002-1.14.856-2.041 2.1-2.147.668-.057 1.345-.044 2.017-.012 1.413.067 2.345.99 2.303 2.238-.042 1.2-.932 2.009-2.31 2.082-.288.016-.577.003-.865.003v-.008zM11.902 106.412c-.385 0-.773.029-1.154-.005-1.25-.114-2.095-.984-2.107-2.139-.014-1.161.813-2.036 2.086-2.14.67-.056 1.347-.043 2.02-.013 1.44.064 2.357.954 2.32 2.213-.036 1.203-.935 2.025-2.3 2.093-.287.015-.577.003-.865.003v-.012zM12.892 119.461c-.066 1.174-1.041 2.057-2.215 2.002-1.175-.054-2.068-1.016-2.034-2.188.037-1.225 1.085-2.176 2.293-2.081 1.164.092 2.021 1.087 1.956 2.267zM31.224 41.75c.382 0 .766-.027 1.146.005 1.27.105 2.114.936 2.09 2.096-.028 1.303-.768 2.03-2.018 2.185-.707.088-1.434.07-2.146.03-1.4-.08-2.296-1.012-2.24-2.27.051-1.194.927-1.974 2.308-2.045.287-.015.574-.001.86-.001zM31.266 89.18c-.476-.024-.965.018-1.426-.08-1.115-.234-1.779-.946-1.774-2.1.006-1.145.643-1.912 1.771-2.102.744-.126 1.524-.09 2.285-.057 1.458.06 2.348.902 2.351 2.16.003 1.258-.89 2.082-2.347 2.154-.285.015-.573.003-.86.003v.021zM31.372 50.313c.524.05 1.07.024 1.567.166.983.284 1.512.992 1.515 2.028.001 1.04-.511 1.812-1.519 2.002-.93.176-1.912.186-2.86.116-1.276-.095-2.061-1.023-2.019-2.187.04-1.155.878-1.967 2.16-2.068.382-.03.768-.004 1.152-.004l.004-.053zM31.173 80.557c-.43-.02-.87.005-1.292-.07-1.149-.204-1.793-.932-1.81-2.081-.018-1.159.617-1.936 1.769-2.099.848-.118 1.73-.116 2.584-.041 1.307.117 2.061.98 2.032 2.17-.028 1.185-.82 1.971-2.13 2.087-.38.034-.767.006-1.153.006v.028zM31.168 71.953c-.432-.025-.87-.01-1.293-.084-1.154-.201-1.794-.933-1.815-2.082-.021-1.163.624-1.935 1.77-2.106.847-.125 1.731-.124 2.586-.046 1.301.118 2.07.998 2.043 2.174-.028 1.17-.83 1.97-2.136 2.099-.382.038-.768.007-1.154.007v.038zM31.263 63.337c-.526-.049-1.063-.037-1.57-.158-1.07-.254-1.646-.99-1.625-2.08.023-1.079.607-1.848 1.684-2.034.795-.137 1.628-.124 2.439-.082 1.401.073 2.24.89 2.266 2.11.028 1.232-.777 2.046-2.184 2.183-.333.032-.672.005-1.008.005l-.002.056zM31.353 33.13c.384 0 .777-.052 1.15.009 1.186.197 1.94.87 1.947 2.119.005 1.244-.739 1.96-1.921 2.142-.704.108-1.44.066-2.158.035-1.42-.061-2.35-.973-2.318-2.223.03-1.194.929-2.024 2.29-2.097.336-.017.674-.003 1.01-.003v.018zM40.947 102.145c-.027 1.157-.986 2.096-2.142 2.097-1.216.002-2.178-1.018-2.125-2.249.05-1.175 1.016-2.055 2.203-2.01 1.177.045 2.09.999 2.063 2.162zM30.239 99.979c1.166.034 2.109.998 2.093 2.138-.015 1.188-1.076 2.172-2.273 2.11-1.146-.06-2.05-1.059-2.006-2.218.044-1.161 1.019-2.065 2.186-2.03z"/>
</svg>
