<svg xmlns="http://www.w3.org/2000/svg" width="82" height="82" fill="none" viewBox="0 0 82 82">
    <path fill="#FD7B92" d="M20.84 47.098c-3.204 0-5.801-2.597-5.801-5.801s2.597-5.803 5.8-5.803c3.205 0 5.802 2.599 5.802 5.803 0 3.204-2.597 5.8-5.801 5.8zm58.017-8.703H32.032c-1.573-6.181-7.859-9.916-14.04-8.344-4.1 1.044-7.3 4.244-8.344 8.344H3.435c-1.603 0-2.902 1.299-2.902 2.901 0 1.603 1.299 2.9 2.902 2.9h6.213c1.573 6.182 7.86 9.918 14.04 8.345 4.1-1.044 7.3-4.246 8.344-8.344h46.825c1.603 0 2.901-1.3 2.901-2.902 0-1.601-1.298-2.9-2.9-2.9zM58.552 18.089c-3.204 0-5.801-2.598-5.801-5.802 0-3.204 2.597-5.802 5.801-5.802s5.801 2.598 5.801 5.802c0 3.204-2.597 5.802-5.8 5.802zm20.305-8.703h-9.113C68.171 3.205 61.885-.53 55.703 1.042c-4.099 1.044-7.299 4.244-8.343 8.344H3.435c-1.603 0-2.902 1.299-2.902 2.901 0 1.602 1.3 2.9 2.902 2.9H47.36c1.573 6.182 7.859 9.918 14.04 8.344 4.099-1.044 7.3-4.244 8.344-8.344h9.113c1.603 0 2.902-1.298 2.902-2.9 0-1.602-1.299-2.901-2.902-2.901zM52.75 76.107c-3.204 0-5.801-2.598-5.801-5.802 0-3.204 2.597-5.802 5.8-5.802 3.205 0 5.804 2.598 5.804 5.802 0 3.204-2.6 5.802-5.803 5.802zm26.108-8.703H63.942c-1.573-6.181-7.859-9.916-14.04-8.343-4.1 1.043-7.3 4.243-8.344 8.343H3.435c-1.602 0-2.901 1.299-2.901 2.9 0 1.603 1.299 2.901 2.901 2.901h38.123c1.573 6.182 7.86 9.918 14.041 8.344 4.099-1.044 7.299-4.245 8.343-8.344h14.916c1.603 0 2.901-1.298 2.901-2.901 0-1.601-1.298-2.9-2.901-2.9z"/>
</svg>
