<svg xmlns="http://www.w3.org/2000/svg" width="115" height="116" fill="none" viewBox="0 0 115 116">
    <path fill="#FD7B92" d="M74.801 56.532l-1.776 5.382c2.006-.664 3.7-1.227 5.18-1.716-1.142-1.228-2.222-2.395-3.404-3.666zm-42.889-42.19c1.541 0 3.045.124 4.512-.058.627-.077 1.613-.736 1.676-1.224.208-1.678.079-3.398.079-4.99l-6.267 6.272zm39.605 74.934c-.041-.075-.084-.151-.128-.227H58.347c2.112 1.3 3.86 2.435 5.673 3.451.416.233 1.159.245 1.584.028 2.003-1.02 3.947-2.157 5.913-3.252zm28.8-59.55l-2.461 2.192 5.173 5.081c.755-.652 1.648-1.424 2.47-2.132-1.858-1.844-3.604-3.574-5.182-5.141zm10.511-.187l-5.216-5.33c-.811.746-1.672 1.544-2.437 2.247l5.298 5.251 2.355-2.168zm-15.973 5.42c-5.976 5.968-11.95 11.93-17.715 17.687 1.692 1.727 3.435 3.502 4.961 5.057 5.896-5.853 11.879-11.788 17.823-17.688-1.641-1.635-3.357-3.348-5.07-5.056zM17.223 88.95c0-4.266.001-8.532-.002-12.8-.002-1.862-.601-2.496-2.42-2.507-2.861-.016-5.724-.017-8.588.001-1.677.01-2.346.665-2.349 2.324-.01 8.619-.008 17.237-.001 25.857.002 1.748.638 2.364 2.422 2.374 2.778.014 5.555.006 8.332.002 2.031-.002 2.603-.568 2.604-2.577.006-4.225.003-8.45.002-12.673zm3.905 9.713c1.075.274 2.079.477 3.048.786 12.49 3.974 24.984 7.951 37.464 11.962 2.413.776 4.476.352 6.453-1.235C79.044 101.372 90.028 92.614 101 83.838c2.401-1.921 4.805-3.839 7.193-5.777.945-.769 1.2-1.774.653-2.862-.468-.934-1.31-1.357-2.349-1.123-.487.109-.94.398-1.384.649-12.35 6.96-24.705 13.918-37.047 20.896-2.266 1.282-4.438 1.254-6.641-.142-3.03-1.918-6.11-3.763-9.128-5.698-.981-.629-1.963-.907-3.127-.862-1.79.07-3.59.046-5.384-.02-1.15-.04-1.892-.823-1.92-1.838-.029-1.06.746-1.845 1.956-1.942.467-.037.94-.019 1.408-.019 10.684 0 21.371.003 32.052-.006 1.755-.001 2.686-.687 2.806-1.979.128-1.39-.694-2.208-2.455-2.508-12.755-2.181-25.513-4.355-38.263-6.567-3.168-.549-6.298-.713-9.338.522-2.648 1.077-5.243 2.292-7.892 3.372-.855.348-1.099.828-1.092 1.72.037 5.973.017 11.948.021 17.921.003.376.039.752.06 1.087zm68.89-42.455l-.405-.25c-1.345 1.416-2.728 2.8-4.03 4.254-1.458 1.623-3.094 2.85-5.29 3.366-1.74.407-3.386 1.193-5.118 1.64-1.51.389-3.076.75-4.622.758-11.024.06-22.05.028-33.076.023-.469 0-.953.044-1.404-.052-1.002-.215-1.554-.879-1.545-1.91.012-1.049.603-1.662 1.62-1.828.417-.067.852-.035 1.281-.035 10.083-.002 20.17-.013 30.254.017.897.003 1.321-.206 1.596-1.14.772-2.617 1.626-5.213 2.593-7.764.377-.998.996-1.988 1.743-2.747C78.8 45.278 84.06 40.091 89.253 34.838c.419-.424.731-1.163.734-1.758.044-8.491.029-16.982.021-25.473-.001-2.233-.564-2.785-2.808-2.785-14.53-.002-29.059-.002-43.59.002-.449 0-.9.04-1.46.067 0 2.59.035 5.059-.01 7.525-.052 2.962-2.088 5.33-4.887 5.691-.841.11-1.704.066-2.56.07-1.948.008-3.898.002-5.898.002v52.718c3.592-1.24 7.174-1.333 10.812-.686 5.254.935 10.517 1.828 15.78 2.723 7.664 1.304 15.326 2.61 22.994 3.879 2.37.391 4.144 1.511 5.118 3.749.214.492.356 1.014.564 1.623 1.722-.974 3.329-1.935 4.989-2.795.756-.392.99-.872.987-1.707-.038-6.485-.02-12.972-.02-19.457v-2.019zm4.191-26.133c2.415-2.455 4.831-4.91 7.248-7.36.539-.547 1.068-1.108 1.644-1.617 1.476-1.311 3.572-1.406 5.016-.066 2 1.859 3.943 3.788 5.802 5.79 1.493 1.609 1.312 3.747-.324 5.393-4.279 4.296-8.579 8.573-12.87 12.857-2.054 2.052-4.13 4.083-6.146 6.174-.37.384-.694 1.01-.694 1.528-.046 7.637-.032 15.276-.026 22.913 0 .238.044.478.086.912 1.384-.775 2.64-1.474 3.89-2.177 1.974-1.111 3.94-2.233 5.917-3.335 2.96-1.653 6.388-.921 8.172 1.732 1.785 2.657 1.249 6.153-1.363 8.252-11.054 8.879-22.129 17.73-33.197 26.592-2.333 1.868-4.675 3.729-6.997 5.608-2.962 2.393-6.21 2.982-9.856 1.81-12.518-4.028-25.054-8.01-37.583-12.004-.553-.176-1.127-.293-1.756-.453-.141.492-.247.852-.348 1.213-.69 2.431-2.71 4.118-5.233 4.172-3.332.072-6.668.087-10 .008-3.179-.074-5.559-2.524-5.568-5.701-.031-8.917-.03-17.836-.002-26.754.01-3.234 2.428-5.68 5.668-5.735 3.247-.057 6.496-.045 9.743.01 2.465.042 4.173 1.311 5.205 3.52.122.26.24.523.396.87 1.119-.468 2.215-.834 3.208-1.392.347-.196.607-.862.61-1.315.04-6.188.03-12.376.032-18.563.001-11.564.009-23.128-.004-34.691-.002-1.857.621-3.406 1.933-4.71 3.572-3.553 7.137-7.113 10.697-10.68C38.781 1.602 40.29.97 42.105.971c15.215.01 30.428.001 45.642.01 3.682.002 6.092 2.414 6.1 6.104.016 7.125.005 14.252.005 21.377v1.4l.357.212z"/>
    <path fill="#FD7B92" d="M59.241 27.752H37.463c-2.028-.002-2.903-.56-2.939-1.86-.037-1.366.876-1.988 2.937-1.988 14.606-.002 29.21-.002 43.815 0 2.052 0 2.988.633 2.947 1.986-.038 1.296-.924 1.86-2.946 1.862H59.241zM64.258 33.492c5.256 0 10.512-.005 15.77.004 1.388.003 2.197.63 2.296 1.712.104 1.15-.755 2.078-2.054 2.108-1.666.04-3.333.006-5 .006-8.804-.002-17.606 0-26.41-.004-.468 0-.956.036-1.403-.076-.93-.234-1.47-.886-1.475-1.848-.004-.974.552-1.598 1.488-1.83.366-.09.763-.069 1.147-.069 5.213-.004 10.427-.003 15.641-.003zM49.803 52.567c4.096 0 8.192-.003 12.287.002.51.002 1.037-.017 1.526.098.936.218 1.475.87 1.486 1.83.009.968-.532 1.606-1.477 1.823-.449.105-.93.108-1.397.108-8.233.008-16.468.012-24.703.01-.509-.002-1.03-.005-1.526-.107-.96-.199-1.474-.846-1.464-1.82.01-1.026.552-1.684 1.577-1.866.416-.073.85-.06 1.275-.06 4.139-.005 8.277-.004 12.416-.004v-.014zM43.994 46.854c-2.39 0-4.783.012-7.173-.005-1.47-.01-2.26-.667-2.295-1.835-.035-1.226.787-1.965 2.293-1.97 4.826-.02 9.651-.022 14.476-.012 1.435.002 2.263.693 2.302 1.848.041 1.205-.798 1.954-2.3 1.969-2.435.024-4.868.007-7.303.005zM65.15 46.852c-1.833 0-3.666.021-5.5-.007-1.32-.02-2.144-.742-2.182-1.833-.04-1.143.816-1.955 2.188-1.964 3.666-.025 7.333-.025 11 0 1.313.01 2.112.776 2.106 1.897-.004 1.112-.805 1.88-2.112 1.907-1.833.037-3.666.01-5.5.01v-.01zM38.36 37.315c-.682 0-1.368.048-2.047-.01-1.103-.098-1.832-.907-1.785-1.955.047-1.107.68-1.765 1.76-1.824 1.36-.075 2.736-.085 4.094.003 1.07.069 1.733.746 1.728 1.852-.005 1.085-.637 1.76-1.704 1.904-.67.089-1.362.017-2.045.017v.013zM10.515 96.537c.466.038.944.026 1.397.128.95.214 1.48.848 1.47 1.824-.007 1.032-.575 1.697-1.592 1.852-.668.101-1.363.077-2.043.049-1.243-.052-2.01-.761-2.05-1.836-.042-1.119.744-1.881 2.047-1.976.255-.019.512-.003.768-.003.002-.012.003-.025.003-.038zM10.54 77.487c.384 0 .774-.042 1.15.008 1.093.145 1.689.808 1.69 1.893.002 1.037-.585 1.688-1.616 1.815-.714.086-1.449.088-2.17.038-1.167-.08-1.882-.81-1.898-1.842-.017-1.082.74-1.84 1.948-1.934.298-.022.598-.002.896-.002v.024z"/>
</svg>
