<svg xmlns="http://www.w3.org/2000/svg" width="102" height="102" fill="none" viewBox="0 0 102 102">
    <path fill="#FD7B92" d="M66.667 70.7c-4.797 2.663-10.195 4.058-15.683 4.054-17.814.012-32.265-14.419-32.278-32.233 0-1.151.06-2.299.183-3.443h6.854c.772 2.99 3.466 5.085 6.555 5.096 1.208-.005 2.395-.337 3.43-.963l7.726 7.727c-.626 1.036-.958 2.22-.964 3.43 0 3.753 3.042 6.795 6.796 6.795 3.752 0 6.794-3.042 6.794-6.796-.005-1.209-.338-2.393-.962-3.429l11.124-11.124c1.036.624 2.22.957 3.43.964 3.752 0 6.795-3.044 6.795-6.796-.007-1.21-.338-2.395-.964-3.43l3.704-3.702c8.646 15.572 3.032 35.204-12.54 43.85zM35.695 37.38c0 1.875-1.521 3.398-3.397 3.398-1.879 0-3.399-1.523-3.399-3.399 0-1.876 1.52-3.397 3.399-3.397 1.876 0 3.397 1.521 3.397 3.397zm16.988 16.987c0 1.878-1.521 3.399-3.397 3.399-1.878 0-3.398-1.521-3.398-3.399 0-1.876 1.52-3.397 3.398-3.397 1.876 0 3.397 1.521 3.397 3.397zM73.07 33.982c0 1.877-1.52 3.397-3.398 3.397-1.876 0-3.397-1.52-3.397-3.397 0-1.876 1.521-3.397 3.397-3.397 1.877 0 3.397 1.521 3.397 3.397zM50.983 10.199c10.494.007 20.326 5.122 26.36 13.708l-4.247 4.248c-1.034-.625-2.218-.96-3.426-.968-3.753 0-6.795 3.042-6.795 6.795.006 1.21.34 2.395.963 3.43L52.715 48.536c-2.105-1.284-4.753-1.284-6.86 0L38.13 40.81c.622-1.036.956-2.221.962-3.43.005-3.746-3.027-6.786-6.773-6.791-3.097-.003-5.804 2.092-6.576 5.092h-6.302c3.216-14.854 16.345-25.46 31.543-25.482zm0-3.398c-19.704 0-35.677 15.972-35.677 35.676 0 19.702 15.973 35.674 35.677 35.674 19.703 0 35.676-15.972 35.676-35.674C86.64 22.782 70.678 6.822 50.986 6.8z"/>
    <path fill="#FD7B92" d="M74.29 65.164c-.534.748-1.086 1.48-1.669 2.184-.17.206-.353.406-.526.607-.52.605-1.058 1.192-1.61 1.76-.242.25-.487.495-.737.736-.567.553-1.152 1.09-1.761 1.61-.2.17-.399.355-.605.527-.705.583-1.438 1.135-2.184 1.67C47.61 86.822 23.17 82.75 10.606 65.164s-8.492-42.028 9.093-54.592C37.285-1.992 61.727 2.08 74.29 19.666c9.722 13.609 9.722 31.89 0 45.498zm6.587 7.89l-7.789 7.792-4.703-4.703c.24-.183.465-.385.7-.573.235-.188.511-.415.763-.628.372-.312.74-.628 1.1-.952.186-.17.362-.34.542-.51.698-.652 1.373-1.326 2.025-2.024.17-.181.34-.358.51-.542.323-.36.64-.728.953-1.1.213-.251.422-.506.626-.763.187-.235.39-.459.573-.697l4.7 4.7zm16.08 16.08c2.175 2.126 2.215 5.614.087 7.79-2.125 2.176-5.614 2.215-7.79.088l-.089-.088L75.49 83.248l7.791-7.79 13.676 13.676zM84.98 6.802c1.876 0 3.397 1.52 3.397 3.397 0 1.876-1.52 3.397-3.397 3.397-1.879 0-3.397-1.521-3.397-3.397 0-1.877 1.521-3.397 3.397-3.397zm0 10.192c3.09-.012 5.783-2.106 6.555-5.096h10.433v-3.4H91.535c-.772-2.99-3.465-5.083-6.555-5.095-3.753 0-6.796 3.043-6.796 6.796.007 1.21.339 2.395.964 3.43l-2.985 2.985C61.882-1.993 35.22-5.5 16.613 8.783-1.992 23.064-5.5 49.726 8.784 68.333c13.48 17.563 38.193 21.823 56.776 9.789l5.127 5.126 2.402 2.403 13.675 13.675c3.478 3.478 9.117 3.478 12.596 0 3.479-3.478 3.479-9.116 0-12.595L85.683 73.055l-2.402-2.401-5.128-5.128c9.103-14.02 9.103-32.08 0-46.1l3.4-3.398c1.034.626 2.218.959 3.427.966z"/>
</svg>
