<svg xmlns="http://www.w3.org/2000/svg" width="147" height="138" fill="none" viewBox="0 0 147 138">
    <path fill="#000" d="M144.951 126.155c-.552 0-1.086-.255-1.433-.711-4.595-6.037-10.861-12.501-12.869-12.501H63.821c-8.88 0-16.104-7.226-16.104-16.105v-21.3h3.604v21.3c0 6.893 5.607 12.501 12.5 12.501h66.828c3.453 0 8.842 5.573 12.5 9.894V59.431c0-6.893-5.607-12.502-12.5-12.502H106.07v-3.604h24.579c8.88 0 16.104 7.226 16.104 16.106v64.921c0 .775-.494 1.46-1.226 1.708-.189.064-.384.095-.576.095z"/>
    <path fill="#000" d="M16.104 3.604c-6.893 0-12.5 5.607-12.5 12.5v57.833c3.728-3.393 9.307-7.925 12.5-7.925h66.828c6.893 0 12.501-5.607 12.501-12.5V16.104c0-6.893-5.608-12.5-12.501-12.5H16.104zM1.801 79.936c-.233 0-.469-.045-.692-.137C.437 79.519 0 78.863 0 78.135V16.104C0 7.224 7.224 0 16.104 0h66.828c8.88 0 16.104 7.224 16.104 16.104v37.408c0 8.879-7.224 16.104-16.104 16.104H16.104c-1.957 0-8.29 5.084-13.033 9.796-.344.343-.803.524-1.27.524z"/>
    <path fill="#000" d="M48.394 46.582c1.773 0 3.199 1.384 3.199 3.112 0 1.73-1.426 3.2-3.199 3.2s-3.112-1.47-3.112-3.2c0-1.728 1.339-3.112 3.112-3.112zm1.901-10.636c1.99-1.425 4.28-3.025 4.28-6.137 0-3.113-2.248-4.755-5.273-4.755-3.416 0-5.75 2.075-5.75 5.922h-3.934c0-5.922 4.236-9.467 9.684-9.467 5.144 0 9.208 3.199 9.208 8.256 0 4.367-2.982 6.485-4.713 7.739-2.808 2.076-3.502 2.94-3.502 6.657h-3.802c.042-4.107.993-6.225 3.802-8.215zM84.956 88.762h-4.021V84.87h4.02v3.892zM97.063 88.762H93.04V84.87h4.022v3.892zM109.169 88.762h-4.021V84.87h4.021v3.892z"/>
    <path fill="#6ED59F" d="M82.517 98.995l25.113 21.4-11.396.156 6.128 12.65-5.464 2.659-6.373-12.513-7.554 8.67-.454-33.022z"/>
    <path fill="#000" d="M90.525 121.903c.058 0 .117.003.177.011.476.059.892.351 1.11.777l5.729 11.25 2.893-1.407-5.5-11.355c-.215-.444-.19-.968.07-1.388.26-.42.715-.678 1.21-.686l7.558-.103-19.767-16.843.359 26.063 5.072-5.824c.277-.316.674-.495 1.089-.495zm6.374 15.402c-.526 0-1.033-.29-1.287-.79l-5.403-10.606-6.15 7.057c-.394.451-1.026.611-1.585.408-.563-.207-.939-.737-.948-1.336l-.453-33.023c-.007-.568.317-1.085.83-1.326.511-.242 1.118-.16 1.551.208l25.112 21.398c.459.39.627 1.023.423 1.588-.204.566-.737.946-1.339.955l-9.127.124 5.139 10.609c.347.718.048 1.58-.668 1.928l-5.464 2.659c-.204.1-.418.147-.63.147z"/>
</svg>
