<svg xmlns="http://www.w3.org/2000/svg" viewBox="0 0 81.38 105.62"><defs><style>.cls-1,.cls-3{fill:none;}.cls-2{fill:#fff;}.cls-3{font-size:38.83px;stroke:#fff;stroke-miterlimit:10;stroke-width:2.16px;font-family:Wingdings3, "Wingdings 3";}</style></defs><g id="Layer_2" data-name="Layer 2"><g id="Layer_1-2" data-name="Layer 1"><polygon class="cls-1" points="70.14 68.61 70.14 59.62 26.86 59.62 21.67 53.62 2.14 53.62 2.14 99.9 10 68.61 70.14 68.61"/><polygon class="cls-2" points="71.06 104.61 1.06 104.61 2.14 100.26 2.14 53.62 19.85 53.62 24.65 59.62 70.14 59.62 70.14 68.61 72.14 68.61 72.14 57.62 27.71 57.62 22.52 51.62 0.14 51.62 0.14 105.61 72.14 105.61 72.14 100.58 71.06 104.61"/><path class="cls-2" d="M72,105.62H0l9.42-38h72Zm-69.55-2H70.55l8.43-34H10.83Z"/><text class="cls-3" transform="translate(23.39 34.53)"></text></g></g></svg>