<svg xmlns="http://www.w3.org/2000/svg" viewBox="0 0 55.53 52.83"><defs><style>.cls-1{fill:none;}.cls-2{fill:#fff;}</style></defs><g id="Layer_2" data-name="Layer 2"><g id="Layer_1-2" data-name="Layer 1"><path class="cls-1" d="M26.1,50.67a4.91,4.91,0,0,0,4.79-3.84H21.32A4.91,4.91,0,0,0,26.1,50.67Z"/><path class="cls-1" d="M26.1,40.84a4.91,4.91,0,0,0-4.78,3.84h9.57A4.91,4.91,0,0,0,26.1,40.84Z"/><path class="cls-1" d="M26.1,12a4.92,4.92,0,0,0,4.79-3.84H21.32A4.92,4.92,0,0,0,26.1,12Z"/><path class="cls-1" d="M26.1,2.16A4.91,4.91,0,0,0,21.32,6h9.57A4.91,4.91,0,0,0,26.1,2.16Z"/><path class="cls-1" d="M52.21,26.58a1.08,1.08,0,0,1-1.08,1.08H43.67a4.92,4.92,0,1,0,0-2.15h7.46A1.07,1.07,0,0,1,52.21,26.58Z"/><path class="cls-2" d="M1.08,8.15h18A7.61,7.61,0,0,1,19,7.07,7.87,7.87,0,0,1,19.12,6h-18a1.08,1.08,0,0,0,0,2.16Z"/><path class="cls-2" d="M33.09,8.15h18a1.08,1.08,0,0,0,0-2.16h-18a7.87,7.87,0,0,1,.09,1.08A7.61,7.61,0,0,1,33.09,8.15Z"/><path class="cls-2" d="M41.48,25.51H1.08a1.08,1.08,0,1,0,0,2.15h40.4a6.47,6.47,0,0,1,0-2.15Z"/><path class="cls-2" d="M19.12,44.68h-18a1.08,1.08,0,1,0,0,2.15h18a6.47,6.47,0,0,1,0-2.15Z"/><path class="cls-2" d="M51.13,44.68h-18a6.47,6.47,0,0,1,0,2.15h18a1.08,1.08,0,1,0,0-2.15Z"/><path class="cls-2" d="M26.1,12a4.92,4.92,0,0,1-4.78-3.84h-2.2a7.07,7.07,0,0,0,14,0h-2.2A4.92,4.92,0,0,1,26.1,12Z"/><path class="cls-2" d="M26.1,2.16A4.91,4.91,0,0,1,30.89,6h2.2a7.07,7.07,0,0,0-14,0h2.2A4.91,4.91,0,0,1,26.1,2.16Z"/><path class="cls-2" d="M19.12,8.15h2.2a4.55,4.55,0,0,1,0-2.16h-2.2A7.87,7.87,0,0,0,19,7.07,7.61,7.61,0,0,0,19.12,8.15Z"/><path class="cls-2" d="M31,7.07a4.84,4.84,0,0,1-.13,1.08h2.2a7.61,7.61,0,0,0,.09-1.08A7.87,7.87,0,0,0,33.09,6h-2.2A4.84,4.84,0,0,1,31,7.07Z"/><path class="cls-2" d="M26.1,50.67a4.91,4.91,0,0,1-4.78-3.84h-2.2a7.07,7.07,0,0,0,14,0h-2.2A4.91,4.91,0,0,1,26.1,50.67Z"/><path class="cls-2" d="M26.1,40.84a4.91,4.91,0,0,1,4.79,3.84h2.2a7.07,7.07,0,0,0-14,0h2.2A4.91,4.91,0,0,1,26.1,40.84Z"/><path class="cls-2" d="M33.09,44.68h-2.2a4.51,4.51,0,0,1,0,2.15h2.2a6.47,6.47,0,0,0,0-2.15Z"/><path class="cls-2" d="M21.19,45.76a4.7,4.7,0,0,1,.13-1.08h-2.2a6.47,6.47,0,0,0,0,2.15h2.2A4.68,4.68,0,0,1,21.19,45.76Z"/><path class="cls-2" d="M48.46,19.51a7.08,7.08,0,0,0-7,6h2.19a4.92,4.92,0,1,1,0,2.15H41.48a7.07,7.07,0,1,0,7-8.15Z"/><path class="cls-2" d="M43.54,26.58a4.68,4.68,0,0,1,.13-1.07H41.48a6.47,6.47,0,0,0,0,2.15h2.19A4.77,4.77,0,0,1,43.54,26.58Z"/></g></g></svg>