<svg xmlns="http://www.w3.org/2000/svg" width="129" height="144" fill="none" viewBox="0 0 129 144">
    <path fill="#000" d="M98.314 33.17c.755-.732 1.133-1.664 1.133-2.795 0-1.177-.378-2.087-1.133-2.73-.754-.644-1.83-1.188-3.228-1.633v8.258h.032c1.376 0 2.442-.367 3.197-1.1zm-7.407-11.884c.72.621 1.77 1.165 3.146 1.631v-7.924c-1.287 0-2.313.317-3.08.95-.764.63-1.147 1.536-1.147 2.712 0 1.133.36 2.01 1.08 2.631zm8.207 3.396c.954.421 1.786 1.081 2.496 1.98.711.9 1.067 2.115 1.067 3.646 0 1.11-.273 2.142-.817 3.096-.544.954-1.382 1.73-2.513 2.33-1.132.6-2.52.899-4.162.899h-.1v2.663h-1.032v-2.73c-2.108-.2-3.828-.893-5.16-2.08-1.332-1.187-2.075-2.657-2.23-4.41h3.23c.088.931.492 1.802 1.213 2.612.722.81 1.704 1.314 2.947 1.515V25.68c-1.709-.51-3.035-.971-3.978-1.381-.943-.412-1.765-1.06-2.463-1.948-.7-.888-1.05-2.075-1.05-3.561 0-1.221.311-2.299.934-3.23.62-.932 1.497-1.653 2.629-2.164 1.132-.51 2.441-.766 3.928-.766V9.767h1.033v2.896c2.063.155 3.706.788 4.926 1.898 1.221 1.11 1.943 2.453 2.165 4.028h-3.263c-.155-.843-.555-1.598-1.198-2.263-.644-.667-1.52-1.088-2.63-1.265v8.19c1.73.532 3.073 1.01 4.028 1.43z"/>
    <path fill="#000" d="M94.62 2.91c-11.924 0-21.624 9.699-21.624 21.623 0 11.922 9.7 21.622 21.623 21.622 11.923 0 21.623-9.7 21.623-21.622 0-11.924-9.7-21.624-21.623-21.624zm0 46.154c-13.529 0-24.533-11.005-24.533-24.531C70.087 11.005 81.09 0 94.619 0s24.533 11.005 24.533 24.533c0 13.526-11.005 24.531-24.533 24.531zM98.314 127.239c.755-.732 1.133-1.665 1.133-2.796 0-1.176-.378-2.086-1.133-2.73-.754-.644-1.83-1.188-3.228-1.632v8.258h.032c1.376 0 2.442-.368 3.197-1.1zm-7.407-11.884c.72.621 1.77 1.165 3.146 1.631v-7.925c-1.287 0-2.313.318-3.08.95-.764.631-1.147 1.537-1.147 2.712 0 1.132.36 2.01 1.08 2.632zm8.207 3.395c.954.422 1.786 1.082 2.496 1.98.711.9 1.067 2.115 1.067 3.646 0 1.11-.273 2.142-.817 3.097-.544.954-1.382 1.73-2.513 2.33-1.132.599-2.52.899-4.162.899h-.1v2.663h-1.032v-2.73c-2.108-.2-3.828-.893-5.16-2.081-1.332-1.187-2.075-2.657-2.23-4.411h3.23c.088.933.492 1.803 1.213 2.613.722.811 1.704 1.315 2.947 1.516v-8.523c-1.709-.51-3.035-.971-3.978-1.382-.943-.411-1.765-1.059-2.463-1.948-.7-.887-1.05-2.074-1.05-3.561 0-1.221.311-2.298.934-3.23.62-.932 1.497-1.653 2.629-2.164 1.132-.51 2.441-.766 3.928-.766v-2.863h1.033v2.896c2.063.155 3.706.789 4.926 1.899 1.221 1.109 1.943 2.452 2.165 4.028h-3.263c-.155-.844-.555-1.599-1.198-2.264-.644-.666-1.52-1.088-2.63-1.266v8.191c1.73.533 3.073 1.01 4.028 1.431z"/>
    <path fill="#000" d="M94.62 96.977c-11.924 0-21.624 9.7-21.624 21.623 0 11.923 9.7 21.623 21.623 21.623 11.923 0 21.623-9.7 21.623-21.623 0-11.923-9.7-21.623-21.623-21.623zm0 46.156c-13.529 0-24.533-11.006-24.533-24.533 0-13.528 11.004-24.532 24.532-24.532s24.533 11.004 24.533 24.532c0 13.527-11.005 24.533-24.533 24.533zM28.227 80.205c.755-.733 1.132-1.665 1.132-2.796 0-1.177-.377-2.087-1.132-2.73-.754-.644-1.83-1.188-3.229-1.633v8.258h.033c1.376 0 2.442-.367 3.196-1.1zM20.82 68.32c.72.621 1.77 1.165 3.146 1.631v-7.924c-1.288 0-2.314.317-3.08.95-.765.63-1.148 1.536-1.148 2.712 0 1.132.36 2.009 1.082 2.631zm8.206 3.396c.954.421 1.786 1.081 2.497 1.98.71.9 1.066 2.115 1.066 3.646 0 1.11-.273 2.142-.817 3.096-.543.954-1.381 1.73-2.512 2.33-1.133.6-2.52.899-4.162.899h-.1v2.663h-1.032V83.6c-2.108-.2-3.829-.893-5.16-2.08-1.332-1.187-2.076-2.657-2.23-4.41h3.23c.087.931.492 1.801 1.214 2.612.72.81 1.702 1.314 2.946 1.515v-8.523c-1.71-.51-3.034-.971-3.978-1.381-.943-.412-1.764-1.06-2.463-1.949-.7-.887-1.05-2.074-1.05-3.56 0-1.221.31-2.299.933-3.23.62-.932 1.497-1.653 2.63-2.164 1.132-.51 2.44-.766 3.928-.766V56.8h1.032v2.895c2.064.156 3.707.79 4.927 1.899 1.22 1.11 1.942 2.453 2.165 4.028h-3.263c-.156-.843-.556-1.598-1.198-2.264-.644-.666-1.521-1.087-2.63-1.265v8.19c1.73.533 3.073 1.01 4.027 1.432z"/>
    <path fill="#000" d="M24.532 49.943c-11.922 0-21.623 9.7-21.623 21.623 0 11.923 9.7 21.622 21.623 21.622 11.923 0 21.623-9.699 21.623-21.622 0-11.922-9.7-21.623-21.623-21.623zm0 46.156C11.005 96.099 0 85.093 0 71.566 0 58.04 11.005 47.034 24.532 47.034c13.528 0 24.533 11.005 24.533 24.532S38.06 96.1 24.533 96.1z"/>
    <path fill="#000" d="M43.502 58.546l-1.618-2.417 31.885-21.37 1.618 2.416-31.885 21.37zM73.768 108.373l-31.885-21.37 1.62-2.417 31.884 21.37-1.619 2.417zM107.56 37.276l20.273 17.275-9.2.127 4.947 10.213-4.411 2.146-5.144-10.102-6.099 6.999-.366-26.658z"/>
    <path fill="#000" d="M114.024 55.77c.048 0 .095.002.143.009.384.047.72.282.896.628l4.626 9.081 2.334-1.136-4.439-9.166c-.173-.36-.153-.78.057-1.12.209-.34.577-.548.977-.554l6.1-.083-15.957-13.598.29 21.04 4.094-4.7c.223-.257.544-.401.879-.401zm5.146 12.433c-.424 0-.833-.233-1.04-.636l-4.361-8.563-4.963 5.697c-.318.363-.828.493-1.28.328-.454-.165-.758-.595-.766-1.078l-.366-26.657c-.006-.46.255-.877.67-1.072.413-.194.902-.13 1.251.167l20.275 17.276c.369.314.505.826.341 1.282-.165.458-.596.764-1.082.77l-7.368.102 4.148 8.564c.281.578.04 1.274-.538 1.556l-4.411 2.147c-.165.08-.338.117-.51.117z"/>
</svg>
