<svg xmlns="http://www.w3.org/2000/svg" width="153" height="123" fill="none" viewBox="0 0 153 123">
    <path fill="#000" d="M126.396 115.018c1.658-.028 2.944-1.359 2.932-3.032-.01-1.684-1.298-2.973-2.976-2.98-1.72-.007-3.11 1.409-3.046 3.1.062 1.633 1.448 2.94 3.09 2.912zm-41.521-96.8c3.563-.028 6.585-3.025 6.55-6.499-.034-3.445-3.17-6.432-6.695-6.377-3.556.056-6.562 3.057-6.542 6.535.019 3.464 3.083 6.37 6.687 6.341zm-11.73 43.12c-.074-3.824-3.02-6.743-6.722-6.657-3.663.085-6.499 3.162-6.434 6.978.06 3.387 3.151 6.262 6.678 6.211 3.638-.052 6.545-2.984 6.477-6.532zm-61.438-43.11c3.647-.014 6.588-2.982 6.57-6.629-.017-3.62-3.033-6.612-6.645-6.588-3.616.026-6.597 3.044-6.578 6.663.02 3.635 2.998 6.57 6.653 6.555zm43.89 92.391c0-3.661-2.927-6.614-6.573-6.629-3.821-.017-6.69 2.999-6.69 7.027.002 3.693 2.882 6.596 6.56 6.61 3.834.016 6.702-2.982 6.702-7.008zm73.661-23.472h15.822c-.829-1.193-1.498-2.256-2.268-3.24-1.096-1.397-1.146-2.712-.028-4.132.795-1.006 1.463-2.114 2.312-3.362h-15.838v10.734zM54.97 60.033c1.869-6.81 5.814-10.3 11.594-10.326 5.896-.025 9.746 3.34 11.774 10.394h1.509c10.247 0 20.492.017 30.739-.006 11.916-.028 21.28-8.492 22.552-20.34 1.232-11.485-7.374-22.678-18.92-23.937-5.822-.636-11.751-.295-17.631-.332-.364-.001-.885.473-1.075.856-2.22 4.45-5.748 6.932-10.753 6.917-4.938-.016-8.41-2.49-10.647-6.854-.233-.456-.985-.916-1.498-.918-16.237-.049-32.472-.029-48.708-.068-1.048-.002-1.426.462-1.828 1.291-2.426 4.985-7.764 7.499-13.143 6.247C3.767 21.757.034 17.077 0 11.762-.036 5.692 4.376.821 10.585.074 16.163-.598 21.69 3.371 22.944 9.06c.228 1.03.568 1.362 1.615 1.36 15.816-.032 31.632-.022 47.448-.026.362 0 .725-.046 1.178-.075.1-.415.202-.812.292-1.212C74.668 3.85 79.338.071 84.722.013c5.332-.059 10.177 3.68 11.338 8.936.267 1.213.727 1.468 1.85 1.472 5.358.017 10.734-.148 16.066.245 12.326.91 23.008 11.692 24.152 24.036 1.366 14.73-7.912 27.172-22.424 29.979-1.74.337-3.548.442-5.325.45-10.404.04-20.808.034-31.21-.004-1.114-.004-1.729.224-2.283 1.334-2.114 4.225-5.682 6.465-10.374 6.472-4.69.005-8.258-2.222-10.394-6.439-.54-1.065-1.11-1.381-2.258-1.372-7.145.056-14.292.003-21.437.033-11.93.052-21.55 9.306-22.11 21.226-.557 11.846 8.254 22.085 20.072 23.198 2.286.215 4.609.031 7.022.031.521-3.296 2-6.048 4.708-8.047 2.096-1.546 4.468-2.306 7.07-2.273 5.68.075 9.64 3.641 11.467 10.389h1.516c18.39 0 36.78-.005 55.171.016 1.035.002 1.577-.264 2.179-1.249.814-1.335 2.008-2.567 3.312-3.432.986-.655 1.306-1.217 1.302-2.333-.038-9.986-.022-19.97-.022-29.955.001-.21-.002-.42 0-.63 0-2.489.63-3.557 2.205-3.74 1.503-.177 2.349.64 3.076 3.074h1.652c6.147 0 12.296-.05 18.441.055.908.014 2.044.554 2.647 1.23.821.924.307 2.056-.388 3.023-1.137 1.576-2.141 3.253-3.361 4.759-.831 1.024-.708 1.737.038 2.708 1.183 1.537 2.202 3.2 3.328 4.784.69.968 1.2 2.102.379 3.024-.605.68-1.74 1.23-2.649 1.246-6.146.107-12.295.056-18.442.056h-1.865c0 3.918-.039 7.684.056 11.448.011.404.744.888 1.237 1.167 3.326 1.881 4.916 5.641 3.879 9.285-1.036 3.64-4.384 6.07-8.184 5.828-2.941-.188-5.187-1.624-6.592-4.216-.425-.785-.847-1.121-1.773-1.12-18.916.028-37.832.028-56.747 0-.883-.001-1.255.323-1.627 1.082-2.137 4.36-5.696 6.728-10.53 6.742-4.903.015-8.502-2.385-10.638-6.813-.397-.824-.85-1.013-1.674-1.005-4.46.053-8.91.156-13.258-1.262-12.023-3.914-19.926-15.72-18.866-28.328 1.053-12.512 10.63-22.813 23.008-24.688 1.6-.242 3.24-.318 4.862-.325 7.093-.032 14.187-.01 21.28-.012.465 0 .93-.044 1.366-.065z"/>
</svg>
