<svg xmlns="http://www.w3.org/2000/svg" width="40" height="40" fill="none" viewBox="0 0 40 40">
    <path fill="#8BCCFD" d="M20.155 36.505c-9.305 0-16.848-7.544-16.848-16.849S10.85 2.808 20.155 2.808c9.306 0 16.85 7.543 16.85 16.848-.011 9.301-7.548 16.839-16.85 16.85zm0-36.505C9.3 0 .498 8.8.498 19.656c0 10.856 8.801 19.657 19.657 19.657s19.658-8.801 19.658-19.657C39.8 8.806 31.007.011 20.155 0z"/>
    <path fill="#8BCCFD" d="M17.347 23v-6.689l6.69 3.346L17.346 23zm11.087-3.97c-.136-.273-.358-.495-.63-.63L16.57 12.782c-.694-.346-1.536-.065-1.883.628-.097.196-.148.41-.148.628v11.234c0 .776.628 1.404 1.403 1.404.218 0 .433-.05.628-.148l11.233-5.616c.693-.346.976-1.19.63-1.883z"/>
</svg>
