<svg xmlns="http://www.w3.org/2000/svg" width="42" height="42" fill="none" viewBox="0 0 42 42">
    <path fill="#8BCCFD" d="M39.92 34.191c0 .984-.801 1.785-1.785 1.785H35.78c-.446 0-.81.363-.81.811v2.67l-4.008-3.28c-.22-.2-.414-.2-.848-.2H18.66c-.984 0-1.784-.802-1.784-1.786v-7.436c4.799-1.296 8.539-5.199 9.599-10.09h11.659c.984 0 1.785.8 1.785 1.785V34.19zm-1.785-19.148H26.724c.036-.401.056-.807.056-1.216 0-7.383-6.008-13.39-13.39-13.39-2.353 0-4.666.62-6.691 1.789-.388.225-.52.721-.296 1.11.224.387.72.52 1.108.296 1.778-1.028 3.812-1.572 5.878-1.572 6.488 0 11.767 5.28 11.767 11.767 0 6.488-5.279 11.767-11.767 11.767-2.716 0-5.268-.9-7.378-2.602-.211-.17-.492-.22-.748-.144l-2.154.564.844-1.854c.122-.266.09-.576-.082-.814-1.471-2.02-2.248-4.412-2.248-6.917 0-2.072.546-4.11 1.578-5.892.226-.388.094-.884-.294-1.11-.387-.223-.884-.093-1.108.295C.62 9.15 0 11.468 0 13.827c0 2.69.788 5.267 2.284 7.481L.925 24.292c-.129.286-.084.62.119.86.201.24.523.342.825.262l3.451-.903c2.313 1.748 5.161 2.705 8.07 2.705.633 0 1.254-.045 1.863-.13v7.105c0 1.879 1.53 3.408 3.408 3.408h11.476l5.131 4.199c.148.12.33.182.513.182.119 0 .238-.025.348-.078.284-.134.464-.419.464-.734V37.6h1.542c1.88 0 3.408-1.53 3.408-3.408V18.45c0-1.879-1.528-3.407-3.408-3.407z"/>
    <path fill="#8BCCFD" d="M26.81 27.178l1.589-3.619 1.587 3.619H26.81zm5.626 1.545c.275-.129.466-.409.466-.734 0-.448-.363-.811-.811-.811h-.332l-2.616-5.964c-.13-.295-.421-.485-.744-.485s-.615.19-.743.485l-2.617 5.964h-.332c-.448 0-.812.363-.812.81 0 .326.192.606.467.735l-.975 2.222c-.18.409.007.888.417 1.068.41.18.888-.007 1.068-.418l1.227-2.794h4.6l1.225 2.794c.135.306.432.487.744.487.11 0 .22-.023.326-.07.41-.18.597-.658.417-1.067l-.975-2.222zM4.496 5.744c.213 0 .422-.087.573-.238.15-.152.237-.36.237-.573 0-.215-.086-.423-.237-.575-.15-.15-.36-.237-.573-.237-.215 0-.423.087-.574.237-.15.152-.238.36-.238.575 0 .213.088.421.238.573.15.15.36.238.574.238zM8.546 18.765c-.394.216-.538.708-.322 1.102.148.269.426.421.712.421.132 0 .266-.032.39-.1 1.81-.992 3.201-2.536 4.016-4.356.814 1.82 2.205 3.364 4.016 4.356.124.068.257.1.39.1.286 0 .563-.152.711-.421.216-.394.072-.886-.321-1.102-2.119-1.162-3.544-3.237-3.898-5.582h3.603c.448 0 .81-.364.81-.812 0-.448-.362-.812-.81-.812h-3.69v-3.38c0-.45-.363-.812-.811-.812-.448 0-.812.362-.812.812v3.38H9.6c-.449 0-.812.364-.812.812 0 .448.363.812.811.812h2.844c-.353 2.345-1.78 4.421-3.897 5.582z"/>
</svg>
