<svg xmlns="http://www.w3.org/2000/svg" width="37" height="42" fill="none" viewBox="0 0 37 42">
    <path fill="#8BCCFD" d="M4.323 34.077C7.038 30.438 8.51 26.034 8.51 21.43v-3.804c0-5.477 4.456-9.934 9.934-9.934 5.478 0 9.934 4.457 9.934 9.934v3.804c0 4.604 1.47 9.008 4.186 12.647H4.323zm14.12 4.768c-1.554 0-2.88-.996-3.372-2.384h6.743c-.492 1.388-1.817 2.384-3.372 2.384h.001zM17.25 4.115c0-.657.536-1.191 1.193-1.191.658 0 1.192.534 1.192 1.192v1.25c-.393-.038-.79-.058-1.192-.058-.402 0-.8.02-1.193.058v-1.25zM30.76 21.43v-3.804c0-5.55-3.687-10.252-8.74-11.788V4.116c0-1.972-1.606-3.576-3.577-3.576-1.972 0-3.577 1.604-3.577 3.576v1.722c-5.053 1.536-8.741 6.239-8.741 11.788v3.804c0 4.874-1.858 9.496-5.232 13.014-.33.345-.423.854-.236 1.293.188.438.618.724 1.097.724h10.848c.555 2.717 2.963 4.768 5.841 4.768 2.879 0 5.287-2.05 5.84-4.768h10.848c.479 0 .91-.285 1.098-.724.186-.439.094-.948-.236-1.294-3.374-3.517-5.232-8.14-5.232-13.013zM33.94 17.626c0 .659.534 1.192 1.192 1.192.66 0 1.192-.533 1.192-1.192 0-4.777-1.86-9.266-5.237-12.644-.465-.465-1.22-.465-1.685 0-.466.466-.466 1.22 0 1.686 2.926 2.928 4.538 6.82 4.538 10.958zM1.754 18.819c.658 0 1.192-.534 1.192-1.192 0-4.14 1.612-8.031 4.538-10.96.466-.465.466-1.22 0-1.685-.465-.465-1.22-.465-1.685 0C2.422 8.36.562 12.85.562 17.627c0 .658.533 1.192 1.192 1.192z"/>
</svg>
