<svg xmlns="http://www.w3.org/2000/svg" width="41" height="42" fill="none" viewBox="0 0 41 42">
    <path fill="#8BCCFD" d="M24.027 38.92c-4.195 0-8.093-1.793-10.804-4.885 4.552.03 3.343.023 3.553.023 10.79 0 18.847-10.123 16.31-20.69 6.613 5.4 7.156 15.283 1.12 21.328-.467.47-.464 1.23.008 1.695l2.493 2.462-12.68.066zM6.595 27.443C3.885 24.73 2.39 21.12 2.39 17.282c0-7.932 6.453-14.384 14.385-14.384 7.93 0 14.383 6.452 14.383 14.384 0 7.601-6.015 14.445-14.85 14.377l-12.214-.058 2.493-2.46c.472-.467.475-1.227.007-1.696zm30.124 8.06c7.101-8.191 4.63-20.926-5.028-25.894C28.9 4.209 23.263.506 16.776.506 7.526.506 0 8.03 0 17.282c0 4.072 1.443 7.924 4.084 10.97l-3.728 3.68c-.754.744-.232 2.04.835 2.046l9.001.042c3.103 4.514 8.227 7.29 13.835 7.29l15.585-.08c1.063-.005 1.592-1.299.834-2.047l-3.727-3.678z"/>
    <path fill="#8BCCFD" d="M9.643 13.736h14.344c.66 0 1.195-.535 1.195-1.195 0-.661-.535-1.196-1.195-1.196H9.643c-.66 0-1.195.535-1.195 1.196 0 .66.535 1.195 1.195 1.195zM9.643 18.518h14.344c.66 0 1.195-.535 1.195-1.195 0-.661-.535-1.196-1.195-1.196H9.643c-.66 0-1.195.535-1.195 1.196 0 .66.535 1.195 1.195 1.195zM9.643 23.3h14.344c.66 0 1.195-.535 1.195-1.195 0-.662-.535-1.197-1.195-1.197H9.643c-.66 0-1.195.535-1.195 1.197 0 .66.535 1.194 1.195 1.194z"/>
</svg>
