<svg xmlns="http://www.w3.org/2000/svg" width="44" height="33" fill="none" viewBox="0 0 44 33">
    <path fill="#8BCCFD" d="M8.763 10.248c.014-.79-.653-1.47-1.446-1.475-.778-.007-1.44.626-1.464 1.404-.028.79.628 1.484 1.418 1.503.794.018 1.478-.638 1.492-1.432zm20.438 1.428c.79.013 1.473-.655 1.476-1.447.002-.776-.633-1.435-1.41-1.459-.79-.027-1.482.628-1.502 1.42-.02.792.637 1.474 1.436 1.486zm-7.28-2.907c-.794-.003-1.465.67-1.462 1.461.004.79.686 1.456 1.479 1.447.777-.01 1.425-.657 1.433-1.435.008-.793-.659-1.47-1.45-1.473zm14.597 2.91c.788.005 1.47-.675 1.468-1.462-.003-.772-.65-1.43-1.424-1.448-.796-.019-1.479.638-1.49 1.433-.013.793.654 1.472 1.446 1.478zm-20.45-1.433c.012-.785-.662-1.472-1.45-1.477-.772-.004-1.438.637-1.464 1.408-.025.783.639 1.484 1.425 1.503.793.018 1.477-.64 1.49-1.434zm16.81-8.772c-.785-.001-1.459.668-1.46 1.453-.002.788.665 1.456 1.455 1.458.79.001 1.458-.664 1.46-1.452 0-.79-.663-1.456-1.455-1.459zm-7.324 2.91c.79.01 1.464-.649 1.473-1.438.01-.79-.65-1.461-1.441-1.472-.788-.01-1.464.65-1.473 1.44-.01.787.65 1.461 1.44 1.47zm-5.832-1.442c.008-.788-.654-1.46-1.444-1.468-.79-.007-1.463.653-1.47 1.441-.009.788.652 1.462 1.443 1.47.79.008 1.463-.652 1.47-1.443zm-8.786 1.443c.789.01 1.475-.663 1.48-1.45.003-.773-.637-1.436-1.412-1.46-.791-.026-1.485.63-1.502 1.422-.019.792.643 1.477 1.434 1.488zm24.712 3.034c-.248-.89-.984-1.509-1.886-1.558-.588-.032-1.181-.032-1.77 0-.942.05-1.742.746-1.862 1.57 2.055 1.046 2.461 2.32 1.465 4.575l1.279 1.059 1.282-1.057c-.985-2.26-.573-3.56 1.492-4.589zm-12.84-.022c1.98.87 2.593 2.756 1.486 4.613l1.273 1.056 1.317-1.087c-.538-.81-.753-1.689-.436-2.653.315-.957 1.01-1.54 1.903-1.903-.284-.94-1.01-1.522-1.957-1.564-.555-.025-1.112-.026-1.667-.002-.934.041-1.688.66-1.92 1.54zm-9.072.017c-.276-.916-.993-1.51-1.902-1.555-.59-.028-1.183-.029-1.772.006-.92.054-1.653.681-1.872 1.577.924.335 1.581.957 1.899 1.91.32.965.06 1.84-.434 2.634l1.302 1.077 1.27-1.054c-.938-2.37-.568-3.523 1.51-4.595zm4.505 5.672l1.329-1.105c-.52-.82-.748-1.696-.425-2.662.318-.956 1.014-1.536 1.905-1.898-.297-.936-.999-1.51-1.916-1.559-.572-.03-1.147-.03-1.719-.004-.934.04-1.693.67-1.921 1.581.915.344 1.584.95 1.898 1.907.32.967.066 1.839-.447 2.667.256.185.488.336.7.512.21.175.4.374.596.561zm12.44 11.7c0-1.592.027-3.136-.011-4.677-.016-.63.19-1.034.782-1.244.146-.052.307-.11.415-.212.119-.116.26-.284.263-.433.023-.99.034-1.98.004-2.968-.035-1.162-.95-2.058-2.114-2.103-.486-.019-.974-.01-1.46-.001-1.311.022-2.232.933-2.253 2.237-.013.78.042 1.565-.02 2.342-.048.613.143.967.73 1.158.569.182.809.59.754 1.205-.043.499-.006 1.006-.005 1.51v3.186h2.916zm-7.305.004c0-1.672.008-3.285-.004-4.898-.003-.436.16-.731.554-.911.205-.094.427-.174.599-.314.137-.112.294-.3.3-.458.025-.99.033-1.98.003-2.97-.034-1.154-.958-2.049-2.125-2.09-.486-.017-.973-.012-1.461-.004-1.296.021-2.227.952-2.244 2.248-.01.747.052 1.497-.018 2.238-.064.671.131 1.072.786 1.28.532.17.728.57.703 1.135-.037.78-.011 1.563-.011 2.343-.002.793 0 1.587 0 2.401h2.919zm-14.61-.004c0-1.665.008-3.277-.004-4.89-.004-.435.155-.733.55-.913.203-.094.425-.174.597-.313.138-.112.3-.299.303-.457.027-.97.033-1.944.006-2.916-.035-1.226-.955-2.119-2.176-2.15-.47-.013-.939-.01-1.408-.002-1.305.021-2.23.94-2.247 2.241-.01.782.043 1.566-.016 2.343-.046.612.139.968.732 1.155.572.177.81.589.75 1.203-.042.447-.007.903-.007 1.354v3.345h2.92zm29.22.013c0-1.626.016-3.203-.01-4.78-.009-.54.166-.902.674-1.1.16-.064.337-.126.457-.24.142-.137.319-.327.324-.498.032-.955.032-1.91.012-2.866-.025-1.238-.962-2.149-2.21-2.169-.47-.008-.94-.008-1.408.003-1.28.027-2.191.937-2.213 2.219-.012.763.04 1.53-.018 2.292-.048.634.113 1.043.761 1.24.556.17.739.588.724 1.173-.035 1.388-.01 2.779-.01 4.168v.558h2.917zm-21.915-.013c0-1.643.015-3.223-.008-4.801-.008-.523.179-.863.66-1.056.176-.07.368-.141.506-.265.133-.12.285-.306.29-.466.024-.972.03-1.945.003-2.917-.034-1.215-.96-2.106-2.188-2.135-.452-.01-.904-.008-1.356-.001-1.364.016-2.275.934-2.287 2.306-.005.747.047 1.498-.014 2.24-.054.629.122 1.007.744 1.2.575.18.762.603.746 1.211-.04 1.388-.014 2.777-.014 4.167 0 .168.015.336.025.517h2.893zm23.381-.979c0 .555.003 1.037 0 1.518-.005.69-.255.947-.94.948-1.303.003-2.608.003-3.912 0-.753-.002-.993-.244-.994-1-.003-1.563 0-3.127-.002-4.69 0-.39-.364-.755-.733-.749-.38.007-.724.364-.724.759-.001 1.58.004 3.16 0 4.74-.001.684-.26.94-.948.943-1.304.002-2.608 0-3.913-.003-.745-.003-.984-.248-.986-1.01-.002-1.476 0-2.952 0-4.428 0-.628-.291-1.02-.742-1-.464.018-.718.38-.718 1.027.002 1.459.006 2.918.002 4.376-.002.796-.235 1.034-1.016 1.036-1.285.004-2.573.002-3.86-.001-.719-.003-.97-.253-.97-.97-.005-1.582 0-3.162-.003-4.742 0-.368-.338-.71-.703-.728-.357-.016-.753.364-.753.732-.003 1.597.002 3.194-.005 4.792 0 .65-.269.912-.92.915-1.289.005-2.575.002-3.862 0-.834 0-1.06-.222-1.062-1.038-.002-1.545 0-3.09-.004-4.636 0-.404-.337-.76-.715-.765-.37-.004-.738.364-.74.747 0 1.597.005 3.196-.002 4.793-.002.604-.264.892-.833.896-1.39.01-2.783.01-4.173.001-.555-.004-.823-.285-.835-.843-.012-.514-.003-1.03-.003-1.62-.998.431-1.9.869-2.568 1.655-.484.57-.49 1.084.026 1.634.349.374.76.742 1.218.956 1.147.533 2.306 1.072 3.51 1.442 3.46 1.063 7.029 1.51 10.63 1.728 5.752.347 11.475.153 17.137-.984 2.22-.445 4.411-1.01 6.397-2.152.473-.273.92-.633 1.292-1.033.48-.519.471-1.006.023-1.548-.668-.81-1.584-1.259-2.596-1.697zM4.94 11.974c-.422-.712-.693-1.482-.485-2.352.244-1.023.85-1.724 1.824-2.12.147-.06.355-.162.387-.283.289-1.108.96-1.907 1.94-2.453-.822-1.999-.635-3.242.612-4.178 1.029-.773 2.549-.753 3.546.047 1.212.975 1.392 2.27.566 4.073l1.28 1.066 1.282-1.06c-.819-1.903-.621-3.194.636-4.134 1.041-.778 2.596-.738 3.587.094 1.173.985 1.358 2.382.517 4.021l1.283 1.083c.414-.346.837-.696 1.302-1.086-.506-.82-.826-1.756-.38-2.713.254-.543.647-1.088 1.117-1.452 1.01-.784 2.52-.66 3.482.16 1.152.983 1.322 2.29.512 4.015l1.27 1.074 1.284-1.06c-.809-1.94-.618-3.192.636-4.13 1.037-.776 2.542-.755 3.544.05 1.208.971 1.388 2.283.542 4.116.99.556 1.67 1.371 1.95 2.498.02.088.16.166.262.212 1.985.884 2.544 2.532 1.49 4.42-.015.03-.02.065-.06.203.013.005.086.02.148.054 1.333.796 1.937 1.979 1.905 3.52-.021.99-.033 1.98.005 2.97.024.59-.188.989-.737 1.162-.615.195-.73.579-.766 1.198-.052.9.214 1.353 1.08 1.724.903.387 1.763.99 2.483 1.668 1.183 1.114 1.126 2.614.012 3.8-.853.91-1.93 1.474-3.058 1.942-2.491 1.03-5.106 1.595-7.762 1.98-6.598.962-13.206.984-19.812.102-2.952-.394-5.866-.977-8.626-2.15-1.062-.45-2.067-1-2.874-1.85-1.154-1.215-1.15-2.682.01-3.9.862-.9 1.953-1.44 3.082-1.903.324-.134.494-.29.43-.647-.015-.084-.012-.173-.002-.259.119-.874-.01-1.582-1.02-1.884-.204-.058-.412-.48-.421-.742-.043-1.232-.048-2.467-.008-3.699.039-1.181.581-2.124 1.547-2.817l.422-.301c.012-.01.015-.03.036-.08z"/>
</svg>
