<svg xmlns="http://www.w3.org/2000/svg" width="40" height="39" fill="none" viewBox="0 0 40 39">
    <path fill="#8BCCFD" d="M34.967 29.118c-.416 0-.755.337-.755.754v8.04c0 .418.339.755.755.755.417 0 .754-.337.754-.755v-8.04c0-.417-.337-.754-.754-.754zM34.967 25.72c-.2 0-.394.08-.534.22-.141.14-.221.335-.221.534s.08.393.221.535c.14.14.335.22.534.22.198 0 .393-.08.533-.22.141-.142.221-.336.221-.535s-.08-.393-.221-.533c-.14-.14-.335-.222-.533-.222z"/>
    <path fill="#8BCCFD" d="M36.867 9.779c-.32 0-.623.062-.903.176v-1.5c0-1.332-1.084-2.416-2.416-2.416-.32 0-.626.062-.907.176v-.296c0-1.334-1.084-2.418-2.416-2.418-1.332 0-2.418 1.084-2.418 2.418v.296c-.28-.114-.585-.176-.906-.176-1.332 0-2.416 1.084-2.416 2.416v6.206c-.28-.113-.587-.177-.907-.177-.32 0-.627.064-.905.177v-.297c0-1.332-1.084-2.416-2.417-2.416-.19 0-.372.023-.55.064V8.695c0-1.334-1.084-2.418-2.416-2.418-.319 0-.624.063-.902.175V4.953c0-1.333-1.086-2.417-2.418-2.417-.321 0-.627.064-.907.177v-.296C13.063 1.084 11.98 0 10.648 0 9.314 0 8.23 1.084 8.23 2.417v.296c-.278-.113-.585-.177-.905-.177-1.333 0-2.417 1.084-2.417 2.417v5.655c-.551-.615-1.398-.937-2.26-.784-.655.115-1.224.481-1.6 1.03-.376.55-.512 1.211-.383 1.865l.87 4.422c.346 1.746 1.194 3.332 2.453 4.588l1.578 1.575v14.608c0 .417.339.755.756.755.418 0 .755-.338.755-.755V22.991c0-.202-.08-.394-.221-.535l-1.8-1.796c-1.048-1.044-1.751-2.361-2.038-3.81l-.872-4.423c-.05-.252.003-.507.148-.719.146-.21.364-.352.616-.397.49-.087.967.224 1.086.706l.593 2.423c.113.463.54.757 1.012.7.473-.056.817-.444.817-.92V4.953c0-.5.407-.906.907-.906.499 0 .905.406.905.906v8.232c0 .416.339.755.756.755.416 0 .755-.339.755-.755V2.417c0-.5.407-.906.907-.906.498 0 .906.406.906.906v10.768c0 .416.338.755.755.755s.755-.339.755-.755V4.953c0-.5.406-.906.906-.906s.907.406.907.906v7.266c0 .417.337.754.755.754.417 0 .755-.337.755-.754V8.635c.031-.472.423-.848.903-.848.499 0 .907.408.907.906v4.41c-.227.366-.357.8-.357 1.261v.297c-.28-.113-.587-.177-.907-.177-1.333 0-2.418 1.084-2.418 2.417v5.655c-.55-.615-1.397-.937-2.258-.784-.656.115-1.224.48-1.6 1.03-.376.55-.514 1.211-.384 1.865l.872 4.422c.344 1.746 1.192 3.332 2.452 4.588l1.579 1.575v2.66c0 .417.337.755.754.755.418 0 .756-.338.756-.755v-2.973c0-.202-.08-.394-.223-.535l-1.8-1.796c-1.046-1.044-1.75-2.361-2.037-3.81l-.872-4.423c-.05-.252.003-.507.148-.719.146-.21.364-.352.618-.397.489-.087.965.224 1.084.708l.593 2.421c.113.463.539.757 1.012.7.473-.057.817-.444.817-.92v-9.267c0-.5.407-.906.907-.906.498 0 .907.406.907.906v8.232c0 .416.337.755.754.755.416 0 .755-.339.755-.755V14.364c0-.499.407-.905.907-.905s.906.406.906.905v10.77c0 .415.338.754.755.754s.756-.339.756-.755v-8.232c0-.5.405-.906.905-.906.48 0 .872.374.903.846v8.292c0 .416.338.755.756.755h.003c.417 0 .756-.339.756-.755v-4.55c.03-.472.422-.847.902-.847.5 0 .907.405.907.905v7.339c0 1.953-.795 3.865-2.177 5.244l-1.165 1.161c-.14.142-.22.335-.22.535v2.992c0 .417.338.755.754.755.417 0 .756-.338.756-.755v-2.679l.941-.938c1.69-1.686 2.62-3.928 2.62-6.315v-7.339c0-1.332-1.084-2.416-2.416-2.416-.319 0-.624.063-.902.176V8.455c0-.5.406-.906.905-.906.5 0 .907.406.907.906v7.405c0 .417.338.755.754.755.418 0 .756-.338.756-.755V5.919c0-.5.407-.907.907-.907s.905.407.905.907v10.768c0 .417.339.754.756.754.418 0 .755-.337.755-.754V8.455c0-.5.407-.906.907-.906s.905.406.905.906l-.002 8.232c0 .417.338.754.755.754h.002c.418 0 .756-.337.756-.754v-4.551c.032-.472.424-.847.904-.847.5 0 .906.407.906.906v7.34c0 1.421-.407 2.805-1.175 4.001-.225.35-.122.817.229 1.044.125.08.266.119.406.119.248 0 .492-.123.636-.347.925-1.44 1.413-3.105 1.413-4.817v-7.34c0-1.332-1.082-2.416-2.416-2.416z"/>
</svg>
