<svg xmlns="http://www.w3.org/2000/svg" width="37" height="43" fill="none" viewBox="0 0 37 43">
    <path fill="#8BCCFD" d="M3.808 16.066h.002c0 1.933-.029 3.867.007 5.8.064 3.507 1.077 6.716 3.21 9.524 2.898 3.82 6.806 6.173 11.298 7.645.196.063.453.026.659-.038 2.317-.712 4.48-1.756 6.476-3.128 5.137-3.536 7.904-8.347 7.874-14.666-.018-3.814-.01-7.626.006-11.44.001-.397-.108-.584-.488-.72-4.644-1.672-9.279-3.365-13.923-5.037-.208-.076-.49-.083-.697-.008-4.675 1.687-9.343 3.393-14.018 5.08-.324.117-.416.279-.413.61.013 2.126.007 4.251.007 6.378zm-2.954-.924c0-2.495.007-4.99-.01-7.485-.002-.374.108-.54.47-.672 5.647-2.04 11.287-4.1 16.934-6.144.193-.07.453-.074.645-.004C24.54 2.88 30.18 4.94 35.826 6.982c.363.13.468.304.467.676-.013 4.603.003 9.207-.01 13.81-.02 6.675-2.833 11.95-8.085 15.975-2.76 2.118-5.826 3.651-9.169 4.616-.257.075-.57.106-.819.032-5.073-1.525-9.513-4.08-12.957-8.172C2.31 30.422.916 26.334.86 21.783.832 19.57.854 17.355.854 15.142z"/>
    <path fill="#8BCCFD" d="M15.563 25.437c3.699-3.71 7.252-7.275 10.779-10.81l1.952 1.974-12.725 12.7c-2.218-2.223-4.504-4.516-6.76-6.781l1.98-1.967 4.774 4.884z"/>
</svg>
