<svg xmlns="http://www.w3.org/2000/svg" width="47" height="37" fill="none" viewBox="0 0 47 37">
    <path fill="#8BCCFD" d="M40.809 13.73l-7.16-9.107 3.655-2.322 6.689 8.689-3.184 2.74zm-3.647 6.577L27.077 10.222c-.019-.02-.04-.039-.06-.055-.145-.121-.325-.194-.515-.208l-4.944-.35c-.341-.024-.681.157-.85.456l-2.542 4.486c-.182.322-.48.554-.837.652-.356.1-.73.054-1.053-.13-.323-.182-.554-.48-.654-.836-.098-.358-.052-.731.13-1.054l3.394-5.99 1.376-.395c.01-.003.018-.005.027-.01l5.132-1.48h6.203l7.74 9.84-2.462 5.16zm-.374 4.143c-.54.541-1.42.54-1.962 0-.018-.02-.04-.037-.061-.055l-5.812-5.874c-.352-.355-.924-.358-1.279-.006-.354.35-.357.923-.006 1.278l5.874 5.937.003.001c.541.542.541 1.422 0 1.962-.263.26-.61.406-.98.406s-.72-.145-.981-.406l-3.931-3.971c-.35-.355-.923-.357-1.277-.007-.355.35-.358.924-.007 1.279l3.87 3.91c.02.025.04.049.063.071.54.54.54 1.42 0 1.96-.541.542-1.421.542-1.961 0l-2.145-2.168c-.352-.354-.924-.357-1.28-.006-.354.352-.356.924-.006 1.278l2.086 2.107c.02.025.04.048.064.07.54.542.54 1.422 0 1.962-.542.541-1.42.541-1.962 0-.062-.061-.134-.11-.205-.164-.059-.044-.073-.076-.044-.147.03-.073.073-.138.104-.213.033-.081.06-.165.085-.25.139-.446.18-.926.118-1.39-.12-.89-.608-1.692-1.35-2.2-.401-.275-.864-.453-1.345-.521.233-1.027-.047-2.14-.773-2.91-.6-.632-1.408-.986-2.278-.998h-.096c.02-.831-.282-1.655-.854-2.26-.6-.632-1.407-.987-2.276-1-.26-.003-.52.025-.772.082-.107-.748-.486-1.441-1.056-1.937-.568-.49-1.283-.764-2.044-.775-.8-.012-1.587.284-2.182.822l-3.494-4.708 8.36-10.184 2.664.728-3.48 6.14c-.422.742-.527 1.604-.3 2.426.228.822.762 1.507 1.505 1.928.045.026.092.05.14.075l.01.005c.126.062.254.115.385.16.605.21 1.26.234 1.89.059.823-.227 1.508-.761 1.928-1.504L22 11.452l4.037.286 10.75 10.75c.54.542.54 1.422 0 1.962zM19.925 34.538c-.541-.54-.541-1.42 0-1.96l1.103-1.103c.032-.033.068-.065.104-.094v-.002c.18-.146.392-.244.617-.286l.015-.002c.038-.006.078-.013.117-.016l.048-.002c.033-.003.065-.004.097-.004.378.005.728.16.99.434.032.034.06.07.089.106.416.542.36 1.35-.156 1.866l-1.064 1.063c-.54.541-1.42.541-1.96 0zm-3.676-2.841c-.263-.262-.407-.61-.407-.98 0-.371.144-.72.407-.982l2.137-2.137c.438-.437 1.14-.532 1.675-.22.49.285.747.845.663 1.401-.047.307-.192.595-.411.814l-2.104 2.104c-.261.26-.61.405-.98.405s-.719-.144-.98-.405zm-3.228-3.26c-.263-.262-.407-.61-.407-.98s.144-.718.407-.98l2.137-2.138c.41-.41 1.054-.521 1.576-.272.54.258.844.843.766 1.432-.043.315-.19.61-.414.836l-2.104 2.103c-.261.263-.61.405-.98.405s-.72-.142-.981-.405zm-2.836-5.624l1.103-1.103c.033-.035.068-.065.105-.095.215-.176.476-.281.752-.305l.024-.001c.039-.004.079-.006.117-.006.379.006.73.16.99.435.51.54.484 1.421-.06 1.965l-1.07 1.07c-.541.54-1.42.54-1.961 0-.54-.542-.54-1.42 0-1.96zM9.67 2.29l3.652 2.323-7.945 9.678-3.183-2.74L9.67 2.29zm36.278 8.275L38.232.542c-.286-.37-.807-.461-1.202-.21L32.05 3.498h-6.497c-.084 0-.168.018-.248.042l-5.04 1.45-5.226-1.43L9.96.332C9.57.085 9.06.17 8.77.526L.236 11.096c-.307.38-.256.935.114 1.254l4.474 3.85 4.013 5.407c-1.175 1.25-1.15 3.223.07 4.444.54.542 1.23.847 1.937.918-.024.16-.036.324-.036.489 0 .853.332 1.655.934 2.259.604.602 1.406.936 2.26.936l.034-.002-.002.066c0 .852.332 1.654.936 2.258.603.603 1.406.936 2.259.936.168 0 .335-.014.499-.04.069.71.376 1.403.918 1.946.623.622 1.44.934 2.259.934s1.636-.312 2.26-.934l.488-.488.205.165c.618.597 1.419.897 2.222.897.817 0 1.636-.312 2.258-.934.636-.636.947-1.475.934-2.31.834.014 1.673-.298 2.309-.933.635-.635.947-1.473.933-2.308.87.015 1.694-.319 2.31-.935.634-.634.946-1.474.933-2.31.835.014 1.673-.296 2.31-.932 1.083-1.084 1.223-2.762.42-4l2.93-6.136 4.404-3.791c.364-.313.42-.856.127-1.237z"/>
</svg>
