<svg xmlns="http://www.w3.org/2000/svg" width="40" height="40" fill="none" viewBox="0 0 40 40">
    <path fill="#8BCCFD" d="M7.765 13.925c-.42 0-.761.34-.761.76s.341.761.761.761.762-.341.762-.761-.342-.76-.762-.76z"/>
    <path fill="#8BCCFD" d="M37.63 36.941c-.891.892-2.334.892-3.226 0l-5.856-5.855 3.228-3.227 5.855 5.854c.892.892.893 2.335 0 3.228zm-9.082-12.31l2.152 2.151-3.228 3.229-2.15-2.152 3.226-3.229zM5.951 22.479c-4.757-4.758-4.759-12.46 0-17.218C10.71.504 18.41.503 23.168 5.261c4.748 4.747 4.77 12.447 0 17.218-4.825 4.825-12.524 4.693-17.217 0zm19.37 3.227l-1.63-1.628c.19-.17.375-.345.553-.523.18-.18.355-.364.524-.554l1.63 1.63-1.078 1.075zm3.766-2.689c-.143-.144-.336-.224-.539-.224-.006.002-.3-.014-.537.224l-.537.538-1.75-1.75c3.859-5.408 3.272-12.868-1.48-17.62-5.352-5.352-14.016-5.353-19.37 0-5.351 5.352-5.352 14.016 0 19.37 4.74 4.74 12.2 5.348 17.622 1.48l1.748 1.747-.537.54c-.297.295-.297.778 0 1.075l9.62 9.62c1.486 1.487 3.893 1.488 5.38 0 1.486-1.486 1.488-3.893 0-5.38l-9.62-9.62z"/>
    <path fill="#8BCCFD" d="M21.016 20.327c-3.569 3.568-9.344 3.57-12.913 0-3.559-3.56-3.559-9.354 0-12.915 3.567-3.565 9.345-3.567 12.913.001 3.56 3.56 3.56 9.354 0 12.914zm1.076-13.99c-4.16-4.16-10.902-4.162-15.065 0-4.152 4.154-4.152 10.912 0 15.066 4.164 4.164 10.901 4.164 15.065 0 4.154-4.154 4.154-10.912 0-15.066z"/>
    <path fill="#8BCCFD" d="M14.56 6.261c-2.033 0-3.944.792-5.38 2.228-.833.832-1.445 1.816-1.821 2.923-.135.399.078.83.476.965.398.135.83-.078.965-.476.3-.883.79-1.669 1.456-2.336 1.148-1.149 2.677-1.78 4.304-1.78.42 0 .761-.342.761-.762 0-.422-.34-.762-.76-.762z"/>
</svg>
