<svg xmlns="http://www.w3.org/2000/svg" width="35" height="40" fill="none" viewBox="0 0 35 40">
    <path fill="#8BCCFD" d="M32.468 36.219c0 .641-.523 1.164-1.164 1.164H12.46V2.327h18.845c.641 0 1.164.522 1.164 1.164v32.728zm-27.455 0v-2.792h1.318c.642 0 1.164-.522 1.164-1.163 0-.643-.522-1.164-1.164-1.164H5.013v-3.879h1.318c.642 0 1.164-.52 1.164-1.162 0-.643-.522-1.163-1.164-1.163H5.013v-3.879h1.318c.642 0 1.164-.521 1.164-1.162 0-.643-.522-1.164-1.164-1.164H5.013v-3.878h1.318c.642 0 1.164-.521 1.164-1.164 0-.641-.522-1.162-1.164-1.162H5.013V8.608h1.318c.642 0 1.164-.52 1.164-1.163 0-.642-.522-1.164-1.164-1.164H5.013v-2.79c0-.642.522-1.164 1.163-1.164h3.956v35.056H6.176c-.641 0-1.163-.523-1.163-1.164zM31.304 0H6.176c-1.924 0-3.49 1.565-3.49 3.49v2.791H1.369c-.643 0-1.164.522-1.164 1.164 0 .643.521 1.163 1.164 1.163h1.319v3.879H1.368c-.643 0-1.164.521-1.164 1.162 0 .643.521 1.164 1.164 1.164h1.319v3.878H1.368c-.643 0-1.164.521-1.164 1.164 0 .641.521 1.162 1.164 1.162h1.319v3.879H1.368c-.643 0-1.164.52-1.164 1.163 0 .642.521 1.162 1.164 1.162h1.319V31.1H1.368c-.643 0-1.164.521-1.164 1.164 0 .641.521 1.163 1.164 1.163h1.319v2.792c0 1.924 1.565 3.49 3.49 3.49h25.127c1.925 0 3.49-1.566 3.49-3.49V3.49C34.795 1.565 33.23 0 31.305 0z"/>
    <path fill="#8BCCFD" d="M25.1 11.245h-5.275V8.608H25.1v2.637zm1.164-4.963h-7.601c-.643 0-1.163.52-1.163 1.163v4.964c0 .643.52 1.163 1.163 1.163h7.601c.641 0 1.163-.52 1.163-1.163V7.445c0-.643-.522-1.163-1.163-1.163z"/>
</svg>
