<svg xmlns="http://www.w3.org/2000/svg" width="44" height="47" fill="none" viewBox="0 0 44 47">
    <path fill="#8BCCFD" d="M21.9 12.929c-5.652 0-10.249 4.599-10.249 10.25 0 4.374 1.521 6.458 2.993 8.474 1.412 1.935 2.874 3.935 2.874 7.667v2.841c0 1.761 1.432 3.193 3.193 3.193h2.38c1.76 0 3.193-1.432 3.193-3.193V39.32c0-3.732 1.46-5.732 2.872-7.667 1.472-2.016 2.995-4.1 2.995-8.475 0-5.65-4.599-10.249-10.25-10.249zm1.191 33.948h-2.38c-2.601 0-4.717-2.115-4.717-4.716V39.32c0-3.236-1.195-4.872-2.579-6.768-1.541-2.111-3.288-4.503-3.288-9.374 0-6.49 5.281-11.772 11.773-11.772s11.774 5.282 11.774 11.772c0 4.871-1.746 7.263-3.287 9.374-1.384 1.896-2.58 3.532-2.58 6.768v2.841c0 2.601-2.116 4.716-4.716 4.716z"/>
    <path fill="#8BCCFD" d="M27.044 38.95h-10.34v-1.525h10.34v1.524zM27.044 41.132h-10.34v-1.523h10.34v1.523zM26.89 43.299H16.755v-1.523H26.89v1.523z"/>
    <path fill="#8BCCFD" d="M21.216 37.425h1.394l2.412-13.158-2.452 1.532c-.234.146-.528.154-.771.02l-3.039-1.671 2.456 13.277zm2.028 1.524h-2.661c-.367 0-.681-.262-.748-.624l-2.865-15.48c-.054-.29.065-.584.302-.754.239-.174.555-.194.814-.051l4.056 2.23 3.537-2.209c.255-.16.581-.153.83.016.25.17.375.47.322.767l-2.837 15.48c-.066.361-.382.625-.75.625zM22.661 6.318H21.14V.948h1.522v5.37zM43.21 23.468h-5.371v-1.523h5.37v1.523zM35.096 11.686l-1.077-1.078 3.798-3.797 1.076 1.076-3.797 3.799zM6.026 23.468H.656v-1.523h5.37v1.523zM8.768 11.686l-3.798-3.8 1.077-1.075 3.799 3.797-1.078 1.078z"/>
</svg>
