<svg xmlns="http://www.w3.org/2000/svg" width="40" height="39" fill="none" viewBox="0 0 40 39">
    <path fill="#8BCCFD" d="M7.37 13.753c-.42 0-.76.341-.76.761s.34.761.76.761.762-.34.762-.76-.341-.762-.761-.762z"/>
    <path fill="#8BCCFD" d="M37.235 36.77c-.892.893-2.334.893-3.226 0l-5.856-5.855 3.228-3.227 5.854 5.856c.892.892.894 2.334 0 3.226zm-9.082-12.31l2.152 2.151-3.228 3.23-2.152-2.154 3.228-3.226zM5.555 22.309C.798 17.55.797 9.848 5.555 5.09c4.759-4.758 12.459-4.758 17.218 0 4.746 4.747 4.77 12.446 0 17.216-4.826 4.826-12.524 4.694-17.218 0zm19.37 3.229l-1.63-1.63c.19-.169.375-.343.554-.523.18-.18.354-.364.524-.554l1.629 1.63-1.077 1.077zm3.766-2.69c-.142-.144-.336-.224-.538-.224-.007.002-.3-.015-.538.223l-.537.538-1.75-1.748c3.86-5.409 3.273-12.87-1.48-17.62-5.351-5.354-14.015-5.355-19.369 0-5.352 5.351-5.353 14.016 0 19.367 4.74 4.742 12.199 5.35 17.622 1.48l1.748 1.75-.538.537c-.297.298-.297.78 0 1.076l9.62 9.62c1.487 1.488 3.894 1.488 5.38 0 1.487-1.486 1.488-3.892 0-5.38l-9.62-9.62z"/>
    <path fill="#8BCCFD" d="M20.62 20.156c-3.568 3.568-9.343 3.57-12.912 0-3.56-3.56-3.56-9.353 0-12.915 3.566-3.565 9.345-3.566 12.913.002 3.56 3.56 3.56 9.353 0 12.913zm1.077-13.99c-4.16-4.16-10.903-4.163-15.065 0-4.152 4.154-4.152 10.913 0 15.066 4.164 4.164 10.9 4.164 15.065 0 4.153-4.153 4.153-10.912 0-15.065z"/>
    <path fill="#8BCCFD" d="M14.165 6.09c-2.034 0-3.944.792-5.38 2.229-.834.832-1.446 1.816-1.822 2.922-.134.4.079.831.476.966.399.134.83-.079.966-.476.3-.884.789-1.67 1.456-2.336 1.147-1.15 2.677-1.781 4.303-1.781.42 0 .762-.342.762-.762 0-.421-.341-.761-.761-.761z"/>
</svg>
