<svg xmlns="http://www.w3.org/2000/svg" width="45" height="37" fill="none" viewBox="0 0 45 37">
    <path fill="#8BCCFD" d="M36.924 33.93c.472-.008.836-.386.833-.86-.002-.48-.369-.846-.845-.849-.49-.001-.884.402-.867.882.018.465.412.835.88.828zM25.123 6.42c1.013-.008 1.872-.86 1.861-1.848-.01-.98-.9-1.828-1.903-1.812-1.01.016-1.864.868-1.858 1.857.005.984.876 1.81 1.9 1.803zm-3.335 12.254c-.02-1.086-.859-1.916-1.91-1.892-1.04.024-1.846.899-1.829 1.984.018.963.896 1.779 1.9 1.765 1.032-.015 1.86-.848 1.84-1.857zM4.327 6.421c1.037-.004 1.873-.848 1.868-1.884-.006-1.03-.863-1.88-1.89-1.873-1.028.008-1.874.865-1.869 1.895.005 1.033.852 1.866 1.89 1.862zM16.8 32.681c0-1.041-.832-1.881-1.868-1.885-1.086-.004-1.9.852-1.9 1.997 0 1.05.818 1.875 1.863 1.879 1.09.005 1.905-.848 1.905-1.99zm20.936-6.672h4.498c-.236-.338-.426-.641-.646-.921-.31-.398-.325-.77-.008-1.175.227-.285.416-.6.658-.954h-4.502v3.05zm-21.114-7.707c.532-1.934 1.653-2.928 3.296-2.934 1.674-.007 2.77.95 3.345 2.953h.43c2.911 0 5.825.005 8.737-.001 3.386-.007 6.048-2.414 6.41-5.78.35-3.264-2.097-6.445-5.378-6.804-1.655-.18-3.34-.084-5.01-.095-.105 0-.253.135-.306.244-.632 1.266-1.635 1.97-3.056 1.966-1.404-.004-2.39-.707-3.027-1.948-.067-.13-.28-.26-.427-.262-4.614-.013-9.229-.008-13.844-.018-.297 0-.404.132-.518.366-.69 1.418-2.207 2.132-3.736 1.776C2.07 7.424 1.009 6.093 1 4.583.99 2.859 2.244 1.473 4.008 1.26c1.585-.19 3.156.938 3.512 2.554.065.293.161.388.46.386 4.495-.01 8.99-.006 13.485-.008.103 0 .207-.012.335-.02.028-.118.057-.232.083-.345.338-1.493 1.666-2.567 3.197-2.584 1.515-.017 2.892 1.047 3.221 2.54.076.344.207.417.527.419 1.523.005 3.05-.043 4.567.069 3.502.259 6.538 3.323 6.864 6.83.388 4.188-2.25 7.723-6.374 8.522-.494.096-1.009.125-1.514.128-2.956.01-5.914.01-8.87-.002-.317 0-.492.064-.649.38-.6 1.2-1.615 1.837-2.948 1.84-1.333 0-2.347-.631-2.955-1.831-.153-.303-.314-.392-.64-.39-2.032.016-4.064 0-6.094.01-3.39.014-6.126 2.643-6.284 6.033-.159 3.366 2.346 6.277 5.705 6.593.65.062 1.31.008 1.995.008.15-.936.57-1.719 1.338-2.287.596-.44 1.271-.655 2.01-.646 1.614.023 2.74 1.036 3.258 2.953h.432c5.227 0 10.454-.001 15.68.004.295.002.45-.075.62-.355.232-.38.571-.729.942-.974.28-.187.372-.347.37-.664-.012-2.837-.006-5.676-.006-8.514l-.002-.178c.002-.708.18-1.012.628-1.064.427-.05.667.183.874.873h.47c1.747 0 3.494-.013 5.24.016.26.006.582.158.754.35.233.264.086.585-.11.86-.324.448-.609.925-.956 1.353-.237.29-.2.493.011.768.336.437.625.91.945 1.36.196.274.342.598.108.86-.173.193-.494.35-.753.354-1.747.03-3.495.017-5.241.017h-.53c0 1.113-.012 2.182.016 3.253.002.114.211.252.351.332.945.535 1.397 1.602 1.103 2.639-.295 1.034-1.247 1.725-2.326 1.655-.837-.053-1.474-.46-1.874-1.197-.12-.224-.24-.319-.504-.319-5.376.008-10.752.007-16.128 0-.252 0-.358.091-.463.309-.607 1.238-1.619 1.911-2.992 1.915-1.395.003-2.417-.678-3.025-1.937-.112-.233-.24-.288-.475-.285-1.268.014-2.532.044-3.768-.359-3.417-1.112-5.664-4.468-5.363-8.052.3-3.556 3.022-6.484 6.54-7.016.455-.07.92-.09 1.382-.093 2.016-.008 4.032-.003 6.048-.003.133 0 .264-.012.388-.019z"/>
    <path stroke="#8BCCFD" stroke-miterlimit="10" stroke-width=".667" d="M36.924 33.93c.472-.008.836-.386.833-.86-.002-.48-.369-.846-.845-.849-.49-.001-.884.402-.867.882.018.465.412.835.88.828zM25.123 6.42c1.013-.008 1.872-.86 1.861-1.848-.01-.98-.9-1.828-1.903-1.812-1.01.016-1.864.868-1.858 1.857.005.984.876 1.81 1.9 1.803v0zm-3.335 12.254c-.02-1.086-.859-1.916-1.91-1.892-1.04.024-1.846.899-1.829 1.984.018.963.896 1.779 1.9 1.765 1.032-.015 1.86-.848 1.84-1.857v0zM4.327 6.421c1.037-.004 1.873-.848 1.868-1.884-.006-1.03-.863-1.88-1.89-1.873-1.028.008-1.874.865-1.869 1.895.005 1.033.852 1.866 1.89 1.862v0zM16.8 32.681c0-1.041-.832-1.881-1.868-1.885-1.086-.004-1.9.852-1.9 1.997 0 1.05.818 1.875 1.863 1.879 1.09.005 1.905-.848 1.905-1.99v0zm20.936-6.672h4.498c-.236-.338-.426-.641-.646-.921-.31-.398-.325-.77-.008-1.175.227-.285.416-.6.658-.954h-4.502v3.05zm-21.114-7.707c.532-1.934 1.653-2.928 3.296-2.934 1.674-.007 2.77.95 3.345 2.953h.43c2.911 0 5.825.005 8.737-.001 3.386-.007 6.048-2.414 6.41-5.78.35-3.264-2.097-6.445-5.378-6.804-1.655-.18-3.34-.084-5.01-.095-.105 0-.253.135-.306.244-.632 1.266-1.635 1.97-3.056 1.966-1.404-.004-2.39-.707-3.027-1.948-.067-.13-.28-.26-.427-.262-4.614-.013-9.229-.008-13.844-.018-.297 0-.404.132-.518.366-.69 1.418-2.207 2.132-3.736 1.776C2.07 7.424 1.009 6.093 1 4.583.99 2.859 2.244 1.473 4.008 1.26c1.585-.19 3.156.938 3.512 2.554.065.293.161.388.46.386 4.495-.01 8.99-.006 13.485-.008.103 0 .207-.012.335-.02.028-.118.057-.232.083-.345.338-1.493 1.666-2.567 3.197-2.584 1.515-.017 2.892 1.047 3.221 2.54.076.344.207.417.527.419 1.523.005 3.05-.043 4.567.069 3.502.259 6.538 3.323 6.864 6.83.388 4.188-2.25 7.723-6.374 8.522-.494.096-1.009.125-1.514.128-2.956.01-5.914.01-8.87-.002-.317 0-.492.064-.649.38-.6 1.2-1.615 1.837-2.948 1.84-1.333 0-2.347-.631-2.955-1.831-.153-.303-.314-.392-.64-.39-2.032.016-4.064 0-6.094.01-3.39.014-6.126 2.643-6.284 6.033-.159 3.366 2.346 6.277 5.705 6.593.65.062 1.31.008 1.995.008.15-.936.57-1.719 1.338-2.287.596-.44 1.271-.655 2.01-.646 1.614.023 2.74 1.036 3.258 2.953h.432c5.227 0 10.454-.001 15.68.004.295.002.45-.075.62-.355.232-.38.571-.729.942-.974.28-.187.372-.347.37-.664-.012-2.837-.006-5.676-.006-8.514l-.002-.178c.002-.708.18-1.012.628-1.064.427-.05.667.183.874.873h.47c1.747 0 3.494-.013 5.24.016.26.006.582.158.754.35.233.264.086.585-.11.86-.324.448-.609.925-.956 1.353-.237.29-.2.493.011.768.336.437.625.91.945 1.36.196.274.342.598.108.86-.173.193-.494.35-.753.354-1.747.03-3.495.017-5.241.017h-.53c0 1.113-.012 2.182.016 3.253.002.114.211.252.351.332.945.535 1.397 1.602 1.103 2.639-.295 1.034-1.247 1.725-2.326 1.655-.837-.053-1.474-.46-1.874-1.197-.12-.224-.24-.319-.504-.319-5.376.008-10.752.007-16.128 0-.252 0-.358.091-.463.309-.607 1.238-1.619 1.911-2.992 1.915-1.395.003-2.417-.678-3.025-1.937-.112-.233-.24-.288-.475-.285-1.268.014-2.532.044-3.768-.359-3.417-1.112-5.664-4.468-5.363-8.052.3-3.556 3.022-6.484 6.54-7.016.455-.07.92-.09 1.382-.093 2.016-.008 4.032-.003 6.048-.003.133 0 .264-.012.388-.019v0z"/>
</svg>
