<svg xmlns="http://www.w3.org/2000/svg" width="39" height="38" fill="none" viewBox="0 0 39 38">
    <path fill="#6ED59F" d="M3.072 34.273h8.807V3.053H3.072v31.22zm10.274 2.929H1.608c-.809 0-1.465-.657-1.465-1.466V1.587C.143.777.8.122 1.608.122h11.738c.808 0 1.465.656 1.465 1.465v34.15c0 .808-.657 1.465-1.465 1.465z"/>
    <path fill="#6ED59F" d="M25.084 37.202H13.345v-2.93H23.62V14.494H13.345v-2.931h11.739c.808 0 1.465.656 1.465 1.465v22.708c0 .81-.657 1.466-1.465 1.466z"/>
    <path fill="#6ED59F" d="M36.822 37.202H25.083v-2.93h10.274V22.796H25.084v-2.93h11.738c.808 0 1.465.656 1.465 1.465v14.405c0 .81-.657 1.466-1.465 1.466z"/>
</svg>
