<svg xmlns="http://www.w3.org/2000/svg" width="40" height="39" fill="none" viewBox="0 0 40 39">
    <path fill="#6ED59F" d="M10.677 3.246c-4.138 0-7.502 3.365-7.502 7.501V19c0 4.136 3.364 7.502 7.502 7.502.408 0 .798.166 1.082.462.283.295.434.69.416 1.1l-.233 5.73 7.39-6.888c.278-.26.645-.404 1.023-.404h9.096c4.136 0 7.503-3.366 7.503-7.502v-8.252c0-4.136-3.367-7.501-7.503-7.501H10.677zm-.384 35.633c-.212 0-.426-.045-.626-.137-.553-.253-.899-.816-.873-1.424l.324-7.93C4.063 28.632.174 24.26.174 18.998v-8.252C.174 4.957 4.884.245 10.677.245H29.45c5.79 0 10.503 4.712 10.503 10.502V19c0 5.792-4.712 10.503-10.503 10.503h-8.505l-9.63 8.975c-.284.264-.65.402-1.024.402z"/>
</svg>
