<svg xmlns="http://www.w3.org/2000/svg" width="36" height="40" fill="none" viewBox="0 0 36 40">
    <path fill="#6ED59F" d="M29.74 34.119c-.214 0-.432-.055-.632-.17L6.228 20.74c-.393-.227-.634-.646-.634-1.098 0-.453.241-.87.633-1.097l22.881-13.21c.607-.35 1.38-.143 1.731.463.35.606.143 1.38-.464 1.731L9.394 19.641l20.981 12.114c.607.35.813 1.124.464 1.73-.236.407-.66.634-1.099.634z"/>
    <path fill="#fff" d="M11.802 19.642c0 2.729-2.213 4.941-4.942 4.941-2.73 0-4.943-2.212-4.943-4.941 0-2.73 2.214-4.943 4.943-4.943 2.73 0 4.942 2.213 4.942 4.943z"/>
    <path fill="#6ED59F" d="M6.86 15.967c-2.027 0-3.675 1.648-3.675 3.674 0 2.027 1.648 3.676 3.675 3.676s3.674-1.65 3.674-3.676c0-2.026-1.647-3.674-3.674-3.674zm0 9.884c-3.423 0-6.208-2.786-6.208-6.21s2.785-6.208 6.208-6.208 6.208 2.784 6.208 6.208c0 3.424-2.785 6.21-6.208 6.21z"/>
    <path fill="#fff" d="M34.683 6.43c0 2.73-2.212 4.944-4.942 4.944-2.729 0-4.942-2.214-4.942-4.943 0-2.73 2.213-4.941 4.942-4.941 2.73 0 4.942 2.212 4.942 4.94z"/>
    <path fill="#6ED59F" d="M29.742 2.756c-2.027 0-3.675 1.648-3.675 3.675s1.648 3.675 3.675 3.675c2.026 0 3.674-1.648 3.674-3.675s-1.648-3.675-3.674-3.675zm0 9.883c-3.423 0-6.208-2.785-6.208-6.208 0-3.424 2.785-6.208 6.208-6.208 3.422 0 6.208 2.784 6.208 6.208 0 3.423-2.786 6.208-6.208 6.208z"/>
    <path fill="#fff" d="M34.683 32.852c0 2.73-2.212 4.942-4.942 4.942-2.729 0-4.942-2.213-4.942-4.942 0-2.73 2.213-4.942 4.942-4.942 2.73 0 4.942 2.212 4.942 4.942z"/>
    <path fill="#6ED59F" d="M29.742 29.177c-2.027 0-3.675 1.649-3.675 3.675 0 2.027 1.648 3.675 3.675 3.675 2.026 0 3.674-1.648 3.674-3.675 0-2.026-1.648-3.674-3.674-3.674zm0 9.885c-3.423 0-6.208-2.787-6.208-6.21 0-3.422 2.785-6.208 6.208-6.208 3.422 0 6.208 2.786 6.208 6.208 0 3.423-2.786 6.21-6.208 6.21z"/>
</svg>
