<svg xmlns="http://www.w3.org/2000/svg" width="38" height="51" fill="none" viewBox="0 0 38 51">
    <path fill="#6ED59F" d="M9.064 25.706c-.994 0-1.8.808-1.8 1.801v5.979c0 7.757 6.31 14.068 14.068 14.068 7.757 0 14.068-6.311 14.068-14.068v-8.698c0-.993-.808-1.801-1.8-1.801-.994 0-1.8.808-1.8 1.801 0 .699-.568 1.267-1.267 1.267-.7 0-1.267-.568-1.267-1.267v-2.165c0-.993-.807-1.8-1.8-1.8s-1.8.807-1.8 1.8c0 .699-.567 1.267-1.268 1.267-.698 0-1.266-.568-1.266-1.267v-2.625c0-.994-.807-1.8-1.8-1.8-.992 0-1.8.806-1.8 1.8v2.625c0 .699-.567 1.267-1.267 1.267s-1.267-.568-1.267-1.267c0-.993-.808-1.8-1.8-1.8-.993 0-1.8.807-1.8 1.8v4.884c0 .699-.567 1.267-1.268 1.267-.7 0-1.266-.568-1.266-1.267 0-.993-.807-1.801-1.8-1.801zm12.268 24.382c-9.155 0-16.602-7.448-16.602-16.602v-5.979c0-2.39 1.944-4.335 4.334-4.335.642 0 1.25.14 1.8.392v-.941c0-2.39 1.944-4.333 4.334-4.333.713 0 1.384.172 1.978.477.53-1.792 2.193-3.104 4.156-3.104 1.962 0 3.624 1.312 4.156 3.104.593-.305 1.265-.477 1.977-.477 1.819 0 3.379 1.125 4.021 2.716.626-.351 1.347-.551 2.114-.551 2.39 0 4.333 1.944 4.333 4.333v8.698c0 9.154-7.448 16.602-16.601 16.602zM5.997 17.432c-.7 0-1.267-.568-1.267-1.267V2.02c0-.7.567-1.267 1.267-1.267.699 0 1.267.568 1.267 1.267v14.146c0 .699-.568 1.267-1.267 1.267z"/>
    <path fill="#6ED59F" d="M1.266 7.264c-.324 0-.648-.124-.895-.37-.495-.495-.495-1.298 0-1.792L5.101.37c.495-.495 1.297-.495 1.791 0l4.732 4.73c.495.495.495 1.298 0 1.793-.496.494-1.297.494-1.792 0L5.998 3.058 2.162 6.894c-.248.246-.572.37-.896.37zM5.997 20.157c-.336 0-.658-.133-.896-.37l-4.73-4.733c-.495-.494-.495-1.296 0-1.79.494-.496 1.296-.496 1.79 0l3.836 3.834 3.835-3.834c.494-.496 1.297-.496 1.792 0 .494.493.494 1.296 0 1.79l-4.732 4.732c-.236.238-.559.371-.895.371z"/>
</svg>
