<svg xmlns="http://www.w3.org/2000/svg" width="47" height="37" fill="none" viewBox="0 0 47 37">
    <path fill="#FD7B92" d="M41.048 13.63L33.84 4.465l3.678-2.34 6.735 8.75-3.205 2.757zm-3.672 6.622L27.222 10.1c-.018-.02-.038-.039-.06-.055-.145-.122-.326-.197-.518-.21l-4.976-.352c-.344-.026-.687.158-.856.457l-2.56 4.517c-.184.324-.483.558-.843.658-.359.098-.735.052-1.06-.131-.324-.184-.557-.484-.657-.843-.099-.36-.054-.736.132-1.06l3.416-6.03 1.384-.396.028-.011 5.166-1.492h6.243l7.795 9.907-2.48 5.193zm-.378 4.172c-.544.544-1.429.544-1.973 0-.02-.02-.04-.04-.061-.056l-5.852-5.913c-.354-.358-.93-.36-1.287-.007-.359.353-.361.93-.007 1.287l5.915 5.977.001.003c.544.544.544 1.429 0 1.973-.264.264-.613.41-.986.41-.374 0-.724-.146-.987-.41l-3.957-3.997c-.354-.359-.93-.362-1.287-.008-.357.354-.36.929-.007 1.288l3.896 3.936c.02.026.042.048.064.072.544.544.544 1.429 0 1.973-.545.544-1.43.544-1.974 0l-2.16-2.183c-.354-.356-.93-.36-1.287-.005-.357.352-.36.93-.007 1.285l2.1 2.122c.02.025.04.048.063.072.544.544.544 1.429 0 1.973-.544.545-1.43.545-1.973 0-.063-.061-.136-.11-.207-.164-.06-.045-.075-.076-.045-.15.03-.073.074-.138.105-.211.033-.084.06-.168.087-.254.138-.446.18-.933.117-1.398-.12-.896-.612-1.704-1.359-2.215-.404-.276-.87-.457-1.354-.525.234-1.032-.047-2.155-.779-2.928-.603-.638-1.416-.992-2.292-1.007h-.096c.019-.835-.284-1.665-.861-2.275-.603-.637-1.416-.992-2.292-1.005-.26-.004-.523.023-.776.081-.108-.753-.488-1.45-1.064-1.95-.572-.495-1.29-.77-2.058-.779-.805-.012-1.597.284-2.197.828l-3.517-4.743L15.06 5.27l2.682.734-3.502 6.181c-.424.75-.53 1.615-.303 2.443.23.828.768 1.517 1.515 1.94.046.028.094.052.141.077l.01.005c.127.063.257.118.387.162.611.21 1.27.234 1.906.058.826-.229 1.516-.766 1.94-1.514l2.276-4.018 4.064.29L37 22.448c.544.545.544 1.432-.002 1.976zM20.022 34.58c-.544-.544-.544-1.43 0-1.975l1.11-1.11.105-.095.003-.001c.18-.147.392-.244.618-.288l.016-.003.12-.015.047-.002c.033-.002.064-.004.097-.004.38.005.735.16.996.437.032.033.063.07.09.105.418.548.362 1.362-.156 1.88l-1.07 1.071c-.545.544-1.43.544-1.976 0zm-3.7-2.863c-.264-.262-.409-.613-.409-.985 0-.373.145-.724.41-.988l2.15-2.15c.441-.44 1.148-.537 1.688-.222.493.287.75.848.665 1.41-.045.309-.192.6-.413.82l-2.116 2.115c-.264.266-.615.41-.988.41-.372 0-.724-.144-.987-.41zm-3.249-3.28c-.264-.262-.41-.613-.41-.986 0-.372.146-.724.41-.987l2.152-2.152c.412-.412 1.06-.525 1.587-.273.542.258.848.846.77 1.441-.044.316-.192.615-.417.841l-2.117 2.116c-.264.266-.615.41-.988.41-.374 0-.723-.144-.987-.41zm-2.856-5.664l1.11-1.109c.034-.033.07-.064.106-.095.217-.177.479-.282.757-.308h.024c.04-.004.08-.006.12-.005.38.005.734.16.995.437.515.543.487 1.431-.061 1.979l-1.076 1.076c-.544.544-1.43.544-1.975 0-.544-.544-.544-1.43 0-1.975zM9.7 2.113l3.676 2.339-7.998 9.744-3.205-2.759L9.7 2.113zm36.521 8.332L38.453.355c-.288-.374-.812-.466-1.21-.212L32.23 3.332h-6.541c-.084 0-.17.017-.25.044l-5.072 1.457-5.262-1.44L9.99.143c-.39-.25-.906-.164-1.196.196L.202 10.98c-.309.382-.258.94.115 1.26l4.503 3.876 4.04 5.444c-1.182 1.26-1.159 3.244.07 4.475.546.544 1.24.85 1.951.923-.024.161-.037.325-.037.492 0 .86.334 1.666.942 2.273.607.608 1.415.943 2.274.943l.034-.002v.067c0 .859.334 1.665.94 2.273.608.607 1.416.942 2.275.942.17 0 .337-.011.503-.039.07.716.377 1.413.924 1.959.626.626 1.45.94 2.274.94.823 0 1.647-.314 2.274-.94l.492-.491.206.167c.622.601 1.43.901 2.236.901.824 0 1.648-.313 2.274-.94.64-.64.954-1.484.941-2.325.839.013 1.684-.298 2.324-.939.64-.637.953-1.483.94-2.323.876.014 1.705-.322 2.324-.942.64-.64.953-1.483.941-2.324.84.012 1.684-.3 2.324-.939 1.092-1.093 1.232-2.781.423-4.028l2.95-6.177 4.434-3.816c.367-.315.423-.863.128-1.246z"/>
</svg>
