<svg xmlns="http://www.w3.org/2000/svg" width="38" height="43" fill="none" viewBox="0 0 38 43">
    <path fill="#FD7B92" d="M31.229 37.006c-.228 0-.46-.058-.674-.182L6.194 22.76c-.417-.241-.675-.687-.675-1.168 0-.483.258-.928.675-1.17L30.555 6.359c.647-.374 1.47-.152 1.843.493.372.645.152 1.47-.493 1.843L9.565 21.59l22.34 12.897c.645.374.865 1.198.493 1.843-.25.432-.703.675-1.17.675z"/>
    <path fill="#fff" d="M12.13 21.591c0 2.905-2.356 5.261-5.262 5.261-2.905 0-5.261-2.356-5.261-5.261 0-2.905 2.356-5.261 5.261-5.261 2.906 0 5.262 2.356 5.262 5.261z"/>
    <path fill="#FD7B92" d="M6.868 17.678c-2.157 0-3.913 1.755-3.913 3.914 0 2.157 1.756 3.912 3.913 3.912s3.913-1.755 3.913-3.912c0-2.159-1.756-3.914-3.913-3.914zm0 10.524c-3.644 0-6.61-2.966-6.61-6.61 0-3.646 2.966-6.61 6.61-6.61s6.61 2.964 6.61 6.61c0 3.644-2.966 6.61-6.61 6.61z"/>
    <path fill="#fff" d="M36.492 7.526c0 2.905-2.356 5.261-5.262 5.261-2.905 0-5.262-2.356-5.262-5.261 0-2.907 2.357-5.261 5.262-5.261 2.906 0 5.262 2.354 5.262 5.261z"/>
    <path fill="#FD7B92" d="M31.23 3.613c-2.157 0-3.913 1.755-3.913 3.912 0 2.158 1.756 3.914 3.913 3.914s3.913-1.756 3.913-3.914c0-2.157-1.756-3.912-3.913-3.912zm0 10.523c-3.644 0-6.61-2.967-6.61-6.61 0-3.645 2.966-6.61 6.61-6.61s6.61 2.965 6.61 6.61c0 3.643-2.966 6.61-6.61 6.61z"/>
    <path fill="#fff" d="M36.492 35.656c0 2.907-2.356 5.262-5.262 5.262-2.905 0-5.262-2.355-5.262-5.262 0-2.905 2.357-5.26 5.262-5.26 2.906 0 5.262 2.355 5.262 5.26z"/>
    <path fill="#FD7B92" d="M31.23 31.744c-2.157 0-3.913 1.755-3.913 3.913s1.756 3.913 3.913 3.913 3.913-1.755 3.913-3.913-1.756-3.913-3.913-3.913zm0 10.523c-3.644 0-6.61-2.966-6.61-6.61 0-3.645 2.966-6.61 6.61-6.61s6.61 2.965 6.61 6.61c0 3.645-2.966 6.61-6.61 6.61z"/>
</svg>
