<svg xmlns="http://www.w3.org/2000/svg" width="37" height="42" fill="none" viewBox="0 0 37 42">
    <path fill="#FD7B92" d="M3.791 15.28h.003c0 1.933-.028 3.867.007 5.801.064 3.506 1.077 6.715 3.21 9.523 2.898 3.82 6.806 6.173 11.298 7.647.196.06.453.024.658-.04 2.318-.712 4.48-1.756 6.476-3.127 5.138-3.537 7.904-8.348 7.875-14.667-.019-3.814-.01-7.628.005-11.441.002-.395-.108-.581-.488-.72-4.644-1.67-9.278-3.364-13.922-5.036-.208-.076-.49-.081-.698-.008-4.674 1.687-9.342 3.392-14.017 5.081-.324.118-.416.278-.413.608.013 2.128.006 4.252.006 6.379zm-2.953-.924c-.001-2.493.007-4.99-.01-7.485-.002-.375.107-.542.47-.672C6.945 4.159 12.585 2.097 18.231.055c.194-.071.454-.074.646-.004 5.646 2.042 11.286 4.102 16.933 6.145.363.13.468.304.467.676-.012 4.603.002 9.207-.011 13.81-.019 6.675-2.832 11.95-8.084 15.975-2.761 2.118-5.827 3.65-9.17 4.616-.257.075-.569.106-.818.032-5.073-1.525-9.512-4.08-12.957-8.173C2.294 29.636.899 25.548.843 20.997.815 18.784.838 16.57.838 14.356z"/>
    <path fill="#FD7B92" d="M15.547 24.65l10.778-10.809c.671.676 1.332 1.346 1.952 1.974l-12.725 12.7c-2.217-2.224-4.504-4.516-6.76-6.782.635-.63 1.303-1.293 1.98-1.968 1.525 1.562 3.103 3.175 4.775 4.886z"/>
</svg>
