<svg xmlns="http://www.w3.org/2000/svg" width="42" height="31" fill="none" viewBox="0 0 42 31">
    <path fill="#FD7B92" d="M39.449 28.83H1.73v-3.098h37.719v3.097zM5.699 7.99h8.862v16.143H5.699V7.991zM16.158 1.6h8.861v22.536h-8.861V1.599zm19.323 22.536h-8.862V12.787h8.862v11.348zm4.766 0h-3.169V11.988c0-.443-.357-.8-.799-.8h-9.661V.8c0-.441-.357-.8-.799-.8H15.36c-.441 0-.798.359-.798.8v5.593H4.899c-.441 0-.798.358-.798.799v16.943H.93c-.441 0-.8.356-.8.798v4.696c0 .441.359.799.8.799h39.316c.442 0 .8-.358.8-.799v-4.696c0-.442-.358-.798-.8-.798z"/>
    <path fill="#FD7B92" d="M20.099 14.567h.182v3.792c0 .441.358.798.799.798.441 0 .799-.357.799-.798v-4.592c0-.44-.358-.799-.8-.799h-.98c-.442 0-.8.359-.8.799 0 .441.358.8.8.8zM11.39 19.44h-.01c-.265.004-.541.007-.805.008.21-.287.463-.64.765-1.072.319-.455.519-.87.61-1.273.008-.026.013-.054.016-.079l.022-.179c.005-.033.007-.068.007-.101 0-1.088-.885-1.973-1.973-1.973-.942 0-1.757.669-1.938 1.592-.084.433.197.853.63.938.433.084.853-.197.938-.63.035-.175.19-.303.37-.303.194 0 .354.15.373.339l-.008.066c-.039.14-.13.364-.357.687-.723 1.035-1.155 1.6-1.387 1.903-.293.385-.506.662-.375 1.088.077.253.276.457.53.54.106.034.18.06 1.107.06.357 0 .838-.004 1.495-.012.441-.006.795-.368.79-.81-.006-.437-.363-.789-.8-.789zM31.05 19.452c-.187 0-.347-.139-.373-.322l-.003-.054c0-.442-.358-.8-.8-.8-.44 0-.798.358-.798.8 0 .092.005.181.019.274.135.967.976 1.7 1.954 1.7 1.089 0 1.974-.886 1.974-1.974 0-.439-.144-.848-.388-1.175.244-.328.388-.736.388-1.176 0-1.087-.886-1.972-1.974-1.972-.94 0-1.755.67-1.937 1.592-.085.432.198.854.63.938.434.085.854-.197.94-.631.033-.174.188-.302.367-.302.207 0 .377.17.377.375 0 .207-.17.376-.377.376-.44 0-.8.359-.8.8 0 .442.36.8.8.8.207 0 .377.168.377.375 0 .206-.17.376-.377.376z"/>
</svg>
