<svg xmlns="http://www.w3.org/2000/svg" width="31" height="38" fill="none" viewBox="0 0 31 38">
    <path fill="#FD7B92" d="M28.284 9.641c0 1.175-.955 2.13-2.13 2.13h-.325c-1.296 0-2.156-1.007-2.156-2.13V4.197C23.753 3 24.76 2.06 25.977 2.055H26c1.253.002 2.285.996 2.285 2.356v5.23zm-5.665 0c0 1.175-.955 2.13-2.128 2.13h-.326c-1.141 0-2.077-.88-2.133-2.006l.001-5.596c.092-1.176 1.084-2.105 2.267-2.114H20.35c1.204.01 2.197.958 2.268 2.158v5.428zm-5.69.472c-.576-1.017-1.67-1.706-2.921-1.706h-1.621V4.21c.072-1.2 1.069-2.147 2.274-2.156H14.712c1.181.01 2.175.94 2.267 2.114 0 3.722-.003 4.888 0 5.274 0 .272.012.404-.05.67zm6.928 19.356c.872 0 1.583.71 1.583 1.583v4.885H5.319v-4.885c0-.873.71-1.583 1.582-1.583h16.956zM29.34 4.167C29.24 2.399 27.78 1 26.008 1c-1.048 0-2.201.524-2.863 1.543C22.48 1.505 21.317 1 20.326 1c-1.05 0-2.17.537-2.82 1.543C16.894 1.6 15.841 1 14.685 1c-1.075 0-2.178.535-2.826 1.543C11.257 1.609 10.208 1 9.036 1 7.35 1 5.786 2.337 5.684 4.164l-.001 1.063c0 .29.236.528.526.528.292 0 .527-.236.527-.528.001-.76.007-1.095.007-1.095.113-1.196 1.132-2.077 2.29-2.077 1.35.036 2.232 1.044 2.299 2.156v4.196H6.737V7.336c0-.29-.236-.528-.528-.528-.29 0-.526.237-.526.528v1.101c-2.368.259-4.24 2.263-4.24 4.735v2.483c0 3.813 1.837 7.385 4.926 9.61v3.204c-1.2.247-2.105 1.31-2.105 2.583v5.412c0 .292.237.528.528.528h21.175c.29 0 .526-.236.526-.528v-5.412c0-1.276-.91-2.343-2.116-2.585v-3.174c1.01-.718 1.893-1.586 2.635-2.582.173-.235.125-.564-.11-.74-.233-.172-.562-.124-.737.11-.686.924-1.513 1.727-2.453 2.39l-.277-.034c-.29-.036-.552.172-.588.459-.035.29.17.552.46.588l.017.001v2.93H7.423v-2.976l.064-.011c.288-.047.482-.316.434-.605-.046-.288-.317-.483-.605-.435l-.292.048c-2.837-2.027-4.525-5.292-4.525-8.781v-2.483c0-2.056 1.666-3.71 3.71-3.71h7.799c1.172 0 2.261.894 2.299 2.303-.003 1.284-1.018 2.29-2.311 2.29h-3.547c-.292 0-.528.234-.528.525 0 .292.236.53.528.53h3.547c1.894 0 3.446-1.571 3.361-3.503.05-.066.099-.132.146-.202.57.859 1.552 1.422 2.662 1.422h.326c1.102 0 2.074-.564 2.646-1.42.568.86 1.552 1.42 2.692 1.42.419 0 1.473.068 2.46-.824v3.652c0 1.652-.364 3.236-1.081 4.71-.127.262-.019.58.243.704.262.128.578.019.705-.242.788-1.62 1.187-3.36 1.187-5.172 0-.028-.003-11.464-.005-11.488z"/>
    <path stroke="#FD7B92" stroke-miterlimit="10" stroke-width="1.333" d="M28.284 9.641c0 1.175-.955 2.13-2.13 2.13h-.325c-1.296 0-2.156-1.007-2.156-2.13V4.197C23.753 3 24.76 2.06 25.977 2.055H26c1.253.002 2.285.996 2.285 2.356v5.23zm-5.665 0c0 1.175-.955 2.13-2.128 2.13h-.326c-1.141 0-2.077-.88-2.133-2.006l.001-5.596c.092-1.176 1.084-2.105 2.267-2.114H20.35c1.204.01 2.197.958 2.268 2.158v5.428zm-5.69.472c-.576-1.017-1.67-1.706-2.921-1.706h-1.621V4.21c.072-1.2 1.069-2.147 2.274-2.156H14.712c1.181.01 2.175.94 2.267 2.114 0 3.722-.003 4.888 0 5.274 0 .272.012.404-.05.67v0zm6.928 19.356c.872 0 1.583.71 1.583 1.583v4.885H5.319v-4.885c0-.873.71-1.583 1.582-1.583h16.956zM29.34 4.167C29.24 2.399 27.78 1 26.008 1c-1.048 0-2.201.524-2.863 1.543C22.48 1.505 21.317 1 20.326 1c-1.05 0-2.17.537-2.82 1.543C16.894 1.6 15.841 1 14.685 1c-1.075 0-2.178.535-2.826 1.543C11.257 1.609 10.208 1 9.036 1 7.35 1 5.786 2.337 5.684 4.164l-.001 1.063c0 .29.236.528.526.528.292 0 .527-.236.527-.528.001-.76.007-1.095.007-1.095.113-1.196 1.132-2.077 2.29-2.077 1.35.036 2.232 1.044 2.299 2.156v4.196H6.737V7.336c0-.29-.236-.528-.528-.528-.29 0-.526.237-.526.528v1.101c-2.368.259-4.24 2.263-4.24 4.735v2.483c0 3.813 1.837 7.385 4.926 9.61v3.204c-1.2.247-2.105 1.31-2.105 2.583v5.412c0 .292.237.528.528.528h21.175c.29 0 .526-.236.526-.528v-5.412c0-1.276-.91-2.343-2.116-2.585v-3.174c1.01-.718 1.893-1.586 2.635-2.582.173-.235.125-.564-.11-.74-.233-.172-.562-.124-.737.11-.686.924-1.513 1.727-2.453 2.39l-.277-.034c-.29-.036-.552.172-.588.459-.035.29.17.552.46.588l.017.001v2.93H7.423v-2.976l.064-.011c.288-.047.482-.316.434-.605-.046-.288-.317-.483-.605-.435l-.292.048c-2.837-2.027-4.525-5.292-4.525-8.781v-2.483c0-2.056 1.666-3.71 3.71-3.71h7.799c1.172 0 2.261.894 2.299 2.303-.003 1.284-1.018 2.29-2.311 2.29h-3.547c-.292 0-.528.234-.528.525 0 .292.236.53.528.53h3.547c1.894 0 3.446-1.571 3.361-3.503.05-.066.099-.132.146-.202.57.859 1.552 1.422 2.662 1.422h.326c1.102 0 2.074-.564 2.646-1.42.568.86 1.552 1.42 2.692 1.42.419 0 1.473.068 2.46-.824v3.652c0 1.652-.364 3.236-1.081 4.71-.127.262-.019.58.243.704.262.128.578.019.705-.242.788-1.62 1.187-3.36 1.187-5.172 0-.028-.003-11.464-.005-11.488v0z"/>
</svg>
