<svg xmlns="http://www.w3.org/2000/svg" width="34" height="33" fill="none" viewBox="0 0 34 33">
    <path fill="#FD7B92" d="M3.013 30.433h7.614V3.44H3.013v26.994zm8.882 2.534H1.745c-.7 0-1.266-.567-1.266-1.267V2.172c0-.7.567-1.267 1.267-1.267h10.15c.698 0 1.266.567 1.266 1.267V31.7c0 .7-.568 1.267-1.267 1.267z"/>
    <path fill="#FD7B92" d="M22.044 32.967H11.895v-2.532h8.883V13.33h-8.883v-2.532h10.15c.7 0 1.266.566 1.266 1.266V31.7c0 .7-.567 1.267-1.267 1.267z"/>
    <path fill="#FD7B92" d="M32.194 32.967h-10.15v-2.532h8.883V20.51h-8.882v-2.534h10.149c.7 0 1.267.567 1.267 1.267V31.7c0 .7-.567 1.267-1.267 1.267z"/>
</svg>
