<svg xmlns="http://www.w3.org/2000/svg" width="40" height="39" fill="none" viewBox="0 0 40 39">
    <path fill="#FD7B92" d="M7.37 13.754c-.42 0-.76.34-.76.758 0 .422.34.763.76.763s.762-.341.762-.763c0-.418-.342-.758-.762-.758z"/>
    <path fill="#FD7B92" d="M37.236 36.77c-.892.892-2.335.892-3.227 0l-5.856-5.856 3.228-3.228 5.855 5.856c.892.891.893 2.337 0 3.227zm-9.083-12.31l2.152 2.152-3.228 3.228-2.15-2.154 3.226-3.226zM5.556 22.306C.798 17.55.796 9.85 5.556 5.09c4.758-4.756 12.458-4.757 17.217 0 4.748 4.748 4.772 12.448 0 17.218-4.824 4.825-12.524 4.694-17.218 0zm19.369 3.229l-1.63-1.627c.19-.17.375-.344.554-.524.18-.18.354-.366.524-.553l1.63 1.629-1.078 1.075zm3.767-2.689c-.143-.142-.337-.224-.54-.224-.006.003-.3-.014-.537.224l-.537.538-1.75-1.75c3.86-5.407 3.273-12.868-1.48-17.62-5.351-5.352-14.015-5.353-19.367 0-5.354 5.351-5.355 14.015 0 19.37 4.739 4.74 12.197 5.348 17.62 1.479l1.748 1.749-.538.537c-.297.297-.297.779 0 1.078l9.62 9.62c1.487 1.486 3.894 1.487 5.38 0 1.487-1.489 1.489-3.894 0-5.382l-9.62-9.619z"/>
    <path fill="#FD7B92" d="M20.62 20.155c-3.567 3.57-9.343 3.57-12.912 0-3.56-3.56-3.56-9.353 0-12.913 3.566-3.566 9.345-3.567 12.913 0 3.56 3.56 3.56 9.353 0 12.913zm1.078-13.988c-4.161-4.161-10.904-4.163-15.066 0-4.152 4.152-4.152 10.91 0 15.065 4.164 4.164 10.9 4.164 15.065 0 4.153-4.154 4.153-10.91.001-15.065z"/>
    <path fill="#FD7B92" d="M14.165 6.09c-2.034 0-3.944.793-5.38 2.229-.832.832-1.446 1.815-1.822 2.921-.134.399.079.83.476.967.399.133.83-.08.966-.477.3-.884.789-1.668 1.456-2.335 1.147-1.15 2.677-1.781 4.303-1.781.42 0 .762-.342.762-.763 0-.42-.341-.761-.761-.761z"/>
</svg>
