<svg xmlns="http://www.w3.org/2000/svg" width="44" height="33" fill="none" viewBox="0 0 44 33">
    <path fill="#FD7B92" d="M8.763 10.248c.015-.79-.653-1.47-1.446-1.476-.776-.005-1.438.628-1.464 1.404-.027.79.629 1.484 1.418 1.504.794.019 1.479-.639 1.492-1.432zm20.438 1.428c.79.013 1.473-.655 1.476-1.447.003-.776-.633-1.434-1.409-1.46-.79-.025-1.483.628-1.502 1.42-.02.794.637 1.475 1.435 1.487zm-7.28-2.907c-.794-.002-1.465.67-1.462 1.462.006.79.686 1.456 1.479 1.445.777-.01 1.425-.657 1.433-1.433.008-.794-.659-1.471-1.45-1.474zM36.52 11.68c.788.004 1.47-.676 1.467-1.463-.003-.773-.65-1.429-1.424-1.448-.796-.018-1.479.638-1.49 1.434-.013.793.654 1.472 1.447 1.477zm-20.45-1.435c.013-.784-.663-1.47-1.451-1.476-.77-.004-1.438.636-1.464 1.408-.025.783.64 1.484 1.425 1.503.793.017 1.477-.64 1.49-1.435zm16.81-8.77c-.785-.003-1.46.668-1.461 1.453 0 .788.666 1.456 1.456 1.457.79.002 1.457-.664 1.459-1.453.002-.79-.663-1.455-1.454-1.457zm-7.325 2.91c.79.01 1.464-.649 1.473-1.44.01-.788-.65-1.461-1.44-1.47-.79-.01-1.465.65-1.474 1.438-.01.788.652 1.463 1.44 1.472zm-5.832-1.442c.008-.788-.652-1.46-1.444-1.468-.79-.008-1.463.653-1.47 1.441-.009.788.654 1.461 1.443 1.47.79.006 1.463-.653 1.47-1.443zm-8.784 1.442c.787.011 1.474-.664 1.478-1.45.005-.772-.637-1.435-1.412-1.46-.791-.026-1.483.629-1.502 1.421-.019.792.643 1.477 1.436 1.49zm24.71 3.035c-.246-.89-.984-1.51-1.886-1.56-.588-.03-1.181-.03-1.77 0-.942.052-1.742.748-1.86 1.572 2.052 1.044 2.46 2.319 1.463 4.575l1.279 1.058 1.282-1.057c-.985-2.26-.572-3.559 1.492-4.588zm-12.84-.024c1.98.87 2.593 2.756 1.486 4.615.436.361.87.72 1.273 1.056l1.317-1.088c-.538-.811-.753-1.688-.436-2.652.315-.958 1.01-1.54 1.903-1.903-.284-.943-1.01-1.523-1.957-1.565-.555-.024-1.112-.026-1.667-.002-.934.04-1.688.66-1.92 1.539zm-9.072.017c-.276-.914-.993-1.509-1.902-1.553-.59-.03-1.183-.03-1.772.005-.919.055-1.652.68-1.87 1.578.923.334 1.58.956 1.896 1.91.322.964.063 1.838-.431 2.634l1.3 1.077 1.27-1.056c-.938-2.368-.566-3.523 1.51-4.595zm4.505 5.672l1.33-1.104c-.521-.821-.75-1.696-.427-2.661.32-.956 1.015-1.536 1.906-1.899-.297-.936-.999-1.51-1.916-1.558-.57-.031-1.147-.031-1.719-.004-.933.04-1.693.668-1.921 1.581.915.344 1.584.948 1.9 1.907.317.966.065 1.838-.45 2.666.257.186.489.336.702.512.21.175.4.375.595.56zm12.442 11.702c0-1.592.026-3.136-.012-4.678-.016-.632.19-1.033.782-1.244.146-.052.308-.109.414-.213.12-.115.26-.284.264-.432.022-.99.033-1.98.004-2.97-.035-1.16-.95-2.057-2.114-2.1-.487-.02-.975-.01-1.462-.002-1.31.023-2.23.933-2.252 2.236-.012.781.042 1.567-.02 2.343-.048.613.143.968.73 1.158.569.183.809.59.756 1.204-.044.5-.007 1.007-.007 1.511v3.187h2.917zm-7.305.002c0-1.67.006-3.284-.006-4.897-.002-.436.16-.73.554-.91.205-.095.427-.175.599-.314.138-.112.296-.301.3-.459.025-.989.034-1.981.003-2.969-.034-1.155-.958-2.05-2.125-2.092-.486-.017-.973-.01-1.461-.003-1.295.02-2.227.951-2.243 2.247-.01.747.05 1.499-.018 2.24-.065.67.13 1.072.785 1.28.532.17.73.57.703 1.133-.037.78-.011 1.563-.011 2.344v2.4h2.92zm-14.612-.004c0-1.664.008-3.277-.004-4.889-.004-.435.155-.732.55-.913.205-.094.426-.174.598-.312.139-.112.299-.3.303-.458.026-.972.032-1.945.005-2.916-.035-1.225-.953-2.118-2.176-2.15-.47-.012-.939-.01-1.408-.002-1.305.02-2.23.939-2.247 2.242-.01.78.043 1.565-.016 2.342-.046.612.139.968.734 1.155.572.177.81.59.75 1.204-.044.447-.01.901-.01 1.353v3.344h2.92zm29.22.015c0-1.627.016-3.204-.01-4.78-.009-.54.166-.903.674-1.101.161-.063.339-.126.459-.242.14-.136.317-.325.322-.497.032-.953.032-1.91.014-2.864-.026-1.239-.965-2.15-2.211-2.17-.47-.009-.94-.007-1.41.002-1.278.028-2.19.939-2.21 2.22-.014.764.037 1.53-.019 2.29-.048.637.112 1.045.76 1.243.556.17.74.586.724 1.172-.035 1.388-.01 2.779-.01 4.168v.559h2.917zm-21.915-.013c0-1.643.016-3.223-.008-4.802-.008-.524.179-.862.66-1.056.178-.072.368-.141.506-.265.133-.119.286-.305.29-.465.026-.972.03-1.946.003-2.918-.034-1.214-.96-2.106-2.188-2.134-.452-.011-.904-.008-1.356-.003-1.364.017-2.275.935-2.285 2.308-.007.747.045 1.497-.016 2.239-.053.628.123 1.008.744 1.201.575.179.764.603.746 1.21-.04 1.389-.014 2.778-.014 4.167 0 .168.015.336.025.518h2.893zm23.381-.98c0 .556.003 1.037 0 1.518-.005.69-.255.947-.938.948-1.306.003-2.61.003-3.914 0-.753-.002-.993-.244-.994-1-.003-1.564 0-3.126-.002-4.689 0-.39-.364-.757-.731-.75-.38.007-.726.365-.726.76 0 1.58.006 3.16.002 4.74-.003.683-.262.94-.95.94-1.304.005-2.608.002-3.912 0-.746-.003-.985-.249-.986-1.01-.003-1.476-.002-2.952-.002-4.428 0-.628-.29-1.02-.741-1.003-.464.019-.718.382-.718 1.03.002 1.458.006 2.917.002 4.376-.002.796-.233 1.033-1.015 1.036-1.287.002-2.575.001-3.861-.003-.718-.001-.97-.252-.97-.97-.005-1.58 0-3.16-.003-4.74 0-.369-.338-.711-.703-.729-.357-.016-.753.363-.753.731-.003 1.599.002 3.196-.003 4.793-.003.648-.27.912-.923.915-1.288.005-2.573.003-3.861.001-.832-.001-1.06-.222-1.062-1.038-.002-1.546 0-3.091-.002-4.636-.002-.404-.338-.76-.717-.766-.37-.004-.738.364-.738.747-.002 1.597.003 3.195-.004 4.792-.001.604-.264.893-.832.897-1.392.011-2.782.011-4.174 0-.554-.004-.823-.284-.835-.841-.012-.515-.003-1.032-.003-1.62-.997.43-1.9.868-2.568 1.655-.482.569-.49 1.082.026 1.632.35.374.76.742 1.22.957 1.145.533 2.305 1.07 3.509 1.441 3.458 1.064 7.028 1.512 10.63 1.73 5.751.345 11.474.153 17.137-.984 2.218-.447 4.411-1.011 6.395-2.154.474-.272.92-.632 1.293-1.032.482-.52.471-1.006.025-1.548-.67-.81-1.585-1.26-2.597-1.698zM4.94 11.973c-.422-.712-.693-1.482-.485-2.352.244-1.022.85-1.725 1.824-2.121.148-.059.355-.161.387-.281.29-1.108.96-1.907 1.94-2.455-.82-1.997-.634-3.24.612-4.176 1.03-.773 2.55-.753 3.546.047 1.213.974 1.392 2.269.566 4.073l1.28 1.065c.412-.338.846-.698 1.284-1.06-.82-1.902-.623-3.193.634-4.134 1.041-.779 2.596-.738 3.587.094 1.173.984 1.358 2.383.517 4.022l1.284 1.082 1.303-1.085c-.508-.823-.827-1.756-.381-2.713.253-.544.646-1.088 1.116-1.452 1.012-.784 2.52-.662 3.482.16 1.154.981 1.322 2.289.512 4.014l1.27 1.075c.412-.339.846-.699 1.284-1.061-.809-1.94-.618-3.191.636-4.13 1.038-.776 2.542-.754 3.544.051 1.208.97 1.388 2.283.544 4.115.989.557 1.669 1.372 1.947 2.497.023.088.162.167.263.213 1.987.883 2.544 2.532 1.492 4.42-.017.03-.021.064-.063.203.014.005.089.019.149.055 1.334.794 1.938 1.978 1.905 3.518-.021.99-.033 1.982.007 2.97.022.592-.19.989-.74 1.164-.614.193-.729.578-.765 1.196-.05.901.215 1.354 1.08 1.725.903.388 1.763.99 2.484 1.668 1.183 1.113 1.124 2.615.011 3.801-.852.91-1.93 1.474-3.058 1.94-2.491 1.032-5.106 1.595-7.76 1.982-6.6.96-13.207.982-19.814.101-2.952-.393-5.866-.976-8.626-2.15-1.062-.451-2.066-1-2.874-1.85-1.154-1.216-1.15-2.681.01-3.899.862-.901 1.954-1.44 3.084-1.904.322-.133.492-.29.428-.646-.015-.084-.012-.175 0-.26.118-.875-.011-1.582-1.022-1.883-.202-.06-.412-.481-.421-.743-.043-1.232-.048-2.466-.008-3.698.04-1.183.581-2.126 1.548-2.819.14-.101.281-.199.421-.3.012-.01.015-.03.036-.079z"/>
</svg>
