<svg xmlns="http://www.w3.org/2000/svg" width="44" height="44" fill="none" viewBox="0 0 44 44">
    <path fill="#FD7B92" d="M31.664 43.422H.904c-.499 0-.904-.406-.904-.906 0-.499.405-.903.904-.903h30.76c.5 0 .904.404.904.903 0 .5-.404.907-.904.907zM27.39 3.422h.019-.019zm3.268-1.617c-.232 0-.463.088-.64.264l-1.99 1.992c-.353.35-.354.923-.006 1.276l9.995 10.11c.17.17.398.266.64.266.21-.052.47-.093.642-.265l2.048-2.048c.354-.352.354-.926 0-1.282L31.295 2.068c-.174-.174-.405-.263-.637-.263zm8.005 15.721h-.009c-.728-.002-1.41-.29-1.923-.805l-9.994-10.11c-1.046-1.057-1.04-2.774.013-3.827L28.74.793c1.057-1.057 2.78-1.057 3.838 0l10.053 10.052c1.058 1.059 1.058 2.78 0 3.839l-2.049 2.048c-.513.51-1.193.794-1.919.794z"/>
    <path fill="#FD7B92" d="M10.592 22.77c-.39 0-.75-.253-.867-.643-.313-1.043-.472-2.122-.472-3.212 0-1.708.41-3.435 1.177-4.995 1.458-2.91 4.11-5.041 7.286-5.85l9.897-2.515c.488-.132.975.169 1.097.652.124.482-.17.978-.652 1.097L18.161 9.82c-2.664.68-4.89 2.468-6.11 4.904-.645 1.31-.989 2.758-.989 4.19 0 .913.132 1.818.395 2.692.144.476-.127.98-.607 1.128-.086.02-.173.034-.258.034zM20.326 35.265c-1.454 0-2.768-.749-3.516-2.002-.953-1.604-.645-3.702.748-5.103l6.39-6.4c-.76-.91-1.875-1.408-3.098-1.347-1.29.068-2.445.779-3.085 1.903-.252.436-.808.584-1.236.336-.432-.248-.585-.8-.339-1.233.948-1.66 2.655-2.711 4.563-2.812 1.902-.103 3.717.766 4.834 2.32l.283.392c.253.354.221.837-.079 1.152l-6.956 6.966c-.796.802-.997 2.023-.474 2.9.741 1.246 2.59 1.454 3.604.442L29.82 24.8l6.297-9.705c.273-.419.835-.536 1.25-.267.42.272.538.832.265 1.25l-6.35 9.783c-.032.054-.069.1-.113.146l-7.924 8.048c-.777.782-1.814 1.21-2.92 1.21z"/>
    <path fill="#FD7B92" d="M28.076 43.422H4.523c-.499 0-.904-.406-.904-.906V22.615c0-.5.405-.906.904-.906h19.85c.5 0 .906.407.906.905 0 .5-.405.903-.905.903H5.428v18.096h21.743V27.865c0-.5.405-.906.905-.906s.904.406.904.906v14.65c0 .5-.404.907-.904.907z"/>
</svg>
