<svg xmlns="http://www.w3.org/2000/svg" width="40" height="38" fill="none" viewBox="0 0 40 38">
    <path fill="#FD7B92" d="M10.962 3.15C6.958 3.15 3.7 6.408 3.7 10.412V18.4c0 4.006 3.258 7.264 7.262 7.264.396 0 .775.16 1.048.447.275.285.42.67.403 1.065l-.225 5.546 7.156-6.668c.268-.251.621-.39.989-.39h8.805c4.006 0 7.264-3.258 7.264-7.264v-7.988c0-4.004-3.258-7.262-7.264-7.262H10.962zm-.37 34.497c-.206 0-.412-.043-.607-.133-.535-.246-.868-.79-.844-1.379l.313-7.677C4.56 27.727.796 23.495.796 18.4v-7.988C.796 4.806 5.356.244 10.962.244h18.176c5.607 0 10.168 4.562 10.168 10.168V18.4c0 5.608-4.561 10.168-10.168 10.168h-8.233l-9.324 8.69c-.273.254-.63.389-.99.389z"/>
</svg>
