<svg xmlns="http://www.w3.org/2000/svg" width="42" height="42" fill="none" viewBox="0 0 42 42">
    <path fill="#FD7B92" d="M37.1 31.302c-.439 0-.795.356-.795.794v8.455c0 .439.356.793.795.793.438 0 .793-.354.793-.793v-8.455c0-.438-.355-.794-.793-.794zM37.1 27.728c-.21 0-.415.085-.562.233-.147.147-.233.352-.233.561 0 .208.086.414.233.562.147.148.353.232.562.232.208 0 .413-.084.561-.232.148-.148.232-.354.232-.562 0-.209-.084-.414-.232-.56-.148-.149-.353-.234-.561-.234z"/>
    <path fill="#FD7B92" d="M39.098 10.964c-.336 0-.656.067-.949.185V9.572c0-1.401-1.14-2.541-2.543-2.541-.336 0-.657.067-.952.185v-.312c0-1.401-1.14-2.541-2.542-2.541s-2.542 1.14-2.542 2.541v.312c-.294-.118-.616-.185-.952-.185-1.402 0-2.542 1.14-2.542 2.541V16.1c-.295-.12-.616-.187-.954-.187-.336 0-.658.067-.953.186v-.312c0-1.402-1.14-2.542-2.541-2.542-.198 0-.39.025-.578.067v-3.49c0-1.4-1.14-2.54-2.54-2.54-.337 0-.657.066-.95.184V5.89c0-1.402-1.14-2.542-2.543-2.542-.336 0-.657.066-.952.186v-.312c0-1.402-1.14-2.542-2.543-2.542-1.4 0-2.54 1.14-2.54 2.542v.312c-.296-.12-.617-.186-.953-.186-1.403 0-2.541 1.14-2.541 2.542v5.946c-.58-.646-1.47-.984-2.378-.825-.689.121-1.286.507-1.682 1.085-.396.578-.539 1.274-.404 1.96l.917 4.65c.363 1.837 1.255 3.506 2.579 4.828l1.661 1.654v15.363c0 .438.355.794.793.794.44 0 .795-.355.795-.794V24.859c0-.21-.084-.414-.233-.563l-1.894-1.888C4.542 21.311 3.8 19.924 3.5 18.4l-.918-4.652c-.052-.264.003-.532.156-.755.152-.222.383-.37.648-.418.516-.09 1.016.236 1.14.744l.626 2.548c.118.486.568.796 1.064.736.498-.06.858-.468.858-.97l.002-9.743c0-.527.426-.954.953-.954.525 0 .952.427.952.954v8.657c0 .438.356.793.795.793.438 0 .794-.354.794-.793V3.222c0-.526.427-.952.952-.952.527 0 .954.426.954.952v11.325c0 .438.356.793.794.793.44 0 .795-.354.795-.793V5.89c0-.527.427-.954.952-.954.525 0 .953.427.953.954v7.64c0 .438.356.794.795.794.439 0 .795-.356.795-.793V9.76c.032-.497.445-.891.95-.891.524 0 .952.428.952.953v4.636c-.238.388-.376.841-.376 1.328v.312c-.294-.119-.616-.187-.953-.187-1.401 0-2.541 1.141-2.541 2.543v5.947c-.579-.646-1.47-.986-2.376-.826-.69.122-1.287.507-1.683 1.084-.396.579-.54 1.275-.404 1.962l.917 4.65c.362 1.836 1.254 3.506 2.58 4.827l1.66 1.655v2.797c0 .438.355.794.794.794.437 0 .794-.355.794-.794v-3.127c0-.21-.084-.413-.234-.563l-1.894-1.887c-1.1-1.098-1.84-2.483-2.14-4.008l-.918-4.651c-.052-.266.002-.534.156-.756.152-.223.382-.37.648-.418.514-.091 1.016.237 1.14.743l.625 2.548c.119.487.565.798 1.064.736.499-.06.859-.466.859-.968l.001-9.745c0-.525.427-.953.952-.953.525 0 .953.428.953.953v8.657c0 .438.356.795.794.795.44 0 .794-.358.794-.795V15.787c0-.526.428-.954.954-.954s.953.428.953.954v11.325c0 .438.356.795.795.795.438 0 .793-.358.793-.795v-8.657c0-.525.428-.953.953-.953.504 0 .918.394.95.89v8.72c0 .438.356.795.794.795.002 0 .002-.002.003-.002l.001.002c.44 0 .794-.358.794-.795v-4.786c.033-.497.445-.89.95-.89.526 0 .954.427.954.952v7.719c0 2.054-.835 4.064-2.29 5.514l-1.224 1.222c-.15.15-.233.35-.233.563v3.145c0 .438.356.794.793.794.44 0 .795-.355.795-.794v-2.816l.99-.988c1.778-1.772 2.757-4.13 2.757-6.64v-7.719c0-1.401-1.14-2.541-2.542-2.541-.336 0-.656.066-.95.185l.001-10.46c0-.525.427-.953.953-.953s.952.428.952.953v7.788c0 .439.356.795.795.795.439 0 .793-.356.793-.795V6.904c0-.525.428-.952.954-.952s.953.427.953.952V18.23c0 .438.356.793.795.793.438 0 .794-.355.794-.793V9.572c0-.525.427-.953.952-.953.526 0 .954.428.954.953l-.003 8.658c0 .438.355.793.793.793h.004c.44 0 .795-.355.795-.793v-4.787c.032-.496.445-.89.95-.89.525 0 .953.427.953.952v7.72c0 1.494-.427 2.95-1.235 4.207-.237.37-.13.862.239 1.098.133.085.281.126.43.126.26 0 .516-.13.668-.365.972-1.515 1.486-3.267 1.486-5.067v-7.719c0-1.4-1.14-2.54-2.542-2.54z"/>
</svg>
