<svg xmlns="http://www.w3.org/2000/svg" width="40" height="40" fill="none" viewBox="0 0 40 40">
    <path fill="#FD7B92" d="M19.044 3.407c.701-.583 1.721-.583 2.424 0L24.6 6.005h-8.69l3.133-2.598zM25.8 28.159l11.117-9.226h.002l.49-.406v16.852c0 .23-.04.45-.117.656l-11.492-7.876zm-9.27 1.513l1.058.876c1.545 1.283 3.788 1.283 5.332 0l1.059-.876 11.098 7.604H5.433l11.099-7.604zm-13.43 5.707V18.527l.49.406 11.12 9.226-11.494 7.876c-.075-.206-.116-.426-.116-.656zM5.834 8.284h28.843c.21 0 .38.17.38.377v8.859l-.645.533-12.944 10.744c-.703.582-1.723.582-2.424 0L6.098 18.053l-.644-.533V8.66c0-.208.171-.377.38-.377zm33.852 7.82V16.1c0-.033 0-.064-.004-.096 0-.01 0-.017-.002-.025l-.01-.076-.006-.027c-.007-.03-.012-.06-.022-.09 0-.003 0-.006-.002-.008-.008-.03-.019-.06-.03-.088l-.013-.034c-.01-.018-.019-.037-.027-.056l-.017-.033c-.013-.027-.03-.055-.045-.079l-.02-.028c-.012-.02-.026-.037-.039-.054-.008-.011-.015-.02-.023-.028-.02-.026-.04-.05-.062-.071l-.006-.005c-.022-.026-.048-.047-.073-.068l-.01-.011-1.94-1.61V8.662c0-1.464-1.193-2.658-2.658-2.658h-6.51l-5.246-4.35c-1.544-1.283-3.787-1.283-5.332 0l-5.244 4.35H5.833c-1.464 0-2.656 1.194-2.656 2.656v4.952l-1.941 1.61-.01.012c-.025.02-.05.042-.074.068-.002 0-.003.004-.004.005-.023.021-.044.045-.064.07-.007.009-.015.018-.022.029-.014.017-.026.034-.04.054l-.018.028c-.016.024-.032.052-.046.079-.006.01-.012.021-.017.033-.01.019-.017.038-.027.056l-.013.034c-.01.028-.021.058-.03.088l-.002.008c-.01.03-.016.06-.021.09-.003.008-.004.019-.006.027-.005.025-.008.05-.01.076l-.004.025c-.003.032-.004.063-.004.096V35.38c0 1.194.504 2.272 1.31 3.033.022.023.046.044.07.065.74.67 1.721 1.076 2.794 1.076h30.515c1.073 0 2.055-.406 2.795-1.076l.07-.065c.804-.761 1.308-1.839 1.308-3.033V16.104z"/>
</svg>
