<svg xmlns="http://www.w3.org/2000/svg" width="32" height="36" fill="none" viewBox="0 0 32 36">
    <path fill="#FD7B92" d="M4.057 29.52c2.324-3.115 3.582-6.884 3.582-10.826v-3.256c0-4.688 3.815-8.5 8.503-8.5 4.688 0 8.503 3.812 8.503 8.5v3.256c0 3.942 1.258 7.711 3.582 10.826H4.057zM16.142 33.6c-1.33 0-2.464-.853-2.885-2.041h5.77c-.421 1.188-1.554 2.041-2.885 2.041zm-1.02-29.724c0-.564.457-1.021 1.02-1.021s1.02.457 1.02 1.021v1.068c-.335-.032-.676-.05-1.02-.05s-.684.018-1.02.05V3.877zm11.564 14.817v-3.256c0-4.749-3.157-8.774-7.483-10.088V3.877c0-1.69-1.373-3.063-3.061-3.063s-3.06 1.374-3.06 3.063V5.35c-4.327 1.314-7.483 5.34-7.483 10.088v3.256c0 4.172-1.59 8.128-4.478 11.14-.283.295-.363.73-.202 1.106.16.376.53.62.939.62h9.285c.474 2.326 2.535 4.081 4.999 4.081 2.464 0 4.525-1.755 4.999-4.081h9.285c.41 0 .779-.244.939-.62.161-.376.081-.81-.202-1.107-2.888-3.01-4.477-6.967-4.477-11.139zM29.406 15.44c0 .563.458 1.02 1.02 1.02.564 0 1.02-.457 1.02-1.02 0-4.089-1.592-7.932-4.482-10.822-.398-.399-1.044-.399-1.443 0-.397.4-.397 1.044 0 1.442 2.505 2.506 3.885 5.836 3.885 9.38zM1.857 16.46c.564 0 1.022-.458 1.022-1.022 0-3.542 1.378-6.873 3.884-9.378.398-.399.398-1.044 0-1.443-.399-.399-1.044-.399-1.443 0C2.43 7.507.837 11.35.837 15.438c0 .564.458 1.022 1.02 1.022z"/>
</svg>
