<svg xmlns="http://www.w3.org/2000/svg" width="35" height="35" fill="none" viewBox="0 0 35 35">
    <path fill="#FD7B92" d="M12.343 18.333c-.675 0-1.223.547-1.223 1.223v3.91l-8.168-9.985 8.168-9.073v4.148c0 .675.548 1.22 1.223 1.22 9.606 0 16.796 6.648 18.914 16.792-3.934-5.472-10.27-8.235-18.914-8.235zm1.222-10.968V1.223C13.565.547 13.017 0 12.343 0c-.347 0-.676.147-.908.405l-11 12.222c-.403.448-.42 1.122-.038 1.589l11 13.443c.427.524 1.196.6 1.719.172.283-.232.448-.578.45-.942V20.8c9.654.313 15.68 4.441 18.395 12.589.167.497.634.835 1.159.835.065 0 .132-.007.196-.018.592-.096 1.027-.606 1.027-1.205 0-14.393-8.666-24.968-20.778-25.635z"/>
</svg>
