<svg xmlns="http://www.w3.org/2000/svg" width="40" height="40" fill="none" viewBox="0 0 40 40">
    <path fill="#E7B4F1" d="M9.521 11.118c.196-1.618.643-3.136 1.478-4.51 2.33-3.842 5.752-5.916 10.25-5.9 4.458.016 7.855 2.074 10.162 5.892.832 1.377 1.305 2.886 1.468 4.488.032.309.152.445.445.549 3.788 1.344 6.227 4.825 6.176 8.788-.064 4.923-4.085 8.95-9.01 9.007-1.742.02-3.485.01-5.227.006-.852-.001-1.446-.553-1.438-1.321.007-.77.59-1.293 1.462-1.295 1.665-.004 3.33.004 4.994-.002 2.851-.012 5.36-1.804 6.227-4.438.899-2.728-.017-5.638-2.33-7.364-.773-.574-1.64-.94-2.585-1.137-.865-.18-1.218-.624-1.237-1.49-.093-4.402-3.175-8.07-7.456-8.873-4.29-.805-8.47 1.479-10.17 5.559-.423 1.016-.626 2.083-.663 3.18-.035 1.021-.518 1.459-1.547 1.505-.973.046-1.977.04-2.908.284-2.93.768-4.875 3.606-4.69 6.666.185 3.028 2.507 5.604 5.515 6.004 1.072.142 2.172.086 3.26.102.964.015 1.93-.004 2.894.006.818.008 1.4.569 1.39 1.32-.01.734-.584 1.286-1.376 1.29-1.836.007-3.672.032-5.508-.01C4.7 29.327.917 25.862.383 21.477c-.666-5.462 3.342-10.144 8.846-10.336.076-.003.154-.011.292-.022z"/>
    <path fill="#E7B4F1" d="M21.211 19.658V38.166c0 .156.005.312-.004.466-.047.719-.613 1.262-1.31 1.259-.698-.003-1.271-.55-1.297-1.27-.021-.637-.008-1.275-.008-1.913l.003-16.564v-.493l-.121-.075c-.666.688-1.328 1.378-1.995 2.062-.272.278-.544.557-.825.825-.58.55-1.359.563-1.884.04-.524-.52-.524-1.319.034-1.881 1.708-1.723 3.423-3.44 5.146-5.147.576-.57 1.332-.57 1.913.007 1.724 1.706 3.437 3.424 5.147 5.146.554.558.549 1.36.02 1.88-.53.522-1.316.51-1.88-.05-.948-.94-1.886-1.892-2.827-2.84l-.112.04z"/>
</svg>
