<svg xmlns="http://www.w3.org/2000/svg" width="33" height="45" fill="none" viewBox="0 0 33 45">
    <path fill="#E7B4F1" d="M23.034 32.23c-2.515 3.618-5.058 6.732-6.396 8.32-1.337-1.584-3.869-4.685-6.382-8.298-4.717-6.782-7.21-12.22-7.21-15.73 0-7.493 6.098-13.59 13.591-13.59 7.495 0 13.591 6.097 13.591 13.59 0 3.507-2.488 8.938-7.195 15.708zM16.637.353C7.72.353.466 7.606.466 16.523c0 4.097 2.581 9.883 7.672 17.202 3.72 5.348 7.38 9.488 7.533 9.661l.965 1.088.966-1.088c.153-.173 3.813-4.313 7.534-9.661 5.09-7.319 7.671-13.105 7.671-17.203 0-8.916-7.255-16.169-16.17-16.169"/>
    <path fill="#E7B4F1" d="M16.638 22.837c-3.84 0-6.964-3.124-6.964-6.964 0-3.841 3.124-6.964 6.964-6.964 3.84 0 6.964 3.123 6.964 6.964 0 3.84-3.124 6.964-6.964 6.964zm0-16.508c-5.263 0-9.544 4.282-9.544 9.544 0 5.263 4.281 9.544 9.544 9.544 5.262 0 9.544-4.281 9.544-9.544 0-5.262-4.282-9.544-9.544-9.544z"/>
</svg>
