<svg xmlns="http://www.w3.org/2000/svg" width="38" height="36" fill="none" viewBox="0 0 38 36">
    <path fill="#E7B4F1" d="M36.413 3.756c-.724-.156-1.437.306-1.592 1.03l-.974 4.549C30.744 4.04 25.048.719 18.805.719 9.192.719 1.372 8.54 1.372 18.154c0 .74.6 1.341 1.341 1.341.74 0 1.34-.601 1.34-1.341 0-8.135 6.62-14.752 14.752-14.752 5.303 0 10.14 2.832 12.76 7.342l-4.472-.958c-.724-.155-1.436.306-1.592 1.03-.154.724.307 1.438 1.031 1.592l7.675 1.646c.13.028.262.036.393.025.217-.019.43-.09.616-.21.299-.194.508-.498.584-.846l1.644-7.675c.155-.724-.307-1.436-1.03-1.592zM35.064 16.396c-.74.024-1.32.644-1.296 1.384.13 3.938-1.282 7.692-3.975 10.568-2.692 2.877-6.344 4.533-10.282 4.662-.165.006-.327.008-.491.008-5.139 0-9.872-2.668-12.545-6.992l4.66 1.25c.716.192 1.451-.232 1.643-.948.192-.715-.233-1.451-.947-1.643l-7.582-2.033c-.344-.091-.71-.043-1.017.134-.308.178-.533.471-.625.814L.575 31.182c-.192.715.232 1.451.948 1.643.116.03.233.045.346.045.594 0 1.135-.394 1.296-.993l1.143-4.261C7.485 32.62 13.018 35.7 19.02 35.7c.192 0 .387-.003.58-.01 4.654-.154 8.97-2.11 12.152-5.51 3.183-3.4 4.85-7.836 4.697-12.49-.024-.74-.645-1.322-1.385-1.295z"/>
</svg>
