<svg xmlns="http://www.w3.org/2000/svg" width="42" height="41" fill="none" viewBox="0 0 42 41">
    <path fill="#E7B4F1" d="M37.844 21.817h-.525c-1.28.002-2.559.011-3.839.003-1.077-.006-1.674-.581-1.75-1.653-.032-.464-.047-.932-.11-1.394-.809-5.925-6.28-10.12-12.186-9.273-3.834.55-6.623 2.624-8.348 6.099-.702 1.41-1.014 2.917-1.064 4.488-.035 1.084-.722 1.77-1.67 1.72-.926-.048-1.524-.788-1.488-1.845.055-1.59.316-3.14.898-4.628 1.666-4.27 4.693-7.142 9.05-8.494 3.786-1.174 7.48-.75 10.948 1.207 2.983 1.685 5.092 4.15 6.252 7.38.37 1.025.588 2.104.884 3.185h2.942c-.71-8.43-8.02-15.774-17.638-15.428-9.093.328-16.392 7.81-16.393 17.05-.003 9.246 7.316 16.725 16.39 17.051 9.566.345 16.905-6.92 17.647-15.467zm-17 18.652C9.66 40.441.62 31.381.638 20.213.656 9.011 9.75-.047 20.93 0 32.123.047 41.152 9.12 41.115 20.28c-.039 11.192-9.099 20.219-20.27 20.19z"/>
    <path fill="#E7B4F1" d="M20.888 31.083c.83-.006 1.516-.699 1.512-1.53-.004-.836-.695-1.516-1.532-1.504-.848.012-1.512.683-1.512 1.527.001.827.698 1.512 1.532 1.507zm1.572-10.095c0 1.25.009 2.499-.007 3.747-.004.298.093.449.37.578 2.058.962 3.157 3.223 2.617 5.348-.566 2.224-2.563 3.699-4.854 3.584-2.053-.105-3.892-1.69-4.302-3.709-.424-2.087.597-4.247 2.482-5.133.434-.203.54-.44.538-.884-.022-2.378-.024-4.756.002-7.134.004-.388.103-.818.294-1.15.34-.592 1.05-.808 1.694-.627.648.181 1.112.717 1.147 1.407.035.721.019 1.444.023 2.166.002.602 0 1.204 0 1.807h-.004z"/>
</svg>
