<svg xmlns="http://www.w3.org/2000/svg" width="44" height="34" fill="none" viewBox="0 0 44 34">
    <path fill="#E7B4F1" d="M8.763 10.57c.014-.789-.653-1.469-1.446-1.474-.778-.007-1.44.626-1.466 1.402-.026.791.63 1.484 1.42 1.504.794.019 1.478-.638 1.492-1.432zM29.2 11.998c.792.014 1.473-.654 1.477-1.446.003-.776-.631-1.435-1.409-1.46-.79-.026-1.482.629-1.502 1.421-.02.792.637 1.473 1.434 1.485zM21.92 9.092c-.793-.003-1.465.669-1.46 1.461.003.79.684 1.456 1.478 1.445.777-.009 1.425-.656 1.433-1.433.008-.793-.659-1.47-1.45-1.473zm14.598 2.91c.788.004 1.47-.676 1.468-1.462-.003-.774-.65-1.43-1.424-1.448-.796-.019-1.479.638-1.492 1.433-.01.793.656 1.472 1.448 1.477zm-20.45-1.433c.012-.785-.662-1.472-1.45-1.477-.772-.004-1.438.636-1.464 1.408-.025.782.639 1.484 1.424 1.502.795.018 1.479-.64 1.49-1.433zm16.81-8.772c-.785-.001-1.459.668-1.46 1.453-.002.788.665 1.456 1.455 1.458.79.001 1.458-.664 1.46-1.452 0-.791-.663-1.456-1.455-1.459zm-7.326 2.91c.791.01 1.465-.649 1.475-1.44.01-.787-.65-1.46-1.441-1.47-.79-.01-1.464.65-1.473 1.439-.01.788.65 1.462 1.44 1.472zm-5.83-1.442c.008-.788-.654-1.46-1.444-1.468-.79-.008-1.464.653-1.47 1.441-.009.788.652 1.462 1.442 1.47.79.006 1.462-.652 1.472-1.443zm-8.786 1.443c.789.01 1.475-.663 1.48-1.451.003-.772-.637-1.435-1.412-1.46-.791-.025-1.485.63-1.502 1.421-.019.792.643 1.478 1.434 1.49zm24.712 3.034c-.248-.89-.984-1.51-1.886-1.558-.59-.032-1.181-.032-1.77 0-.942.05-1.742.746-1.862 1.57 2.055 1.044 2.461 2.319 1.464 4.575l1.28 1.059 1.282-1.058c-.985-2.26-.573-3.558 1.492-4.588zm-12.84-.024c1.98.871 2.593 2.758 1.486 4.615.436.361.87.72 1.273 1.056l1.317-1.088c-.538-.81-.753-1.688-.436-2.652.315-.957 1.01-1.54 1.903-1.903-.284-.942-1.01-1.522-1.959-1.565-.553-.024-1.11-.025-1.665-.001-.934.04-1.688.66-1.92 1.538zm-9.072.018c-.276-.915-.993-1.51-1.902-1.554-.59-.028-1.183-.029-1.772.006-.92.054-1.653.681-1.872 1.577.924.335 1.581.957 1.899 1.91.32.965.06 1.838-.434 2.634l1.302 1.077 1.269-1.056c-.938-2.368-.567-3.521 1.51-4.594zm4.505 5.673c.466-.388.887-.739 1.329-1.105-.52-.822-.75-1.696-.425-2.662.318-.956 1.014-1.536 1.905-1.898-.297-.936-.999-1.511-1.916-1.559-.572-.03-1.148-.03-1.719-.004-.934.04-1.693.67-1.921 1.581.915.344 1.584.95 1.898 1.907.318.967.066 1.839-.447 2.667.256.185.488.336.7.512.21.174.4.374.596.561zm12.44 11.7c0-1.592.026-3.136-.011-4.677-.016-.631.19-1.034.782-1.244.146-.052.307-.11.415-.212.119-.116.26-.284.263-.434.023-.989.033-1.98.004-2.969-.035-1.16-.95-2.057-2.115-2.101-.485-.019-.973-.01-1.46-.002-1.31.023-2.232.934-2.252 2.236-.013.782.04 1.567-.02 2.343-.048.613.143.968.73 1.159.569.182.809.589.754 1.204-.043.5-.006 1.006-.006 1.51v3.187h2.917zm-7.305.003c0-1.671.008-3.284-.004-4.898-.003-.436.16-.73.554-.91.205-.095.427-.174.599-.314.137-.112.294-.3.298-.458.027-.99.035-1.98.005-2.97-.035-1.154-.96-2.049-2.125-2.09-.486-.018-.974-.012-1.461-.004-1.296.02-2.227.952-2.244 2.246-.01.747.052 1.499-.018 2.24-.064.671.131 1.072.786 1.28.532.17.728.57.703 1.135-.037.779-.011 1.563-.011 2.343-.002.793 0 1.586 0 2.4h2.919zm-14.61-.004c0-1.664.008-3.276-.005-4.89-.003-.434.156-.732.55-.913.204-.093.426-.173.598-.312.138-.112.3-.3.303-.457.027-.972.033-1.946.005-2.916-.035-1.226-.954-2.119-2.175-2.151-.47-.012-.94-.01-1.41-.001-1.303.02-2.227.94-2.245 2.241-.01.78.043 1.565-.016 2.343-.046.612.139.968.732 1.154.572.178.81.59.75 1.204-.042.447-.007.902-.007 1.354v3.344h2.92zm29.22.014c0-1.626.016-3.204-.01-4.78-.009-.54.166-.902.672-1.101.162-.063.34-.125.46-.24.14-.136.318-.327.323-.499.03-.953.032-1.909.012-2.864-.025-1.238-.962-2.149-2.21-2.169-.47-.008-.94-.008-1.408.003-1.28.026-2.191.937-2.213 2.218-.012.764.04 1.531-.018 2.291-.048.636.113 1.044.761 1.243.556.169.739.586.724 1.172-.035 1.388-.01 2.778-.01 4.168v.558h2.917zM16.07 25.11c0-1.643.015-3.223-.008-4.801-.008-.524.178-.863.659-1.056.177-.071.37-.142.506-.266.132-.118.286-.305.291-.465.024-.972.03-1.945.003-2.917-.034-1.215-.96-2.107-2.188-2.135-.452-.01-.904-.008-1.356-.003-1.364.018-2.275.936-2.287 2.308-.005.747.047 1.498-.014 2.239-.054.63.122 1.008.744 1.201.575.179.762.603.746 1.211-.04 1.388-.014 2.777-.014 4.167 0 .168.015.336.025.517h2.893zm23.381-.979c0 .555.003 1.036 0 1.518-.005.689-.257.946-.94.948-1.303.002-2.608.002-3.913 0-.752-.003-.992-.244-.993-1-.004-1.563 0-3.127-.003-4.69 0-.39-.363-.757-.732-.75-.38.008-.724.365-.724.76-.001 1.58.004 3.16 0 4.74-.001.684-.26.94-.948.942-1.304.003-2.61 0-3.913-.002-.745-.003-.986-.248-.987-1.01v-4.428c0-.628-.29-1.02-.741-1.002-.464.018-.718.382-.718 1.029.002 1.459.005 2.917.002 4.376-.002.796-.235 1.033-1.016 1.036-1.287.004-2.573.001-3.86-.001-.719-.003-.97-.254-.97-.971-.005-1.581 0-3.161-.003-4.741 0-.368-.338-.711-.703-.728-.357-.016-.753.362-.753.73-.003 1.599.002 3.196-.005 4.794 0 .648-.269.912-.922.914-1.287.006-2.573.003-3.86.002-.834-.002-1.06-.223-1.062-1.039-.002-1.545 0-3.09-.004-4.636 0-.404-.337-.76-.715-.765-.37-.004-.738.364-.74.746 0 1.598.005 3.196-.002 4.792-.002.604-.264.894-.833.898-1.39.01-2.783.01-4.173 0-.555-.004-.823-.284-.836-.842-.011-.514-.002-1.03-.002-1.62-.998.431-1.9.868-2.568 1.655-.484.57-.49 1.083.024 1.633.35.375.763.742 1.22.956 1.147.534 2.306 1.071 3.51 1.442 3.458 1.064 7.028 1.512 10.63 1.729 5.75.347 11.473.153 17.137-.984 2.22-.445 4.411-1.01 6.397-2.153.473-.272.92-.632 1.292-1.032.48-.52.471-1.007.023-1.548-.668-.811-1.584-1.26-2.596-1.698zM4.94 12.296c-.424-.712-.693-1.482-.485-2.352.244-1.023.848-1.726 1.824-2.122.147-.058.355-.16.385-.281.29-1.108.963-1.907 1.942-2.455-.822-1.997-.635-3.24.612-4.176 1.029-.773 2.549-.753 3.546.047 1.212.975 1.392 2.27.566 4.073l1.28 1.066 1.282-1.06c-.819-1.903-.623-3.194.636-4.134 1.041-.778 2.596-.738 3.587.094 1.172.984 1.358 2.382.517 4.021L21.914 6.1l1.302-1.086c-.506-.821-.826-1.756-.38-2.713.254-.544.647-1.088 1.117-1.452 1.01-.784 2.518-.661 3.482.16 1.152.981 1.322 2.29.512 4.015l1.27 1.074 1.284-1.061c-.809-1.94-.62-3.19.636-4.13 1.037-.775 2.542-.754 3.544.051 1.208.971 1.388 2.283.542 4.115.99.557 1.67 1.372 1.95 2.499.02.088.16.165.262.212 1.985.882 2.543 2.532 1.49 4.42-.015.029-.02.064-.06.202.013.006.086.02.148.055 1.333.796 1.937 1.979 1.904 3.519-.02.989-.032 1.981.006 2.969.024.592-.188.99-.739 1.164-.613.195-.727.579-.764 1.196-.052.901.214 1.355 1.08 1.725.903.388 1.763.99 2.483 1.668 1.183 1.115 1.126 2.615.01 3.802-.851.909-1.927 1.473-3.056 1.941-2.491 1.03-5.106 1.593-7.762 1.98-6.598.96-13.206.983-19.813.101-2.95-.393-5.865-.976-8.625-2.149-1.062-.45-2.067-1.001-2.874-1.85-1.154-1.215-1.15-2.682.01-3.9.862-.9 1.953-1.44 3.082-1.903.324-.134.494-.291.43-.647-.015-.084-.012-.173-.002-.259.119-.876-.01-1.582-1.021-1.884-.203-.06-.41-.481-.42-.742-.043-1.232-.05-2.467-.008-3.699.039-1.181.581-2.125 1.547-2.819.14-.1.282-.198.42-.3.013-.009.017-.029.038-.078"/>
</svg>
