<svg xmlns="http://www.w3.org/2000/svg" width="40" height="39" fill="none" viewBox="0 0 40 39">
    <path fill="#E7B4F1" d="M7.366 13.754c-.42 0-.762.34-.762.76s.342.761.762.761.761-.341.761-.761-.341-.76-.761-.76z"/>
    <path fill="#E7B4F1" d="M37.23 36.77c-.892.892-2.334.892-3.226 0l-5.856-5.854 3.227-3.228 5.855 5.854c.892.892.894 2.335 0 3.228zm-9.082-12.31l2.153 2.152-3.228 3.228-2.152-2.152 3.227-3.228zM5.55 22.308C.793 17.55.793 9.849 5.551 5.09c4.758-4.758 12.46-4.76 17.216 0 4.748 4.746 4.773 12.446 0 17.217-4.823 4.825-12.524 4.693-17.216 0zm19.368 3.228l-1.629-1.628c.19-.17.375-.346.553-.524.18-.179.355-.364.524-.553l1.63 1.629-1.078 1.076zm3.767-2.69c-.142-.142-.336-.224-.538-.224-.007.003-.3-.014-.538.224l-.537.538-1.75-1.75c3.86-5.407 3.273-12.867-1.48-17.62-5.352-5.351-14.016-5.353-19.368 0-5.353 5.353-5.354 14.017 0 19.37 4.74 4.74 12.198 5.348 17.62 1.48l1.748 1.748-.537.539c-.297.296-.297.778 0 1.076l9.62 9.62c1.487 1.486 3.893 1.487 5.38 0 1.488-1.487 1.488-3.894 0-5.38l-9.62-9.62z"/>
    <path fill="#E7B4F1" d="M20.615 20.156c-3.568 3.568-9.344 3.57-12.913 0-3.559-3.56-3.559-9.353 0-12.913 3.566-3.567 9.346-3.568 12.913 0 3.56 3.56 3.56 9.353 0 12.913zm1.077-13.99c-4.16-4.16-10.904-4.162-15.066 0-4.152 4.154-4.152 10.912 0 15.066 4.164 4.164 10.901 4.164 15.065 0 4.153-4.154 4.153-10.912.001-15.065"/>
    <path fill="#E7B4F1" d="M14.159 6.09c-2.033 0-3.944.793-5.38 2.229-.832.832-1.445 1.816-1.82 2.922-.136.4.077.831.476.966.397.134.83-.079.964-.476.3-.884.79-1.67 1.456-2.336 1.148-1.15 2.677-1.781 4.304-1.781.42 0 .761-.342.761-.762 0-.421-.341-.761-.761-.761z"/>
</svg>
