<svg xmlns="http://www.w3.org/2000/svg" width="46" height="41" fill="none" viewBox="0 0 46 41">
    <path fill="#E7B4F1" d="M43.107 2.57c-1.776 0-3.422-.006-5.068.018-.098.002-.271.254-.274.393-.022.965.007 1.932-.017 2.897-.008.387.097.522.5.516 1.467-.022 2.932-.008 4.397-.012.122 0 .243-.03.422-.054-.298-.494-.551-.94-.83-1.37-.217-.336-.21-.638.008-.972.28-.428.534-.873.862-1.416zM5.272 39.317c.056.03.085.057.113.057 1.815.006 3.631.018 5.446 0 .104 0 .286-.24.294-.378.035-.58.014-1.166.016-1.748.004-.624.216-.93.648-.94.45-.01.671.302.675.961.004.55.024 1.1-.001 1.65-.019.371.106.487.48.483 1.665-.017 3.332-.006 4.997-.009.127-.001.253-.03.393-.047.011-.11.024-.192.024-.273.002-3.83-.001-7.663.008-11.493.002-.387-.16-.48-.509-.478-1.583.011-3.165.023-4.748-.005-.501-.01-.661.14-.655.648.026 2.15.014 4.297.007 6.447-.001.502-.244.773-.65.777-.406.004-.655-.27-.665-.761-.012-.583-.032-1.168-.001-1.75.024-.449-.155-.572-.581-.568-1.599.018-3.198.015-4.796-.004-.428-.005-.535.163-.532.563.014 2.165.006 4.33.009 6.496 0 .13.019.259.028.372zm14.41.012c.138.027.218.056.297.056 1.75.005 3.5-.003 5.25.016.43.004.38-.257.38-.527-.001-2.682 0-5.366 0-8.05 0-.167-.005-.335.014-.499.037-.345.253-.599.581-.559.235.028.481.232.65.422.098.112.07.35.07.53.004 2.667.003 5.334.003 8v.675c1.913 0 3.744-.004 5.576.003.377.002.32-.255.32-.482-.002-6.95-.006-13.9.002-20.85 0-.424-.153-.543-.556-.539-1.566.017-3.134.027-4.7-.004-.501-.008-.657.13-.654.644.024 3.067.013 6.133.009 9.2 0 .199-.001.405-.059.592-.133.428-.648.627-.953.332-.175-.17-.285-.488-.29-.741-.026-1.534-.027-3.067-.003-4.6.006-.47-.123-.643-.618-.634-1.565.03-3.133.03-4.7.006-.473-.008-.63.124-.629.614.017 5.284.01 10.568.01 15.851v.544zm20.363.04v-1.916c0-.384-.012-.768.006-1.15.02-.435.308-.723.689-.691.421.037.616.301.617.708.006.997.002 1.993.002 3.07h1.872c.366.002.733-.005 1.1.012.396.018.672.203.709.626.032.37-.257.668-.701.685-.632.027-1.266.015-1.899.015-13.7 0-27.4-.002-41.099-.004-.76 0-1.086-.198-1.097-.652-.012-.47.325-.676 1.117-.676.831-.002 1.662 0 2.562 0v-.59l.002-6.5c0-1.136.592-1.733 1.72-1.733 1.634-.001 3.267 0 4.9.001h.596v-2.8c.002-1.473.516-1.992 1.978-1.993h5.21c.011-.203.026-.377.027-.55.003-.851-.004-1.702.007-2.551.014-1.043.644-1.678 1.692-1.686 1.666-.01 3.333-.002 5-.004h.554l-.001-2.225c0-.317-.01-.635-.001-.95.025-.987.616-1.586 1.604-1.591 1.666-.01 3.333-.002 5 0h.613V14c0-.367-.013-.735.007-1.1.045-.83.654-1.432 1.488-1.455.68-.018 1.361-.004 2.12-.004v-.62c0-3.184-.002-6.366 0-9.55 0-.183-.059-.416.03-.538.159-.218.399-.488.627-.509.193-.017.447.259.613.456.09.105.054.317.08.536.198.01.391.024.584.024 1.868.003 3.734.004 5.6 0 .342 0 .675-.003.872.35.199.351.023.637-.156.926-.332.54-.646 1.09-.994 1.619-.159.241-.171.425-.007.674.367.556.707 1.13 1.044 1.704.423.723.153 1.194-.697 1.196-1.9.008-3.799.014-5.699-.008-.445-.005-.613.1-.596.578.037 1.028.012 2.058.012 3.157.676 0 1.301-.003 1.93.001 1.07.006 1.675.6 1.677 1.67.004 6.766.004 13.533.004 20.3 0 .578-.228.87-.66.865-.43-.004-.656-.297-.656-.873-.002-6.65-.002-13.3-.002-19.95 0-.704-.001-.702-.721-.702-1.533 0-3.068.013-4.6-.008-.423-.006-.587.101-.587.554.012 8.534.011 17.067 0 25.6 0 .395.115.51.51.506 1.616-.02 3.233-.006 4.849-.006.163 0 .325-.014.55-.025"/>
    <path fill="#E7B4F1" d="M38.09 2.812c-.042.043-.096.136-.1.176-.011.476-.011.954-.008 1.432.001.488.002.975-.008 1.464-.006.191.025.236.034.247.011.01.056.045.238.039.985-.016 1.972-.015 2.958-.012h1.442l.056-.003L42.61 6c-.19-.32-.37-.625-.562-.92-.264-.406-.261-.805.01-1.217.19-.29.366-.59.564-.92l.089-.148h-.572c-1.4-.001-2.724-.003-4.05.017zm.13 3.807c-.174 0-.384-.024-.53-.172-.155-.156-.171-.377-.167-.573.012-.484.01-.968.01-1.452-.002-.483-.003-.964.007-1.446.004-.205.232-.608.495-.613 1.345-.02 2.687-.019 4.105-.019l1.366.002-.498.826c-.2.338-.381.642-.574.938-.174.262-.176.466-.008.726.194.3.377.608.57.935l.44.735-.34.045c-.06.008-.112.016-.161.025-.31.051-.532.032-.79.032h-.942c-.984-.002-1.968-.004-2.95.01l-.033.001zM19.907 39.15c.03.006.055.011.072.011l1.73.003c1.174 0 2.349.001 3.522.012.113-.003.141-.02.141-.021.018-.024.015-.135.014-.202l-.002-.078V30.73c-.001-.143-.001-.287.014-.43.029-.26.138-.48.31-.616.147-.116.327-.164.522-.14.342.04.642.327.792.495.14.157.133.384.128.584l-.002.095c.004 2.173.003 4.345.003 6.518v1.932h1.273c1.382 0 2.73 0 4.079.003.064.003.096-.013.096-.013.004-.015.001-.103 0-.156l-.001-.088-.002-5.079c-.001-5.257-.002-10.515.004-15.772 0-.183-.033-.243-.053-.263-.024-.024-.096-.046-.276-.049-1.487.015-3.087.025-4.707-.004-.192-.004-.309.017-.356.063-.046.045-.069.165-.068.353.019 2.52.015 5.083.011 7.561l-.003 1.642c0 .205 0 .437-.068.657-.093.299-.333.53-.628.605-.256.067-.509.002-.696-.177-.241-.235-.354-.62-.358-.9-.027-1.544-.028-3.093-.004-4.607.002-.182-.019-.298-.064-.344-.031-.03-.114-.064-.324-.06-1.524.027-3.108.028-4.708.004-.179-.005-.292.018-.336.06-.03.03-.066.111-.066.33.014 4.152.012 8.302.011 12.454v3.76zm5.332.475h-.012c-1.172-.01-2.345-.012-3.519-.012l-1.729-.002c-.077 0-.148-.018-.221-.035-.034-.008-.074-.017-.119-.025l-.181-.036v-4.126c.001-4.15.002-8.3-.01-12.453-.001-.21.022-.476.198-.65.176-.174.432-.195.66-.191 1.594.025 3.173.024 4.692-.004.209-.004.47.013.649.193.179.177.199.437.196.668-.024 1.508-.023 3.053.004 4.593.004.211.101.466.221.583.092.09.2.085.274.067.141-.038.262-.156.309-.304.048-.155.048-.343.05-.526v-1.64c.005-2.477.009-5.04-.01-7.557-.001-.221.02-.497.201-.677.18-.178.444-.196.68-.194 1.615.031 3.211.02 4.694.004.194-.002.433.018.598.182.167.165.186.412.186.581-.007 5.257-.006 10.515-.004 15.772l.002 5.153c.004.144.011.343-.13.487-.096.099-.231.145-.412.145h-.004c-1.348-.004-2.696-.004-4.078-.002h-1.722v-2.382c0-2.173 0-4.345-.003-6.518l.001-.106c.003-.082.007-.237-.018-.278-.172-.194-.368-.327-.506-.344-.074-.01-.137.006-.188.046-.076.06-.128.175-.142.312-.014.126-.012.252-.012.38l.001.096c-.001 2.683-.001 5.367 0 8.05v.072c.003.166.007.374-.144.526-.101.103-.25.152-.452.152zm-13.43-3.54c.234 0 .426.071.573.212.204.198.304.516.306.971l.006.445c.006.4.012.81-.007 1.216-.01.167.02.207.027.214.005.005.045.033.226.036 1.12-.012 2.24-.01 3.36-.01h1.64c.063 0 .124-.009.19-.02.002-.025.004-.05.004-.074v-3.1c0-2.799 0-5.596.008-8.395 0-.152-.03-.197-.042-.21-.016-.017-.065-.047-.242-.042h-.076c-1.532.012-3.118.023-4.678-.007-.186-.002-.309.02-.357.067-.048.048-.072.168-.07.356.023 1.887.017 3.805.01 5.66l-.001.79c-.003.611-.338.995-.874 1h-.01c-.532 0-.87-.375-.882-.982l-.005-.216c-.01-.507-.023-1.03.005-1.548.007-.137-.009-.235-.045-.272-.027-.03-.107-.057-.31-.059-1.577.016-3.193.014-4.802-.005-.165-.004-.232.03-.252.048-.024.024-.053.095-.052.288.01 1.505.01 3.01.01 4.516v1.983c0 .068.006.137.011.202l.635.003c1.532.007 3.117.013 4.675-.003.044-.036.105-.128.112-.169.022-.395.02-.807.017-1.204-.001-.177-.003-.352-.001-.528.004-.947.473-1.156.866-1.164h.026zm1.114 3.543c-.175 0-.388-.023-.533-.175-.154-.157-.16-.386-.152-.545.018-.393.012-.797.006-1.188l-.005-.45c-.003-.318-.061-.543-.17-.65-.063-.061-.158-.09-.275-.087-.138.003-.424.01-.427.718-.001.173 0 .346.001.521.003.405.006.824-.018 1.237-.012.22-.26.587-.518.59-1.573.016-3.173.01-4.72.004l-.728-.004c-.081 0-.14-.036-.178-.06l-.111-.058-.057-.248c-.01-.092-.019-.189-.019-.286v-1.984c.001-1.504.001-3.008-.01-4.51 0-.21.02-.446.186-.612.165-.165.397-.18.573-.178 1.606.018 3.219.02 4.792.004.21-.002.468.018.64.198.17.178.178.431.168.606-.026.501-.014 1.017-.002 1.516l.004.216c.006.362.161.554.438.542.106 0 .426-.005.427-.553l.003-.79c.006-1.853.013-3.769-.01-5.653-.002-.22.019-.497.202-.68.184-.182.46-.2.682-.197 1.555.028 3.136.017 4.667.007h.075c.188 0 .406.017.564.173.156.155.173.376.173.53-.008 2.797-.008 5.595-.008 8.393v3.1c0 .061-.007.122-.015.193l-.028.28-.306.041c-.1.015-.198.03-.294.03H16.3c-1.118-.002-2.237-.003-3.354.01h-.023zm-9.807-.008l-1.754.001c-.422 0-.695.062-.812.183-.038.037-.086.105-.082.263.004.162.011.433.872.433l41.555.005c.47.003.959.004 1.435-.016.169-.006.31-.065.397-.164.067-.077.099-.173.088-.277-.016-.187-.087-.401-.495-.421-.277-.012-.554-.01-.833-.01h-2.352v-1.137c0-.739.001-1.448-.003-2.159-.001-.397-.221-.468-.412-.484-.108-.009-.206.02-.282.087-.098.085-.155.223-.163.39-.012.265-.01.53-.008.795l.003 2.475-.42.021c-.13.008-.242.014-.354.014l-1.469-.002c-1.127-.002-2.252-.005-3.379.007-.18.001-.408-.015-.561-.167-.153-.152-.173-.369-.173-.562.009-8.815.009-17.427-.002-25.599 0-.192.022-.432.19-.599.168-.165.404-.188.625-.18 1.128.014 2.256.012 3.384.008h1.212c.424-.008.633-.002.788.15.159.154.159.374.159.776l.001 19.95c0 .644.304.647.433.648.128.007.219-.029.284-.094.099-.096.151-.286.151-.547 0-6.767 0-13.533-.005-20.299 0-.94-.503-1.44-1.455-1.445-.428-.003-.859-.001-1.303-.001h-.849v-.224c0-.323.003-.642.005-.955.004-.757.01-1.475-.017-2.196-.007-.199.007-.45.175-.621.166-.17.406-.19.649-.188 1.859.021 3.679.016 5.695.008.329-.002.554-.079.633-.218.079-.137.032-.364-.13-.64-.338-.576-.671-1.14-1.037-1.694-.208-.315-.205-.599.007-.923.23-.35.447-.71.663-1.07l.328-.542c.182-.296.278-.475.152-.699-.127-.225-.314-.236-.671-.234-1.872.004-3.739.002-5.605 0-.136 0-.271-.007-.408-.015l-.376-.017-.024-.19c-.01-.08-.012-.157-.015-.232-.001-.065-.004-.165-.017-.193-.294-.344-.403-.368-.422-.37-.078.007-.245.12-.462.418-.012.03-.003.15.004.223.004.062.009.124.009.182v10.395l-.921-.003c-.49-.002-.954-.006-1.418.007-.708.019-1.23.53-1.269 1.241-.013.256-.01.512-.008.768l.001.32v2.45l-2.33-.003c-1.17-.003-2.339-.005-3.507.001-.855.006-1.357.504-1.379 1.372-.005.203-.004.407-.001.61l.003 2.786h-2.268c-1.17-.004-2.339-.005-3.508.003-.923.007-1.459.54-1.47 1.464-.008.524-.008 1.05-.006 1.573 0 .326 0 .65-.002.974-.001.124-.008.246-.016.378l-.021.398-5.425.001c-1.342 0-1.751.413-1.751 1.768V30.8l-5.721-.001c-1.006 0-1.496.493-1.496 1.508l-.003 7.313h-1.03zm40.228 1.336l-.452-.001-.453-.002-41.099-.004c-.354 0-1.3 0-1.321-.872-.007-.24.064-.44.208-.588.21-.216.572-.317 1.135-.317l1.754-.001.582.001.002-6.865c0-1.263.692-1.958 1.946-1.958l5.27.002v-2.575c.002-1.596.619-2.217 2.202-2.219h5c.005-.113.012-.22.013-.328v-.972c0-.526 0-1.053.007-1.58.016-1.168.749-1.897 1.916-1.906 1.17-.008 2.341-.007 3.513-.006l1.817.002-.002-2.33c-.003-.209-.006-.418 0-.626.028-1.11.728-1.804 1.826-1.81 1.171-.008 2.34-.005 3.511-.004l1.88.003-.003-2.315c-.001-.265-.004-.53.011-.796.052-.956.753-1.64 1.705-1.666.468-.014.938-.01 1.432-.007l.468.001.002-9.944c0-.045-.004-.096-.01-.145-.013-.175-.03-.37.084-.527.278-.38.536-.576.787-.598.29-.027.557.241.805.533.112.13.116.301.122.465v.003c.124.007.248.013.372.013 1.866.003 3.733.003 5.6 0 .357.003.806 0 1.068.463.262.468.029.847-.159 1.153-.112.182-.22.362-.328.542-.219.364-.439.73-.672 1.084-.115.176-.116.264-.008.428.372.564.71 1.133 1.05 1.714.317.54.247.891.133 1.091-.115.201-.386.441-1.022.444-2.018.01-3.84.013-5.702-.01-.174-.003-.286.018-.323.054-.02.023-.053.088-.047.292.027.732.023 1.452.016 2.216l-.002.725h.397c.447 0 .877 0 1.307.002 1.208.005 1.901.696 1.902 1.894.004 6.766.004 13.532.004 20.3 0 .388-.096.68-.282.866-.154.15-.355.226-.606.224-.264-.002-.878-.114-.878-1.099l-.002-19.95c0-.202 0-.413-.028-.458-.037-.019-.26-.02-.466-.019l-1.214.003c-1.13.003-2.261.004-3.392-.01-.165-.005-.265.014-.302.051-.022.02-.056.084-.055.28.01 8.171.01 16.783 0 25.598 0 .188.03.233.04.242.01.01.056.04.241.038 1.127-.014 2.255-.01 3.384-.007l1.468.003c.102 0 .204-.007.324-.015l-.002-2.043c-.002-.273-.004-.548.008-.82.013-.289.125-.54.316-.706.168-.148.388-.218.617-.198.52.044.82.384.823.93.004.712.004 1.421.002 2.161v.687l.35-.002 1.297.002h.256c.284 0 .57-.002.853.01.543.026.879.328.923.831.021.228-.05.445-.199.613-.169.194-.424.306-.716.318-.334.013-.672.017-1.004.017"/>
</svg>
