<svg xmlns="http://www.w3.org/2000/svg" width="38" height="37" fill="none" viewBox="0 0 38 37">
    <path fill="#E7B4F1" d="M16.63 34.544c-7.683 0-13.935-6.25-13.935-13.936 0-7.323 5.678-13.344 12.864-13.895v14.968h14.966c-.549 7.184-6.57 12.863-13.894 12.863zm1.073-15.007V4.53H16.63c-4.295 0-8.334 1.673-11.37 4.71-3.037 3.037-4.71 7.074-4.71 11.369 0 4.296 1.673 8.333 4.71 11.37 3.036 3.038 7.075 4.71 11.37 4.71 4.294 0 8.333-1.672 11.37-4.71 3.036-3.037 4.71-7.074 4.71-11.37v-1.07H17.703z"/>
    <path fill="#E7B4F1" d="M22.133 15.105V2.284c6.832.523 12.3 5.992 12.823 12.822H22.133zM32.431 4.808C29.395 1.771 25.356.098 21.06.098H19.99V17.25h17.15v-1.072c0-4.294-1.671-8.331-4.708-11.369"/>
</svg>
