<svg xmlns="http://www.w3.org/2000/svg" width="39" height="39" fill="none" viewBox="0 0 39 39">
    <path fill="#E7B4F1" d="M18.23 2.82c.703-.582 1.723-.582 2.425 0l3.133 2.6h-8.69l3.133-2.6zm6.76 24.754l11.117-9.227h.001l.49-.407v16.854c0 .23-.042.45-.117.655L24.99 27.574zm-9.271 1.512l1.058.877c1.544 1.283 3.787 1.283 5.332 0l1.058-.877 11.098 7.605H4.62l11.099-7.605zm-13.43 5.708V17.94l.49.406h.001l11.117 9.227-11.492 7.875c-.076-.204-.117-.426-.117-.655zM5.02 7.698h28.844c.208 0 .38.17.38.378v8.858l-.645.534-12.945 10.743c-.702.583-1.722.583-2.424 0L5.287 17.47l-.646-.535V8.076c0-.208.171-.378.38-.378zm33.854 7.821v-.004c0-.032-.003-.064-.006-.096 0-.01 0-.017-.002-.025l-.01-.075-.006-.028c-.006-.03-.012-.06-.02-.09-.002-.002-.003-.005-.003-.007l-.03-.09c-.005-.01-.01-.02-.014-.033l-.027-.057c-.005-.01-.01-.023-.017-.034-.013-.026-.03-.052-.045-.077l-.019-.028-.04-.055-.021-.027c-.022-.026-.042-.05-.063-.071l-.005-.005c-.024-.024-.05-.047-.075-.069l-.01-.009-1.94-1.61V8.075c0-1.464-1.193-2.655-2.657-2.655h-6.512L22.11 1.069c-1.545-1.283-3.788-1.283-5.332 0L11.532 5.42h-6.51c-1.466 0-2.657 1.191-2.657 2.655v4.952L.423 14.64l-.01.01c-.025.02-.05.044-.073.068l-.005.005c-.023.023-.043.045-.063.07-.008.01-.015.02-.023.028l-.04.055-.018.028c-.016.025-.032.052-.046.079l-.017.033-.027.057-.012.033c-.012.029-.022.058-.03.089-.002.002-.003.005-.003.008-.01.03-.016.06-.021.09l-.006.027c-.004.024-.008.05-.01.075-.002.008-.003.016-.003.025-.003.032-.005.064-.005.096v19.279c0 1.193.504 2.27 1.31 3.03.022.025.046.047.07.067.74.67 1.721 1.078 2.796 1.078H34.7c1.073 0 2.055-.409 2.795-1.078.025-.02.048-.042.07-.065.804-.761 1.31-1.839 1.31-3.032V15.519z"/>
</svg>
