<svg xmlns="http://www.w3.org/2000/svg" width="35" height="50" fill="none" viewBox="0 0 35 50">
    <path fill="#E7B4F1" d="M31.423 46.24H2.96V9.917h6.892v2.354c0 .786.64 1.425 1.427 1.425h11.827c.788 0 1.425-.639 1.425-1.425V9.917h6.892V46.24zM12.704 7.063h1.802c.786 0 1.425-.64 1.425-1.427V4.533c0-.696.565-1.261 1.261-1.261.695 0 1.26.565 1.26 1.261v1.103c0 .788.64 1.427 1.427 1.427h1.8v3.78h-8.975v-3.78zm20.144.004h-8.317V5.636c0-.787-.637-1.425-1.425-1.425h-1.814c-.165-2.118-1.94-3.791-4.1-3.791-2.16 0-3.936 1.673-4.1 3.79h-1.813c-.788 0-1.427.64-1.427 1.426v1.43H1.534c-.787 0-1.426.64-1.426 1.426v39.173c0 .788.64 1.427 1.426 1.427h31.314c.788 0 1.427-.639 1.427-1.427V8.492c0-.787-.639-1.425-1.427-1.425"/>
    <path fill="#E7B4F1" d="M8.213 16.548c-.786 0-1.425.639-1.425 1.427 0 .786.639 1.425 1.425 1.425h17.958c.788 0 1.426-.639 1.426-1.425 0-.788-.638-1.427-1.426-1.427H8.213zM8.213 25.104h15.115c.788 0 1.427-.639 1.427-1.426 0-.788-.639-1.426-1.427-1.426H8.213c-.788 0-1.425.638-1.425 1.426 0 .787.637 1.426 1.425 1.426zM20.476 33.624H8.213c-.788 0-1.427.639-1.427 1.425 0 .788.639 1.427 1.427 1.427h12.263c.788 0 1.425-.639 1.425-1.426 0-.787-.637-1.426-1.425-1.426zM8.213 30.79h8.482c.786 0 1.425-.639 1.425-1.425 0-.788-.639-1.427-1.425-1.427H8.213c-.786 0-1.425.639-1.425 1.427 0 .787.639 1.425 1.425 1.425z"/>
</svg>
