<svg xmlns="http://www.w3.org/2000/svg" width="54" height="18" fill="none" viewBox="0 0 54 18">
    <path fill="#E7B4F1" d="M28.911 3.04h-12.34v11.602h12.34V3.039zm9.803 11.63c-3.034-3.498-3.019-8.196-.044-11.624h-8.138v11.622h1.879c.592.014.925.275.94.732.016.48-.34.791-.943.791H3.832c-1.597 0-2.813-1.228-2.821-2.825-.015-3.019-.015-6.039 0-9.058.008-1.601 1.219-2.806 2.81-2.84.507-.013 1.014-.013 1.52 0 .53.015.86.312.869.752.006.442-.32.754-.847.771-.487.016-.973-.013-1.46 0-.817.027-1.36.548-1.363 1.368-.013 2.98-.013 5.961 0 8.941.004.764.519 1.34 1.262 1.345 3.7.02 7.398.013 11.146.013V2.99c-1.694 0-3.348.002-5 0-.486 0-.974.018-1.461-.013-.452-.027-.725-.29-.721-.755.004-.461.277-.71.728-.755.192-.02.389 0 .584 0 10.342 0 20.686 0 31.03-.013.352 0 .735-.085 1.052-.237 3.268-1.573 7.01-.974 9.686 1.574.578.551.684 1.02.312 1.4-.368.38-.824.283-1.392-.29-2.362-2.383-6.235-2.676-8.94-.678-2.807 2.075-3.672 5.843-2.039 8.872 1.63 3.02 5.24 4.428 8.396 3.28 3.49-1.273 5.336-4.827 4.387-8.422-.072-.27-.148-.627-.031-.837.123-.22.497-.454.723-.42.257.04.6.324.684.576.522 1.549.56 3.127.141 4.717-1.356 5.157-7.05 7.768-11.896 5.465-.335-.158-.737-.241-1.11-.25-1.42-.027-2.843 0-4.265-.014-.618 0-.989-.37-.898-.877.088-.494.438-.65.897-.647h2.899"/>
    <path stroke="#E7B4F1" stroke-miterlimit="10" stroke-width=".667" d="M28.911 3.04h-12.34v11.602h12.34V3.039zm9.803 11.63c-3.034-3.498-3.019-8.196-.044-11.624h-8.138v11.622h1.879c.592.014.925.275.94.732.016.48-.34.791-.943.791H3.832c-1.597 0-2.813-1.228-2.821-2.825-.015-3.019-.015-6.039 0-9.058.008-1.601 1.219-2.806 2.81-2.84.507-.013 1.014-.013 1.52 0 .53.015.86.312.869.752.006.442-.32.754-.847.771-.487.016-.973-.013-1.46 0-.817.027-1.36.548-1.363 1.368-.013 2.98-.013 5.961 0 8.941.004.764.519 1.34 1.262 1.345 3.7.02 7.398.013 11.146.013V2.99c-1.694 0-3.348.002-5 0-.486 0-.974.018-1.461-.013-.452-.027-.725-.29-.721-.755.004-.461.277-.71.728-.755.192-.02.389 0 .584 0 10.342 0 20.686 0 31.03-.013.352 0 .735-.085 1.052-.237 3.268-1.573 7.01-.974 9.686 1.574.578.551.684 1.02.312 1.4-.368.38-.824.283-1.392-.29-2.362-2.383-6.235-2.676-8.94-.678-2.807 2.075-3.672 5.843-2.039 8.872 1.63 3.02 5.24 4.428 8.396 3.28 3.49-1.273 5.336-4.827 4.387-8.422-.072-.27-.148-.627-.031-.837.123-.22.497-.454.723-.42.257.04.6.324.684.576.522 1.549.56 3.127.141 4.717-1.356 5.157-7.05 7.768-11.896 5.465-.335-.158-.737-.241-1.11-.25-1.42-.027-2.843 0-4.265-.014-.618 0-.989-.37-.898-.877.088-.494.438-.65.897-.647h2.899v.003z"/>
    <path fill="#E7B4F1" d="M44 9.481l2.056-2.124c.163-.168.327-.333.495-.497.473-.461.924-.53 1.273-.196.355.339.299.79-.17 1.265-.794.802-1.594 1.598-2.393 2.394-1.22 1.217-1.22 1.217-2.43.002-.275-.276-.553-.546-.823-.828-.33-.344-.383-.718-.053-1.089.301-.339.761-.34 1.136.025.304.295.559.64.91 1.048z"/>
    <path stroke="#E7B4F1" stroke-miterlimit="10" stroke-width=".667" d="M44 9.481l2.056-2.124c.163-.168.327-.333.495-.497.473-.461.924-.53 1.273-.196.355.339.299.79-.17 1.265-.794.802-1.594 1.598-2.393 2.394-1.22 1.217-1.22 1.217-2.43.002-.275-.276-.553-.546-.823-.828-.33-.344-.383-.718-.053-1.089.301-.339.761-.34 1.136.025.304.295.559.64.91 1.048z"/>
</svg>
