<svg xmlns="http://www.w3.org/2000/svg" width="38" height="37" fill="none" viewBox="0 0 38 37">
    <path fill="#E7B4F1" d="M10.334 3.715c-3.83 0-6.944 3.116-6.944 6.945V18.3c0 3.83 3.115 6.945 6.944 6.945.379 0 .74.155 1.001.428.263.272.403.64.387 1.019l-.217 5.303 6.844-6.377c.256-.24.594-.373.946-.373h8.42c3.83 0 6.946-3.114 6.946-6.945V10.66c0-3.83-3.116-6.945-6.946-6.945H10.334zm-.355 32.99c-.197 0-.394-.044-.58-.129-.512-.234-.83-.755-.808-1.319l.3-7.34c-4.68-.7-8.28-4.746-8.28-9.618V10.66C.611 5.3 4.973.937 10.334.937h17.381c5.362 0 9.724 4.362 9.724 9.723V18.3c0 5.361-4.362 9.724-9.724 9.724h-7.873l-8.916 8.308c-.261.245-.601.373-.947.373"/>
</svg>
