<svg xmlns="http://www.w3.org/2000/svg" width="36" height="44" fill="none" viewBox="0 0 36 44">
    <path fill="#E7B4F1" d="M11.563 17.794v-12.8c5.668-1.304 12.056-1.346 19.443-.124l-4.327 5.406 4.17 7.296c-6.411-1.084-12.88-1.01-19.286.222zm1.281 18.235H7.72c0-1.413 1.15-2.564 2.563-2.564 1.413 0 2.562 1.151 2.562 2.564zm4.908 5.127H2.811c.53-1.492 1.955-2.563 3.625-2.563h7.691c1.67 0 3.096 1.071 3.625 2.563zm12.018-30.64l5.908-7.385c-1.431-.172-12.782-3.192-24.115-.761V.143H9v30.922c-2.209.57-3.845 2.58-3.845 4.964v.128c-2.921.597-5.127 3.186-5.127 6.28v1.282h20.507v-1.282c0-3.094-2.205-5.683-5.127-6.28v-.127c0-2.385-1.636-4.395-3.845-4.965V20.407c13.101-2.647 22.568.605 24.339.84l-6.132-10.73z"/>
</svg>
