<svg xmlns="http://www.w3.org/2000/svg" width="37" height="42" fill="none" viewBox="0 0 37 42">
    <path fill="#E7B4F1" d="M3.813 15.718h.002c0 1.933-.029 3.866.007 5.799.064 3.508 1.077 6.716 3.21 9.525 2.898 3.82 6.806 6.173 11.298 7.644.196.064.453.026.659-.038 2.317-.712 4.48-1.756 6.476-3.129 5.137-3.533 7.904-8.345 7.873-14.664-.019-3.814-.01-7.628.007-11.441.001-.396-.108-.583-.488-.72-4.644-1.67-9.28-3.364-13.923-5.036-.208-.076-.49-.083-.697-.008-4.675 1.687-9.343 3.392-14.018 5.08-.324.117-.416.279-.413.608.013 2.127.007 4.253.007 6.38zm-2.955-.924c0-2.495.008-4.99-.01-7.485-.002-.375.109-.542.47-.672C6.966 4.597 12.606 2.535 18.253.493c.192-.071.453-.074.645-.004 5.647 2.042 11.287 4.104 16.933 6.145.363.13.468.304.467.676-.013 4.603.003 9.207-.01 13.81-.02 6.675-2.834 11.95-8.086 15.975-2.76 2.117-5.825 3.65-9.168 4.616-.257.074-.57.105-.819.03-5.073-1.523-9.513-4.078-12.957-8.171C2.314 30.073.919 25.986.863 21.435.837 19.221.86 17.007.858 14.794"/>
    <path fill="#E7B4F1" d="M15.567 25.088l10.779-10.81 1.952 1.974c-4.21 4.203-8.477 8.463-12.725 12.701-2.218-2.223-4.505-4.517-6.76-6.78l1.98-1.969c1.525 1.56 3.104 3.174 4.774 4.884z"/>
</svg>
