<svg xmlns="http://www.w3.org/2000/svg" width="41" height="41" fill="none" viewBox="0 0 41 41">
    <path fill="#E7B4F1" d="M35.68 30.396c-.422 0-.763.342-.763.763v8.116c0 .421.341.763.763.763.42 0 .762-.342.762-.763v-8.116c0-.421-.342-.763-.762-.763z"/>
    <path stroke="#E7B4F1" stroke-miterlimit="10" stroke-width=".4" d="M35.68 30.396c-.422 0-.763.342-.763.763v8.116c0 .421.341.763.763.763.42 0 .762-.342.762-.763v-8.116c0-.421-.342-.763-.762-.763z"/>
    <path fill="#E7B4F1" d="M35.68 26.965c-.2 0-.398.081-.539.223-.143.142-.224.338-.224.54 0 .2.081.397.224.538.141.143.339.224.539.224s.397-.081.538-.224c.142-.141.224-.338.224-.538 0-.202-.082-.398-.224-.54-.141-.142-.338-.223-.538-.223z"/>
    <path stroke="#E7B4F1" stroke-miterlimit="10" stroke-width=".4" d="M35.68 26.965c-.2 0-.398.081-.539.223-.143.142-.224.338-.224.54 0 .2.081.397.224.538.141.143.339.224.539.224s.397-.081.538-.224c.142-.141.224-.338.224-.538 0-.202-.082-.398-.224-.54-.141-.142-.338-.223-.538-.223z"/>
    <path fill="#E7B4F1" d="M37.598 10.872c-.323 0-.63.064-.912.177V9.536c0-1.345-1.093-2.441-2.44-2.441-.323 0-.632.064-.915.18v-.3c0-1.346-1.094-2.44-2.44-2.44-1.345 0-2.44 1.094-2.44 2.44v.3c-.282-.116-.59-.18-.914-.18-1.346 0-2.44 1.096-2.44 2.441v6.265c-.283-.114-.59-.178-.916-.178-.323 0-.632.064-.915.178v-.298c0-1.347-1.093-2.44-2.44-2.44-.19 0-.375.022-.553.064V9.776c0-1.345-1.095-2.439-2.44-2.439-.322 0-.63.063-.912.176V6c0-1.345-1.095-2.44-2.44-2.44-.323 0-.632.064-.915.179v-.3c0-1.344-1.095-2.439-2.44-2.439s-2.44 1.095-2.44 2.439v.3c-.283-.115-.59-.179-.915-.179-1.345 0-2.44 1.095-2.44 2.44v5.71c-.556-.62-1.41-.947-2.28-.793-.662.116-1.236.486-1.617 1.04-.379.555-.516 1.223-.387 1.883l.882 4.465c.346 1.762 1.202 3.364 2.474 4.632l1.594 1.59v14.748c0 .421.342.762.762.762.422 0 .763-.341.763-.762V24.21c0-.203-.081-.396-.224-.54l-1.817-1.812c-1.058-1.055-1.768-2.384-2.056-3.848l-.882-4.466c-.05-.254.003-.512.15-.725.146-.213.368-.356.622-.401.495-.087.976.226 1.095.713l.6 2.447c.115.466.545.765 1.021.706.48-.057.826-.449.826-.93V6c0-.505.41-.915.914-.915s.915.41.915.915v8.31c0 .422.341.763.763.763.421 0 .762-.341.762-.762V3.439c0-.504.411-.915.915-.915s.916.41.916.915V14.31c0 .421.34.762.761.762.422 0 .763-.341.763-.762V6c0-.505.41-.915.915-.915.505 0 .916.41.916.915v7.336c0 .421.34.761.761.761s.763-.34.763-.761v-3.62c.032-.476.428-.855.912-.855.505 0 .914.411.914.915v4.45c-.228.373-.36.809-.36 1.277v.298c-.284-.114-.592-.178-.916-.178-1.345 0-2.438 1.094-2.438 2.44l-.002 5.709c-.556-.621-1.409-.945-2.28-.792-.662.116-1.236.485-1.616 1.04-.38.555-.517 1.224-.388 1.883l.882 4.465c.346 1.761 1.202 3.364 2.474 4.632l1.595 1.59v2.685c0 .421.341.762.761.762.422 0 .763-.341.763-.762v-3.002c0-.202-.08-.397-.224-.54l-1.817-1.812c-1.056-1.053-1.768-2.384-2.056-3.848l-.882-4.465c-.049-.255.004-.512.151-.725.147-.214.367-.356.621-.402.495-.086.976.227 1.095.715l.6 2.445c.115.467.544.764 1.023.707.477-.057.824-.448.824-.93v-9.355c0-.504.41-.915.914-.915.506 0 .916.41.916.915v8.31c0 .422.342.763.763.763.42 0 .761-.341.761-.763v-10.87c0-.506.411-.916.915-.916.505 0 .916.41.916.916v10.87c0 .422.341.763.763.763.42 0 .761-.341.761-.763v-8.31c0-.504.41-.915.915-.915.485 0 .881.379.913.855v8.37c0 .422.34.763.761.763h.004c.42 0 .763-.341.763-.763V21.78c.03-.476.427-.855.912-.855.504 0 .915.41.915.916v7.408c0 1.973-.802 3.903-2.198 5.295l-1.176 1.172c-.142.142-.224.337-.224.54v3.02c0 .421.342.762.763.762s.763-.341.763-.762V36.57l.95-.948c1.707-1.702 2.646-3.966 2.646-6.375V21.84c0-1.347-1.095-2.44-2.439-2.44-.323 0-.63.063-.912.177V9.536c0-.505.41-.915.915-.915.505 0 .914.41.914.915v7.476c0 .421.342.763.763.763s.763-.342.763-.763V6.975c0-.504.41-.915.914-.915.506 0 .915.41.915.915v10.87c0 .422.343.763.763.763.421 0 .762-.341.762-.763V9.536c0-.505.411-.915.915-.915.505 0 .915.41.915.915l-.003 8.31c0 .42.341.762.763.762h.002c.422 0 .763-.341.763-.763v-4.593c.032-.477.428-.855.912-.855.504 0 .916.411.916.915v7.41c0 1.434-.41 2.831-1.187 4.04-.226.354-.124.825.231 1.053.127.082.27.121.41.121.251 0 .497-.124.643-.35.934-1.455 1.427-3.137 1.427-4.865v-7.409c0-1.345-1.095-2.44-2.44-2.44z"/>
    <path stroke="#E7B4F1" stroke-miterlimit="10" stroke-width=".4" d="M37.598 10.872c-.323 0-.63.064-.912.177V9.536c0-1.345-1.093-2.441-2.44-2.441-.323 0-.632.064-.915.18v-.3c0-1.346-1.094-2.44-2.44-2.44-1.345 0-2.44 1.094-2.44 2.44v.3c-.282-.116-.59-.18-.914-.18-1.346 0-2.44 1.096-2.44 2.441v6.265c-.283-.114-.59-.178-.916-.178-.323 0-.632.064-.915.178v-.298c0-1.347-1.093-2.44-2.44-2.44-.19 0-.375.022-.553.064V9.776c0-1.345-1.095-2.439-2.44-2.439-.322 0-.63.063-.912.176V6c0-1.345-1.095-2.44-2.44-2.44-.323 0-.632.064-.915.179v-.3c0-1.344-1.095-2.439-2.44-2.439s-2.44 1.095-2.44 2.439v.3c-.283-.115-.59-.179-.915-.179-1.345 0-2.44 1.095-2.44 2.44v5.71c-.556-.62-1.41-.947-2.28-.793-.662.116-1.236.486-1.617 1.04-.379.555-.516 1.223-.387 1.883l.882 4.465c.346 1.762 1.202 3.364 2.474 4.632l1.594 1.59v14.748c0 .421.342.762.762.762.422 0 .763-.341.763-.762V24.21c0-.203-.081-.396-.224-.54l-1.817-1.812c-1.058-1.055-1.768-2.384-2.056-3.848l-.882-4.466c-.05-.254.003-.512.15-.725.146-.213.368-.356.622-.401.495-.087.976.226 1.095.713l.6 2.447c.115.466.545.765 1.021.706.48-.057.826-.449.826-.93V6c0-.505.41-.915.914-.915s.915.41.915.915v8.31c0 .422.341.763.763.763.421 0 .762-.341.762-.762V3.439c0-.504.411-.915.915-.915s.916.41.916.915V14.31c0 .421.34.762.761.762.422 0 .763-.341.763-.762V6c0-.505.41-.915.915-.915.505 0 .916.41.916.915v7.336c0 .421.34.761.761.761s.763-.34.763-.761v-3.62c.032-.476.428-.855.912-.855.505 0 .914.411.914.915v4.45c-.228.373-.36.809-.36 1.277v.298c-.284-.114-.592-.178-.916-.178-1.345 0-2.438 1.094-2.438 2.44l-.002 5.709c-.556-.621-1.409-.945-2.28-.792-.662.116-1.236.485-1.616 1.04-.38.555-.517 1.224-.388 1.883l.882 4.465c.346 1.761 1.202 3.364 2.474 4.632l1.595 1.59v2.685c0 .421.341.762.761.762.422 0 .763-.341.763-.762v-3.002c0-.202-.08-.397-.224-.54l-1.817-1.812c-1.056-1.053-1.768-2.384-2.056-3.848l-.882-4.465c-.049-.255.004-.512.151-.725.147-.214.367-.356.621-.402.495-.086.976.227 1.095.715l.6 2.445c.115.467.544.764 1.023.707.477-.057.824-.448.824-.93v-9.355c0-.504.41-.915.914-.915.506 0 .916.41.916.915v8.31c0 .422.342.763.763.763.42 0 .761-.341.761-.763v-10.87c0-.506.411-.916.915-.916.505 0 .916.41.916.916v10.87c0 .422.341.763.763.763.42 0 .761-.341.761-.763v-8.31c0-.504.41-.915.915-.915.485 0 .881.379.913.855v8.37c0 .422.34.763.761.763h.004c.42 0 .763-.341.763-.763V21.78c.03-.476.427-.855.912-.855.504 0 .915.41.915.916v7.408c0 1.973-.802 3.903-2.198 5.295l-1.176 1.172c-.142.142-.224.337-.224.54v3.02c0 .421.342.762.763.762s.763-.341.763-.762V36.57l.95-.948c1.707-1.702 2.646-3.966 2.646-6.375V21.84c0-1.347-1.095-2.44-2.439-2.44-.323 0-.63.063-.912.177V9.536c0-.505.41-.915.915-.915.505 0 .914.41.914.915v7.476c0 .421.342.763.763.763s.763-.342.763-.763V6.975c0-.504.41-.915.914-.915.506 0 .915.41.915.915v10.87c0 .422.343.763.763.763.421 0 .762-.341.762-.763V9.536c0-.505.411-.915.915-.915.505 0 .915.41.915.915l-.003 8.31c0 .42.341.762.763.762h.002c.422 0 .763-.341.763-.763v-4.593c.032-.477.428-.855.912-.855.504 0 .916.411.916.915v7.41c0 1.434-.41 2.831-1.187 4.04-.226.354-.124.825.231 1.053.127.082.27.121.41.121.251 0 .497-.124.643-.35.934-1.455 1.427-3.137 1.427-4.865v-7.409c0-1.345-1.095-2.44-2.44-2.44z"/>
</svg>
