<svg xmlns="http://www.w3.org/2000/svg" width="33" height="35" fill="none" viewBox="0 0 33 35">
    <path fill="#F09C77" d="M11.512 35c-.327-.007-.648-.092-.936-.249-.289-.156-.537-.38-.723-.65L.355 20.782c-.302-.454-.418-1.01-.322-1.549.096-.539.395-1.019.835-1.338.44-.32.985-.453 1.521-.373.536.08 1.02.369 1.348.804l7.676 10.79L29.144.981c.297-.474.768-.808 1.309-.93.54-.123 1.108-.024 1.576.277.468.3.8.776.92 1.323.122.547.023 1.12-.274 1.594L13.27 34c-.182.294-.432.538-.729.712-.296.174-.63.273-.973.288h-.056z"/>
</svg>
