<svg xmlns="http://www.w3.org/2000/svg" width="39" height="37" fill="none" viewBox="0 0 39 37">
    <path fill="#F09C77" d="M2.924 34.076h8.787V2.924H2.924v31.152zM13.174 37H1.463C.654 37 0 36.346 0 35.538V1.462C0 .654.654 0 1.462 0h11.713c.806 0 1.461.654 1.461 1.462v34.076c0 .808-.655 1.462-1.461 1.462z"/>
    <path fill="#F09C77" d="M24.887 37H13.174v-2.922h10.251V14.339h-10.25v-2.922h11.712c.808 0 1.462.654 1.462 1.462v22.66c0 .807-.654 1.461-1.462 1.461z"/>
    <path fill="#F09C77" d="M36.6 37H24.887v-2.922h10.251V22.625h-10.25v-2.923H36.6c.808 0 1.462.654 1.462 1.461v14.375c0 .808-.654 1.462-1.462 1.462z"/>
</svg>
