<svg width="42" height="39" viewBox="0 0 42 39" fill="none" xmlns="http://www.w3.org/2000/svg">
<g clip-path="url(#clip0)">
<path d="M32.1256 9.20009C32.0088 9.30661 31.9155 9.43592 31.8518 9.57987C31.788 9.72382 31.7551 9.87929 31.7551 10.0365C31.7551 10.1936 31.788 10.3491 31.8518 10.493C31.9155 10.637 32.0088 10.7663 32.1256 10.8728C32.2347 10.9849 32.3662 11.0733 32.5118 11.1323C32.6573 11.1914 32.8137 11.2198 32.971 11.2157C33.1282 11.2198 33.2846 11.1914 33.4302 11.1323C33.5757 11.0733 33.7073 10.9849 33.8164 10.8728C34.3042 10.3938 34.9636 10.1249 35.6509 10.1249C36.3383 10.1249 36.9977 10.3938 37.4855 10.8728C37.5946 10.9849 37.7261 11.0733 37.8717 11.1323C38.0172 11.1914 38.1736 11.2198 38.3309 11.2157C38.4881 11.2198 38.6445 11.1914 38.7901 11.1323C38.9356 11.0733 39.0672 10.9849 39.1763 10.8728C39.2852 10.767 39.3717 10.6407 39.4307 10.5014C39.4898 10.3621 39.5202 10.2126 39.5202 10.0615C39.5202 9.91051 39.4898 9.76098 39.4307 9.62169C39.3717 9.4824 39.2852 9.35614 39.1763 9.25027C38.7212 8.78114 38.1758 8.40695 37.5721 8.14981C36.9685 7.89267 36.3189 7.75778 35.6616 7.7531C35.0044 7.74842 34.3529 7.87405 33.7456 8.12258C33.1383 8.3711 32.5874 8.73748 32.1256 9.20009Z" fill="#F09C77"/>
<path d="M41.6534 6.69097C40.8624 5.90527 39.9224 5.28183 38.8873 4.85643C37.8521 4.43103 36.7423 4.21205 35.6214 4.21205C34.5005 4.21205 33.3907 4.43103 32.3555 4.85643C31.3204 5.28183 30.3804 5.90527 29.5894 6.69097C29.3677 6.91417 29.2433 7.21443 29.2428 7.52734C29.2397 7.68279 29.2689 7.8372 29.3285 7.98105C29.3881 8.12491 29.4769 8.25514 29.5894 8.36371C29.6984 8.47708 29.8295 8.56735 29.9748 8.62903C30.1202 8.69071 30.2767 8.72252 30.4348 8.72252C30.5929 8.72252 30.7494 8.69071 30.8948 8.62903C31.0401 8.56735 31.1712 8.47708 31.2802 8.36371C32.4403 7.21865 34.0122 6.57558 35.651 6.57558C37.2898 6.57558 38.8616 7.21865 40.0218 8.36371C40.1324 8.47382 40.2642 8.56089 40.4094 8.61979C40.5546 8.67868 40.7102 8.70821 40.8672 8.70663C41.1004 8.71143 41.3297 8.64695 41.5255 8.52152C41.7213 8.3961 41.8746 8.21548 41.9656 8.00299C42.0567 7.7905 42.0812 7.5559 42.0361 7.32948C41.991 7.10306 41.8783 6.89522 41.7126 6.73279" fill="#F09C77"/>
<path d="M35.634 14.419C35.8664 14.4204 36.0967 14.376 36.3115 14.2884C36.5263 14.2009 36.7214 14.0718 36.8852 13.9089C37.1302 13.6639 37.2965 13.3529 37.3633 13.0148C37.4302 12.6766 37.3945 12.3265 37.2608 12.0084C37.1271 11.6902 36.9014 11.4183 36.6119 11.2266C36.3225 11.035 35.9823 10.9323 35.634 10.9314C35.2838 10.9227 34.9396 11.0219 34.6488 11.2151C34.358 11.4084 34.1351 11.6863 34.0108 12.0103C33.8737 12.3272 33.8359 12.6776 33.9022 13.0161C33.9685 13.3545 34.1359 13.6655 34.3828 13.9089C34.5473 14.0711 34.7424 14.1996 34.9571 14.2872C35.1718 14.3747 35.4018 14.4195 35.634 14.419Z" fill="#F09C77"/>
<path d="M38.7283 15.765C38.4855 15.5874 38.1815 15.5122 37.8829 15.5559C37.5783 15.6033 37.3051 15.768 37.1229 16.014C36.9408 16.2601 36.8644 16.5674 36.9106 16.869C37.2755 19.2254 37.1415 21.6311 36.5173 23.9336C35.8932 26.2361 34.7923 28.3853 33.2846 30.2449C31.7769 32.1045 29.8952 33.6339 27.7587 34.7364C25.6222 35.8388 23.2775 36.4902 20.8732 36.6492V20.6494H28.9046C28.5607 25.3357 26.6033 29.7637 23.3587 33.195C23.204 33.3578 23.102 33.5626 23.0659 33.7832C23.0297 34.0037 23.061 34.23 23.1558 34.4328C23.2406 34.602 23.3649 34.7489 23.5186 34.861C23.6722 34.9732 23.8507 35.0475 24.0391 35.0778C24.2276 35.108 24.4207 35.0934 24.6023 35.035C24.7839 34.9767 24.9488 34.8763 25.0833 34.7423C28.7395 30.8984 30.9303 25.9161 31.2802 20.6494H34.07C34.2233 20.6494 34.375 20.6195 34.5165 20.5615C34.6581 20.5035 34.7867 20.4185 34.895 20.3113C35.0033 20.2042 35.0893 20.0769 35.1479 19.9369C35.2065 19.7969 35.2367 19.6468 35.2367 19.4952C35.2367 19.3436 35.2065 19.1935 35.1479 19.0535C35.0893 18.9135 35.0033 18.7862 34.895 18.6791C34.7867 18.5719 34.6581 18.4869 34.5165 18.4289C34.375 18.3709 34.2233 18.341 34.07 18.341H31.2802C30.8935 12.3598 28.1638 6.7638 23.6715 2.74268C25.2741 3.11012 26.8166 3.69855 28.2536 4.4907C28.3862 4.56511 28.5324 4.61289 28.6837 4.6313C28.835 4.64971 28.9885 4.63839 29.1354 4.59798C29.2822 4.55757 29.4196 4.48888 29.5396 4.39584C29.6596 4.30279 29.7598 4.18723 29.8345 4.05578C29.9765 3.80069 30.0158 3.50193 29.9444 3.21941C29.9004 3.06589 29.8242 2.92325 29.7208 2.80077C29.6174 2.67829 29.4891 2.57871 29.3442 2.50849C25.4528 0.353515 20.9379 -0.432586 16.5366 0.278557C12.1354 0.989699 8.10785 3.15607 5.11172 6.42391C2.11558 9.69176 0.327855 13.868 0.040452 18.2707C-0.246951 22.6734 0.982953 27.0425 3.52933 30.6644C6.07571 34.2864 9.78812 36.9473 14.0604 38.2126C18.3326 39.4779 22.9122 39.2728 27.0515 37.6309C31.1907 35.989 34.645 33.0073 36.8502 29.1725C39.0555 25.3378 39.8815 20.8767 39.1932 16.5177C39.1712 16.3677 39.1187 16.2236 39.0388 16.0942C38.9588 15.9648 38.8532 15.8528 38.7283 15.765ZM20.8732 18.341V3.4285C22.0955 4.43154 23.2141 5.5522 24.2126 6.77399C26.9949 10.0389 28.6402 14.1037 28.9046 18.3661L20.8732 18.341ZM15.8007 36.2561C12.1592 35.4369 8.88325 33.4744 6.46207 30.6615C4.04089 27.8487 2.60441 24.3365 2.36715 20.6494H8.18358C8.5655 26.6342 11.2958 32.2346 15.7923 36.2561H15.8007ZM10.5169 20.6494H18.5483V35.5703C17.3133 34.5671 16.1807 33.4465 15.1667 32.2248C12.3831 28.9573 10.7378 24.8895 10.4746 20.6243L10.5169 20.6494ZM15.7415 6.12998C15.8502 6.01705 15.9346 5.88352 15.9896 5.73744C16.0446 5.59136 16.0692 5.43577 16.0618 5.28004C16.0544 5.12432 16.0152 4.97169 15.9465 4.83137C15.8778 4.69105 15.7811 4.56595 15.6623 4.46361C15.5434 4.36127 15.4048 4.28382 15.2548 4.23593C15.1049 4.18803 14.9467 4.17069 14.7897 4.18494C14.6328 4.1992 14.4804 4.24476 14.3418 4.31887C14.2032 4.39298 14.0811 4.49411 13.9831 4.61615C10.5431 8.41464 8.49964 13.2506 8.18358 18.341H2.36715C2.66773 14.1945 4.46927 10.2942 7.44136 7.35544C10.4135 4.41666 14.3568 2.63642 18.5483 2.34122V18.341H10.5169C10.8328 13.808 12.6719 9.50976 15.7415 6.12998Z" fill="#F09C77"/>
</g>
<defs>
<clipPath id="clip0">
<rect width="42" height="39" fill="white"/>
</clipPath>
</defs>
</svg>
