<svg width="37" height="43" viewBox="0 0 37 43" fill="none" xmlns="http://www.w3.org/2000/svg">
<g clip-path="url(#clip0)">
<path d="M-0.000224198 14.9292C-0.000224198 12.3354 -0.000224198 9.74155 -0.000224198 7.14772C-0.0141091 6.99637 0.0283099 6.84522 0.118966 6.723C0.209623 6.60078 0.342194 6.51603 0.49147 6.48485L18.1635 0.057906C18.3819 -0.0140937 18.6177 -0.0140937 18.836 0.057906C24.7291 2.16179 30.6222 4.32332 36.5153 6.44162C36.6737 6.47634 36.8125 6.57066 36.9028 6.70491C36.993 6.83916 37.0278 7.00296 36.9998 7.16213C36.9998 11.9463 36.9998 16.7377 36.9998 21.5219C36.9998 28.4676 34.0496 33.9507 28.5614 38.1368C25.7046 40.3244 22.459 41.9548 18.9951 42.9426C18.7157 43.0179 18.4212 43.0179 18.1418 42.9426C12.8844 41.5143 8.17082 38.5628 4.59856 34.4622C1.61049 30.9318 -0.019639 26.4572 -0.000224198 21.8389C-0.000224198 19.5333 -0.000224198 17.2348 -0.000224198 14.9292ZM3.08733 15.8947C3.08733 17.9049 3.08733 19.9151 3.08733 21.9254C3.10087 25.5035 4.28089 28.9805 6.44965 31.8324C9.47935 35.8024 13.5575 38.2521 18.2431 39.758C18.4709 39.811 18.7091 39.7985 18.93 39.722C21.3372 38.9865 23.6172 37.8882 25.6908 36.4652C31.0561 32.7906 33.9411 27.8191 33.9122 21.2121C33.9122 17.2493 33.9122 13.2841 33.9122 9.31645C33.9305 9.15447 33.8883 8.99144 33.7936 8.85852C33.6989 8.72561 33.5583 8.63213 33.3988 8.59594C28.5614 6.85231 23.724 5.08706 18.8794 3.35063C18.6446 3.27314 18.3911 3.27314 18.1563 3.35063C13.2683 5.09427 8.39473 6.86672 3.52117 8.64638C3.38168 8.67759 3.25928 8.76042 3.17874 8.87813C3.0982 8.99584 3.06552 9.13963 3.08733 9.28043C3.08733 11.4924 3.08733 13.7044 3.08733 15.9163" fill="#F09C77"/>
<path d="M15.3655 25.6357L26.6094 14.4102C27.3324 15.1307 28.0049 15.8079 28.6484 16.4636L15.3655 29.6561L8.31543 22.6023L10.3762 20.5561L15.3655 25.5997" fill="#F09C77"/>
</g>
<defs>
<clipPath id="clip0">
<rect width="37" height="43" fill="white"/>
</clipPath>
</defs>
</svg>
