<svg xmlns="http://www.w3.org/2000/svg" width="37" height="43" fill="none" viewBox="0 0 37 43">
    <g fill="#F09C77" clip-path="url(#clip0)">
        <path d="M0 14.93V7.147c-.014-.152.028-.303.119-.425.09-.122.223-.207.372-.238L18.163.058c.219-.072.455-.072.673 0 5.893 2.104 11.786 4.265 17.68 6.384.158.034.297.129.387.263.09.134.125.298.097.457v14.36c0 6.946-2.95 12.429-8.439 16.615-2.856 2.187-6.102 3.818-9.566 4.806-.28.075-.574.075-.853 0-5.258-1.429-9.971-4.38-13.543-8.48-2.989-3.531-4.619-8.006-4.6-12.624v-6.91zm3.087.965v6.03c.014 3.579 1.194 7.055 3.363 9.907 3.03 3.97 7.107 6.42 11.793 7.926.228.053.466.04.687-.036 2.407-.735 4.687-1.834 6.76-3.257 5.366-3.674 8.251-8.646 8.222-15.253V9.317c.019-.162-.024-.325-.118-.458-.095-.133-.236-.227-.395-.263-4.838-1.744-9.675-3.509-14.52-5.245-.234-.078-.488-.078-.723 0-4.888 1.743-9.761 3.516-14.635 5.295-.14.032-.262.114-.342.232-.08.118-.113.262-.092.402v6.636"/>
        <path d="M15.366 25.636L26.608 14.41c.723.72 1.396 1.398 2.04 2.054L15.364 29.656l-7.05-7.054 2.061-2.046 4.99 5.044"/>
    </g>
    <defs>
        <clipPath id="clip0">
            <path fill="#fff" d="M0 0H37V43H0z"/>
        </clipPath>
    </defs>
</svg>
