<svg width="39" height="39" viewBox="0 0 39 39" fill="none" xmlns="http://www.w3.org/2000/svg">
<path d="M34.2696 29.049C33.8536 29.049 33.5163 29.3864 33.5163 29.8024V37.8237C33.5163 38.241 33.8536 38.577 34.2696 38.577C34.6856 38.577 35.023 38.241 35.023 37.8237V29.8024C35.023 29.3864 34.6856 29.049 34.2696 29.049Z" fill="#F09C77"/>
<path d="M34.2696 25.6583C34.0723 25.6583 33.8776 25.7409 33.7376 25.8796C33.5976 26.0196 33.5163 26.2143 33.5163 26.4116C33.5163 26.6089 33.5976 26.8036 33.7376 26.9436C33.8776 27.0849 34.0723 27.1649 34.2696 27.1649C34.4683 27.1649 34.6616 27.0849 34.8016 26.9436C34.943 26.8036 35.023 26.6089 35.023 26.4116C35.023 26.2143 34.943 26.0196 34.8016 25.8796C34.6616 25.7409 34.4683 25.6583 34.2696 25.6583Z" fill="#F09C77"/>
<path d="M36.1661 9.75605C35.8475 9.75605 35.5435 9.81872 35.2648 9.93072V8.43472C35.2648 7.10539 34.1835 6.02405 32.8541 6.02405C32.5341 6.02405 32.2288 6.08672 31.9501 6.19872V5.90272C31.9501 4.57339 30.8688 3.49339 29.5395 3.49339C28.2101 3.49339 27.1275 4.57339 27.1275 5.90272V6.19872C26.8488 6.08672 26.5435 6.02405 26.2235 6.02405C24.8941 6.02405 23.8128 7.10539 23.8128 8.43472V14.6254C23.5328 14.5121 23.2275 14.4507 22.9088 14.4507C22.5888 14.4507 22.2835 14.5121 22.0035 14.6254V14.3321C22.0035 13.0027 20.9221 11.92 19.5928 11.92C19.4048 11.92 19.2221 11.9427 19.0448 11.9841V8.67339C19.0448 7.34272 17.9635 6.26272 16.6341 6.26272C16.3155 6.26272 16.0115 6.32539 15.7328 6.43739V4.94139C15.7328 3.61205 14.6515 2.52938 13.3221 2.52938C13.0021 2.52938 12.6968 2.59338 12.4181 2.70672V2.40939C12.4181 1.08139 11.3355 5.34058e-05 10.0061 5.34058e-05C8.67681 5.34058e-05 7.59547 1.08139 7.59547 2.40939V2.70672C7.31681 2.59338 7.01147 2.52938 6.69147 2.52938C5.36214 2.52938 4.28081 3.61205 4.28081 4.94139V10.5841C3.73014 9.96939 2.88614 9.64805 2.02747 9.80005C1.37281 9.91472 0.804806 10.2814 0.430139 10.8294C0.0554727 11.3774 -0.0818616 12.0374 0.0474718 12.6881L0.916806 17.1014C1.26081 18.8414 2.10614 20.4254 3.36347 21.6774L4.93814 23.2481V37.8241C4.93814 38.2387 5.27547 38.576 5.69147 38.576C6.10747 38.576 6.44481 38.2387 6.44481 37.8241V22.9374C6.44481 22.7361 6.36481 22.5454 6.22347 22.4027L4.42747 20.6121C3.38347 19.5694 2.68081 18.2561 2.39547 16.8107L1.52614 12.3961C1.47547 12.1467 1.52747 11.8921 1.67281 11.6787C1.81814 11.4694 2.03547 11.3294 2.28881 11.2841C2.7768 11.1987 3.25147 11.5067 3.37014 11.9894L3.96214 14.4054C4.07547 14.8681 4.50081 15.1627 4.97281 15.1054C5.44481 15.048 5.78747 14.6614 5.78747 14.1854V4.94139C5.78747 4.44272 6.19281 4.03739 6.69147 4.03739C7.19014 4.03739 7.59547 4.44272 7.59547 4.94139V13.1534C7.59547 13.5681 7.93281 13.9067 8.34881 13.9067C8.76481 13.9067 9.10214 13.5681 9.10214 13.1534V2.40939C9.10214 1.91205 9.50747 1.50672 10.0061 1.50672C10.5048 1.50672 10.9115 1.91205 10.9115 2.40939V13.1534C10.9115 13.5681 11.2488 13.9067 11.6648 13.9067C12.0808 13.9067 12.4181 13.5681 12.4181 13.1534V4.94139C12.4181 4.44272 12.8235 4.03739 13.3221 4.03739C13.8208 4.03739 14.2261 4.44272 14.2261 4.94139V12.1907C14.2261 12.6067 14.5635 12.9441 14.9795 12.9441C15.3955 12.9441 15.7328 12.6067 15.7328 12.1907V8.61338C15.7635 8.14138 16.1555 7.76939 16.6341 7.76939C17.1328 7.76939 17.5381 8.17339 17.5381 8.67339V13.0694C17.3128 13.4387 17.1821 13.8694 17.1821 14.3307V14.6254C16.9021 14.5121 16.5968 14.4507 16.2768 14.4507C14.9475 14.4507 13.8661 15.5321 13.8661 16.8601V22.5041C13.3168 21.8907 12.4728 21.5681 11.6128 21.7214C10.9581 21.8361 10.3915 22.2014 10.0155 22.7481C9.64081 23.2961 9.50481 23.9561 9.63281 24.6094L10.5021 29.0214C10.8461 30.7627 11.6928 32.344 12.9488 33.6L14.5248 35.1707V37.8241C14.5248 38.2387 14.8608 38.576 15.2768 38.576C15.6941 38.576 16.0315 38.2387 16.0315 37.8241V34.8574C16.0315 34.6574 15.9515 34.4641 15.8101 34.3241L14.0128 32.5321C12.9701 31.4921 12.2661 30.1747 11.9808 28.7281L11.1115 24.3174C11.0621 24.0654 11.1141 23.8121 11.2595 23.6014C11.4035 23.3907 11.6221 23.2481 11.8741 23.2041C12.3621 23.1174 12.8381 23.4281 12.9555 23.9094L13.5488 26.3267C13.6621 26.7867 14.0848 27.0814 14.5581 27.0241C15.0301 26.9694 15.3728 26.5814 15.3728 26.1067V16.8601C15.3728 16.3627 15.7781 15.9561 16.2768 15.9561C16.7768 15.9561 17.1821 16.3627 17.1821 16.8601V25.0734C17.1821 25.4907 17.5195 25.8281 17.9355 25.8281C18.3515 25.8281 18.6888 25.4907 18.6888 25.0734V14.3307C18.6888 13.8334 19.0941 13.4267 19.5928 13.4267C20.0915 13.4267 20.4968 13.8334 20.4968 14.3307V25.0734C20.4968 25.4907 20.8341 25.8281 21.2501 25.8281C21.6661 25.8281 22.0035 25.4907 22.0035 25.0734V16.8601C22.0035 16.3627 22.4101 15.9561 22.9075 15.9561C23.3861 15.9561 23.7781 16.3321 23.8088 16.8027V25.0734C23.8088 25.4907 24.1461 25.8281 24.5621 25.8281H24.5635H24.5661C24.9821 25.8281 25.3195 25.4907 25.3195 25.0734V20.5321C25.3501 20.0614 25.7421 19.6881 26.2208 19.6881C26.7195 19.6881 27.1248 20.0947 27.1248 20.5934V27.9147C27.1248 29.8654 26.3328 31.772 24.9528 33.1467L23.7915 34.3054C23.6501 34.4467 23.5701 34.6387 23.5701 34.8387V37.8241C23.5701 38.2387 23.9075 38.576 24.3235 38.576C24.7395 38.576 25.0768 38.2387 25.0768 37.8241V35.1521L26.0168 34.2147C27.7021 32.5321 28.6315 30.2947 28.6315 27.9147V20.5934C28.6315 19.2641 27.5501 18.1814 26.2208 18.1814C25.9021 18.1814 25.5981 18.2454 25.3195 18.3574V8.43472C25.3195 7.93605 25.7248 7.52938 26.2235 7.52938C26.7221 7.52938 27.1275 7.93605 27.1275 8.43472V15.8227C27.1275 16.2387 27.4648 16.5761 27.8808 16.5761C28.2968 16.5761 28.6355 16.2387 28.6355 15.8227V5.90272C28.6355 5.40539 29.0408 5.00138 29.5381 5.00138C30.0368 5.00138 30.4435 5.40539 30.4435 5.90272V16.6481C30.4435 17.0627 30.7795 17.4001 31.1968 17.4001C31.6128 17.4001 31.9501 17.0627 31.9501 16.6481V8.43472C31.9501 7.93605 32.3555 7.52938 32.8541 7.52938C33.3528 7.52938 33.7581 7.93605 33.7581 8.43472L33.7555 16.6481C33.7555 17.0627 34.0928 17.4001 34.5088 17.4001H34.5101H34.5115C34.9275 17.4001 35.2648 17.0627 35.2648 16.6481V12.1081C35.2955 11.6361 35.6875 11.2627 36.1661 11.2627C36.6648 11.2627 37.0701 11.6681 37.0701 12.1667V19.4894C37.0701 20.9054 36.6661 22.2867 35.8995 23.4814C35.6741 23.8307 35.7755 24.2961 36.1261 24.5214C36.2515 24.6027 36.3928 24.6414 36.5328 24.6414C36.7808 24.6414 37.0235 24.5174 37.1675 24.2934C38.0901 22.8574 38.5781 21.1961 38.5781 19.4894V12.1667C38.5781 10.8374 37.4955 9.75605 36.1661 9.75605Z" fill="#F09C77"/>
</svg>
