<svg width="39" height="42" viewBox="0 0 39 42" fill="none" xmlns="http://www.w3.org/2000/svg">
<path d="M19.2663 13.7578C20.0221 13.7564 20.7604 13.5309 21.3881 13.11C22.0158 12.689 22.5047 12.0915 22.7929 11.3928C23.0811 10.6941 23.1557 9.92569 23.0074 9.18461C22.8591 8.44353 22.4944 7.76305 21.9594 7.22915C21.4245 6.69525 20.7433 6.33189 20.002 6.18498C19.2606 6.03807 18.4923 6.11421 17.7942 6.40377C17.0961 6.69333 16.4995 7.18333 16.0797 7.81184C15.66 8.44035 15.436 9.17917 15.436 9.93495C15.4379 10.9495 15.8424 11.9219 16.5605 12.6386C17.2786 13.3553 18.2517 13.7578 19.2663 13.7578ZM19.2663 8.57175C19.5282 8.57321 19.7839 8.65223 20.001 8.79884C20.2181 8.94545 20.387 9.15307 20.4862 9.39552C20.5854 9.63797 20.6106 9.90438 20.5586 10.1611C20.5066 10.4179 20.3797 10.6535 20.194 10.8382C20.0082 11.023 19.7719 11.1485 19.5149 11.1991C19.2578 11.2497 18.9916 11.223 18.7497 11.1224C18.5078 11.0218 18.3011 10.8518 18.1557 10.6339C18.0103 10.416 17.9327 10.1599 17.9327 9.89791C17.9424 9.55136 18.0874 9.22238 18.3366 8.98143C18.5859 8.74048 18.9196 8.60672 19.2663 8.60879" fill="#F09C77"/>
<path d="M21.8594 14.6989H16.7103C15.6964 14.6989 14.7241 15.1016 14.0071 15.8186C13.2902 16.5355 12.8874 17.5079 12.8874 18.5217V19.3589C12.8742 19.531 12.8966 19.7039 12.9533 19.8668C13.0101 20.0298 13.0998 20.1792 13.2171 20.3058C13.3343 20.4324 13.4764 20.5334 13.6345 20.6025C13.7926 20.6716 13.9633 20.7072 14.1358 20.7072C14.3083 20.7072 14.479 20.6716 14.6371 20.6025C14.7952 20.5334 14.9373 20.4324 15.0545 20.3058C15.1718 20.1792 15.2616 20.0298 15.3183 19.8668C15.375 19.7039 15.3974 19.531 15.3842 19.3589V18.5217C15.3842 18.17 15.5239 17.8327 15.7726 17.584C16.0213 17.3353 16.3586 17.1956 16.7103 17.1956H21.8964C22.2488 17.1956 22.5869 17.3351 22.8368 17.5836C23.0867 17.8321 23.228 18.1694 23.23 18.5217V19.3589C23.2167 19.531 23.2392 19.7039 23.2959 19.8668C23.3526 20.0298 23.4424 20.1792 23.5596 20.3058C23.6768 20.4324 23.819 20.5334 23.9771 20.6025C24.1352 20.6716 24.3058 20.7072 24.4784 20.7072C24.6509 20.7072 24.8216 20.6716 24.9797 20.6025C25.1378 20.5334 25.2799 20.4324 25.3971 20.3058C25.5143 20.1792 25.6041 20.0298 25.6608 19.8668C25.7176 19.7039 25.74 19.531 25.7267 19.3589V18.5217C25.7248 17.5072 25.3204 16.5348 24.6022 15.8181C23.8841 15.1014 22.911 14.6989 21.8964 14.6989" fill="#F09C77"/>
<path d="M38.0771 2.31886C37.9219 2.20362 37.7423 2.12563 37.5522 2.09094C37.362 2.05626 37.1665 2.06579 36.9806 2.11882C36.8917 2.11882 27.8753 4.61556 19.7553 1.28164C13.9173 -1.10397 5.93068 0.68153 2.50044 1.64466V1.34831C2.5137 1.17629 2.49127 1.00338 2.43455 0.840439C2.37782 0.677495 2.28804 0.528033 2.17082 0.401431C2.0536 0.274828 1.91148 0.173818 1.75338 0.104738C1.59528 0.0356586 1.42461 0 1.25207 0C1.07954 0 0.908866 0.0356586 0.750764 0.104738C0.592663 0.173818 0.450545 0.274828 0.333327 0.401431C0.216109 0.528033 0.126322 0.677495 0.0695994 0.840439C0.0128766 1.00338 -0.00955759 1.17629 0.00370446 1.34831V40.8442C0.0279488 41.1586 0.169989 41.4524 0.401431 41.6667C0.632872 41.881 0.936662 42 1.25207 42C1.56748 42 1.87127 41.881 2.10271 41.6667C2.33416 41.4524 2.4762 41.1586 2.50044 40.8442V26.9899C4.78973 26.1008 12.1318 23.6856 18.7996 26.4342C22.1544 27.7592 25.7356 28.416 29.3422 28.3679C32.1394 28.3804 34.9271 28.0419 37.64 27.3603C37.9042 27.2873 38.1371 27.1297 38.3031 26.9115C38.469 26.6934 38.5588 26.4268 38.5586 26.1527V3.33385C38.5618 3.13903 38.52 2.94609 38.4365 2.77006C38.353 2.59402 38.23 2.43961 38.0771 2.31886ZM36.0693 4.89709V25.1673C33.5726 25.6933 26.3417 26.8195 19.7702 24.1227C17.2795 23.1205 14.6163 22.617 11.9317 22.641C8.71735 22.6773 5.53091 23.243 2.50044 24.3153V4.24512C5.26389 3.42275 13.3394 1.36313 18.8144 3.60797C25.6527 6.41587 32.891 5.53424 36.0693 4.89709Z" fill="#F09C77"/>
</svg>
