<svg width="40" height="40" viewBox="0 0 40 40" fill="none" xmlns="http://www.w3.org/2000/svg">
<g clip-path="url(#clip0)">
<g style="mix-blend-mode:multiply">
<g style="mix-blend-mode:multiply">
<g style="mix-blend-mode:multiply">
<path d="M18.5326 31.1136C18.7243 31.3066 18.9524 31.4598 19.2036 31.5643C19.4548 31.6688 19.7242 31.7226 19.9963 31.7226C20.2683 31.7226 20.5377 31.6688 20.7889 31.5643C21.0401 31.4598 21.2682 31.3066 21.4599 31.1136L29.2663 23.3147C29.4673 23.1245 29.6282 22.8959 29.7394 22.6425C29.8507 22.389 29.9099 22.1159 29.9138 21.8391C29.9176 21.5624 29.8659 21.2877 29.7618 21.0312C29.6577 20.7748 29.5032 20.5419 29.3075 20.3461C29.1118 20.1504 28.8788 19.9959 28.6224 19.8918C28.3659 19.7877 28.0912 19.736 27.8145 19.7398C27.5377 19.7437 27.2646 19.803 27.0111 19.9142C26.7577 20.0254 26.5291 20.1863 26.3389 20.3873L22.0707 24.6555V2.07076C22.0707 1.52156 21.8526 0.994856 21.4642 0.606513C21.0759 0.218169 20.5492 0 20 0C19.4508 0 18.9241 0.218169 18.5357 0.606513C18.1474 0.994856 17.9292 1.52156 17.9292 2.07076V24.6555L13.6611 20.3873C13.2693 20.0168 12.7485 19.8136 12.2093 19.8211C11.6701 19.8286 11.1551 20.0461 10.7737 20.4274C10.3924 20.8087 10.1749 21.3237 10.1674 21.8629C10.16 22.4021 10.3631 22.923 10.7337 23.3147L18.5326 31.1136Z" fill="#F09C77"/>
</g>
<g style="mix-blend-mode:multiply">
<path d="M37.9292 17.9293C37.38 17.9293 36.8533 18.1475 36.465 18.5358C36.0766 18.9242 35.8585 19.4509 35.8585 20.0001V35.8586H4.13408V20.0001C4.15101 19.7182 4.1101 19.4358 4.01388 19.1703C3.91766 18.9048 3.76815 18.6618 3.57454 18.4563C3.38094 18.2507 3.14733 18.0869 2.88809 17.9749C2.62884 17.8629 2.34943 17.8052 2.06704 17.8052C1.78465 17.8052 1.50524 17.8629 1.24599 17.9749C0.986748 18.0869 0.753142 18.2507 0.559538 18.4563C0.365935 18.6618 0.216425 18.9048 0.120201 19.1703C0.0239771 19.4358 -0.0169277 19.7182 1.39489e-06 20.0001V36.5513C1.39489e-06 37.0042 0.089207 37.4527 0.262525 37.8711C0.435843 38.2895 0.689879 38.6697 1.01013 38.99C1.33038 39.3102 1.71057 39.5642 2.129 39.7376C2.54742 39.9109 2.99589 40.0001 3.44879 40.0001H36.5512C37.4653 39.9981 38.3414 39.6341 38.9877 38.9878C39.634 38.3414 39.998 37.4654 40 36.5513V20.0001C39.998 19.4515 39.7792 18.9259 39.3913 18.538C39.0034 18.1501 38.4778 17.9313 37.9292 17.9293Z" fill="#F09C77"/>
</g>
</g>
</g>
</g>
<defs>
<clipPath id="clip0">
<rect width="40" height="40" fill="white"/>
</clipPath>
</defs>
</svg>
