<svg xmlns="http://www.w3.org/2000/svg" width="38" height="40" fill="none" viewBox="0 0 38 40">
    <path fill="#F09C77" d="M2.62 8.137c-.593-.476-1.054-1.094-1.342-1.798-.287-.703-.39-1.468-.3-2.222.112-1.11.646-2.133 1.49-2.86.446-.426.973-.757 1.55-.972.577-.215 1.193-.31 1.808-.28.615.032 1.218.188 1.77.46.553.273 1.045.655 1.444 1.124.4.47.7 1.015.88 1.604.181.589.24 1.209.173 1.821-.067.613-.258 1.205-.563 1.74-.304.537-.714 1.005-1.206 1.376.2.151.399.296.591.46.605.49 1.096 1.108 1.435 1.808.34.701.521 1.468.53 2.247v2.708c.018.134.004.271-.039.4s-.114.246-.208.344c-.094.097-.21.173-.337.22-.127.047-.263.065-.398.053H1.005c-.113.014-.227.006-.336-.025-.11-.031-.212-.084-.3-.155-.089-.071-.162-.16-.216-.26-.053-.1-.086-.21-.096-.323-.045-1.323-.004-2.648.123-3.965.116-.666.368-1.301.742-1.864.374-.563.86-1.043 1.43-1.407l.268-.207v-.027zm6.419 6.419c0-.77.055-1.492 0-2.2-.08-.8-.43-1.548-.995-2.12-.563-.573-1.306-.935-2.105-1.027-.814-.11-1.642.063-2.345.49-.702.429-1.235 1.085-1.51 1.86-.24.98-.32 1.991-.24 2.997h7.195zm-3.595-7.21c.538.007 1.065-.146 1.515-.44.45-.293.802-.714 1.012-1.208.21-.495.268-1.04.167-1.569-.101-.527-.357-1.013-.735-1.395-.378-.382-.86-.642-1.387-.749-.527-.106-1.073-.054-1.57.151-.497.205-.921.553-1.22 1-.298.447-.456.972-.455 1.51.012.711.3 1.39.802 1.893.503.504 1.18.793 1.892.808M2.607 31.365c-.495-.408-.897-.916-1.182-1.49-.285-.575-.446-1.203-.472-1.843-.026-.641.084-1.28.321-1.875.238-.596.598-1.135 1.058-1.582.439-.43.96-.766 1.533-.988.573-.222 1.184-.325 1.798-.303.614.022 1.217.168 1.773.43.555.263 1.051.636 1.458 1.096.407.46.716.998.909 1.581.192.584.264 1.2.21 1.812-.053.612-.23 1.206-.52 1.748-.29.541-.688 1.017-1.169 1.4l.296.227c.706.5 1.28 1.162 1.674 1.932.393.77.595 1.623.587 2.487v2.543c.02.142.008.287-.037.423s-.122.26-.223.361c-.101.102-.225.178-.362.223-.136.045-.28.058-.423.037H1.074c-.143.024-.289.013-.427-.03-.138-.045-.263-.121-.366-.223-.102-.102-.18-.227-.224-.364-.045-.138-.057-.284-.034-.427 0-.619.041-1.306 0-1.945-.093-1.024.099-2.055.553-2.977.455-.923 1.155-1.702 2.024-2.253h.007zm-.832 6.391H9.04c.038-.737.038-1.475 0-2.213-.089-.834-.47-1.61-1.076-2.192-.606-.58-1.398-.929-2.236-.983-.838-.07-1.673.16-2.355.652-.682.492-1.166 1.211-1.363 2.029-.135.896-.206 1.8-.213 2.707h-.02zm3.69-12.617c-.533 0-1.055.158-1.5.454-.444.295-.79.716-.997 1.208-.206.492-.262 1.035-.16 1.559.1.524.354 1.006.729 1.387.374.38.853.64 1.376.75.522.11 1.065.061 1.56-.137.496-.199.922-.54 1.224-.98.302-.44.468-.959.476-1.492.005-.359-.062-.715-.196-1.048-.134-.333-.332-.636-.584-.892-.252-.255-.552-.458-.883-.597-.33-.14-.686-.211-1.044-.212zM25.333 2.371h11.395c.198-.005.396.011.59.048.195.046.367.157.491.313.124.157.191.35.191.55 0 .2-.067.393-.19.55-.125.156-.297.266-.491.312-.165.037-.334.053-.502.048h-22.96c-.169.005-.337-.011-.502-.048-.198-.046-.374-.158-.5-.318-.125-.16-.19-.358-.187-.562.002-.191.068-.377.185-.528.118-.152.282-.26.468-.31.191-.042.388-.06.584-.055h11.428zM25.368 35.516h11.524c.688 0 1.1.35 1.107.9.007.55-.406.914-1.086.921H13.946c-.818 0-1.264-.33-1.258-.92.007-.592.447-.901 1.244-.901h11.436zM25.333 26.486h11.443c.797 0 1.223.316 1.223.9 0 .584-.433.914-1.223.914H13.939c-.126.007-.252.007-.378 0-.237 0-.464-.094-.631-.262-.168-.167-.262-.394-.262-.631s.094-.464.262-.632c.167-.167.394-.262.631-.262h11.772v-.027zM25.375 6.907h11.4c.805 0 1.224.302 1.224.893s-.426.907-1.223.907h-22.96c-.113.007-.225.007-.337 0-.22-.031-.421-.141-.566-.309-.146-.168-.225-.383-.225-.605.003-.221.09-.434.243-.594.153-.16.36-.258.582-.272h11.862v-.02zM25.333 13.216H13.94c-.81 0-1.23-.296-1.25-.88-.021-.584.425-.921 1.257-.921H37.07c.243-.002.477.092.65.262.175.17.274.402.278.645 0 .12-.023.24-.07.351-.046.111-.115.212-.202.296-.086.083-.19.148-.302.19-.113.043-.233.062-.354.056H25.333zM25.36 32.808H13.926c-.804 0-1.23-.316-1.237-.9-.007-.584.433-.907 1.23-.907H36.79c.142-.01.285-.01.426 0 .22.031.42.142.564.31.144.168.222.383.22.604-.003.22-.089.432-.24.592-.152.16-.358.258-.578.274h-11.82"/>
</svg>
