<svg xmlns="http://www.w3.org/2000/svg" width="39" height="39" fill="none" viewBox="0 0 39 39">
    <g fill="#F09C77" clip-path="url(#clip0)">
        <path d="M9.154 10.385c.23-1.616.615-3.154 1.461-4.462C12.923 2.077 16.308 0 20.846.077c4.462 0 7.846 2.077 10.077 5.846.846 1.385 1.308 2.846 1.462 4.462 0 .307.154.461.461.538 3.77 1.308 6.23 4.77 6.154 8.77-.077 4.922-4.077 8.922-9 9h-5.23c-.847 0-1.462-.54-1.462-1.308 0-.77.615-1.308 1.461-1.308h5c2.846 0 5.308-1.77 6.231-4.385.923-2.692 0-5.615-2.308-7.307-.769-.539-1.615-.924-2.538-1.154-.846-.154-1.23-.616-1.23-1.462-.078-4.384-3.155-8-7.386-8.846-4.23-.77-8.461 1.462-10.153 5.539-.385 1-.616 2.077-.693 3.153 0 1-.538 1.462-1.538 1.462-1 .077-2 .077-2.923.308C4.308 14.154 2.385 17 2.538 20 2.692 23 5 25.538 8 26c1.077.154 2.154.077 3.23.077h2.847c.846 0 1.384.538 1.384 1.308 0 .692-.615 1.307-1.384 1.307H8.615c-4.23-.23-8-3.692-8.538-8-.692-5.461 3.308-10.077 8.77-10.307h.307z"/>
        <path d="M20.77 18.846v18.846c-.078.693-.616 1.231-1.308 1.231-.693 0-1.231-.538-1.308-1.23v-1.924-16.923L18 18.77c-.692.693-1.308 1.385-2 2.077l-.846.846c-.616.539-1.385.539-1.846.077-.539-.538-.539-1.307 0-1.846l5.154-5.154c.538-.538 1.307-.538 1.923 0l5.153 5.154c.539.539.539 1.385 0 1.846-.538.539-1.307.539-1.846-.077l-2.846-2.846h-.077z"/>
    </g>
    <defs>
        <clipPath id="clip0">
            <path fill="#fff" d="M0 0H39V39H0z"/>
        </clipPath>
    </defs>
</svg>
