<svg width="44" height="33" viewBox="0 0 44 33" fill="none" xmlns="http://www.w3.org/2000/svg">
<path d="M34.8185 12.872V3.66724C34.8185 2.69463 34.4322 1.76185 33.7445 1.07411C33.0569 0.386369 32.1243 0 31.1518 0L3.66665 0C2.69419 0 1.76157 0.386369 1.07394 1.07411C0.386306 1.76185 0 2.69463 0 3.66724L0 22.0034C0 22.976 0.386306 23.9088 1.07394 24.5966C1.76157 25.2843 2.69419 25.6707 3.66665 25.6707H24.1999C24.6175 27.1473 25.367 28.5089 26.3911 29.6515C27.4152 30.7942 28.6869 31.6876 30.109 32.2636C31.5311 32.8396 33.066 33.083 34.5965 32.9751C36.127 32.8671 37.6126 32.4108 38.9398 31.6409C39.0602 31.5905 39.1684 31.5148 39.2572 31.4192C39.3461 31.3235 39.4134 31.2099 39.4548 31.0861C39.4962 30.9622 39.5107 30.831 39.4973 30.7011C39.4838 30.5712 39.4428 30.4457 39.377 30.333C39.3111 30.2202 39.222 30.1228 39.1155 30.0474C39.0089 29.9719 38.8875 29.92 38.7593 29.8952C38.6312 29.8705 38.4992 29.8734 38.3722 29.9037C38.2452 29.9341 38.1262 29.9913 38.0231 30.0714C36.4506 30.9804 34.6222 31.3451 32.8213 31.1088C31.0205 30.8725 29.3479 30.0485 28.0631 28.7644C26.7783 27.4804 25.9531 25.8083 25.7155 24.0073C25.4778 22.2064 25.841 20.3773 26.7487 18.8039C27.6565 17.2304 29.058 16.0006 30.7358 15.3051C32.4137 14.6096 34.2742 14.4873 36.0286 14.9572C37.7831 15.4272 39.3335 16.463 40.4392 17.9041C41.545 19.3452 42.1444 21.111 42.1444 22.9276V23.8444C42.1444 24.3307 41.9513 24.7971 41.6075 25.1409C41.2637 25.4848 40.7973 25.678 40.3111 25.678C39.8249 25.678 39.3586 25.4848 39.0148 25.1409C38.6709 24.7971 38.4778 24.3307 38.4778 23.8444V20.1771C38.4781 19.9969 38.4254 19.8205 38.326 19.6701C38.2267 19.5197 38.0852 19.4019 37.9193 19.3314C37.7534 19.261 37.5704 19.241 37.3933 19.274C37.2161 19.3071 37.0525 19.3916 36.9231 19.517C36.2474 18.9117 35.407 18.5208 34.5087 18.3941C33.6104 18.2675 32.6947 18.4108 31.878 18.8057C31.0613 19.2007 30.3804 19.8295 29.9218 20.6124C29.4631 21.3952 29.2475 22.2968 29.3023 23.2025C29.3571 24.1081 29.6798 24.9771 30.2295 25.6989C30.7791 26.4208 31.5308 26.9629 32.3892 27.2565C33.2476 27.5501 34.1739 27.5819 35.0503 27.3479C35.9268 27.1138 36.714 26.6245 37.3118 25.942C37.7571 26.5899 38.3988 27.0775 39.1423 27.3329C39.8858 27.5883 40.6916 27.598 41.441 27.3605C42.1903 27.123 42.8436 26.6509 43.3043 26.0139C43.765 25.3768 44.0088 24.6085 43.9998 23.8224V22.9129C43.9955 20.396 43.0518 17.9713 41.3535 16.114C39.6551 14.2566 37.3246 13.1005 34.8185 12.872ZM3.66665 1.83362H31.1518C31.1885 1.83362 31.2252 1.83362 31.2618 1.83362L18.1646 12.608C17.9433 12.7374 17.6931 12.8092 17.4368 12.8169C17.1806 12.8246 16.9266 12.7679 16.6979 12.652L3.55665 1.85562C3.59331 1.85562 3.62998 1.85562 3.66665 1.85562V1.83362ZM32.9998 12.872C30.495 13.1022 28.1663 14.2591 26.4694 16.1163C24.7726 17.9734 23.8299 20.3971 23.8259 22.9129C23.8259 23.221 23.8259 23.5217 23.8699 23.8297H3.66665C3.18228 23.8278 2.71818 23.635 2.37499 23.2931C2.0318 22.9513 1.83718 22.4879 1.83332 22.0034V3.66724C1.83298 3.41469 1.88544 3.16486 1.98732 2.93379L15.6346 14.1335C16.1628 14.4772 16.7791 14.6606 17.4092 14.6616C18.0137 14.6619 18.6059 14.4915 19.1179 14.1702L19.2719 14.0749L32.8312 2.93379C32.9363 3.16438 32.9937 3.41388 32.9998 3.66724V12.872ZM33.9018 25.6707C33.3589 25.6678 32.8289 25.5042 32.3788 25.2005C31.9286 24.8969 31.5784 24.4667 31.3723 23.9643C31.1662 23.4619 31.1134 22.9098 31.2206 22.3774C31.3278 21.845 31.5901 21.3563 31.9745 20.9728C32.359 20.5894 32.8483 20.3283 33.3809 20.2225C33.9134 20.1168 34.4654 20.171 34.9671 20.3785C35.4689 20.586 35.898 20.9374 36.2005 21.3884C36.5029 21.8394 36.665 22.3699 36.6665 22.9129C36.6674 23.2759 36.5965 23.6356 36.4579 23.9711C36.3192 24.3066 36.1155 24.6113 35.8584 24.8677C35.6014 25.1241 35.2962 25.327 34.9604 25.4648C34.6246 25.6026 34.2648 25.6726 33.9018 25.6707Z" fill="#F09C77"/>
</svg>
