<svg xmlns="http://www.w3.org/2000/svg" width="38" height="37" fill="none" viewBox="0 0 38 37">
    <g style="mix-blend-mode:multiply" fill="#F09C77">
        <path d="M27.006 37H.772c-.205 0-.401-.081-.546-.226-.145-.145-.226-.341-.226-.546 0-.205.081-.4.226-.546.145-.144.341-.226.546-.226h26.234c.205 0 .401.082.546.226.145.145.226.341.226.546 0 .205-.081.401-.226.546-.145.145-.341.226-.546.226zM32.972 14.912c-.616-.004-1.205-.25-1.64-.686l-8.524-8.598c-.43-.433-.672-1.02-.672-1.63 0-.61.241-1.196.672-1.629L24.515.676C24.95.243 25.54 0 26.152 0c.614 0 1.202.243 1.637.676l8.56 8.561c.434.435.677 1.023.677 1.637 0 .614-.243 1.202-.676 1.637l-1.745 1.745c-.214.215-.469.385-.749.502-.28.116-.58.176-.884.176v-.022zM26.126 1.534c-.101-.002-.201.017-.295.056-.094.038-.178.095-.25.167l-1.692 1.7c-.075.07-.134.155-.174.248-.041.094-.062.195-.062.297 0 .102.02.203.062.297.04.093.1.178.174.247l8.531 8.613c.145.144.34.227.544.232.2-.03.39-.11.552-.232l1.745-1.745c.075-.07.134-.153.175-.247.04-.094.061-.195.061-.297 0-.102-.02-.203-.061-.296-.04-.094-.1-.178-.175-.248l-8.568-8.569c-.07-.072-.156-.129-.25-.167-.093-.039-.193-.058-.295-.056h-.022z"/>
        <path d="M9.05 19.386c-.17.006-.334-.045-.47-.146-.135-.1-.233-.243-.277-.405-.698-2.321-.482-4.822.605-6.988.614-1.229 1.487-2.31 2.557-3.171 1.07-.861 2.315-1.481 3.647-1.818l8.441-2.132c.098-.025.2-.03.3-.016.1.014.196.048.283.1.087.051.163.12.224.2.06.081.104.173.13.271.024.098.03.2.015.3-.014.1-.048.196-.1.283-.051.087-.12.163-.2.223-.081.061-.173.105-.271.13L15.5 8.365c-1.727.434-3.259 1.432-4.354 2.836-1.096 1.403-1.692 3.131-1.694 4.912-.001.777.112 1.551.335 2.296.036.098.05.202.044.306-.007.104-.036.205-.085.297-.048.092-.115.173-.197.237-.081.065-.175.111-.276.137-.074.008-.15.008-.224 0zM17.349 30.05c-.603 0-1.195-.159-1.718-.458-.523-.3-.959-.73-1.265-1.25-.391-.692-.541-1.495-.426-2.282.114-.787.487-1.513 1.06-2.065l5.444-5.459c-.335-.396-.76-.705-1.24-.902-.48-.197-1-.275-1.517-.228-.516.047-1.014.217-1.45.497-.437.28-.8.66-1.058 1.11-.099.178-.264.31-.46.366-.196.056-.406.032-.584-.067-.178-.1-.31-.265-.365-.46-.056-.196-.032-.406.067-.584.396-.694.96-1.277 1.639-1.695.68-.42 1.454-.66 2.251-.702.797-.042 1.593.118 2.312.464.72.345 1.341.867 1.807 1.515l.238.336c.111.144.165.323.153.505-.012.18-.09.351-.22.479l-5.928 5.966c-.325.31-.54.716-.612 1.159-.073.443 0 .897.21 1.294.159.249.371.46.621.617.25.157.532.257.825.294.293.036.591.007.872-.084.28-.092.538-.244.754-.447l6.71-6.8 5.363-8.27c.052-.088.122-.165.205-.224.083-.06.177-.102.277-.124.1-.022.204-.023.304-.002.1.02.196.06.28.118.087.053.163.124.222.207.059.083.1.178.121.278.021.1.022.203 0 .303-.02.1-.06.195-.12.279l-5.436 8.3c-.028.045-.06.087-.096.126l-6.757 6.853c-.323.33-.71.592-1.136.77-.427.179-.885.27-1.347.267z"/>
        <path d="M23.949 37H3.88c-.197 0-.387-.078-.527-.218s-.218-.33-.218-.528V19.267c0-.198.078-.387.218-.527s.33-.219.527-.219h16.913c.204 0 .4.081.543.225.144.144.225.34.225.543 0 .204-.08.4-.225.543-.144.145-.339.225-.543.225H4.65v15.4h18.53V23.74c0-.204.082-.4.227-.546.144-.144.34-.226.545-.226.205 0 .401.082.546.226.145.145.226.341.226.546v12.491c0 .198-.078.387-.218.527s-.33.219-.527.219"/>
    </g>
</svg>
