<svg xmlns="http://www.w3.org/2000/svg" width="38" height="38" fill="none" viewBox="0 0 38 38">
    <g clip-path="url(#clip0)">
        <path fill="#F09C77" d="M36.638 0H9.504c-.179-.001-.356.033-.52.101-.166.068-.316.167-.443.293-.126.126-.227.276-.295.44-.069.165-.104.342-.104.52v6.788H1.355c-.36 0-.704.143-.958.397S0 9.137 0 9.496v27.142c-.001.179.033.355.101.52.068.166.167.316.293.443.126.126.276.227.44.295.165.069.342.104.52.104h27.142c.362 0 .708-.144.963-.399.256-.255.4-.602.4-.963v-6.78h6.78c.36 0 .707-.143.962-.399.255-.255.399-.601.399-.963V1.355c0-.179-.035-.356-.104-.52-.068-.165-.169-.315-.295-.44-.127-.127-.277-.226-.442-.294-.166-.068-.342-.102-.52-.101zm-9.496 35.284H2.716V10.858h24.426v24.426zm8.142-8.142h-5.426V9.496c0-.178-.035-.355-.104-.52-.068-.165-.169-.314-.295-.44-.127-.126-.277-.226-.442-.293-.165-.068-.342-.102-.52-.101H10.857V2.716h24.426v24.426z"/>
    </g>
    <defs>
        <clipPath id="clip0">
            <path fill="#fff" d="M0 0H38V38H0z"/>
        </clipPath>
    </defs>
</svg>
