<svg width="130" height="44" xmlns="http://www.w3.org/2000/svg">
 <defs>
  <style>.prefix__cls-1{fill:none}.prefix__cls-2{fill:#fff}</style>
 </defs>
 <g>
  <g id="prefix__Group_336">
   <g id="prefix__Group_335">
    <path class="prefix__cls-1" d="m63.813,37.163001a3.512,3.512 0 0 0 3.418,-2.739l-6.831,0a3.511,3.511 0 0 0 3.413,2.739z" id="prefix__Path_180"/>
    <path class="prefix__cls-1" d="m63.813,30.146001a3.51,3.51 0 0 0 -3.416,2.739l6.834,0a3.511,3.511 0 0 0 -3.418,-2.739z" id="prefix__Path_181"/>
    <path class="prefix__cls-1" d="m63.813,9.557001a3.512,3.512 0 0 0 3.418,-2.739l-6.831,0a3.511,3.511 0 0 0 3.413,2.739z" id="prefix__Path_182"/>
    <path class="prefix__cls-1" d="m63.813,2.540001a3.51,3.51 0 0 0 -3.413,2.738l6.834,0a3.511,3.511 0 0 0 -3.421,-2.738z" id="prefix__Path_183"/>
    <path class="prefix__cls-1" d="m82.443,19.972001a0.77,0.77 0 0 1 -0.77,0.77l-5.322,0a3.509,3.509 0 1 0 0,-1.539l5.322,0a0.769,0.769 0 0 1 0.77,0.769z" id="prefix__Path_184"/>
    <path class="prefix__cls-2" d="m45.954,6.818001l12.876,0a4.593,4.593 0 0 1 0,-1.54l-12.876,0a0.77,0.77 0 1 0 0,1.54z" id="prefix__Path_185"/>
    <path class="prefix__cls-2" d="m68.8,6.818001l12.876,0a0.77,0.77 0 0 0 0,-1.54l-12.876,0a4.593,4.593 0 0 1 0,1.54z" id="prefix__Path_186"/>
    <path class="prefix__cls-2" d="m74.785,19.203001l-28.831,0a0.77,0.77 0 1 0 0,1.539l28.831,0a4.587,4.587 0 0 1 0,-1.539z" id="prefix__Path_187"/>
    <path class="prefix__cls-2" d="m58.83,32.885001l-12.876,0a0.77,0.77 0 1 0 0,1.539l12.876,0a4.587,4.587 0 0 1 0,-1.539z" id="prefix__Path_188"/>
    <path class="prefix__cls-2" d="m81.673,32.885001l-12.873,0a4.587,4.587 0 0 1 0,1.539l12.876,0a0.77,0.77 0 1 0 0,-1.539l-0.003,0z" id="prefix__Path_189"/>
    <path class="prefix__cls-2" d="m63.813,9.557001a3.511,3.511 0 0 1 -3.416,-2.739l-1.567,0a5.042,5.042 0 0 0 9.967,0l-1.566,0a3.512,3.512 0 0 1 -3.418,2.739z" id="prefix__Path_190"/>
    <path class="prefix__cls-2" d="m63.813,2.540001a3.511,3.511 0 0 1 3.418,2.738l1.569,0a5.042,5.042 0 0 0 -9.967,0l1.567,0a3.51,3.51 0 0 1 3.413,-2.738z" id="prefix__Path_191"/>
    <path class="prefix__cls-2" d="m58.83,6.818001l1.57,0a3.3,3.3 0 0 1 0,-1.54l-1.57,0a4.593,4.593 0 0 0 0,1.54z" id="prefix__Path_192"/>
    <path class="prefix__cls-2" d="m67.322,6.048001a3.5,3.5 0 0 1 -0.091,0.77l1.569,0a4.593,4.593 0 0 0 0,-1.54l-1.566,0a3.5,3.5 0 0 1 0.088,0.77z" id="prefix__Path_193"/>
    <path class="prefix__cls-2" d="m63.813,37.163001a3.511,3.511 0 0 1 -3.416,-2.739l-1.567,0a5.042,5.042 0 0 0 9.967,0l-1.566,0a3.512,3.512 0 0 1 -3.418,2.739z" id="prefix__Path_194"/>
    <path class="prefix__cls-2" d="m63.813,30.146001a3.511,3.511 0 0 1 3.418,2.739l1.569,0a5.041,5.041 0 0 0 -9.967,0l1.567,0a3.51,3.51 0 0 1 3.413,-2.739z" id="prefix__Path_195"/>
    <path class="prefix__cls-2" d="m68.8,32.885001l-1.566,0a3.3,3.3 0 0 1 0,1.539l1.566,0a4.587,4.587 0 0 0 0,-1.539z" id="prefix__Path_196"/>
    <path class="prefix__cls-2" d="m60.306,33.654001a3.48,3.48 0 0 1 0.091,-0.769l-1.567,0a4.587,4.587 0 0 0 0,1.539l1.57,0a3.482,3.482 0 0 1 -0.094,-0.77z" id="prefix__Path_197"/>
    <path class="prefix__cls-2" d="m79.769,14.924001a5.052,5.052 0 0 0 -4.984,4.279l1.566,0a3.509,3.509 0 1 1 0,1.539l-1.566,0a5.046,5.046 0 1 0 4.984,-5.818z" id="prefix__Path_198"/>
    <path class="prefix__cls-2" d="m76.26,19.972001a3.48,3.48 0 0 1 0.091,-0.769l-1.566,0a4.587,4.587 0 0 0 0,1.539l1.566,0a3.482,3.482 0 0 1 -0.091,-0.77z" id="prefix__Path_199"/>
   </g>
  </g>
 </g>
</svg>