<svg xmlns="http://www.w3.org/2000/svg" viewBox="0 0 69.66 86.73"><defs><style>.cls-1{fill:#4d4d4d;}</style></defs><title>a medida</title><g id="Capa_2" data-name="Capa 2"><g id="Layer_1" data-name="Layer 1"><path class="cls-1" d="M28.05,86.68H0V0H28.05ZM2.16,84.53H25.89V2.2H2.16Z"/><rect class="cls-1" x="13.75" y="17.37" width="13.22" height="2.51"/><rect class="cls-1" x="13.75" y="28.24" width="13.22" height="2.51"/><rect class="cls-1" x="13.75" y="39.1" width="13.22" height="2.51"/><rect class="cls-1" x="13.75" y="49.97" width="13.22" height="2.51"/><rect class="cls-1" x="13.75" y="60.84" width="13.22" height="2.51"/><rect class="cls-1" x="13.75" y="71.71" width="13.22" height="2.51"/><path class="cls-1" d="M49.47,86.73h0a7.92,7.92,0,0,1-7.91-7.91l0-61.52a1.12,1.12,0,0,1,.25-.7L54.7.42A1.12,1.12,0,0,1,55.57,0h0a1.12,1.12,0,0,1,.88.42L69.39,16.58a1.12,1.12,0,0,1,.25.7l0,61.52a7.91,7.91,0,0,1-7.91,7.92Zm-5.7-69,0,61.13a5.68,5.68,0,0,0,5.67,5.67v0H61.75a5.67,5.67,0,0,0,5.67-5.67l0-61.12L55.58,2.92Z"/><rect class="cls-1" x="42.67" y="74.13" width="25.87" height="2.24"/><rect class="cls-1" x="42.65" y="17.46" width="25.87" height="2.24"/><rect class="cls-1" x="59.16" y="19.23" width="2.24" height="56.02"/><rect class="cls-1" x="49.78" y="19.23" width="2.24" height="56.02"/><polygon class="cls-1" points="55.58 1.12 49.11 9.21 62.05 9.2 55.58 1.12"/></g></g></svg>