<svg xmlns="http://www.w3.org/2000/svg" viewBox="0 0 77.12 32.94"><defs><style>.cls-1{fill:#6ed59f;}</style></defs><g id="Layer_2" data-name="Layer 2"><g id="Layer_1-2" data-name="Layer 1"><path class="cls-1" d="M16.38,32.94A16.38,16.38,0,1,1,32.75,16.56,16.4,16.4,0,0,1,16.38,32.94Zm0-29.76A13.38,13.38,0,1,0,29.75,16.56,13.39,13.39,0,0,0,16.38,3.18Z"/><path class="cls-1" d="M59.05,32.94A16.38,16.38,0,1,1,75.43,16.56,16.4,16.4,0,0,1,59.05,32.94Zm0-29.76A13.38,13.38,0,1,0,72.43,16.56,13.39,13.39,0,0,0,59.05,3.18Z"/><polygon points="57.63 24.75 50.31 13.76 54.48 10.99 58.25 16.65 73.42 0 77.12 3.37 57.63 24.75"/><rect x="7.1" y="14.06" width="18.56" height="5" transform="translate(-6.91 16.43) rotate(-45)"/><rect x="13.88" y="7.28" width="5" height="18.56" transform="translate(-6.91 16.43) rotate(-45)"/></g></g></svg>