<svg xmlns="http://www.w3.org/2000/svg" viewBox="0 0 125.74 66.57"><defs><style>.cls-1{fill:#fff;}.cls-2{fill:#29abe2;}</style></defs><title>co construccion</title><g id="Capa_2" data-name="Capa 2"><g id="Layer_1" data-name="Layer 1"><polyline class="cls-1" points="90.09 13.51 90.09 1 37.16 1 37.16 25.79"/><path class="cls-2" d="M38.16,25.79h-2V1a1,1,0,0,1,1-1H90.09a1,1,0,0,1,1,1V13.51h-2V2H38.16Z"/><polyline class="cls-1" points="37.16 50.72 37.16 65.58 76.4 65.58 76.4 51.88 90.09 51.88 90.09 38.83"/><path class="cls-2" d="M76.4,66.57H37.16a1,1,0,0,1-1-1V50.72h2V64.58H75.4V51.88a1,1,0,0,1,1-1H89.1V38.83h2V51.88a1,1,0,0,1-1,1H77.4V65.57A1,1,0,0,1,76.4,66.57Z"/><polygon class="cls-1" points="76.4 65.58 90.09 51.88 76.4 51.88 76.4 65.58"/><path class="cls-2" d="M76.4,66.57a1,1,0,0,1-1-1V51.88a1,1,0,0,1,1-1H90.09a1,1,0,0,1,.71,1.7L77.11,66.28A1,1,0,0,1,76.4,66.57Zm1-13.69V63.16L87.68,52.88Z"/><rect class="cls-2" x="47.9" y="17.12" width="31.45" height="2"/><rect class="cls-2" x="47.9" y="29.38" width="31.45" height="2"/><rect class="cls-2" x="47.9" y="41.42" width="31.45" height="2"/><path class="cls-1" d="M95.78,33.61l27-12.53a4,4,0,0,0,2-5.35l-3.07-6.61a4,4,0,0,0-5.35-2l-27,12.53-5.46,11Z"/><path class="cls-2" d="M95.78,34.28l-.16,0L83.7,31.35a.67.67,0,0,1-.44-.94l5.46-11A.67.67,0,0,1,89,19.1L116,6.56a4.65,4.65,0,0,1,2-.44,4.71,4.71,0,0,1,4.26,2.72l3.07,6.61A4.69,4.69,0,0,1,123,21.68l-27,12.53A.67.67,0,0,1,95.78,34.28Zm-11-4,10.89,2.66,26.74-12.43A3.36,3.36,0,0,0,124.09,16L121,9.4A3.38,3.38,0,0,0,118,7.46a3.33,3.33,0,0,0-1.41.31L89.81,20.21Z"/><rect class="cls-2" x="116.93" y="7.34" width="1.33" height="15.34" transform="translate(4.63 50.98) rotate(-24.94)"/><rect class="cls-2" x="92.58" y="18.66" width="1.33" height="15.34" transform="translate(-2.41 41.77) rotate(-24.94)"/><rect class="cls-2" x="91.19" y="17.41" width="26.47" height="1.33" transform="translate(2.12 45.73) rotate(-24.95)"/><rect class="cls-2" x="93.53" y="22.45" width="26.47" height="1.33" transform="translate(0.21 47.19) rotate(-24.95)"/><polygon class="cls-2" points="83.85 30.7 89.82 32.16 86.58 25.2 83.85 30.7"/><path class="cls-1" d="M36.5,32.3,8.58,22.1a4,4,0,0,0-5.16,2.4L.91,31.35a4,4,0,0,0,2.4,5.16l27.92,10.2L42.87,42.8Z"/><path class="cls-2" d="M31.23,47.38a.66.66,0,0,1-.23,0L3.08,37.14a4.7,4.7,0,0,1-2.8-6l2.5-6.85a4.69,4.69,0,0,1,6-2.8l27.92,10.2a.67.67,0,0,1,.34.28l6.38,10.5a.67.67,0,0,1-.36,1L31.45,47.34A.67.67,0,0,1,31.23,47.38Zm-24-24.85A3.37,3.37,0,0,0,4,24.73l-2.5,6.85a3.36,3.36,0,0,0,2,4.31L31.24,46l10.63-3.58L36,32.85,8.35,22.73A3.36,3.36,0,0,0,7.19,22.52Z"/><rect class="cls-2" x="0.25" y="29.37" width="15.34" height="1.33" transform="translate(-23 27.16) rotate(-69.92)"/><rect class="cls-2" x="25.47" y="38.58" width="15.34" height="1.33" transform="translate(-15.1 56.9) rotate(-69.92)"/><rect class="cls-2" x="18.74" y="23.95" width="1.33" height="26.47" transform="translate(-22.18 42.65) rotate(-69.94)"/><rect class="cls-2" x="20.64" y="18.73" width="1.33" height="26.47" transform="translate(-16.02 41.01) rotate(-69.94)"/><polygon class="cls-2" points="42.87 42.8 39.68 37.55 37.05 44.76 42.87 42.8"/></g></g></svg>