<svg xmlns="http://www.w3.org/2000/svg" viewBox="0 0 81.32 76.09"><defs><style>.cls-1{fill:#fbb03b;}.cls-2{fill:#fff;}</style></defs><title>consulta</title><g id="Capa_2" data-name="Capa 2"><g id="Layer_1" data-name="Layer 1"><path class="cls-1" d="M80.33,69.91a1,1,0,0,1-.79-.39c-2.55-3.35-6-6.93-7.13-6.93h-37a8.93,8.93,0,0,1-8.92-8.92V41.86h2v11.8a6.94,6.94,0,0,0,6.93,6.93h37c1.91,0,4.9,3.09,6.93,5.48V32.93A6.93,6.93,0,0,0,72.4,26H58.78V24H72.4a8.93,8.93,0,0,1,8.92,8.92v36a1,1,0,0,1-.68.95A1,1,0,0,1,80.33,69.91Z"/><path class="cls-2" d="M53.88,29.65A7.93,7.93,0,0,1,46,37.58h-37C6.76,37.58,1,43.3,1,43.3V8.92A7.93,7.93,0,0,1,8.92,1H46a7.93,7.93,0,0,1,7.93,7.93Z"/><path class="cls-1" d="M1,44.3a1,1,0,0,1-1-1V8.92A8.93,8.93,0,0,1,8.92,0H46a8.93,8.93,0,0,1,8.92,8.92V29.65A8.93,8.93,0,0,1,46,38.58h-37C7.84,38.58,4.33,41.4,1.7,44A1,1,0,0,1,1,44.3ZM8.92,2A6.93,6.93,0,0,0,2,8.92V41c2.07-1.88,5.16-4.39,6.93-4.39H46a6.93,6.93,0,0,0,6.93-6.93V8.92A6.93,6.93,0,0,0,46,2Z"/><path class="cls-1" d="M27.87,19.92c1.1-.79,2.37-1.68,2.37-3.4S29,13.88,27.32,13.88a3,3,0,0,0-3.19,3.28H22a5,5,0,0,1,5.37-5.25c2.85,0,5.1,1.77,5.1,4.58a5.13,5.13,0,0,1-2.61,4.29c-1.56,1.15-1.94,1.63-1.94,3.69H25.76C25.79,22.2,26.31,21,27.87,19.92Zm-1.05,5.89a1.74,1.74,0,0,1,1.77,1.72,1.78,1.78,0,0,1-1.77,1.77,1.74,1.74,0,0,1-1.72-1.77A1.7,1.7,0,0,1,26.82,25.81Z"/><path class="cls-1" d="M47.08,47v2.16H44.85V47Z"/><path class="cls-1" d="M53.79,47v2.16H51.56V47Z"/><path class="cls-1" d="M60.5,47v2.16H58.27V47Z"/><polygon class="cls-2" points="45.73 54.86 59.64 66.72 53.33 66.8 56.72 73.81 53.7 75.29 50.16 68.35 45.98 73.16 45.73 54.86"/><path class="cls-1" d="M53.7,76.09a.8.8,0,0,1-.71-.44l-3-5.88-3.41,3.91a.8.8,0,0,1-1.4-.51l-.25-18.3a.8.8,0,0,1,1.32-.62L60.16,66.11a.8.8,0,0,1-.51,1.41l-5.06.07,2.85,5.88a.8.8,0,0,1-.37,1.07L54,76A.8.8,0,0,1,53.7,76.09Zm-3.53-8.53h.1a.8.8,0,0,1,.61.43l3.18,6.23,1.6-.78-3-6.29A.8.8,0,0,1,53.32,66l4.19-.06-11-9.33.2,14.44,2.81-3.23A.8.8,0,0,1,50.16,67.55Z"/></g></g></svg>