<svg xmlns="http://www.w3.org/2000/svg" viewBox="0 0 81.32 76.09"><defs><style>.cls-1{fill:#6ed59f;}.cls-2{fill:#fff;}</style></defs><g id="Layer_2" data-name="Layer 2"><g id="Layer_1-2" data-name="Layer 1"><path class="cls-1" d="M80.33,69.91a1,1,0,0,1-.8-.4c-2.55-3.34-6-6.92-7.13-6.92h-37a9,9,0,0,1-8.93-8.93V41.86h2v11.8a6.94,6.94,0,0,0,6.93,6.93h37c1.91,0,4.9,3.09,6.93,5.48V32.93A6.93,6.93,0,0,0,72.4,26H58.78V24H72.4a8.93,8.93,0,0,1,8.92,8.92v36a1,1,0,0,1-.68,1A1.12,1.12,0,0,1,80.33,69.91Z"/><path class="cls-1" d="M53.88,29.65A7.93,7.93,0,0,1,46,37.58h-37C6.76,37.58,1,43.3,1,43.3V8.92A7.93,7.93,0,0,1,8.92,1H46a7.93,7.93,0,0,1,7.92,7.92Z"/><path class="cls-1" d="M1,44.3a1.09,1.09,0,0,1-.39-.08A1,1,0,0,1,0,43.3V8.92A8.93,8.93,0,0,1,8.92,0H46a8.93,8.93,0,0,1,8.92,8.92V29.65A8.94,8.94,0,0,1,46,38.58h-37C7.84,38.58,4.33,41.4,1.7,44A1,1,0,0,1,1,44.3ZM8.92,2A6.92,6.92,0,0,0,2,8.92V41c2.06-1.88,5.15-4.39,6.92-4.39H46a6.93,6.93,0,0,0,6.92-6.93V8.92A6.92,6.92,0,0,0,46,2Z"/><path class="cls-2" d="M27.87,19.92c1.1-.79,2.37-1.68,2.37-3.4S29,13.88,27.32,13.88a3,3,0,0,0-3.18,3.29H22a5,5,0,0,1,5.37-5.25c2.85,0,5.1,1.77,5.1,4.57a5.12,5.12,0,0,1-2.61,4.29c-1.55,1.15-1.94,1.63-1.94,3.69H25.76C25.79,22.2,26.31,21,27.87,19.92Zm-1.05,5.89a1.75,1.75,0,0,1,1.77,1.73,1.78,1.78,0,0,1-1.77,1.77,1.75,1.75,0,0,1-1.73-1.77A1.71,1.71,0,0,1,26.82,25.81Z"/><path class="cls-1" d="M47.08,47v2.16H44.85V47Z"/><path class="cls-1" d="M53.79,47v2.16H51.56V47Z"/><path class="cls-1" d="M60.5,47v2.16H58.27V47Z"/><polygon class="cls-1" points="45.73 54.86 59.64 66.72 53.33 66.8 56.72 73.81 53.7 75.29 50.16 68.35 45.98 73.16 45.73 54.86"/><path class="cls-1" d="M53.7,76.09a.81.81,0,0,1-.72-.44l-3-5.88-3.41,3.91a.81.81,0,0,1-.88.23.8.8,0,0,1-.52-.74l-.25-18.3a.8.8,0,0,1,.46-.74.82.82,0,0,1,.86.12L60.16,66.11a.79.79,0,0,1,.24.88.83.83,0,0,1-.75.53l-5,.07,2.84,5.87a.79.79,0,0,1-.37,1.07l-3,1.48A.93.93,0,0,1,53.7,76.09Zm-3.54-8.54h.1a.78.78,0,0,1,.62.43l3.17,6.23,1.61-.78-3-6.29a.79.79,0,0,1,0-.77.81.81,0,0,1,.67-.38l4.18,0-11-9.34.2,14.44,2.81-3.22A.78.78,0,0,1,50.16,67.55Z"/></g></g></svg>