<svg xmlns="http://www.w3.org/2000/svg" viewBox="0 0 88.55 98.25"><defs><style>.cls-1{fill:#f15a24;}</style></defs><title>presupuesto participativo</title><g id="Capa_2" data-name="Capa 2"><g id="Layer_1" data-name="Layer 1"><path class="cls-1" d="M68,16.94a4.5,4.5,0,0,1,1.71,1.36,3.93,3.93,0,0,1,.73,2.5,4.22,4.22,0,0,1-.56,2.13,4.15,4.15,0,0,1-1.73,1.6,6,6,0,0,1-2.86.62h-.07V27h-.71V25.1A6,6,0,0,1,61,23.67a4.45,4.45,0,0,1-1.53-3h2.22a3.11,3.11,0,0,0,.83,1.79,3.31,3.31,0,0,0,2,1V17.63a25.35,25.35,0,0,1-2.73-.95,4.35,4.35,0,0,1-1.69-1.34,3.84,3.84,0,0,1-.72-2.44,3.9,3.9,0,0,1,.64-2.22A4.16,4.16,0,0,1,61.87,9.2a6.5,6.5,0,0,1,2.7-.53v-2h.71v2A5.48,5.48,0,0,1,68.65,10a4.49,4.49,0,0,1,1.49,2.77H67.9a3,3,0,0,0-.82-1.55,3.11,3.11,0,0,0-1.81-.87V16A26.49,26.49,0,0,1,68,16.94ZM62.4,14.61a6.52,6.52,0,0,0,2.16,1.12V10.29a3.22,3.22,0,0,0-2.11.65,2.28,2.28,0,0,0-.79,1.86A2.25,2.25,0,0,0,62.4,14.61Zm5.08,8.16a2.56,2.56,0,0,0,.78-1.92A2.33,2.33,0,0,0,67.49,19a6.39,6.39,0,0,0-2.22-1.12v5.67h0A3,3,0,0,0,67.49,22.77Z"/><path class="cls-1" d="M65,33.68A16.84,16.84,0,1,1,81.79,16.84,16.86,16.86,0,0,1,65,33.68ZM65,2A14.84,14.84,0,1,0,79.79,16.84,14.86,14.86,0,0,0,65,2Z"/><path class="cls-1" d="M68,81.52a4.5,4.5,0,0,1,1.71,1.36,3.93,3.93,0,0,1,.73,2.5,4.22,4.22,0,0,1-.56,2.13,4.15,4.15,0,0,1-1.73,1.6,6,6,0,0,1-2.86.62h-.07v1.83h-.71V89.67A6,6,0,0,1,61,88.25a4.45,4.45,0,0,1-1.53-3h2.22A3.11,3.11,0,0,0,62.54,87a3.31,3.31,0,0,0,2,1V82.2a25.35,25.35,0,0,1-2.73-.95,4.35,4.35,0,0,1-1.69-1.34,3.84,3.84,0,0,1-.72-2.44,3.9,3.9,0,0,1,.64-2.22,4.16,4.16,0,0,1,1.81-1.49,6.5,6.5,0,0,1,2.7-.53v-2h.71v2a5.48,5.48,0,0,1,3.38,1.3,4.49,4.49,0,0,1,1.49,2.77H67.9a3,3,0,0,0-.82-1.55,3.11,3.11,0,0,0-1.81-.87v5.62A26.49,26.49,0,0,1,68,81.52ZM62.4,79.18a6.52,6.52,0,0,0,2.16,1.12V74.86a3.22,3.22,0,0,0-2.11.65,2.28,2.28,0,0,0-.79,1.86A2.25,2.25,0,0,0,62.4,79.18Zm5.08,8.16a2.56,2.56,0,0,0,.78-1.92,2.33,2.33,0,0,0-.78-1.87,6.39,6.39,0,0,0-2.22-1.12V88.1h0A3,3,0,0,0,67.49,87.34Z"/><path class="cls-1" d="M65,98.25A16.84,16.84,0,1,1,81.79,81.41,16.86,16.86,0,0,1,65,98.25Zm0-31.68A14.84,14.84,0,1,0,79.79,81.41,14.86,14.86,0,0,0,65,66.57Z"/><path class="cls-1" d="M19.92,49.23a4.5,4.5,0,0,1,1.71,1.36,3.93,3.93,0,0,1,.73,2.5,4.22,4.22,0,0,1-.56,2.13,4.15,4.15,0,0,1-1.73,1.6,6,6,0,0,1-2.86.62h-.07v1.83h-.71V57.39A6,6,0,0,1,12.91,56a4.45,4.45,0,0,1-1.53-3h2.22a3.11,3.11,0,0,0,.83,1.79,3.31,3.31,0,0,0,2,1V49.91A25.35,25.35,0,0,1,13.72,49,4.35,4.35,0,0,1,12,47.63a3.84,3.84,0,0,1-.72-2.44A3.9,3.9,0,0,1,11.95,43a4.16,4.16,0,0,1,1.81-1.49,6.5,6.5,0,0,1,2.7-.53V39h.71v2a5.48,5.48,0,0,1,3.38,1.3A4.49,4.49,0,0,1,22,45H19.79A3,3,0,0,0,19,43.49a3.11,3.11,0,0,0-1.81-.87v5.62A26.49,26.49,0,0,1,19.92,49.23ZM14.29,46.9A6.52,6.52,0,0,0,16.45,48V42.58a3.22,3.22,0,0,0-2.11.65,2.28,2.28,0,0,0-.79,1.86A2.25,2.25,0,0,0,14.29,46.9Zm5.08,8.16a2.56,2.56,0,0,0,.78-1.92,2.33,2.33,0,0,0-.78-1.87,6.39,6.39,0,0,0-2.22-1.12v5.67h0A3,3,0,0,0,19.38,55.06Z"/><path class="cls-1" d="M16.84,66A16.84,16.84,0,1,1,33.68,49.13,16.86,16.86,0,0,1,16.84,66Zm0-31.68A14.84,14.84,0,1,0,31.68,49.13,14.86,14.86,0,0,0,16.84,34.28Z"/><rect class="cls-1" x="27.08" y="31.03" width="26.35" height="2" transform="translate(-11.01 27.82) rotate(-33.81)"/><rect class="cls-1" x="39.25" y="53.05" width="2" height="26.35" transform="translate(-37.17 62.79) rotate(-56.17)"/><polygon class="cls-1" points="73.83 25.59 87.75 37.45 81.44 37.53 84.83 44.54 81.8 46.02 78.27 39.08 74.08 43.89 73.83 25.59"/><path class="cls-1" d="M81.8,46.82a.8.8,0,0,1-.71-.44l-3-5.88-3.41,3.91a.8.8,0,0,1-1.4-.51L73,25.6A.8.8,0,0,1,74.35,25L88.27,36.84a.8.8,0,0,1-.51,1.41l-5.06.07,2.85,5.88a.8.8,0,0,1-.37,1.07l-3,1.47A.8.8,0,0,1,81.8,46.82Zm-3.53-8.53h.1a.8.8,0,0,1,.61.43L82.16,45l1.6-.78-3-6.29a.8.8,0,0,1,.71-1.15l4.19-.06-11-9.33.2,14.44,2.81-3.23A.8.8,0,0,1,78.27,38.28Z"/></g></g></svg>