<svg xmlns="http://www.w3.org/2000/svg" viewBox="0 0 88.55 98.25"><defs><style>.cls-1{fill:#fd7b92;}</style></defs><g id="Layer_2" data-name="Layer 2"><g id="Layer_1-2" data-name="Layer 1"><path class="cls-1" d="M68,16.94a4.61,4.61,0,0,1,1.71,1.36,3.91,3.91,0,0,1,.73,2.5,4.24,4.24,0,0,1-.56,2.13,4.12,4.12,0,0,1-1.72,1.6,6.08,6.08,0,0,1-2.86.62h-.07V27h-.71V25.1A6,6,0,0,1,61,23.67a4.46,4.46,0,0,1-1.53-3h2.22a3.1,3.1,0,0,0,.83,1.79,3.29,3.29,0,0,0,2,1V17.63a26.13,26.13,0,0,1-2.73-.95,4.32,4.32,0,0,1-1.69-1.34,3.83,3.83,0,0,1-.72-2.44,3.88,3.88,0,0,1,.64-2.22A4.17,4.17,0,0,1,61.87,9.2a6.46,6.46,0,0,1,2.69-.53v-2h.71v2A5.44,5.44,0,0,1,68.65,10a4.46,4.46,0,0,1,1.49,2.76H67.9a3,3,0,0,0-.82-1.55,3.13,3.13,0,0,0-1.81-.87V16A27.9,27.9,0,0,1,68,16.94ZM62.4,14.61a6.56,6.56,0,0,0,2.16,1.12V10.29a3.22,3.22,0,0,0-2.11.65,2.29,2.29,0,0,0-.79,1.87A2.26,2.26,0,0,0,62.4,14.61Zm5.09,8.16a2.54,2.54,0,0,0,.77-1.92A2.3,2.3,0,0,0,67.49,19a6.21,6.21,0,0,0-2.22-1.12v5.66h0A3,3,0,0,0,67.49,22.77Z"/><path class="cls-1" d="M65,33.68A16.84,16.84,0,1,1,81.79,16.84,16.86,16.86,0,0,1,65,33.68ZM65,2A14.84,14.84,0,1,0,79.79,16.84,14.86,14.86,0,0,0,65,2Z"/><path class="cls-1" d="M68,81.52a4.48,4.48,0,0,1,1.71,1.35,3.94,3.94,0,0,1,.73,2.51,4.23,4.23,0,0,1-.56,2.12,4.12,4.12,0,0,1-1.72,1.6,6.08,6.08,0,0,1-2.86.62h-.07v1.83h-.71V89.67A6,6,0,0,1,61,88.25a4.5,4.5,0,0,1-1.53-3h2.22A3,3,0,0,0,62.54,87a3.29,3.29,0,0,0,2,1V82.2a26.13,26.13,0,0,1-2.73-1,4.3,4.3,0,0,1-1.69-1.33,4.35,4.35,0,0,1-.08-4.67,4.17,4.17,0,0,1,1.81-1.48,6.46,6.46,0,0,1,2.69-.53v-2h.71v2a5.44,5.44,0,0,1,3.38,1.3,4.46,4.46,0,0,1,1.49,2.76H67.9a3,3,0,0,0-.82-1.55,3.13,3.13,0,0,0-1.81-.87v5.62A27.51,27.51,0,0,1,68,81.52ZM62.4,79.18a6.56,6.56,0,0,0,2.16,1.12V74.86a3.17,3.17,0,0,0-2.11.66,2.57,2.57,0,0,0-.05,3.66Zm5.09,8.16a2.54,2.54,0,0,0,.77-1.92,2.32,2.32,0,0,0-.77-1.87,6.38,6.38,0,0,0-2.22-1.12V88.1h0A3,3,0,0,0,67.49,87.34Z"/><path class="cls-1" d="M65,98.25A16.84,16.84,0,1,1,81.79,81.41,16.86,16.86,0,0,1,65,98.25Zm0-31.68A14.85,14.85,0,1,0,79.79,81.41,14.86,14.86,0,0,0,65,66.57Z"/><path class="cls-1" d="M19.92,49.23a4.47,4.47,0,0,1,1.72,1.36,3.91,3.91,0,0,1,.73,2.5,4.29,4.29,0,0,1-.56,2.13,4.21,4.21,0,0,1-1.73,1.6,6,6,0,0,1-2.85.61h-.07v1.83h-.71V57.39A6,6,0,0,1,12.91,56a4.4,4.4,0,0,1-1.53-3h2.21a3.18,3.18,0,0,0,.84,1.8,3.28,3.28,0,0,0,2,1V49.91A26.49,26.49,0,0,1,13.72,49,4.42,4.42,0,0,1,12,47.63,4.33,4.33,0,0,1,12,43a4.21,4.21,0,0,1,1.8-1.49,6.54,6.54,0,0,1,2.7-.52V39h.71v2a5.5,5.5,0,0,1,3.38,1.3A4.49,4.49,0,0,1,22,45.05H19.79A3,3,0,0,0,19,43.49a3.25,3.25,0,0,0-1.81-.87v5.63A24.48,24.48,0,0,1,19.92,49.23ZM14.29,46.9A6.75,6.75,0,0,0,16.45,48V42.58a3.22,3.22,0,0,0-2.11.65,2.58,2.58,0,0,0-.05,3.67Zm5.09,8.16a2.61,2.61,0,0,0,.77-1.92,2.37,2.37,0,0,0-.77-1.88,6.55,6.55,0,0,0-2.22-1.12v5.67h0A3,3,0,0,0,19.38,55.06Z"/><path class="cls-1" d="M16.84,66A16.84,16.84,0,1,1,33.68,49.13,16.86,16.86,0,0,1,16.84,66Zm0-31.69A14.85,14.85,0,1,0,31.68,49.13,14.86,14.86,0,0,0,16.84,34.28Z"/><rect class="cls-1" x="27.08" y="31.03" width="26.35" height="2" transform="translate(-11.01 27.82) rotate(-33.81)"/><rect class="cls-1" x="39.25" y="53.05" width="2" height="26.35" transform="translate(-37.17 62.79) rotate(-56.17)"/><polygon class="cls-1" points="73.83 25.59 87.75 37.45 81.44 37.53 84.83 44.54 81.8 46.02 78.27 39.08 74.08 43.89 73.83 25.59"/><path class="cls-1" d="M81.8,46.82a.79.79,0,0,1-.71-.44l-3-5.88-3.41,3.91a.81.81,0,0,1-.88.23.79.79,0,0,1-.52-.74L73,25.6a.83.83,0,0,1,.46-.74.82.82,0,0,1,.86.12L88.27,36.84a.79.79,0,0,1,.23.88.81.81,0,0,1-.74.53l-5.06.07,2.85,5.88a.79.79,0,0,1-.37,1.06l-3,1.48A.85.85,0,0,1,81.8,46.82Zm-3.53-8.54h.1a.78.78,0,0,1,.61.43L82.16,45l1.6-.78-3.05-6.29a.8.8,0,0,1,.71-1.15l4.19,0-11-9.34.2,14.44,2.81-3.22A.78.78,0,0,1,78.27,38.28Z"/></g></g></svg>