<?xml version="1.0" encoding="utf-8"?>
<!-- Generator: Adobe Illustrator 25.0.0, SVG Export Plug-In . SVG Version: 6.00 Build 0)  -->
<svg version="1.1" id="Layer_1" xmlns="http://www.w3.org/2000/svg" xmlns:xlink="http://www.w3.org/1999/xlink" x="0px" y="0px"
	 viewBox="0 0 149.98 134.67" style="enable-background:new 0 0 149.98 134.67;" xml:space="preserve">
<style type="text/css">
	.st0{fill:#E7B4F1;}
</style>
<path class="st0" d="M59.89,64.88c1.4-5.11,4.36-7.72,8.7-7.74c4.42-0.02,7.31,2.5,8.83,7.8c0.36,0,0.74,0,1.13,0
	c7.68,0,15.37,0.01,23.05,0c8.94-0.02,15.96-6.37,16.91-15.26c0.92-8.61-5.53-17.01-14.19-17.95c-4.37-0.48-8.81-0.22-13.22-0.25
	c-0.27,0-0.66,0.36-0.81,0.64c-1.66,3.34-4.31,5.2-8.06,5.19c-3.7-0.01-6.31-1.87-7.98-5.14c-0.18-0.34-0.74-0.69-1.12-0.69
	c-12.18-0.04-24.35-0.02-36.53-0.05c-0.79,0-1.07,0.35-1.37,0.97c-1.82,3.74-5.82,5.62-9.86,4.69c-3.88-0.9-6.68-4.41-6.7-8.4
	c-0.03-4.55,3.28-8.21,7.94-8.77c4.18-0.5,8.33,2.47,9.27,6.74c0.17,0.77,0.43,1.02,1.21,1.02c11.86-0.02,23.72-0.02,35.59-0.02
	c0.27,0,0.54-0.03,0.88-0.06c0.08-0.31,0.15-0.61,0.22-0.91c0.89-3.94,4.4-6.78,8.43-6.82c4-0.04,7.63,2.76,8.5,6.7
	c0.2,0.91,0.55,1.1,1.39,1.1c4.02,0.01,8.05-0.11,12.05,0.18c9.24,0.68,17.26,8.77,18.11,18.03c1.02,11.05-5.93,20.38-16.82,22.48
	c-1.31,0.25-2.66,0.33-3.99,0.34c-7.8,0.03-15.61,0.03-23.41,0c-0.83,0-1.3,0.17-1.71,1c-1.58,3.17-4.26,4.85-7.78,4.85
	c-3.52,0-6.19-1.67-7.8-4.83c-0.4-0.8-0.83-1.04-1.69-1.03c-5.36,0.04-10.72,0-16.08,0.02c-8.95,0.04-16.16,6.98-16.58,15.92
	c-0.42,8.89,6.19,16.56,15.06,17.4c1.71,0.16,3.46,0.02,5.27,0.02c0.39-2.47,1.5-4.54,3.53-6.03c1.57-1.16,3.35-1.73,5.3-1.7
	c4.26,0.06,7.23,2.73,8.6,7.79c0.36,0,0.75,0,1.14,0c13.79,0,27.59,0,41.38,0.01c0.78,0,1.18-0.2,1.63-0.94
	c0.61-1,1.51-1.93,2.48-2.57c0.74-0.49,0.98-0.91,0.98-1.75c-0.03-7.49-0.02-14.98-0.02-22.47c0-0.16,0-0.32,0-0.47
	c0-1.87,0.47-2.67,1.65-2.81c1.13-0.13,1.76,0.48,2.31,2.31c0.39,0,0.81,0,1.24,0c4.61,0,9.22-0.04,13.83,0.04
	c0.68,0.01,1.53,0.42,1.98,0.92c0.62,0.69,0.23,1.54-0.29,2.27c-0.85,1.18-1.61,2.44-2.52,3.57c-0.62,0.77-0.53,1.3,0.03,2.03
	c0.89,1.15,1.65,2.4,2.5,3.59c0.52,0.73,0.9,1.58,0.28,2.27c-0.45,0.51-1.31,0.92-1.99,0.93c-4.61,0.08-9.22,0.04-13.83,0.04
	c-0.42,0-0.85,0-1.4,0c0,2.94-0.03,5.76,0.04,8.59c0.01,0.3,0.56,0.67,0.93,0.88c2.49,1.41,3.69,4.23,2.91,6.96
	c-0.78,2.73-3.29,4.55-6.14,4.37c-2.21-0.14-3.89-1.22-4.94-3.16c-0.32-0.59-0.63-0.84-1.33-0.84c-14.19,0.02-28.37,0.02-42.56,0
	c-0.66,0-0.94,0.24-1.22,0.81c-1.6,3.27-4.27,5.05-7.9,5.06c-3.68,0.01-6.38-1.79-7.98-5.11c-0.3-0.62-0.64-0.76-1.26-0.75
	c-3.35,0.04-6.68,0.12-9.94-0.95C27.14,102.01,21.21,93.15,22,83.7c0.79-9.38,7.97-17.11,17.26-18.52c1.2-0.18,2.43-0.24,3.65-0.24
	c5.32-0.02,10.64-0.01,15.96-0.01C59.22,64.93,59.56,64.89,59.89,64.88z M115.61,85.21c3.95,0,7.84,0,11.87,0
	c-0.62-0.89-1.12-1.69-1.7-2.43c-0.82-1.05-0.86-2.03-0.02-3.1c0.6-0.76,1.1-1.59,1.73-2.52c-4.07,0-7.94,0-11.88,0
	C115.61,79.88,115.61,82.53,115.61,85.21z M60.36,102.82c0-2.75-2.19-4.96-4.93-4.97c-2.87-0.01-5.02,2.25-5.02,5.27
	c0,2.77,2.16,4.95,4.92,4.96C58.21,108.09,60.36,105.84,60.36,102.82z M27.44,33.53c2.74-0.01,4.94-2.24,4.93-4.97
	c-0.01-2.72-2.28-4.96-4.98-4.94c-2.71,0.02-4.95,2.28-4.93,5C22.47,31.33,24.7,33.54,27.44,33.53z M73.52,65.86
	c-0.05-2.87-2.27-5.06-5.04-4.99c-2.75,0.06-4.87,2.37-4.82,5.23c0.04,2.54,2.36,4.7,5.01,4.66C71.39,70.72,73.57,68.52,73.52,65.86
	z M82.32,33.52c2.67-0.02,4.94-2.27,4.91-4.87c-0.03-2.58-2.38-4.82-5.02-4.78c-2.67,0.04-4.92,2.29-4.91,4.9
	C77.32,31.36,79.62,33.54,82.32,33.52z M113.46,106.12c1.24-0.02,2.21-1.02,2.2-2.27c-0.01-1.26-0.97-2.23-2.23-2.23
	c-1.29,0-2.33,1.06-2.29,2.33C111.19,105.16,112.23,106.14,113.46,106.12z"/>
</svg>
