<svg xmlns="http://www.w3.org/2000/svg" width="145" height="160" fill="none" viewBox="0 0 145 160">
    <path fill="#8BCCFD" d="M99.143 152.545c-21.494 0-38.974-17.48-38.974-38.973 0-21.495 17.446-38.975 38.974-38.975 21.526 0 38.972 17.48 38.972 38.975 0 21.493-17.479 38.973-38.972 38.973zm-81.364-22.19c-6.203 0-11.144-4.976-11.144-11.178V17.945c0-6.236 4.941-11.31 11.144-11.31h50.217v20.862c0 8.06 6.536 14.628 14.595 14.628h19.238V68.03c-.994-.032-1.792-.132-2.653-.132-11.576 0-22.224 4.446-30.25 11.41H26.8c-1.825 0-3.317 1.493-3.317 3.317 0 1.825 1.492 3.317 3.317 3.317h35.955c-2.355 3.318-4.312 6.634-5.837 10.283H26.8c-1.825 0-3.317 1.492-3.317 3.317 0 1.824 1.492 3.318 3.317 3.318h27.962c-.83 3.317-1.262 6.998-1.262 10.68 0 5.969 1.162 11.874 3.251 16.849H17.779v-.033zM74.63 11.643L97.285 35.49H82.591c-4.379 0-7.96-3.615-7.96-7.994V11.643zm33.832 57.25V38.775c0-.862-.399-1.658-.962-2.288L73.735 1.029C73.104.365 72.209 0 71.313 0H17.78C7.895 0 0 8.06 0 17.946v101.232c0 9.884 7.895 17.812 17.779 17.812h42.257c7.993 13.267 22.523 22.156 39.073 22.156 25.142 0 45.674-20.432 45.674-45.606.033-21.992-15.755-40.367-36.32-44.646z"/>
    <path fill="#8BCCFD" d="M26.8 69.324h33.6c1.826 0 3.318-1.493 3.318-3.317s-1.492-3.318-3.317-3.318H26.8c-1.826 0-3.318 1.494-3.318 3.318s1.492 3.317 3.318 3.317zM101.497 89.092c-.631-.664-1.492-1.061-2.42-1.061-.93 0-1.792.397-2.421 1.061l-19.44 20.863c-1.26 1.328-1.16 3.449.168 4.677 1.326 1.26 3.482 1.161 4.742-.165l13.732-14.694v36.22c0 1.824 1.492 3.318 3.317 3.318 1.825 0 3.318-1.494 3.318-3.318v-36.22l13.632 14.694c.664.696 1.525 1.061 2.421 1.061.796 0 1.592-.299 2.256-.896 1.327-1.26 1.426-3.349.166-4.677l-19.471-20.863z"/>
</svg>
