<svg xmlns="http://www.w3.org/2000/svg" width="140" height="140" fill="none" viewBox="0 0 140 140">
    <path fill="#FD7B92" d="M79.604 96.712c-6.563 3.644-13.947 5.553-21.453 5.547-24.37.016-44.138-19.726-44.155-44.095-.001-1.572.083-3.144.25-4.708h9.375c1.058 4.092 4.74 6.956 8.967 6.972 1.653-.008 3.275-.464 4.692-1.317L47.848 69.68c-.853 1.416-1.31 3.037-1.317 4.692 0 5.133 4.162 9.295 9.296 9.295 5.133 0 9.296-4.162 9.296-9.295-.008-1.655-.464-3.276-1.32-4.692l15.218-15.217c1.416.854 3.038 1.309 4.692 1.317 5.134 0 9.296-4.16 9.296-9.295-.008-1.654-.464-3.276-1.318-4.69l5.066-5.066c11.827 21.3 4.147 48.156-17.153 59.983zm-42.37-45.58c0 2.568-2.08 4.648-4.646 4.648-2.568 0-4.648-2.08-4.648-4.648 0-2.567 2.08-4.647 4.648-4.647 2.567 0 4.647 2.08 4.647 4.647zm23.24 23.24c0 2.567-2.08 4.647-4.647 4.647s-4.648-2.08-4.648-4.647c0-2.568 2.08-4.648 4.648-4.648 2.566 0 4.648 2.08 4.648 4.648zm27.887-27.887c0 2.567-2.081 4.647-4.648 4.647-2.566 0-4.648-2.08-4.648-4.647 0-2.568 2.082-4.646 4.648-4.646 2.567 0 4.648 2.078 4.648 4.646zm-30.21-32.534c14.354.01 27.805 7.008 36.057 18.753l-5.81 5.812c-1.414-.857-3.033-1.315-4.685-1.327-5.133 0-9.296 4.162-9.296 9.296.008 1.654.464 3.276 1.318 4.692L60.519 66.393c-2.882-1.756-6.503-1.756-9.384 0l-10.57-10.57c.855-1.415 1.31-3.036 1.318-4.691.006-5.121-4.142-9.281-9.266-9.288-4.237-.005-7.938 2.861-8.996 6.965H15c4.4-20.32 22.361-34.828 43.15-34.858zm0-4.648c-26.954 0-48.803 21.849-48.803 48.8 0 26.954 21.85 48.804 48.803 48.804 26.952 0 48.801-21.85 48.801-48.803-.029-26.94-21.861-48.772-48.801-48.801z"/>
    <path fill="#FD7B92" d="M101.625 89.14c-.732 1.025-1.486 2.025-2.284 2.989-.232.28-.481.553-.721.829-.71.828-1.445 1.63-2.203 2.408-.329.341-.665.676-1.006 1.007-.775.757-1.576 1.492-2.407 2.202-.277.232-.548.486-.83.72-.965.798-1.966 1.554-2.989 2.286-24.057 17.188-57.492 11.616-74.678-12.44C-2.68 65.083 2.889 31.649 26.947 14.46c24.057-17.184 57.492-11.616 74.678 12.44 13.299 18.616 13.299 43.625 0 62.24zm9.012 10.795L99.98 110.593l-6.432-6.434c.328-.25.633-.526.957-.785.323-.257.698-.567 1.043-.857.51-.428 1.01-.86 1.504-1.303.253-.233.495-.465.744-.699.952-.892 1.875-1.814 2.768-2.766.232-.248.464-.491.696-.744.444-.494.877-.995 1.304-1.504.292-.344.577-.692.857-1.043.256-.321.532-.627.784-.956l6.432 6.433zm21.994 21.994c2.977 2.909 3.03 7.681.121 10.657s-7.681 3.031-10.657.121c-.042-.04-.082-.081-.122-.121l-18.708-18.708 10.658-10.656 18.708 18.707zM116.248 9.303c2.567 0 4.647 2.08 4.647 4.647 0 2.568-2.08 4.648-4.647 4.648-2.568 0-4.648-2.08-4.648-4.648 0-2.567 2.08-4.647 4.648-4.647zm0 13.943c4.225-.016 7.908-2.88 8.965-6.97h14.274v-4.649h-14.274c-1.057-4.092-4.74-6.956-8.965-6.97-5.135 0-9.296 4.16-9.296 9.293.008 1.655.464 3.276 1.317 4.692l-4.082 4.084C84.649-2.726 48.179-7.524 22.725 12.014-2.727 31.55-7.523 68.022 12.013 93.474c18.442 24.027 52.246 29.855 77.668 13.391l7.014 7.013 3.285 3.287 18.708 18.706c4.757 4.759 12.471 4.759 17.229 0 4.758-4.757 4.758-12.47 0-17.229l-18.708-18.707-3.286-3.286-7.012-7.014c12.449-19.177 12.449-43.884 0-63.061l4.646-4.648c1.416.855 3.036 1.31 4.691 1.32z"/>
</svg>
