<svg xmlns="http://www.w3.org/2000/svg" width="133" height="146" fill="none" viewBox="0 0 133 146">
    <path fill="#8BCCFD" d="M90.753 139.636c-19.674 0-35.676-16.001-35.676-35.676s15.971-35.676 35.676-35.676c19.704 0 35.675 16.001 35.675 35.676s-16 35.676-35.675 35.676zm-74.48-20.312c-5.676 0-10.2-4.555-10.2-10.232V16.425c0-5.708 4.524-10.352 10.2-10.352h45.97v19.098c0 7.377 5.982 13.389 13.36 13.389h17.609v23.713c-.91-.03-1.64-.122-2.43-.122-10.595 0-20.34 4.069-27.689 10.445h-38.56c-1.67 0-3.037 1.367-3.037 3.036 0 1.67 1.367 3.036 3.037 3.036h32.914c-2.158 3.037-3.948 6.073-5.346 9.413H24.533c-1.67 0-3.037 1.366-3.037 3.036s1.367 3.036 3.037 3.036h25.595c-.759 3.038-1.153 6.407-1.153 9.778 0 5.464 1.062 10.869 2.974 15.424H16.273v-.031zM68.316 10.657l20.737 21.83h-13.45c-4.008 0-7.287-3.308-7.287-7.316V10.657zm30.968 52.406v-27.57c0-.789-.364-1.518-.88-2.094L67.496.94C66.919.335 66.099 0 65.28 0H16.273C7.227 0 0 7.377 0 16.425v92.667c0 9.048 7.227 16.304 16.273 16.304h38.683c7.317 12.145 20.616 20.281 35.767 20.281 23.014 0 41.808-18.702 41.808-41.746.032-20.131-14.422-36.952-33.247-40.868z"/>
    <path fill="#8BCCFD" d="M24.533 63.457H55.29c1.67 0 3.036-1.366 3.036-3.036s-1.366-3.037-3.036-3.037H24.533c-1.67 0-3.036 1.367-3.036 3.037s1.365 3.036 3.036 3.036zM107.459 100.598H95.674c-.383 0-.694-.311-.694-.693V88.119c0-1.913-1.552-3.465-3.465-3.465-1.915 0-3.466 1.552-3.466 3.465v11.786c0 .382-.311.693-.694.693H75.57c-1.913 0-3.465 1.552-3.465 3.467 0 1.913 1.551 3.465 3.465 3.465h11.785c.383 0 .694.311.694.693v11.786c0 1.914 1.551 3.466 3.466 3.466 1.913 0 3.466-1.552 3.466-3.466v-11.786c0-.382.31-.693.693-.693h11.785c1.915 0 3.467-1.552 3.467-3.465 0-1.915-1.552-3.467-3.467-3.467z"/>
</svg>
