<svg xmlns="http://www.w3.org/2000/svg" width="119" height="112" fill="none" viewBox="0 0 119 112">
    <path fill="#8BCCFD" d="M31.08 5.32c-14.204 0-25.76 11.556-25.76 25.76 0 20.793 15.261 41.18 24.359 51.484C43.39 98.09 56.57 106.56 59.5 106.56c7.465 0 54.181-37.181 54.181-75.481 0-14.204-11.556-25.76-25.761-25.76-25.36 0-25.779 23.828-25.784 24.841l-5.319-.01C56.813 29.145 56.436 5.32 31.08 5.32zM59.5 111.88c-6.081 0-21.248-11.572-33.808-25.796C16.097 75.217 0 53.624 0 31.08 0 13.943 13.943 0 31.08 0 47.1 0 54.725 8.26 58.3 15.188c.457.887.861 1.772 1.216 2.647C62.915 9.499 70.591 0 87.92 0 105.057 0 119 13.943 119 31.08c0 41.497-48.867 80.8-59.5 80.8z"/>
</svg>
