<svg xmlns="http://www.w3.org/2000/svg" width="147" height="147" fill="none" viewBox="0 0 147 147">
    <path fill="#8BCCFD" d="M31.89 31.947V8.667L8.558 31.947h23.334zM4.713 141.73h91.327v-1.752l.001-19.596c0-.436-.019-.874.008-1.307.09-1.475 1.035-2.46 2.316-2.437 1.277.021 2.167 1.012 2.251 2.509.012.217.005.436.005.653 0 7.84.005 15.678-.004 23.518-.003 2.249-.792 3.032-3.05 3.033-31.518.004-63.038.004-94.557-.001-2.242 0-3.006-.784-3.006-3.068C-.001 107.245-.01 71.208.052 35.17c.001-1.013.505-2.28 1.213-2.997C11.485 21.84 21.76 11.56 32.097 1.344 32.851.6 34.18.061 35.241.057 55.983-.017 76.723.001 97.464.004c2.381 0 3.148.75 3.153 3.09.011 4.846.011 9.69.007 14.536-.003 1.853-.88 2.96-2.301 2.95-1.416-.01-2.275-1.11-2.28-2.977-.011-3.758-.003-7.514-.004-11.27V4.665H36.603v1.763c0 8.928.001 17.855-.002 26.783 0 2.701-.682 3.392-3.353 3.392-8.873.004-17.747.001-26.62.001H4.712v105.127z"/>
    <path fill="#8BCCFD" d="M66.074 107.391c.684.036 1.045.074 1.408.074 23.776.005 47.553.009 71.329.004 2.127-.002 2.953-.838 2.956-2.976.011-10.228.012-20.458 0-30.686-.003-2.11-.835-2.908-3.007-2.908-20.838-.002-41.677 0-62.516.01-2.256 0-3.044.786-3.05 3.028-.015 4.514-.111 9.034.009 13.546.197 7.447-1.83 14.068-7.13 19.908zm33.638 4.672c-12.786.002-25.572.002-38.358 0-.49 0-.98-.005-1.47 0-1.23.016-2.112-.494-2.458-1.712-.331-1.162.178-2.013 1.133-2.632 2.921-1.9 5.315-4.301 7.085-7.318 1.944-3.316 2.912-6.907 2.943-10.732.041-5.278.004-10.556.015-15.834.012-4.708 2.809-7.516 7.514-7.517 20.895-.008 41.788-.007 62.682-.001 4.734.001 7.548 2.788 7.552 7.477.009 10.284.01 20.568 0 30.851-.006 4.57-2.859 7.41-7.462 7.414-13.058.012-26.117.004-39.176.004zM66.178 52.513c.565.032.923.069 1.28.069 23.777.007 47.553.012 71.331.01 2.208-.002 2.977-.813 2.98-3.102.008-5.441.005-10.881-.006-16.323-.004-2.78-.672-3.43-3.478-3.432H94.703c-6.202 0-12.405-.008-18.608.006-2.066.004-2.874.814-2.912 2.837-.013.707.006 1.415-.005 2.121-.088 5.723-1.772 10.911-5.204 15.51-.541.725-1.112 1.428-1.796 2.304zm33.685 4.665c-13.112 0-26.225-.007-39.337.008-1.323.001-2.559-.1-3.057-1.577-.535-1.583.506-2.378 1.634-3.163 6.323-4.397 9.406-10.501 9.499-18.165.013-1.142-.073-2.306.117-3.419.612-3.55 3.383-5.701 7.255-5.704 16.105-.01 32.211-.007 48.315-.007 4.897 0 9.794-.009 14.692.007 4.512.016 7.356 2.839 7.368 7.328.016 5.768.014 11.535 0 17.303-.011 4.574-2.862 7.39-7.474 7.393-13.004.007-26.008.003-39.012.003v-.007zM61.758 132.644H40.23c-.435 0-.872.022-1.304-.012-1.392-.114-2.216-.871-2.307-2.267-.08-1.221.906-2.209 2.27-2.289 1.138-.068 2.282-.03 3.425-.03 13.755.002 27.51.004 41.264.011.488 0 .997-.047 1.46.071 1.116.281 2.012 1.074 1.763 2.178-.191.84-1.052 1.591-1.756 2.226-.28.252-.942.1-1.43.1-7.285.004-14.57.002-21.856.002v.01zM22.91 114.324c2.473-.016 4.55-2.131 4.52-4.6-.03-2.491-2.116-4.539-4.6-4.519-2.48.019-4.543 2.119-4.52 4.599.024 2.487 2.111 4.536 4.6 4.52zm-.113 4.585c-5.036-.037-9.087-4.153-9.081-9.226.007-5.012 4.203-9.139 9.22-9.071 5.065.071 9.106 4.179 9.078 9.231-.028 5.045-4.154 9.104-9.217 9.066zM27.43 54.873c-.014-2.503-2.112-4.575-4.61-4.549-2.47.027-4.565 2.19-4.509 4.659.055 2.436 2.09 4.44 4.533 4.461 2.483.023 4.599-2.085 4.586-4.57zm-13.715-.057c.03-5.018 4.192-9.12 9.219-9.086 5.022.033 9.102 4.177 9.08 9.22-.022 5.022-4.178 9.115-9.215 9.08-5.03-.035-9.115-4.18-9.084-9.214zM47.968 77.754c-2.876 0-5.754.018-8.63-.007-1.702-.016-2.769-.961-2.734-2.337.033-1.324 1.059-2.222 2.678-2.227 5.809-.019 11.617-.019 17.423-.001 1.698.005 2.77.961 2.736 2.334-.033 1.322-1.064 2.215-2.68 2.23-2.93.026-5.863.008-8.793.008zM43.42 50.316c-1.41-.003-2.82.025-4.229-.01-1.58-.04-2.608-.989-2.586-2.316.02-1.324 1.047-2.229 2.653-2.246 2.764-.03 5.53-.03 8.293-.012 1.709.012 2.77.934 2.744 2.317-.023 1.372-1.072 2.233-2.81 2.264-1.355.024-2.71.005-4.066.003zM43.611 59.458c1.41 0 2.82-.036 4.228.01 1.47.05 2.458 1.009 2.455 2.28-.003 1.268-.993 2.248-2.463 2.269-2.926.044-5.854.045-8.78 0-1.474-.023-2.448-.999-2.449-2.284-.003-1.287.968-2.221 2.456-2.265 1.517-.045 3.036-.01 4.553-.01zM43.288 105.199c-1.41 0-2.82.04-4.227-.01-1.472-.054-2.454-1.011-2.457-2.283-.001-1.277.98-2.252 2.455-2.275 2.925-.045 5.852-.049 8.778-.009 1.462.021 2.455 1.011 2.458 2.277.001 1.271-.987 2.234-2.455 2.28-1.516.048-3.035.011-4.552.011v.009zM43.47 118.91c-1.463 0-2.927.036-4.389-.009-1.48-.047-2.464-.984-2.477-2.257-.012-1.278.967-2.268 2.435-2.291 2.925-.045 5.852-.043 8.777-.003 1.476.022 2.465.982 2.479 2.252.012 1.272-.974 2.246-2.438 2.296-1.46.051-2.925.012-4.388.012z"/>
    <path fill="#8BCCFD" d="M116.447 84.615c-4.292 0-8.583.008-12.875-.004-1.858-.004-2.949-.878-2.941-2.3.008-1.42 1.091-2.271 2.965-2.272 8.692-.008 17.383-.008 26.074 0 1.864 0 2.953.874 2.944 2.297-.008 1.416-1.098 2.27-2.967 2.276-4.4.01-8.8.003-13.2.003zM93.76 100.621c-2.878 0-5.755.014-8.631-.006-1.727-.012-2.79-.909-2.791-2.282-.003-1.376 1.059-2.28 2.785-2.286 5.755-.017 11.508-.021 17.263-.009 1.716.004 2.784.913 2.789 2.287.003 1.372-1.065 2.278-2.785 2.29-2.876.022-5.753.006-8.63.006zM121.198 100.62c-2.876 0-5.753.015-8.631-.005-1.724-.012-2.788-.91-2.789-2.283-.003-1.376 1.059-2.28 2.784-2.285 5.755-.017 11.508-.021 17.261-.008 1.722.004 2.79.916 2.791 2.287.003 1.373-1.065 2.277-2.787 2.289-2.876.02-5.753.005-8.629.005zM89.179 84.613c-1.463.001-2.928.044-4.39-.01-1.48-.054-2.454-1.009-2.452-2.283.003-1.276.984-2.246 2.46-2.268 2.926-.046 5.854-.05 8.78-.01 1.456.02 2.451 1.015 2.451 2.283-.001 1.268-.992 2.228-2.46 2.276-1.461.047-2.927.01-4.39.012zM118.907 38.875c3.588 0 7.176-.008 10.764.002 1.874.006 2.952.856 2.953 2.284 0 1.422-1.095 2.298-2.951 2.3-7.174.006-14.35.002-21.526-.01-1.876-.003-2.954-.86-2.952-2.29.001-1.429 1.08-2.286 2.949-2.291 3.587-.014 7.175-.005 10.763-.005v.01zM91.418 43.455c-2.063 0-4.125.012-6.187-.003-1.825-.015-2.927-.92-2.901-2.343.025-1.373 1.084-2.228 2.83-2.232 4.179-.01 8.358-.01 12.535.002 1.836.006 2.937.91 2.907 2.33-.031 1.37-1.09 2.225-2.835 2.241-2.116.02-4.233.005-6.35.005z"/>
</svg>
