<svg xmlns="http://www.w3.org/2000/svg" width="155" height="154" fill="none" viewBox="0 0 155 154">
    <path fill="#E7B4F1" d="M110.603 135.477c-1.256 0-2.419-.816-2.837-2-.414-1.173-.062-2.506.886-3.313.987-.839 2.442-.947 3.542-.264 1.056.657 1.604 1.933 1.364 3.151-.276 1.39-1.536 2.426-2.955 2.426z"/>
    <path fill="#E7B4F1" d="M130.821 33.183c-1.186 1.186-2.824 1.785-4.496 1.646l-6.262-.522-.523-6.263c-.139-1.67.461-3.31 1.647-4.496l15.02-15.019 2.034 5.76c.304.859.98 1.535 1.839 1.839l5.761 2.035-15.02 15.02zM80.813 87.897c0 3.954-1.534 7.667-4.321 10.452-2.787 2.788-6.499 4.323-10.453 4.323-3.954 0-7.667-1.535-10.454-4.323-2.786-2.786-4.321-6.498-4.321-10.452 0-3.954 1.535-7.666 4.321-10.453 2.787-2.787 6.5-4.321 10.454-4.321 3.033 0 5.924.902 8.364 2.581L64.34 85.765c-1.177 1.178-1.177 3.086 0 4.264.588.59 1.36.883 2.132.883.771 0 1.543-.293 2.131-.883l9.972-9.972c1.457 2.326 2.237 5.022 2.237 7.84zm-35.888 21.114c-11.641-11.643-11.641-30.584 0-42.227 10.996-10.996 28.507-11.605 40.226-1.828l-6.434 6.432c-3.616-2.787-8.029-4.296-12.678-4.296-5.564 0-10.791 2.163-14.718 6.088-3.925 3.925-6.086 9.152-6.086 14.717 0 5.564 2.161 10.792 6.086 14.718 3.927 3.925 9.154 6.088 14.718 6.088 5.565 0 10.792-2.163 14.717-6.088 3.925-3.926 6.088-9.154 6.088-14.718 0-4.438-1.376-8.662-3.925-12.182l6.452-6.451c9.368 11.712 8.629 28.899-2.219 39.747-11.643 11.641-30.584 11.641-42.227 0zm66.024-21.114c0 12.016-4.665 23.3-13.138 31.772-8.472 8.474-19.755 13.139-31.772 13.139-12.016 0-23.3-4.665-31.772-13.139-8.474-8.472-13.139-19.756-13.139-31.772 0-12.017 4.665-23.3 13.139-31.772 8.472-8.473 19.756-13.138 31.772-13.138 11.106 0 21.588 3.985 29.801 11.28l-6.41 6.41c-14.085-12.12-35.42-11.505-48.767 1.843-13.994 13.993-13.994 36.761-.002 50.753h.002c6.996 6.998 16.186 10.495 25.376 10.495 9.19 0 18.38-3.497 25.377-10.495 13.2-13.201 13.948-34.21 2.241-48.296l6.419-6.418c7.035 8.142 10.873 18.438 10.873 29.338zM58.387 22.293c-.33-.73-.482-1.4-.482-2.318 0-4.484 3.65-8.132 8.134-8.132 4.485 0 8.133 3.648 8.133 8.132 0 .918-.152 1.588-.481 2.318-2.523-.288-5.076-.434-7.652-.434-2.576 0-5.13.146-7.652.434zm95.908-6.046c-.228-1.01-.96-1.831-1.936-2.176l-8.911-3.148-3.149-8.912c-.344-.976-1.167-1.707-2.176-1.936-1.01-.23-2.067.077-2.799.808l-18.401 18.401c-2.443 2.443-3.679 5.819-3.392 9.261l.62 7.415c-.028.025-.056.05-.083.077l-3.287 3.287c-8.818-8.139-19.488-13.624-31.03-16.048.29-.983.45-2.045.45-3.301 0-7.81-6.353-14.163-14.162-14.163-7.81 0-14.163 6.353-14.163 14.163 0 1.256.16 2.318.45 3.301-12.407 2.607-23.809 8.75-32.983 17.925C6.869 53.675 0 70.257 0 87.897c0 17.64 6.87 34.223 19.343 46.696 10.69 10.692 24.846 17.436 39.858 18.99 2.259.234 4.522.349 6.782.349 12.538 0 24.936-3.565 35.504-10.301 1.404-.894 1.817-2.758.922-4.163-.894-1.404-2.758-1.816-4.162-.923-23.508 14.982-54.899 11.527-74.64-8.216-11.335-11.334-17.578-26.402-17.578-42.432 0-16.029 6.243-31.098 17.578-42.433C34.94 34.131 50.009 27.889 66.039 27.889c15.122 0 29.392 5.556 40.474 15.703l-6.404 6.404c-9.357-8.428-21.352-13.039-34.07-13.039-13.628 0-26.426 5.292-36.038 14.904-9.61 9.611-14.904 22.408-14.904 36.036s5.294 26.426 14.904 36.036c9.612 9.612 22.41 14.906 36.038 14.906 13.626 0 26.425-5.294 36.036-14.906 9.61-9.61 14.905-22.408 14.905-36.036 0-12.512-4.463-24.324-12.631-33.612l6.404-6.405c17.682 19.792 20.311 49.601 5.976 72.16-.893 1.405-.477 3.268.928 4.161 1.406.894 3.27.478 4.162-.928 7.924-12.469 11.441-27.476 9.901-42.254-1.447-13.895-7.341-27.055-16.696-37.41l3.308-3.308c.027-.026.053-.053.079-.081l7.413.619c.328.028.655.041.981.041 3.096 0 6.071-1.223 8.282-3.433l18.4-18.402c.732-.732 1.037-1.788.808-2.798"/>
</svg>
