<svg xmlns="http://www.w3.org/2000/svg" width="134" height="134" fill="none" viewBox="0 0 134 134">
    <path fill="#FD7B92" d="M33.282 76.07c-5.252 0-9.51-4.256-9.51-9.507 0-5.252 4.258-9.51 9.51-9.51 5.25 0 9.51 4.258 9.51 9.51 0 5.25-4.26 9.508-9.51 9.508zm95.088-14.262H51.624c-2.578-10.13-12.88-16.252-23.01-13.675-6.719 1.711-11.966 6.956-13.675 13.675H4.755C2.13 61.808 0 63.936 0 66.563c0 2.625 2.13 4.754 4.755 4.754H14.94c2.579 10.13 12.881 16.252 23.01 13.674 6.72-1.71 11.966-6.956 13.675-13.674h76.746c2.626 0 4.754-2.129 4.754-4.754 0-2.627-2.128-4.755-4.754-4.755zM95.089 28.526c-5.25 0-9.508-4.257-9.508-9.508 0-5.252 4.257-9.509 9.508-9.509 5.252 0 9.509 4.257 9.509 9.51 0 5.25-4.257 9.507-9.509 9.507zm33.281-14.262h-14.938C110.853 4.133 100.552-1.988 90.421.589c-6.719 1.71-11.965 6.956-13.675 13.675H4.756C2.129 14.264 0 16.392 0 19.018c0 2.626 2.128 4.755 4.755 4.755h71.99c2.579 10.13 12.882 16.252 23.011 13.673 6.719-1.709 11.965-6.956 13.675-13.673h14.938c2.626 0 4.754-2.13 4.754-4.755 0-2.626-2.128-4.754-4.754-4.754zM85.58 123.615c-5.252 0-9.51-4.258-9.51-9.508 0-5.252 4.258-9.51 9.51-9.51 5.25 0 9.51 4.258 9.51 9.51 0 5.25-4.258 9.508-9.51 9.508zm42.791-14.263h-24.448c-2.579-10.13-12.882-16.252-23.011-13.675-6.719 1.711-11.965 6.956-13.675 13.675H4.755c-2.626 0-4.755 2.128-4.755 4.755 0 2.625 2.13 4.754 4.755 4.754h62.482c2.579 10.13 12.882 16.252 23.011 13.674 6.719-1.711 11.964-6.956 13.675-13.674h24.448c2.625 0 4.753-2.129 4.753-4.754 0-2.627-2.128-4.755-4.753-4.755z"/>
</svg>
