<svg xmlns="http://www.w3.org/2000/svg" width="139" height="139" fill="none" viewBox="0 0 139 139">
    <path fill="#FD7B92" d="M90.217 67.01l-2.143 6.49c2.419-.8 4.463-1.479 6.246-2.07l-4.103-4.42zM38.49 16.128c1.859 0 3.672.149 5.44-.07.756-.093 1.948-.888 2.022-1.477.252-2.024.096-4.099.096-6.019l-7.558 7.566zm47.766 90.376l-.154-.276h-15.73c2.546 1.569 4.653 2.938 6.841 4.164.5.28 1.397.293 1.91.033 2.415-1.232 4.762-2.601 7.133-3.921zm34.733-71.824c-1.004.894-2.091 1.862-2.967 2.644l6.239 6.13 2.979-2.573-6.251-6.201zm12.676-.224l-6.289-6.428c-.976.901-2.019 1.861-2.939 2.709l6.389 6.335 2.839-2.616zm-19.264 6.537L93.036 62.324c2.042 2.083 4.144 4.224 5.984 6.099l21.494-21.332c-1.977-1.974-4.048-4.039-6.113-6.099zm-93.628 65.116c0-5.145.003-10.292-.001-15.437-.003-2.246-.726-3.014-2.918-3.026-3.453-.02-6.906-.021-10.36.002-2.022.013-2.829.802-2.832 2.804-.013 10.393-.013 20.789-.001 31.184.003 2.109.77 2.852 2.92 2.864 3.35.017 6.701.008 10.05.002 2.449-.004 3.14-.685 3.142-3.109.005-5.095.001-10.188 0-15.284zm4.708 11.712c1.297.332 2.508.577 3.679.949 15.065 4.794 30.13 9.591 45.182 14.427 2.914.936 5.4.425 7.783-1.489 13.207-10.615 26.455-21.18 39.688-31.764 2.896-2.318 5.793-4.63 8.673-6.967 1.14-.927 1.45-2.139.79-3.453-.566-1.126-1.582-1.635-2.835-1.354-.585.131-1.132.48-1.668.782-14.896 8.394-29.795 16.786-44.68 25.202-2.735 1.547-5.353 1.514-8.012-.17-3.653-2.315-7.367-4.539-11.008-6.874-1.183-.757-2.367-1.093-3.77-1.038-2.162.085-4.33.054-6.493-.023-1.388-.051-2.282-.995-2.316-2.219-.036-1.278.899-2.224 2.358-2.341.564-.045 1.133-.023 1.7-.023 12.885-.002 25.77.003 38.657-.008 2.113-.002 3.237-.829 3.38-2.385.155-1.679-.833-2.664-2.959-3.027-15.384-2.629-30.769-5.25-46.146-7.918-3.822-.663-7.599-.86-11.263.628-3.196 1.298-6.324 2.764-9.517 4.066-1.031.42-1.328.999-1.32 2.075.046 7.204.022 14.409.028 21.615 0 .453.046.906.069 1.309zm83.088-51.201l-.488-.3c-1.624 1.705-3.291 3.374-4.864 5.128-1.756 1.957-3.73 3.437-6.377 4.058-2.098.492-4.084 1.442-6.174 1.979-1.818.47-3.71.905-5.573.916-13.296.072-26.595.033-39.89.027-.567 0-1.151.053-1.697-.063-1.208-.259-1.874-1.06-1.861-2.304.012-1.264.725-2.004 1.953-2.204.504-.081 1.028-.043 1.543-.043 12.164-.002 24.327-.014 36.49.02 1.083.003 1.594-.248 1.926-1.376.93-3.154 1.961-6.286 3.125-9.362.455-1.203 1.202-2.398 2.104-3.314 6.252-6.344 12.598-12.6 18.86-18.936.506-.51.88-1.402.884-2.12.054-10.24.036-20.481.027-30.721-.003-2.693-.68-3.359-3.388-3.359-17.523-.002-35.047-.002-52.57.002-.545.001-1.089.048-1.763.08 0 3.126.041 6.102-.01 9.077-.062 3.572-2.521 6.428-5.894 6.864-1.016.13-2.058.079-3.087.084-2.352.01-4.705.003-7.116.003v63.58c4.333-1.495 8.653-1.607 13.04-.826 6.337 1.127 12.685 2.203 19.032 3.283 9.243 1.572 18.484 3.148 27.732 4.677 2.859.474 4.999 1.824 6.173 4.523.258.593.428 1.223.68 1.956 2.078-1.173 4.016-2.332 6.018-3.37.91-.473 1.194-1.051 1.188-2.06-.042-7.82-.023-15.643-.023-23.465V66.62zm5.053-31.52c2.914-2.959 5.827-5.92 8.743-8.876.652-.66 1.289-1.336 1.983-1.951 1.78-1.58 4.309-1.695 6.05-.077 2.412 2.241 4.755 4.568 6.995 6.982 1.801 1.94 1.584 4.52-.392 6.504-5.16 5.182-10.344 10.34-15.519 15.507-2.478 2.475-4.984 4.923-7.413 7.444-.447.464-.835 1.22-.839 1.843-.052 9.212-.037 18.425-.032 27.637 0 .288.055.576.108 1.097 1.67-.933 3.183-1.776 4.691-2.625 2.38-1.339 4.751-2.69 7.135-4.021 3.569-1.995 7.704-1.112 9.856 2.089 2.153 3.204 1.508 7.421-1.643 9.952-13.332 10.708-26.689 21.384-40.039 32.072-2.814 2.253-5.637 4.497-8.44 6.764-3.569 2.885-7.489 3.597-11.884 2.183-15.1-4.858-30.217-9.66-45.329-14.476-.668-.214-1.359-.355-2.116-.548-.17.593-.299 1.026-.421 1.462-.832 2.934-3.266 4.967-6.311 5.034-4.019.086-8.041.104-12.06.008-3.836-.091-6.704-3.043-6.717-6.875-.038-10.756-.036-21.512-.002-32.268.012-3.9 2.93-6.85 6.835-6.917 3.916-.068 7.835-.054 11.752.013 2.975.05 5.032 1.581 6.279 4.245.146.315.288.631.477 1.048 1.347-.562 2.672-1.005 3.867-1.677.421-.239.732-1.04.736-1.587.049-7.462.037-14.925.037-22.386.003-13.948.015-27.895-.003-41.842-.002-2.238.751-4.106 2.332-5.68 4.308-4.285 8.608-8.58 12.903-12.88C46.774.76 48.593-.003 50.781 0c18.35.013 36.7.001 55.049.012 4.44.003 7.348 2.913 7.358 7.36.017 8.595.005 17.19.005 25.784v1.688l.429.255z"/>
    <path fill="#FD7B92" d="M71.45 32.3H45.184c-2.447-.002-3.5-.673-3.543-2.244-.047-1.646 1.055-2.398 3.54-2.398h52.845c2.476 0 3.602.764 3.555 2.396-.047 1.563-1.113 2.244-3.552 2.246H71.451zM77.5 39.224c6.34 0 12.679-.007 19.019.004 1.674.004 2.65.758 2.77 2.065.126 1.385-.912 2.505-2.478 2.543-2.008.048-4.019.005-6.03.005-10.617 0-21.236.001-31.853-.004-.565 0-1.152.043-1.69-.092-1.123-.281-1.774-1.068-1.78-2.23-.005-1.173.666-1.925 1.794-2.205.441-.109.921-.082 1.384-.084 6.288-.004 12.576-.002 18.864-.002zM60.066 62.227c4.94 0 9.879-.002 14.819.005.614 0 1.25-.022 1.84.117 1.13.264 1.78 1.048 1.792 2.206.012 1.17-.641 1.938-1.779 2.2-.544.126-1.123.129-1.685.13-9.93.01-19.861.014-29.793.01-.615 0-1.244-.004-1.842-.127-1.158-.24-1.777-1.02-1.767-2.195.014-1.236.666-2.03 1.903-2.25.502-.089 1.026-.073 1.539-.074 4.99-.006 9.982-.003 14.973-.003v-.019zM53.06 55.339c-2.883-.002-5.767.014-8.651-.007-1.771-.013-2.726-.804-2.767-2.213-.043-1.479.948-2.37 2.765-2.378 5.82-.02 11.64-.024 17.46-.013 1.73.003 2.728.836 2.776 2.228.048 1.456-.962 2.359-2.776 2.377-2.934.028-5.87.007-8.806.006zM78.578 55.336c-2.21 0-4.423.024-6.634-.008-1.594-.024-2.589-.897-2.633-2.213-.047-1.376.984-2.358 2.637-2.368 4.423-.03 8.846-.03 13.268.001 1.584.01 2.546.936 2.542 2.288-.004 1.34-.972 2.267-2.547 2.3-2.21.046-4.423.01-6.633.01v-.01zM46.266 43.834c-.824 0-1.652.057-2.469-.013-1.332-.116-2.21-1.095-2.155-2.357.06-1.335.82-2.13 2.124-2.2 1.642-.091 3.298-.103 4.938.003 1.292.084 2.09.9 2.084 2.234-.007 1.31-.768 2.123-2.055 2.296-.808.11-1.644.02-2.467.02v.017zM12.683 115.259c.563.048 1.139.032 1.684.154 1.148.259 1.786 1.023 1.775 2.2-.01 1.244-.695 2.047-1.921 2.234-.807.122-1.644.093-2.464.058-1.5-.062-2.423-.917-2.472-2.213-.05-1.349.897-2.269 2.469-2.383.307-.022.617-.004.927-.004 0-.016 0-.03.002-.046zM12.713 92.284c.463 0 .932-.05 1.387.01 1.319.174 2.037.972 2.039 2.282.002 1.25-.706 2.037-1.95 2.188-.862.105-1.75.106-2.617.048-1.408-.096-2.27-.978-2.29-2.223-.02-1.305.894-2.219 2.351-2.33.358-.029.72-.005 1.08-.005v.03z"/>
</svg>
