<svg xmlns="http://www.w3.org/2000/svg" viewBox="0 0 83.83 90.48"><defs><style>.cls-1{fill:#6ed59f;}</style></defs><g id="Layer_2" data-name="Layer 2"><g id="Layer_1-2" data-name="Layer 1"><path class="cls-1" d="M44.2,90.48H39.51a9.3,9.3,0,0,1-9.29-9.29v-5.6c0-6.37-2.36-9.6-5.08-13.33-3-4.16-6.48-8.87-6.48-18.46a23.2,23.2,0,1,1,46.39,0c0,9.59-3.44,14.3-6.48,18.46-2.72,3.73-5.08,7-5.08,13.33v5.6A9.3,9.3,0,0,1,44.2,90.48ZM41.85,23.6A20.22,20.22,0,0,0,21.66,43.8c0,8.61,3,12.72,5.9,16.69,2.78,3.81,5.66,7.75,5.66,15.1v5.6a6.29,6.29,0,0,0,6.29,6.29H44.2a6.29,6.29,0,0,0,6.29-6.29v-5.6c0-7.35,2.88-11.29,5.66-15.1,2.9-4,5.9-8.08,5.9-16.69A20.22,20.22,0,0,0,41.85,23.6Z"/><rect class="cls-1" x="31.62" y="71.86" width="20.37" height="3"/><rect class="cls-1" x="31.62" y="76.16" width="20.37" height="3"/><rect class="cls-1" x="31.72" y="80.43" width="19.97" height="3"/><path class="cls-1" d="M44.5,74.86H39.26a1.51,1.51,0,0,1-1.48-1.23L32.14,43.14a1.51,1.51,0,0,1,.6-1.49,1.5,1.5,0,0,1,1.6-.1l8,4.4,7-4.36a1.51,1.51,0,0,1,2.27,1.55L46,73.63A1.5,1.5,0,0,1,44.5,74.86Zm-4-3h2.74L48,45.94l-4.83,3a1.49,1.49,0,0,1-1.51,0l-6-3.29Z"/><rect class="cls-1" x="40.35" width="3" height="10.58"/><rect class="cls-1" x="73.25" y="41.37" width="10.58" height="3"/><rect class="cls-1" x="65.24" y="14.85" width="10.58" height="3" transform="translate(9.1 54.66) rotate(-45)"/><rect class="cls-1" y="41.37" width="10.58" height="3"/><rect class="cls-1" x="11.8" y="11.06" width="3" height="10.58" transform="translate(-7.67 14.2) rotate(-45)"/></g></g></svg>