<svg xmlns="http://www.w3.org/2000/svg" width="105" height="140" fill="none" viewBox="0 0 105 140">
    <path fill="#FD7B92" d="M97.741 124.395c-.004 4.616-3.744 8.356-8.36 8.361H15.347c-4.616-.005-8.355-3.745-8.36-8.361V24.836c.005-4.616 3.744-8.355 8.36-8.359h11.069v3.064c.01 8.472 6.876 15.336 15.348 15.347h21.2c8.472-.01 15.337-6.875 15.347-15.347v-3.064h11.07c4.616.004 8.355 3.743 8.36 8.359v99.559zM40.332 16.477c1.64 0 3.06-1.142 3.412-2.746.859-3.906 4.484-6.744 8.621-6.744 4.136 0 7.76 2.838 8.619 6.744.352 1.604 1.77 2.746 3.412 2.746h6.928v3.064c-.005 4.615-3.745 8.354-8.36 8.359h-21.2c-4.616-.005-8.355-3.744-8.36-8.359v-3.064h6.928zm49.05-6.989h-22.46C64.38 3.723 58.669 0 52.366 0c-6.305 0-12.014 3.723-14.56 9.488H15.347C6.875 9.498.009 16.365 0 24.836v99.559c.01 8.472 6.875 15.337 15.347 15.348H89.38c8.472-.011 15.338-6.876 15.347-15.348V24.836c-.009-8.47-6.875-15.337-15.347-15.348z"/>
    <path fill="#FD7B92" d="M69.655 64.55L46.72 86.943 35.073 75.575c-1.37-1.34-3.565-1.325-4.917.033-1.352 1.359-1.357 3.555-.01 4.918l.046.048 14.085 13.752c1.359 1.325 3.526 1.325 4.883 0L74.535 69.55c1.372-1.35 1.394-3.553.05-4.93-1.344-1.377-3.548-1.407-4.93-.069v-.002z"/>
</svg>
