<svg xmlns="http://www.w3.org/2000/svg" width="137" height="158" fill="none" viewBox="0 0 137 158">
    <path fill="#E7B4F1" d="M115.731 9.747c0 2.939-.117 6.023.087 9.085.048.728 1.137 1.934 1.812 1.979 3.11.213 6.242.095 9.532.095L115.731 9.747zm-8.015 105.897c-6.045 0-11.845.002-17.646 0-11.434-.002-22.868-.008-34.302-.006-3.168.001-5.87-1.088-7.33-3.959-.758-1.492-1.095-3.355-1.1-5.052-.066-26.093-.06-52.187-.015-78.28.002-1.57-.361-2.143-2.032-2.096-4.16.119-8.325.035-12.49.041-3.196.004-3.893.715-3.893 3.955v97.103c0 3.344.679 4.034 3.993 4.034 20.758.002 41.515.002 62.273.002 3.166-.002 6.333.022 9.498-.015 1.855-.021 2.986-.873 3.016-2.493.082-4.326.028-8.655.028-13.234zM23.624 47.448c-.664-.046-1.178-.112-1.693-.113-4.398-.007-8.795-.019-13.192.003-2.675.013-3.455.801-3.455 3.484-.005 32.716-.006 65.432 0 98.148.002 2.558.839 3.416 3.348 3.416 24.039.005 48.078.001 72.116-.008 2.476-.002 3.327-.895 3.336-3.436.013-3.402-.083-6.806.056-10.2.07-1.738-.517-2.127-2.176-2.122-16.476.06-32.95.042-49.426.034-5.756-.003-8.908-3.148-8.911-8.923-.01-25.973-.003-51.947-.003-77.92v-2.363zM110.355 5.37c-.608-.043-.895-.082-1.181-.082-17.83-.001-35.66-.005-53.49.01-2.232.001-3.13.966-3.13 3.289-.007 32.787-.011 65.572-.007 98.357 0 2.519.856 3.376 3.397 3.392 3.988.026 7.977-.001 11.965 0 19.942.002 39.882.008 59.823.004 2.774-.001 3.623-.769 3.624-3.324.01-26.333-.005-52.668.036-79.001.003-1.448-.505-1.776-1.829-1.75-3.636.077-7.273.051-10.909.034-3.176-.016-5.835-1.217-7.228-4.123-.727-1.516-.96-3.369-1.026-5.085-.144-3.853-.045-7.717-.045-11.721zm-86.73 36.652c0-4.303-.008-8.282 0-12.263.012-5.516 3.216-8.719 8.747-8.739 4.282-.016 8.564-.013 12.846-.02h2.075c0-4.337-.142-8.44.067-12.524.09-1.734.616-3.601 1.472-5.108C50.128 1.091 52.434.023 55.06.02 74.24-.009 93.42-.011 112.6.044c.84.003 1.886.435 2.484 1.024 6.896 6.79 13.752 13.619 20.523 20.532.671.686.979 2.002.984 3.027.061 14.897.044 29.796.044 44.695 0 12.493.004 24.988-.005 37.481-.004 5.705-3.09 8.796-8.816 8.829-4.224.024-8.447.016-12.67.023h-2.125v9.648c-.001 1.115.017 2.229-.007 3.344-.097 4.536-3.364 7.901-7.896 7.985-4.514.084-9.032.032-13.55.04h-2.093c-.04.764-.1 1.38-.103 1.995-.015 3.579.014 7.157-.03 10.735-.06 4.981-3.35 8.265-8.312 8.268-24.225.013-48.45.012-72.674 0-4.998-.003-8.344-3.275-8.346-8.232-.014-33.083-.01-66.164.014-99.247.002-4.87 3.24-8.05 8.253-8.133 4.397-.074 8.797-.03 13.197-.036.633-.002 1.267 0 2.152 0"/>
    <path fill="#E7B4F1" d="M98.528 76.22c-7.912 0-15.825.002-23.737-.003-.583-.001-1.183.007-1.748-.115-1.314-.284-2.038-1.161-2.032-2.496.004-1.313.677-2.25 1.99-2.548.675-.153 1.395-.145 2.095-.145 15.708 0 31.416.007 47.123.02.585 0 1.184-.015 1.75.102 1.39.29 2.139 1.206 2.128 2.612-.01 1.346-.773 2.191-2.084 2.451-.624.124-1.281.115-1.924.116-7.853.007-15.708.004-23.56.005zM98.6 44.713H75.04c-.468 0-.94.023-1.406-.016-1.598-.13-2.678-1.258-2.64-2.722.037-1.413 1.066-2.47 2.62-2.537 1.638-.07 3.282-.03 4.922-.03 14.593 0 29.186.005 43.78.009.468 0 .945-.04 1.404.035 1.453.237 2.368 1.08 2.369 2.587.003 1.505-.905 2.358-2.351 2.618-.456.083-.934.041-1.402.041-7.912.003-15.824.002-23.736.002v.013zM90.493 34.148c-5.455 0-10.91.012-16.364-.007-1.975-.008-3.107-.97-3.13-2.562-.026-1.65 1.166-2.682 3.197-2.686 7.273-.014 14.546-.006 21.818-.006 3.638 0 7.274-.008 10.911.004 2.176.006 3.408.989 3.395 2.668-.012 1.676-1.207 2.584-3.463 2.586-5.455.008-10.91.003-16.364.003zM89.273 65.707H75.397c-.41 0-.82.008-1.23-.005-2.072-.07-3.217-1.055-3.162-2.716.053-1.598 1.157-2.526 3.144-2.542 3.864-.03 7.728-.025 11.593-.024 6.03.002 12.06.01 18.091.016.41 0 .822-.014 1.229.019 1.555.128 2.6 1.125 2.659 2.514.06 1.452-.988 2.596-2.642 2.698-1.517.092-3.042.037-4.565.038-3.746.003-7.495.002-11.241.002zM88.106 18.375c4.628 0 9.254-.019 13.882.01 1.927.011 3.063 1.035 3.068 2.629.006 1.609-1.104 2.602-3.062 2.614-4.628.028-9.256.011-13.883.011-4.687 0-9.372.021-14.059-.012-2.218-.016-3.481-1.456-2.962-3.301.445-1.582 1.657-1.962 3.133-1.958 4.628.016 9.256.007 13.883.007zM108.97 81.443c3.812 0 7.626-.04 11.438.015 2.302.035 3.612 1.661 2.922 3.492-.473 1.259-1.468 1.784-2.754 1.785-7.684.008-15.367.026-23.05-.013-1.81-.01-2.884-1.088-2.893-2.636-.01-1.553 1.037-2.577 2.9-2.604 3.812-.055 7.625-.016 11.437-.016v-.023zM112.83 55.214c-3.16-.002-6.319.008-9.477-.004-2.198-.011-3.44-.954-3.48-2.598-.038-1.676 1.181-2.66 3.378-2.664 6.554-.013 13.107-.018 19.659-.01 1.993.002 3.124.908 3.193 2.48.072 1.662-1.086 2.761-3.094 2.785-3.392.041-6.786.01-10.179.01zM82.789 55.212c-2.807 0-5.615.012-8.421-.004-2.187-.013-3.384-.986-3.368-2.689.016-1.663 1.134-2.565 3.269-2.57 5.673-.014 11.347-.014 17.02 0 2.108.006 3.267.94 3.287 2.574.02 1.703-1.183 2.687-3.366 2.7-2.806.019-5.614.005-8.421.005v-.016zM80.058 86.74c-2.046 0-4.094.041-6.138-.012-1.806-.046-2.896-1.072-2.918-2.601-.022-1.533 1.05-2.619 2.864-2.641 4.21-.055 8.422-.06 12.63.005 1.789.026 2.878 1.165 2.836 2.678-.042 1.5-1.171 2.535-2.959 2.578-2.104.05-4.21.012-6.315.012v-.019zM61.725 86.788c-.527-.028-1.063 0-1.577-.091-1.458-.266-2.324-1.165-2.315-2.65.008-1.422.875-2.297 2.26-2.488.979-.136 1.992-.133 2.98-.061 1.592.113 2.575 1.146 2.581 2.565.006 1.403-.996 2.477-2.524 2.66-.46.055-.936.01-1.404.01v.055zM61.751 34.14c-2.668.014-3.957-.833-3.95-2.588.009-1.776 1.323-2.676 3.914-2.678.408 0 .816-.016 1.223.01 1.614.105 2.686 1.148 2.706 2.617.022 1.471-1.032 2.516-2.672 2.635-.405.03-.814.004-1.22.004zM61.685 49.95c.408 0 .816-.02 1.223.003 1.664.1 2.728 1.096 2.752 2.56.025 1.53-1.078 2.61-2.808 2.7-.755.04-1.516.039-2.27-.014-1.718-.12-2.829-1.244-2.77-2.75.057-1.433 1.15-2.405 2.825-2.498.348-.02.699-.002 1.048-.002zM61.722 44.724c-.584-.028-1.195.039-1.75-.105-1.322-.343-2.177-1.2-2.145-2.627.03-1.425.903-2.287 2.259-2.51.914-.149 1.872-.091 2.806-.051 1.662.072 2.74 1.114 2.754 2.59.013 1.464-1.071 2.547-2.694 2.667-.408.03-.82.004-1.229.004l-.001.032zM61.728 23.597c-.527 0-1.061.064-1.577-.012-1.39-.205-2.259-1.03-2.316-2.442-.062-1.498.778-2.448 2.246-2.672.916-.14 1.87-.104 2.803-.06 1.699.082 2.733 1.082 2.755 2.573.021 1.499-1.01 2.521-2.682 2.641-.408.028-.82.003-1.229.003v-.03zM61.803 60.394c.584.04 1.181.014 1.75.132 1.322.272 2.032 1.158 2.066 2.48.034 1.328-.627 2.324-1.956 2.538-1.143.186-2.344.194-3.497.072-1.462-.154-2.374-1.07-2.344-2.586.027-1.496.93-2.358 2.398-2.564.517-.074 1.053-.012 1.581-.012l.002-.06zM61.776 70.88c.664.061 1.492-.111 1.901.228.78.645 1.8 1.565 1.825 2.398.026.826-.897 2.164-1.684 2.42-1.26.411-2.844.41-4.109.008-.804-.253-1.77-1.552-1.763-2.373.008-.832 1.012-1.796 1.799-2.425.459-.367 1.35-.191 2.03-.256zM60.453 105.078c-1.426.008-2.606-1.12-2.643-2.524-.04-1.466 1.192-2.694 2.676-2.668 1.421.025 2.545 1.18 2.54 2.612-.005 1.432-1.143 2.572-2.573 2.58zM70.962 99.88c1.456.007 2.684 1.268 2.628 2.699-.052 1.373-1.254 2.52-2.64 2.523-1.468.002-2.667-1.239-2.612-2.704.053-1.394 1.23-2.524 2.624-2.518zM84.081 102.523c-.022 1.416-1.181 2.547-2.613 2.553-1.433.006-2.579-1.117-2.6-2.55-.023-1.507 1.185-2.694 2.685-2.638 1.43.054 2.551 1.223 2.528 2.635zM14.518 60.408c.584.036 1.181.002 1.748.121 1.315.275 2.037 1.155 2.072 2.475.036 1.325-.64 2.306-1.96 2.538-1.082.191-2.219.192-3.319.107-1.592-.121-2.538-1.181-2.521-2.612.016-1.432 1.001-2.43 2.573-2.575.464-.042.936-.006 1.405-.006l.002-.048zM14.398 107.708c-.524 0-1.059.069-1.57-.013-1.371-.223-2.225-1.027-2.275-2.452-.051-1.494.75-2.463 2.2-2.694 1.025-.162 2.097-.14 3.136-.058 1.509.12 2.489 1.242 2.468 2.656-.022 1.42-1.011 2.424-2.563 2.565-.461.043-.93.007-1.396.007v-.011zM14.437 97.277c-.641-.048-1.304-.009-1.919-.162-1.293-.322-1.984-1.22-1.97-2.555.013-1.257.665-2.192 1.9-2.407 1.138-.196 2.334-.204 3.492-.113 1.484.115 2.337 1.024 2.406 2.53.066 1.423-.964 2.482-2.502 2.638-.463.047-.935.008-1.404.008-.002.02-.002.04-.003.061zM14.48 81.435c.526.03 1.06.013 1.577.099 1.483.245 2.33 1.148 2.276 2.648-.055 1.488-.95 2.373-2.439 2.512-.93.085-1.879.087-2.808.007-1.545-.132-2.55-1.204-2.564-2.604-.014-1.403.975-2.431 2.553-2.606.463-.052.937-.008 1.405-.008v-.048zM14.406 70.98c.526 0 1.062-.06 1.58.01 1.481.205 2.354 1.085 2.364 2.583.01 1.509-.878 2.404-2.355 2.582-.925.112-1.879.116-2.808.036-1.693-.146-2.7-1.224-2.65-2.7.049-1.46 1.111-2.428 2.813-2.55.35-.023.704-.002 1.056-.002v.04zM14.486 118.246c-.469 0-.941.038-1.405-.006-1.527-.148-2.555-1.222-2.55-2.622.003-1.389 1.042-2.489 2.558-2.617.815-.069 1.643-.055 2.46-.015 1.723.083 2.859 1.207 2.807 2.728-.05 1.464-1.136 2.45-2.815 2.539-.35.019-.703.003-1.055.003v-.01zM14.508 128.775c-.469 0-.94.036-1.406-.007-1.524-.138-2.555-1.2-2.57-2.606-.014-1.416.991-2.483 2.546-2.61.814-.068 1.641-.052 2.461-.016 1.755.078 2.872 1.163 2.828 2.698-.044 1.466-1.14 2.469-2.803 2.552-.35.017-.704.002-1.056.002v-.013zM15.715 144.682c-.08 1.432-1.27 2.508-2.699 2.441-1.433-.067-2.522-1.239-2.48-2.668.044-1.492 1.323-2.652 2.795-2.536 1.419.112 2.464 1.324 2.384 2.763zM38.063 49.948c.465.001.933-.03 1.396.007 1.55.13 2.579 1.14 2.548 2.556-.033 1.588-.935 2.473-2.46 2.664-.861.106-1.747.084-2.616.034-1.705-.096-2.799-1.233-2.73-2.765.062-1.457 1.13-2.408 2.814-2.495.35-.017.699 0 1.048 0zM38.115 107.767c-.582-.027-1.178.023-1.739-.096-1.359-.285-2.17-1.153-2.163-2.561.008-1.395.784-2.33 2.16-2.562.907-.153 1.856-.109 2.784-.07 1.78.074 2.863 1.1 2.867 2.633.003 1.535-1.085 2.539-2.861 2.628-.348.017-.698.001-1.047.001l-.001.027zM38.242 60.388c.639.06 1.304.028 1.911.204 1.197.345 1.843 1.208 1.845 2.472.003 1.268-.622 2.208-1.85 2.438-1.132.215-2.331.228-3.487.142-1.555-.116-2.512-1.247-2.461-2.666.049-1.408 1.07-2.397 2.633-2.521.465-.037.936-.005 1.404-.005.003-.022.004-.043.005-.064zM38 97.257c-.525-.026-1.06.006-1.574-.084-1.4-.25-2.187-1.139-2.208-2.539-.021-1.412.753-2.359 2.157-2.557 1.034-.145 2.108-.143 3.151-.05 1.593.142 2.513 1.192 2.477 2.643-.034 1.445-1 2.404-2.597 2.546-.465.04-.936.006-1.404.006l-.001.035zM37.995 86.769c-.527-.031-1.06-.014-1.576-.103-1.408-.245-2.188-1.139-2.214-2.537-.026-1.418.762-2.36 2.159-2.567 1.033-.153 2.11-.153 3.152-.059 1.585.145 2.523 1.218 2.49 2.65-.034 1.426-1.011 2.403-2.605 2.56-.464.047-.936.008-1.405.008l-.001.047zM38.109 76.265c-.639-.059-1.295-.047-1.913-.193-1.304-.31-2.007-1.208-1.98-2.535.026-1.316.738-2.253 2.052-2.48.969-.168 1.984-.152 2.973-.1 1.708.088 2.73 1.085 2.764 2.57.033 1.505-.948 2.495-2.664 2.662-.405.04-.819.007-1.228.007l-.004.07zM38.218 39.44c.468 0 .948-.062 1.403.012 1.447.239 2.365 1.062 2.373 2.582.007 1.517-.9 2.39-2.34 2.612-.86.132-1.756.08-2.632.042-1.73-.074-2.864-1.186-2.826-2.708.037-1.458 1.133-2.468 2.793-2.557.408-.021.82-.003 1.23-.003v.02zM49.915 123.574c-.032 1.411-1.2 2.555-2.61 2.556-1.482.003-2.657-1.241-2.591-2.743.062-1.432 1.238-2.505 2.685-2.449 1.436.053 2.548 1.219 2.516 2.636zM36.862 120.933c1.421.042 2.57 1.217 2.552 2.606-.019 1.45-1.312 2.65-2.77 2.572-1.398-.073-2.5-1.29-2.446-2.702.053-1.416 1.24-2.519 2.664-2.476z"/>
</svg>
