<svg xmlns="http://www.w3.org/2000/svg" width="157" height="127" fill="none" viewBox="0 0 157 127">
    <path fill="#FD7B92" d="M129.982 118.28c1.704-.028 3.026-1.396 3.016-3.119-.012-1.73-1.338-3.057-3.062-3.064-1.768-.006-3.198 1.45-3.133 3.19.064 1.68 1.489 3.021 3.179 2.993zm-42.7-99.545c3.665-.03 6.773-3.112 6.737-6.684-.036-3.543-3.261-6.615-6.885-6.558-3.658.058-6.748 3.144-6.728 6.72.018 3.563 3.169 6.551 6.875 6.522zM75.218 63.077c-.075-3.932-3.107-6.934-6.912-6.845-3.767.087-6.684 3.25-6.616 7.176.061 3.481 3.24 6.439 6.867 6.387 3.742-.054 6.73-3.068 6.66-6.718zm-63.181-44.33c3.75-.016 6.776-3.068 6.758-6.819-.018-3.725-3.12-6.8-6.834-6.775-3.72.026-6.786 3.131-6.766 6.851.02 3.739 3.084 6.757 6.842 6.743zm45.134 95.009c0-3.765-3.01-6.801-6.757-6.817-3.93-.018-6.881 3.084-6.88 7.226.001 3.798 2.964 6.784 6.745 6.799 3.944.015 6.892-3.068 6.892-7.208zm75.752-24.137h16.272c-.853-1.227-1.541-2.32-2.333-3.33-1.127-1.438-1.18-2.79-.028-4.252.816-1.036 1.504-2.173 2.377-3.454h-16.288v11.036zM56.53 61.735c1.92-7.002 5.978-10.592 11.924-10.618 6.06-.028 10.02 3.432 12.105 10.69h1.553c10.536 0 21.074.016 31.61-.008 12.254-.028 21.885-8.73 23.193-20.918 1.267-11.808-7.583-23.32-19.457-24.616-5.987-.653-12.084-.3-18.131-.34-.375-.002-.91.487-1.107.882-2.281 4.574-5.91 7.126-11.057 7.112-5.077-.018-8.65-2.56-10.948-7.05-.24-.468-1.015-.942-1.543-.944-16.696-.05-33.393-.029-50.09-.069-1.076-.003-1.464.475-1.88 1.327-2.492 5.126-7.982 7.712-13.514 6.425C3.874 22.372.034 17.56 0 12.095-.037 5.853 4.5.845 10.886.076c5.734-.69 11.418 3.39 12.708 9.239.233 1.06.584 1.401 1.66 1.398 16.265-.03 32.529-.02 48.793-.026.373 0 .747-.046 1.212-.078.104-.425.208-.834.301-1.245C76.786 3.957 81.588.074 87.124.012c5.483-.06 10.467 3.785 11.66 9.19.276 1.249.75 1.509 1.904 1.513 5.508.02 11.038-.15 16.522.256 12.674.934 23.66 12.02 24.837 24.716 1.404 15.148-8.136 27.942-23.06 30.83-1.789.346-3.649.454-5.477.46-10.699.042-21.398.036-32.096-.002-1.144-.004-1.778.23-2.347 1.37-2.173 4.347-5.843 6.648-10.668 6.655-4.823.007-8.493-2.283-10.69-6.62-.555-1.096-1.14-1.42-2.322-1.41-7.348.058-14.697.003-22.045.033-12.267.053-22.162 9.57-22.738 21.828-.572 12.182 8.49 22.71 20.644 23.857 2.35.221 4.738.031 7.22.031.535-3.39 2.056-6.22 4.84-8.275 2.156-1.589 4.596-2.372 7.27-2.337 5.844.077 9.916 3.745 11.794 10.684h1.559c18.912 0 37.824-.007 56.736.016 1.064.001 1.623-.274 2.24-1.284.839-1.374 2.067-2.642 3.408-3.531 1.013-.673 1.343-1.252 1.339-2.4-.04-10.268-.023-20.535-.023-30.803l-.001-.648c0-2.558.648-3.658 2.269-3.846 1.544-.182 2.415.658 3.163 3.16h1.697c6.323 0 12.645-.05 18.965.057.935.016 2.102.57 2.722 1.267.845.95.316 2.114-.399 3.106-1.169 1.622-2.201 3.348-3.456 4.895-.855 1.053-.728 1.787.039 2.784 1.217 1.581 2.265 3.292 3.424 4.919.708.996 1.233 2.162.389 3.11-.624.702-1.791 1.268-2.725 1.283-6.32.11-12.643.057-18.966.057h-1.917c0 4.028-.04 7.903.059 11.772.009.418.764.914 1.27 1.202 3.42 1.934 5.056 5.8 3.99 9.549-1.066 3.741-4.508 6.24-8.416 5.992-3.026-.193-5.334-1.669-6.779-4.335-.439-.806-.871-1.154-1.824-1.153-19.452.029-38.905.029-58.357.001-.907-.001-1.29.331-1.672 1.112-2.198 4.484-5.858 6.919-10.828 6.934-5.044.014-8.744-2.454-10.942-7.007-.408-.848-.872-1.043-1.72-1.032-4.588.053-9.164.159-13.634-1.297-12.364-4.027-20.494-16.168-19.402-29.134 1.083-12.865 10.93-23.46 23.66-25.388 1.647-.249 3.332-.326 5.002-.334 7.294-.034 14.588-.008 21.882-.01.479-.004.956-.048 1.406-.07z"/>
</svg>
