<svg xmlns="http://www.w3.org/2000/svg" width="144" height="166" fill="none" viewBox="0 0 144 166">
    <path fill="#8BCCFD" d="M121.693 10.25c0 3.09-.124 6.333.091 9.554.051.764 1.196 2.031 1.907 2.08 3.27.224 6.564.1 10.021.1-4.101-4.005-8.024-7.836-12.019-11.734zm-8.428 111.353H94.711c-12.024-.003-24.047-.009-36.07-.007-3.33 0-6.17-1.144-7.706-4.164-.799-1.569-1.154-3.528-1.157-5.312-.07-27.437-.062-54.874-.017-82.312.003-1.649-.38-2.253-2.137-2.204-4.375.124-8.753.036-13.132.043-3.36.004-4.093.752-4.093 4.159-.002 34.034-.002 68.07-.002 102.105.002 3.516.714 4.241 4.2 4.243 21.826.002 43.652.001 65.48 0 3.33 0 6.659.025 9.988-.015 1.951-.021 3.139-.919 3.171-2.621.087-4.548.029-9.1.029-13.915zm-88.424-71.71c-.698-.049-1.24-.117-1.78-.118-4.623-.01-9.248-.021-13.872.003-2.812.013-3.633.842-3.633 3.662-.005 34.402-.005 68.804.001 103.206 0 2.689.882 3.592 3.52 3.592 25.278.005 50.555.001 75.832-.01 2.603-.001 3.498-.94 3.507-3.613.015-3.576-.087-7.156.06-10.725.075-1.827-.545-2.236-2.29-2.23-17.323.062-34.647.043-51.971.034-6.054-.002-9.368-3.31-9.37-9.382-.01-27.312-.003-54.622-.003-81.934v-2.484zm91.2-44.246c-.641-.045-.941-.085-1.242-.085-18.748-.003-37.498-.007-56.246.008-2.346.002-3.29 1.017-3.29 3.461-.01 34.475-.014 68.95-.01 103.424.002 2.648.902 3.548 3.574 3.565 4.193.027 8.388 0 12.581.002 20.968.001 41.937.008 62.905.004 2.916 0 3.81-.81 3.811-3.495.009-27.69-.005-55.383.039-83.073.002-1.522-.532-1.867-1.926-1.839-3.821.08-7.646.053-11.47.035-3.34-.015-6.135-1.279-7.602-4.335-.764-1.595-1.009-3.543-1.077-5.347-.152-4.053-.047-8.114-.047-12.325zm-91.2 38.539c0-4.522-.008-8.708.003-12.892.012-5.802 3.381-9.17 9.196-9.19 4.503-.017 9.005-.014 13.508-.02h2.183c0-4.562-.15-8.876.07-13.17.093-1.826.647-3.787 1.548-5.37C52.712 1.147 55.136.023 57.896.02c20.168-.029 40.338-.032 60.505.027.883.003 1.983.457 2.612 1.076 7.251 7.139 14.46 14.32 21.58 21.59.706.722 1.03 2.105 1.034 3.183.066 15.666.048 31.332.048 46.998 0 13.137.002 26.274-.006 39.412-.004 6-3.249 9.249-9.272 9.284-4.44.025-8.881.017-13.321.024h-2.235v10.145c0 1.172.019 2.345-.006 3.516-.103 4.771-3.536 8.308-8.303 8.397-4.748.088-9.499.034-14.246.042h-2.203c-.043.802-.107 1.45-.11 2.098-.014 3.763.015 7.524-.029 11.287-.064 5.239-3.523 8.692-8.741 8.695-25.474.012-50.947.012-76.419 0-5.255-.003-8.773-3.444-8.776-8.658-.015-34.786-.01-69.572.015-104.358.004-5.123 3.406-8.466 8.678-8.554 4.624-.077 9.251-.03 13.878-.037l2.262-.001z"/>
    <path fill="#8BCCFD" d="M103.604 80.147c-8.32 0-16.64.002-24.96-.003-.613-.002-1.244.008-1.837-.12-1.383-.299-2.144-1.222-2.139-2.626.006-1.38.714-2.365 2.094-2.678.71-.162 1.468-.155 2.204-.155 16.516 0 33.033.01 49.55.023.614 0 1.244-.016 1.84.108 1.46.304 2.248 1.267 2.238 2.746-.011 1.415-.812 2.305-2.191 2.578-.657.13-1.348.12-2.024.121-8.259.007-16.516.004-24.775.005zM103.68 47.017H78.907c-.494 0-.99.024-1.479-.016-1.68-.138-2.817-1.321-2.776-2.862.039-1.486 1.12-2.598 2.755-2.668 1.722-.074 3.45-.034 5.176-.032 15.345 0 30.689.005 46.034.01.494 0 .995-.042 1.478.036 1.528.25 2.489 1.135 2.492 2.722.002 1.58-.954 2.477-2.472 2.752-.48.086-.984.044-1.476.044H103.68v.014zM95.156 35.908c-5.736 0-11.472.012-17.208-.008-2.076-.008-3.265-1.02-3.29-2.693-.028-1.735 1.226-2.82 3.36-2.826 7.648-.014 15.296-.005 22.944-.005 3.824-.001 7.648-.01 11.471.004 2.289.007 3.584 1.04 3.571 2.805-.014 1.763-1.268 2.716-3.64 2.72-5.736.01-11.472.003-17.208.003zM93.872 69.093h-14.59c-.431 0-.863.009-1.294-.006-2.178-.073-3.382-1.109-3.324-2.856.055-1.68 1.216-2.656 3.305-2.672 4.063-.03 8.127-.026 12.19-.025 6.341.001 12.682.01 19.024.017.43 0 .864-.016 1.292.019 1.634.135 2.734 1.184 2.796 2.644.062 1.527-1.039 2.73-2.778 2.836-1.594.099-3.2.04-4.8.041-3.941.003-7.88.002-11.82.002zM92.645 19.322c4.866 0 9.732-.02 14.598.011 2.026.012 3.221 1.088 3.226 2.764.007 1.692-1.16 2.736-3.221 2.75-4.865.029-9.732.01-14.597.01-4.927 0-9.855.023-14.783-.012-2.333-.017-3.66-1.532-3.115-3.472.467-1.663 1.743-2.063 3.295-2.057 4.865.016 9.732.006 14.597.006zM114.585 85.64c4.008 0 8.019-.042 12.027.016 2.42.035 3.797 1.747 3.073 3.672-.499 1.323-1.544 1.875-2.897 1.876-8.079.008-16.158.027-24.236-.013-1.903-.01-3.034-1.145-3.043-2.772-.01-1.633 1.091-2.71 3.049-2.739 4.008-.057 8.019-.016 12.027-.016v-.024zM118.643 58.059c-3.322-.002-6.644.009-9.966-.006-2.31-.009-3.617-1.001-3.657-2.729-.041-1.764 1.241-2.797 3.552-2.803 6.889-.014 13.78-.018 20.669-.01 2.096.002 3.287.954 3.359 2.608.075 1.748-1.143 2.904-3.253 2.929-3.567.043-7.136.01-10.704.01zM87.054 58.057c-2.952 0-5.904.013-8.856-.004-2.298-.014-3.557-1.037-3.54-2.827.016-1.75 1.194-2.698 3.438-2.704 5.965-.013 11.93-.014 17.896.002 2.217.005 3.436.986 3.457 2.705.021 1.79-1.244 2.827-3.539 2.84-2.952.018-5.904.005-8.856.005v-.017zM84.183 91.21c-2.152 0-4.305.042-6.456-.014-1.897-.049-3.044-1.126-3.067-2.736-.023-1.612 1.105-2.752 3.013-2.777 4.426-.056 8.854-.06 13.28.007 1.88.028 3.026 1.225 2.982 2.817-.044 1.577-1.23 2.664-3.112 2.71-2.212.053-4.426.013-6.64.013v-.02zM64.906 91.26c-.553-.028-1.117.001-1.657-.097-1.535-.278-2.446-1.223-2.436-2.786.009-1.494.92-2.414 2.376-2.617 1.029-.141 2.094-.139 3.134-.064 1.674.12 2.708 1.207 2.714 2.699.006 1.474-1.046 2.605-2.652 2.797-.487.057-.986.01-1.478.01l-.001.058zM64.933 35.9c-2.805.014-4.161-.878-4.152-2.723.008-1.866 1.39-2.812 4.115-2.815.428-.001.857-.017 1.285.01 1.698.111 2.826 1.209 2.847 2.751.021 1.548-1.085 2.648-2.81 2.772-.426.031-.857.004-1.285.004zM64.863 52.523c.428 0 .859-.021 1.286.004 1.749.105 2.868 1.153 2.893 2.692.027 1.61-1.132 2.745-2.952 2.84-.793.041-1.595.039-2.387-.016-1.808-.127-2.976-1.308-2.913-2.89.06-1.507 1.21-2.53 2.972-2.629.365-.02.733 0 1.101 0zM64.902 47.029c-.615-.03-1.255.04-1.839-.11-1.39-.362-2.289-1.262-2.257-2.762.033-1.499.95-2.405 2.376-2.639.961-.157 1.968-.098 2.95-.056 1.749.076 2.882 1.174 2.897 2.723.013 1.541-1.127 2.68-2.832 2.805-.43.032-.863.006-1.294.006l-.001.033zM64.909 24.813c-.553 0-1.117.067-1.659-.013-1.461-.215-2.376-1.083-2.436-2.568-.064-1.575.819-2.573 2.363-2.81.964-.147 1.967-.109 2.948-.062 1.785.087 2.875 1.137 2.896 2.705.023 1.576-1.061 2.652-2.82 2.776-.428.03-.861.006-1.292.006v-.034zM64.987 63.505c.614.042 1.243.017 1.84.14 1.39.286 2.138 1.218 2.174 2.607.035 1.395-.66 2.444-2.06 2.67-1.2.194-2.462.202-3.675.076-1.538-.163-2.496-1.126-2.465-2.72.029-1.574.978-2.48 2.522-2.697.544-.077 1.108-.013 1.663-.013l.001-.063zM64.959 74.531c.697.064 1.57-.114 1.998.24.822.679 1.894 1.647 1.92 2.523.027.868-.944 2.275-1.769 2.544-1.327.432-2.992.43-4.323.01-.845-.269-1.86-1.633-1.853-2.497.01-.876 1.064-1.888 1.892-2.55.482-.386 1.419-.2 2.135-.27zM63.568 110.491c-1.499.008-2.739-1.176-2.779-2.653-.043-1.54 1.253-2.832 2.813-2.806 1.495.026 2.676 1.24 2.671 2.747-.005 1.505-1.2 2.704-2.705 2.712zM74.618 105.027c1.532.007 2.823 1.333 2.764 2.837-.056 1.444-1.319 2.65-2.776 2.652-1.544.004-2.805-1.301-2.747-2.842.055-1.466 1.294-2.654 2.76-2.647zM88.413 107.806c-.024 1.488-1.242 2.677-2.748 2.684-1.508.006-2.712-1.175-2.735-2.683-.022-1.583 1.247-2.831 2.824-2.772 1.503.056 2.683 1.285 2.66 2.771zM15.266 63.52c.614.037 1.243.002 1.839.128 1.381.288 2.141 1.214 2.178 2.601.038 1.395-.673 2.427-2.06 2.67-1.137.2-2.334.202-3.491.113-1.674-.128-2.668-1.242-2.651-2.747.017-1.505 1.053-2.556 2.707-2.707.487-.045.983-.006 1.477-.006l.001-.052zM15.14 113.258c-.55 0-1.113.073-1.649-.014-1.443-.234-2.341-1.08-2.393-2.578-.055-1.571.788-2.591 2.314-2.832 1.076-.171 2.204-.148 3.296-.062 1.587.126 2.618 1.306 2.595 2.791-.023 1.495-1.061 2.551-2.693 2.699-.487.045-.98.006-1.47.006v-.01zM15.181 102.289c-.673-.05-1.37-.009-2.017-.169-1.36-.34-2.085-1.284-2.072-2.688.013-1.323.699-2.306 1.997-2.53 1.198-.206 2.455-.216 3.672-.12 1.56.12 2.459 1.078 2.531 2.662.07 1.495-1.013 2.609-2.63 2.773-.489.05-.985.007-1.478.007-.001.023-.001.044-.003.065zM15.227 85.63c.554.032 1.114.016 1.658.105 1.558.257 2.45 1.207 2.393 2.784-.057 1.564-1 2.496-2.564 2.641-.977.09-1.976.09-2.953.007-1.624-.139-2.682-1.265-2.696-2.737-.016-1.475 1.024-2.555 2.684-2.74.486-.055.985-.008 1.477-.008l.001-.051zM15.148 74.636c.555 0 1.117-.062 1.661.012 1.559.215 2.476 1.14 2.486 2.715.01 1.587-.923 2.528-2.476 2.717-.972.118-1.975.122-2.951.038-1.781-.154-2.841-1.287-2.788-2.84.052-1.535 1.168-2.554 2.959-2.68.368-.026.74-.004 1.109-.004v.042zM15.233 124.339c-.494 0-.99.04-1.479-.007-1.604-.156-2.687-1.284-2.681-2.757.004-1.46 1.097-2.618 2.69-2.752.858-.072 1.727-.056 2.587-.015 1.812.087 3.007 1.269 2.952 2.868-.053 1.54-1.195 2.575-2.96 2.669-.37.02-.74.003-1.11.003v-.009zM15.256 135.41c-.494 0-.99.037-1.479-.007-1.602-.146-2.686-1.262-2.701-2.742-.016-1.487 1.041-2.61 2.675-2.744.857-.07 1.728-.054 2.588-.015 1.846.081 3.02 1.223 2.974 2.836-.045 1.543-1.198 2.596-2.947 2.684-.369.017-.74.003-1.11.003v-.015zM16.525 152.136c-.084 1.506-1.335 2.638-2.838 2.567-1.508-.069-2.653-1.301-2.608-2.805.046-1.568 1.391-2.79 2.94-2.667 1.491.117 2.59 1.392 2.506 2.905zM40.025 52.522c.489 0 .981-.033 1.468.007 1.63.136 2.71 1.199 2.68 2.688-.036 1.67-.984 2.6-2.588 2.8-.906.113-1.836.09-2.75.037-1.794-.101-2.942-1.297-2.873-2.908.067-1.533 1.19-2.532 2.961-2.622.366-.02.735-.003 1.102-.002zM40.08 113.32c-.611-.028-1.24.024-1.83-.101-1.428-.3-2.281-1.212-2.272-2.694.007-1.466.823-2.449 2.268-2.693.955-.161 1.955-.115 2.93-.073 1.869.077 3.01 1.156 3.014 2.768.003 1.614-1.141 2.67-3.008 2.764-.367.017-.735.001-1.101.001l-.002.028zM40.213 63.499c.672.064 1.372.03 2.01.215 1.258.364 1.937 1.269 1.94 2.598.002 1.334-.655 2.323-1.946 2.566-1.192.225-2.45.238-3.666.149-1.635-.123-2.642-1.312-2.589-2.804.052-1.481 1.126-2.52 2.77-2.65.49-.04.984-.007 1.476-.007.003-.022.004-.044.005-.067zM39.959 102.268c-.554-.027-1.116.006-1.656-.088-1.472-.262-2.299-1.198-2.322-2.67-.022-1.485.792-2.481 2.27-2.689 1.085-.153 2.216-.15 3.31-.053 1.676.149 2.644 1.254 2.606 2.778-.036 1.52-1.052 2.53-2.73 2.678-.489.044-.985.006-1.477.006l-.001.038zM39.952 91.24c-.553-.033-1.114-.015-1.657-.11-1.48-.256-2.3-1.196-2.328-2.668-.027-1.49.801-2.48 2.27-2.698 1.086-.16 2.22-.16 3.315-.06 1.667.151 2.652 1.28 2.618 2.786-.035 1.499-1.064 2.526-2.738 2.692-.49.048-.985.007-1.478.007l-.002.05zM40.072 80.194c-.672-.061-1.36-.048-2.012-.203-1.372-.325-2.11-1.27-2.082-2.665.028-1.384.777-2.37 2.158-2.608 1.02-.176 2.087-.159 3.127-.105 1.796.093 2.87 1.141 2.906 2.704.036 1.58-.996 2.623-2.8 2.799-.427.04-.862.006-1.292.006l-.005.072zM40.188 41.473c.492 0 .996-.067 1.476.012 1.52.252 2.486 1.116 2.494 2.714.007 1.596-.947 2.515-2.462 2.747-.903.139-1.844.084-2.767.045-1.819-.078-3.01-1.246-2.97-2.848.038-1.533 1.19-2.594 2.935-2.689.431-.023.863-.003 1.294-.003v.022zM52.487 129.94c-.034 1.483-1.263 2.687-2.746 2.69-1.557.001-2.793-1.307-2.724-2.884.067-1.507 1.303-2.635 2.823-2.578 1.51.058 2.68 1.282 2.647 2.772zM38.761 127.163c1.495.045 2.703 1.279 2.684 2.741-.02 1.524-1.38 2.786-2.914 2.704-1.47-.077-2.628-1.357-2.571-2.841.056-1.489 1.304-2.649 2.801-2.604z"/>
</svg>
