<svg xmlns="http://www.w3.org/2000/svg" width="201" height="120" fill="none" viewBox="0 0 201 120">
    <path fill="#FD7B92" d="M42.24 7.739c-19.024 0-34.503 15.477-34.503 34.501 0 19.025 15.479 34.503 34.503 34.503S76.743 61.265 76.743 42.24c0-19.024-15.479-34.501-34.503-34.501zm0 76.742C18.948 84.481 0 65.533 0 42.24 0 18.95 18.948 0 42.24 0s42.24 18.95 42.24 42.24c0 23.293-18.948 42.241-42.24 42.241zM154.239 42.567c-19.024 0-34.503 15.477-34.503 34.503 0 19.024 15.479 34.501 34.503 34.501 19.025 0 34.502-15.477 34.502-34.501 0-19.026-15.477-34.503-34.502-34.503zm0 76.742c-23.292 0-42.24-18.948-42.24-42.24 0-23.291 18.948-42.24 42.24-42.24 23.29 0 42.24 18.949 42.24 42.24 0 23.292-18.95 42.24-42.24 42.24z"/>
    <path fill="#FD7B92" d="M150.587 98.195l-18.88-28.337 10.733-7.151 9.73 14.601 39.132-42.952 9.534 8.686-50.249 55.153zM29.873 63.726l-9.12-9.117 33.854-33.853 9.118 9.117-33.852 33.853z"/>
    <path fill="#FD7B92" d="M54.606 63.726L20.754 29.873l9.12-9.117 33.852 33.853-9.12 9.117z"/>
</svg>
