<svg xmlns="http://www.w3.org/2000/svg" width="187" height="98" fill="none" viewBox="0 0 187 98">
    <path fill="#6ED59F" d="M23.777 35.516c-.258 0-.45-.04-.637-.04H4.054c-.296-.084-.603.087-.687.382-.03.101-.028.21.002.31v30.977c-.093.324.097.663.422.756.108.03.22.03.327.001h18.829c.806 0 .806 0 .806-.846V35.547l.024-.031zm27.51-5.368c.629-3.732 1.265-7.384 1.846-11.035.28-1.291.403-2.613.362-3.934-.322-3.522-1.74-6.73-3.143-9.93-.268-.82-.954-1.433-1.797-1.612-1.34-.403-2.782-.276-4.03.355-.583.244-.94.838-.88 1.467.107 2.934.161 5.868.161 8.802.006.7-.11 1.396-.346 2.056-.314.842-.708 1.651-1.177 2.417-2.417 3.959-4.836 7.932-7.318 11.84-1.078 1.906-2.555 3.556-4.328 4.837-1.146.742-2.298 1.5-3.41 2.282-.244.175-.404.443-.444.74V62.34c0 .477.201.524.613.574.777.08 1.544.24 2.29.474.51.224.991.514 1.425.863 1.211.823 2.648 1.253 4.111 1.232h30.34c.6.005 1.201-.03 1.797-.104 1.492-.154 2.846-.936 3.724-2.152 1.08-1.482 1.217-3.264.21-4.53-.562-.542-1.188-1.015-1.863-1.41.12-.228.297-.42.517-.556 1.808-.449 3.24-1.828 3.755-3.62.518-1.34.1-2.86-1.032-3.748-.575-.376-1.178-.707-1.805-.991.187-.28.43-.517.718-.693 1.268-.299 2.367-1.083 3.063-2.184 1.556-2.361.975-4.837-1.613-5.755-.198-.075-.352-.235-.418-.436-.043-.327.188-.626.515-.668l.017-.001c2.07-.482 3.609-2.217 3.845-4.329.382-1.499-.356-3.06-1.758-3.715-.712-.283-1.474-.427-2.241-.42H51.294l-.007-.023zM80.474 34.5c-.124.516-.289 1.019-.493 1.508-.451.886-.99 1.733-1.459 2.612-.158.236-.222.524-.176.805 1.191 2.99.515 5.643-1.323 8.15-.263.255-.336.649-.185.982 1.12 2.732.5 5.248-1.048 7.61-.408.483-.55 1.138-.378 1.747.74 3.055.29 5.958-2.016 8.376-1.084 1.122-2.493 1.872-4.03 2.144-1.362.272-2.746.42-4.135.443H34.603c-1.852-.039-3.65-.625-5.168-1.684-.432-.342-.989-.482-1.53-.387 0 .508-.058.992-.122 1.475-.155 1.553-1.402 2.773-2.958 2.894-.234.012-.468.012-.701 0H3.738c-1.9.156-3.564-1.257-3.72-3.156-.007-.074-.01-.148-.011-.221v-31.88c-.129-1.98 1.375-3.69 3.356-3.817.14-.009.276-.009.415-.003h23.013c.543.069 1.08.17 1.61.308.273.071.56.035.807-.097.844-.817 1.628-1.694 2.346-2.621 3.13-4.364 5.926-8.959 8.368-13.743.43-.785.639-1.675.603-2.571-.105-2.65-.105-5.311-.202-7.963-.12-1.735.795-3.378 2.33-4.191 2.938-1.688 6.593-1.485 9.326.515.648.586 1.14 1.323 1.435 2.144.991 2.419 1.935 4.893 2.773 7.383.855 2.71.971 5.597.338 8.367-.42 2.12-.725 4.264-1.088 6.392-.121.726-.097.806.645.806h17.418c1.408-.067 2.804.264 4.03.959 1.37.87 2.336 2.251 2.684 3.837.064.25.145.491.218.733v2.185l.04-.04zM162.872 62.566c.259 0 .451.04.636.04h19.087c.296.084.604-.088.687-.382.029-.102.029-.21-.001-.31V30.935c.091-.324-.097-.663-.423-.754-.107-.031-.219-.031-.327-.003h-18.829c-.806 0-.806 0-.806.847V62.534l-.024.032zm-27.51 5.368c-.628 3.733-1.264 7.383-1.845 11.034-.281 1.292-.403 2.613-.363 3.934.323 3.523 1.741 6.73 3.143 9.93.269.82.954 1.433 1.798 1.613 1.339.403 2.782.276 4.03-.356.582-.243.938-.838.878-1.466-.108-2.934-.161-5.868-.161-8.802-.005-.7.112-1.396.348-2.056.313-.841.707-1.652 1.176-2.418 2.418-3.958 4.836-7.931 7.318-11.84 1.078-1.906 2.555-3.556 4.329-4.837 1.145-.74 2.296-1.499 3.409-2.281.244-.175.404-.444.443-.74V35.74c0-.476-.2-.524-.612-.573-.777-.08-1.544-.239-2.289-.475-.512-.222-.992-.514-1.426-.863-1.211-.823-2.647-1.253-4.112-1.232h-30.338c-.602-.004-1.202.03-1.798.105-1.492.153-2.846.936-3.724 2.151-1.079 1.485-1.217 3.264-.209 4.53.562.542 1.187 1.016 1.862 1.41-.119.229-.298.421-.516.557-1.809.448-3.241 1.83-3.757 3.62-.518 1.339-.099 2.86 1.033 3.747.575.376 1.178.708 1.805.992-.186.28-.431.516-.718.693-1.268.298-2.368 1.082-3.062 2.184-1.556 2.362-.975 4.836 1.612 5.755.199.074.353.234.418.436.042.327-.188.625-.515.667l-.016.002c-2.07.482-3.609 2.217-3.845 4.328-.382 1.5.355 3.06 1.757 3.715.712.285 1.474.427 2.241.42h21.699l.007.024zm-29.186-4.353c.124-.515.288-1.018.491-1.507.452-.886.991-1.733 1.459-2.611.16-.236.224-.526.178-.806-1.194-2.991-.516-5.643 1.322-8.15.263-.255.336-.648.186-.982-1.122-2.733-.501-5.249 1.048-7.61.407-.483.549-1.139.378-1.748-.741-3.055-.29-5.958 2.015-8.375 1.083-1.123 2.494-1.873 4.03-2.144 1.362-.272 2.746-.42 4.135-.444h30.629c1.851.04 3.649.626 5.166 1.684.433.342.99.483 1.532.387 0-.508.057-.991.121-1.473.155-1.555 1.402-2.773 2.958-2.894.234-.014.467-.014.702 0h20.384c1.898-.157 3.565 1.255 3.721 3.155.006.073.009.148.011.22v31.88c.127 1.981-1.375 3.69-3.357 3.818-.139.009-.278.009-.415.003h-23.012c-.544-.07-1.083-.17-1.613-.308-.27-.07-.558-.036-.805.097-.843.818-1.627 1.693-2.346 2.62-3.129 4.365-5.926 8.96-8.367 13.743-.43.786-.639 1.676-.605 2.572.106 2.651.106 5.31.202 7.963.121 1.735-.793 3.377-2.33 4.19-2.937 1.688-6.592 1.485-9.324-.514-.648-.587-1.141-1.323-1.435-2.144-.992-2.42-1.935-4.893-2.773-7.384-.856-2.709-.972-5.596-.339-8.366.42-2.12.726-4.265 1.088-6.392.121-.726.098-.807-.645-.807h-17.419c-1.406.068-2.804-.264-4.028-.958-1.371-.87-2.338-2.252-2.685-3.838-.064-.249-.145-.49-.218-.733v-2.184l-.04.04z"/>
</svg>
